<?xml version="1.0" standalone="no"?>
<!DOCTYPE svg PUBLIC "-//W3C//DTD SVG 1.1//EN" "http://www.w3.org/Graphics/SVG/1.1/DTD/svg11.dtd" >
<svg xmlns="http://www.w3.org/2000/svg" xmlns:xlink="http://www.w3.org/1999/xlink" version="1.1">
<metadata>
Created by FontForge 20201107 at Fri Sep 15 19:42:56 2017
 By Unknown
\(c\) 2016 Typodermic Fonts Inc.
</metadata>
<defs>
<font id="ConthraxRg-Regular" horiz-adv-x="786" >
  <font-face 
    font-family="Conthrax Rg"
    font-weight="400"
    font-stretch="normal"
    units-per-em="1000"
    panose-1="2 11 6 7 2 2 1 8 2 4"
    ascent="800"
    descent="-200"
    x-height="541"
    cap-height="700"
    bbox="-694 -272 1721 1115"
    underline-thickness="50"
    underline-position="-150"
    stemh="116"
    stemv="125"
    unicode-range="U+0017-25CF"
  />
<missing-glyph horiz-adv-x="928" 
d="M331 832h266c201 0 277 -72 277 -264v-494c0 -192 -76 -264 -277 -264h-266c-201 0 -277 72 -277 264v494c0 192 76 264 277 264zM330 71v-100c0 -20 10 -30 29 -30h131c19 0 29 10 29 30v100c0 20 -10 30 -29 30h-131c-19 0 -29 -10 -29 -30zM201 646v-111
c0 -20 10 -30 29 -30h325c13 0 16 -4 16 -24c0 -18 -2 -27 -12 -33l-168 -96c-30 -18 -37 -38 -37 -89c0 -64 11 -82 42 -82h56c29 0 37 7 40 34c3 28 5 40 18 47l162 82c63 32 92 67 92 172c0 96 -24 160 -138 160h-396c-19 0 -29 -10 -29 -30z" />
    <glyph glyph-name=".notdef" horiz-adv-x="928" 
d="M331 832h266c201 0 277 -72 277 -264v-494c0 -192 -76 -264 -277 -264h-266c-201 0 -277 72 -277 264v494c0 192 76 264 277 264zM330 71v-100c0 -20 10 -30 29 -30h131c19 0 29 10 29 30v100c0 20 -10 30 -29 30h-131c-19 0 -29 -10 -29 -30zM201 646v-111
c0 -20 10 -30 29 -30h325c13 0 16 -4 16 -24c0 -18 -2 -27 -12 -33l-168 -96c-30 -18 -37 -38 -37 -89c0 -64 11 -82 42 -82h56c29 0 37 7 40 34c3 28 5 40 18 47l162 82c63 32 92 67 92 172c0 96 -24 160 -138 160h-396c-19 0 -29 -10 -29 -30z" />
    <glyph glyph-name="uni0017" horiz-adv-x="331" 
 />
    <glyph glyph-name="space" unicode=" " horiz-adv-x="331" 
 />
    <glyph glyph-name="exclam" unicode="!" horiz-adv-x="244" 
d="M75 735h94c13 0 19 -6 19 -19l-24 -458c-1 -12 -6 -18 -18 -18h-48c-12 0 -17 6 -18 18l-23 458c-1 13 6 19 18 19zM82 130h80c12 0 18 -6 18 -18v-94c0 -12 -6 -18 -18 -18h-80c-12 0 -18 6 -18 18v94c0 12 6 18 18 18z" />
    <glyph glyph-name="quotedbl" unicode="&#x22;" horiz-adv-x="450" 
d="M280 750h89c12 0 17 -8 16 -22l-20 -251c-1 -14 -6 -18 -18 -18h-45c-12 0 -17 4 -18 18l-20 251c-1 14 4 22 16 22zM81 750h89c12 0 17 -8 16 -22l-20 -251c-1 -14 -6 -18 -18 -18h-45c-12 0 -17 4 -18 18l-20 251c-1 14 4 22 16 22z" />
    <glyph glyph-name="numbersign" unicode="#" horiz-adv-x="850" 
d="M77 530h144v155c0 10 5 15 15 15h50c10 0 15 -5 15 -15v-155h250v155c0 10 5 15 15 15h49c10 0 15 -5 15 -15v-155h143c10 0 15 -5 15 -15v-50c0 -10 -5 -15 -15 -15h-143v-200h143c10 0 15 -5 15 -15v-50c0 -10 -5 -15 -15 -15h-143v-155c0 -10 -5 -15 -15 -15h-49
c-10 0 -15 5 -15 15v155h-250v-155c0 -10 -5 -15 -15 -15h-50c-10 0 -15 5 -15 15v155h-144c-10 0 -15 5 -15 15v50c0 10 5 15 15 15h144v200h-144c-10 0 -15 5 -15 15v50c0 10 5 15 15 15zM301 450v-200h250v200h-250z" />
    <glyph glyph-name="dollar" unicode="$" horiz-adv-x="813" 
d="M393 760h38c10 0 15 -5 15 -15v-78h276c10 0 15 -5 15 -17v-67c0 -11 -5 -17 -15 -17h-276v-163h163c107 0 152 -52 152 -152v-59c0 -91 -39 -154 -153 -154h-162v-83c0 -10 -5 -15 -15 -15h-38c-10 0 -15 5 -15 15v83h-299c-10 0 -15 5 -15 17v67c0 11 5 17 15 17h299
v179h-163c-105 0 -151 51 -151 150v46c0 91 38 153 151 153h163v78c0 10 5 15 15 15zM579 318h-133v-179h132c49 0 67 27 67 70v40c0 46 -20 69 -66 69zM180 469c0 -43 20 -66 66 -66h132v163h-132c-49 0 -66 -27 -66 -69v-28z" />
    <glyph glyph-name="percent" unicode="%" horiz-adv-x="1135" 
d="M819 700h52c9 0 12 -9 6 -16l-537 -675c-5 -6 -11 -9 -23 -9h-51c-9 0 -12 9 -6 16l537 675c4 6 10 9 22 9zM796 385h125c111 0 153 -40 153 -145v-95c0 -105 -42 -145 -153 -145h-125c-110 0 -152 40 -152 145v95c0 105 42 145 152 145zM718 234v-83
c0 -64 19 -84 82 -84h118c63 0 82 20 82 84v83c0 64 -19 84 -82 84h-118c-63 0 -82 -20 -82 -84zM213 700h125c111 0 153 -40 153 -145v-95c0 -105 -42 -145 -153 -145h-125c-110 0 -152 40 -152 145v95c0 105 42 145 152 145zM135 549v-83c0 -64 19 -84 82 -84h118
c63 0 82 20 82 84v83c0 64 -19 84 -82 84h-118c-63 0 -82 -20 -82 -84z" />
    <glyph glyph-name="ampersand" unicode="&#x26;" horiz-adv-x="870" 
d="M237 765h245c72 0 105 -44 105 -102v-78c0 -78 -15 -110 -78 -142l-95 -47l146 -125l143 170c6 7 11 11 25 11h78c17 0 22 -14 12 -26l-183 -220l213 -182c8 -8 4 -24 -9 -24h-101c-13 0 -19 3 -26 10l-139 122l-46 -56c-51 -62 -82 -76 -171 -76h-183
c-80 0 -130 44 -130 143v57c0 72 27 121 96 156l113 57l-61 54c-43 38 -53 64 -53 117v60c0 74 30 121 99 121zM352 98c51 0 69 8 97 42l49 58l-175 153l-107 -53c-37 -18 -56 -52 -56 -94v-34c0 -52 25 -72 64 -72h128zM252 576c0 -31 4 -44 28 -64l62 -54l98 49
c33 17 41 33 41 69v45c0 29 -16 47 -47 47h-139c-29 0 -43 -20 -43 -56v-36z" />
    <glyph glyph-name="quotesingle" unicode="'" horiz-adv-x="251" 
d="M81 750h89c12 0 17 -8 16 -22l-20 -251c-1 -14 -6 -18 -18 -18h-45c-12 0 -17 4 -18 18l-20 251c-1 14 4 22 16 22z" />
    <glyph glyph-name="parenleft" unicode="(" horiz-adv-x="454" 
d="M375 896h25c7 0 10 -4 10 -12v-56c0 -8 -3 -11 -10 -11h-25c-103 0 -156 -68 -156 -293v-373c0 -225 53 -292 156 -292h25c7 0 10 -4 10 -12v-56c0 -8 -3 -11 -10 -11h-25c-163 0 -236 100 -236 371v373c0 271 73 372 236 372z" />
    <glyph glyph-name="parenright" unicode=")" horiz-adv-x="454" 
d="M79 -220h-25c-7 0 -10 4 -10 12v56c0 8 3 11 10 11h25c103 0 156 68 156 293v373c0 225 -53 292 -156 292h-25c-7 0 -10 4 -10 12v56c0 8 3 11 10 11h25c163 0 236 -100 236 -371v-373c0 -271 -73 -372 -236 -372z" />
    <glyph glyph-name="asterisk" unicode="*" horiz-adv-x="582" 
d="M53 592l211 -82l-12 227c-1 8 2 13 10 13h59c7 0 10 -5 10 -13l-13 -226l211 81c9 4 14 2 17 -5l17 -56c3 -7 0 -11 -9 -14l-218 -58l142 -175c6 -7 6 -13 0 -17l-47 -34c-7 -5 -12 -4 -17 4l-122 189l-123 -189c-5 -7 -11 -9 -17 -5l-47 34c-6 5 -6 11 0 17l142 175
l-218 58c-9 3 -12 8 -10 15l18 55c2 8 7 10 16 6z" />
    <glyph glyph-name="plus" unicode="+" horiz-adv-x="613" 
d="M281 611h49c10 0 15 -4 15 -15v-206h208c10 0 15 -5 15 -15v-50c0 -10 -5 -15 -15 -15h-208v-207c0 -10 -5 -15 -15 -15h-49c-10 0 -15 5 -15 15v207h-207c-10 0 -15 5 -15 15v50c0 10 5 15 15 15h207v206c0 11 5 15 15 15z" />
    <glyph glyph-name="comma" unicode="," horiz-adv-x="246" 
d="M83 130h80c12 0 18 -6 18 -18v-83c0 -15 -1 -25 -6 -44l-30 -127c-3 -14 -9 -19 -22 -19h-33c-14 0 -17 7 -15 19l22 140h-14c-12 0 -18 6 -18 18v96c0 12 6 18 18 18z" />
    <glyph glyph-name="hyphen" unicode="-" horiz-adv-x="383" 
d="M40 387h303c10 0 15 -5 15 -15v-60c0 -10 -5 -15 -15 -15h-303c-10 0 -15 5 -15 15v60c0 10 5 15 15 15z" />
    <glyph glyph-name="period" unicode="." horiz-adv-x="246" 
d="M83 130h80c12 0 18 -6 18 -18v-94c0 -12 -6 -18 -18 -18h-80c-12 0 -18 6 -18 18v94c0 12 6 18 18 18z" />
    <glyph glyph-name="slash" unicode="/" horiz-adv-x="401" 
d="M323 815h57c9 0 14 -6 11 -16l-298 -932c-3 -10 -6 -14 -17 -14h-57c-9 0 -14 6 -11 16l298 932c4 10 6 14 17 14z" />
    <glyph glyph-name="zero" unicode="0" horiz-adv-x="903" 
d="M338 700h228c200 0 277 -72 277 -264v-172c0 -192 -77 -264 -277 -264h-228c-201 0 -277 72 -277 264v172c0 192 76 264 277 264zM181 432v-164c0 -121 38 -159 157 -159h228c119 0 156 38 156 159v164c0 120 -37 159 -156 159h-228c-119 0 -157 -39 -157 -159z" />
    <glyph glyph-name="one" unicode="1" horiz-adv-x="324" 
d="M44 700h127c60 0 85 -25 85 -79v-603c0 -12 -6 -18 -19 -18h-83c-12 0 -18 6 -18 18v549c0 16 -8 24 -24 24h-68c-12 0 -18 6 -18 18v73c0 12 6 18 18 18z" />
    <glyph glyph-name="two" unicode="2" horiz-adv-x="860" 
d="M102 700h534c117 0 168 -64 168 -159v-70c0 -106 -56 -165 -166 -165h-394c-46 0 -66 -23 -66 -71v-102c0 -16 7 -24 24 -24h583c12 0 18 -6 18 -18v-73c0 -12 -6 -18 -18 -18h-643c-60 0 -84 25 -84 79v156c0 107 56 167 166 167h394c46 0 66 23 66 69v50
c0 42 -18 70 -66 70h-516c-13 0 -19 6 -19 18v73c0 12 6 18 19 18z" />
    <glyph glyph-name="three" unicode="3" horiz-adv-x="840" 
d="M70 700h517c136 0 188 -54 188 -162v-49c0 -58 -22 -102 -67 -130c50 -27 71 -71 71 -131v-60c0 -104 -45 -168 -177 -168h-532c-12 0 -18 6 -18 18v72c0 13 6 19 18 19h496c66 0 93 24 93 77v43c0 50 -25 77 -112 77h-471c-12 0 -18 6 -18 19v58c0 13 6 19 18 19h471
c87 0 110 26 110 74v39c0 52 -27 76 -93 76h-494c-12 0 -18 6 -18 19v72c0 12 6 18 18 18z" />
    <glyph glyph-name="four" unicode="4" horiz-adv-x="901" 
d="M73 342l483 332c30 20 48 26 87 26h48c49 0 73 -18 73 -85v-357h89c13 0 19 -6 19 -18v-67c0 -12 -6 -18 -19 -18h-89v-137c0 -12 -6 -18 -18 -18h-84c-12 0 -18 6 -18 18v137h-550c-38 0 -55 21 -55 52v63c0 33 6 53 34 72zM172 265c0 -4 3 -7 8 -7h464v324
c0 6 -3 9 -8 9h-6c-8 0 -13 -2 -22 -8l-429 -296c-5 -4 -7 -8 -7 -15v-7z" />
    <glyph glyph-name="five" unicode="5" horiz-adv-x="860" 
d="M142 700h618c13 0 19 -6 19 -18v-73c0 -12 -6 -18 -19 -18h-558c-17 0 -24 -8 -24 -24v-141c0 -17 7 -24 24 -24h436c110 0 166 -59 166 -165v-79c0 -94 -51 -158 -168 -158h-559c-12 0 -18 6 -18 18v73c0 12 6 18 18 18h541c48 0 66 28 66 70v58c0 46 -20 69 -66 69
h-476c-60 0 -84 25 -84 79v236c0 54 24 79 84 79z" />
    <glyph glyph-name="six" unicode="6" horiz-adv-x="865" 
d="M338 700h423c12 0 18 -6 18 -18v-73c0 -12 -6 -18 -18 -18h-423c-119 0 -157 -39 -157 -159v-30h454c126 0 171 -59 171 -166v-70c0 -106 -48 -166 -176 -166h-292c-201 0 -277 72 -277 264v172c0 192 76 264 277 264zM612 311h-431v-46c0 -121 38 -159 157 -159h273
c55 0 75 23 75 75v55c0 51 -20 75 -74 75z" />
    <glyph glyph-name="seven" unicode="7" horiz-adv-x="826" 
d="M44 700h689c38 0 55 -21 55 -52v-57c0 -37 -8 -54 -33 -81l-448 -494c-10 -12 -18 -16 -36 -16h-112c-13 0 -18 15 -9 24l501 542c6 6 8 11 8 18v6c0 4 -3 7 -7 7h-608c-12 0 -18 6 -18 18v67c0 12 6 18 18 18z" />
    <glyph glyph-name="eight" unicode="8" horiz-adv-x="900" 
d="M253 700h394c136 0 188 -54 188 -162v-49c0 -59 -23 -105 -69 -132c51 -25 74 -68 74 -129v-60c0 -104 -46 -168 -178 -168h-424c-132 0 -177 64 -177 168v60c0 61 22 104 73 129c-47 27 -69 73 -69 132v49c0 108 52 162 188 162zM181 232v-48c0 -53 27 -76 93 -76h352
c66 0 93 23 93 76v48c0 50 -25 78 -112 78h-314c-87 0 -112 -28 -112 -78zM183 513v-40c0 -48 23 -75 110 -75h314c87 0 110 27 110 75v40c0 53 -26 79 -93 79h-348c-66 0 -93 -26 -93 -79z" />
    <glyph glyph-name="nine" unicode="9" horiz-adv-x="865" 
d="M241 700h286c200 0 277 -72 277 -264v-172c0 -192 -77 -264 -277 -264h-427c-13 0 -19 6 -19 18v73c0 12 6 18 19 18h427c119 0 157 38 157 159v33h-449c-121 0 -177 52 -177 160v65c0 117 56 174 183 174zM176 470c0 -51 20 -78 75 -78h433v43c0 121 -38 159 -157 159
h-276c-54 0 -75 -23 -75 -75v-49z" />
    <glyph glyph-name="colon" unicode=":" horiz-adv-x="246" 
d="M83 210h80c12 0 18 -6 18 -18v-94c0 -12 -6 -18 -18 -18h-80c-12 0 -18 6 -18 18v94c0 12 6 18 18 18zM83 509h80c12 0 18 -6 18 -18v-94c0 -12 -6 -18 -18 -18h-80c-12 0 -18 6 -18 18v94c0 12 6 18 18 18z" />
    <glyph glyph-name="semicolon" unicode=";" horiz-adv-x="246" 
d="M83 210h80c12 0 18 -6 18 -18v-83c0 -15 -1 -25 -6 -44l-30 -127c-3 -14 -9 -19 -22 -19h-33c-14 0 -17 7 -15 19l22 140h-14c-12 0 -18 6 -18 18v96c0 12 6 18 18 18zM83 509h80c12 0 18 -6 18 -18v-94c0 -12 -6 -18 -18 -18h-80c-12 0 -18 6 -18 18v94c0 12 6 18 18 18
z" />
    <glyph glyph-name="less" unicode="&#x3c;" horiz-adv-x="613" 
d="M83 428l463 179c12 4 22 -2 22 -14v-49c0 -11 -4 -16 -12 -19l-412 -158c-6 -3 -8 -6 -8 -13v-6c0 -7 2 -10 8 -12l412 -159c8 -3 12 -7 12 -19v-48c0 -13 -10 -19 -22 -14l-463 179c-28 11 -39 24 -39 51v50c0 28 11 41 39 52z" />
    <glyph glyph-name="equal" unicode="=" horiz-adv-x="613" 
d="M59 271h494c10 0 15 -5 15 -15v-50c0 -10 -5 -15 -15 -15h-494c-10 0 -15 5 -15 15v50c0 10 5 15 15 15zM59 510h494c10 0 15 -5 15 -15v-49c0 -10 -5 -15 -15 -15h-494c-10 0 -15 5 -15 15v49c0 10 5 15 15 15z" />
    <glyph glyph-name="greater" unicode="&#x3e;" horiz-adv-x="613" 
d="M529 274l-463 -179c-12 -4 -22 2 -22 14v49c0 11 4 16 12 19l412 158c6 3 8 6 8 13v6c0 7 -2 10 -8 12l-412 159c-8 3 -12 7 -12 19v48c0 13 10 19 22 14l463 -179c28 -11 39 -24 39 -51v-50c0 -28 -11 -41 -39 -52z" />
    <glyph glyph-name="question" unicode="?" horiz-adv-x="630" 
d="M222 130h80c12 0 18 -6 18 -18v-94c0 -12 -6 -18 -18 -18h-80c-12 0 -18 6 -18 18v94c0 12 6 18 18 18zM50 735h412c91 0 133 -46 133 -133v-42c0 -80 -23 -115 -90 -147l-166 -77c-23 -10 -29 -27 -31 -47l-3 -28c-2 -17 -7 -21 -25 -21h-37c-17 0 -23 6 -23 21v47
c0 36 9 66 48 86l169 85c26 13 39 33 39 68v29c0 37 -16 56 -55 56h-371c-12 0 -18 6 -18 18v67c0 12 6 18 18 18z" />
    <glyph glyph-name="at" unicode="@" horiz-adv-x="871" 
d="M242 626h367c135 0 201 -66 201 -197v-224c0 -127 -47 -177 -157 -177h-176c-100 0 -149 47 -149 140v91c0 93 48 139 146 139h246v28c0 77 -39 116 -117 116h-342c-68 0 -102 -38 -102 -112v-389c0 -112 53 -167 159 -167h474c9 0 13 -4 13 -13v-68c0 -9 -4 -13 -13 -13
h-473c-172 0 -258 87 -258 261v397c0 125 60 188 181 188zM628 105c63 0 92 30 92 103v118h-225c-51 0 -76 -26 -76 -79v-64c0 -52 25 -78 77 -78h132z" />
    <glyph glyph-name="A" unicode="A" horiz-adv-x="970" 
d="M455 700h49c43 0 68 -13 96 -63l350 -617c7 -12 4 -20 -10 -20h-102c-10 0 -15 3 -20 11l-79 141h-507l-78 -141c-4 -8 -9 -11 -20 -11h-105c-13 0 -16 8 -10 20l348 617c28 50 53 63 88 63zM470 577l-185 -330h400l-185 330c-4 6 -7 7 -12 7h-6c-5 0 -8 -1 -12 -7z" />
    <glyph glyph-name="B" unicode="B" horiz-adv-x="915" 
d="M99 700h569c136 0 188 -54 188 -162v-49c0 -59 -23 -103 -71 -130c52 -26 76 -70 76 -131v-60c0 -104 -46 -168 -178 -168h-584c-20 0 -30 10 -30 30v640c0 20 10 30 30 30zM626 310h-433v-185c0 -9 4 -13 12 -13h440c66 0 93 24 93 77v43c0 50 -25 78 -112 78zM193 575
v-175h433c87 0 110 26 110 74v38c0 52 -26 76 -93 76h-438c-8 0 -12 -5 -12 -13z" />
    <glyph glyph-name="C" unicode="C" horiz-adv-x="849" 
d="M338 700h449c12 0 18 -6 18 -18v-80c0 -12 -6 -18 -18 -18h-445c-119 0 -157 -39 -157 -160v-148c0 -121 38 -160 157 -160h445c12 0 18 -6 18 -18v-80c0 -12 -6 -18 -18 -18h-449c-201 0 -277 72 -277 264v172c0 192 76 264 277 264z" />
    <glyph glyph-name="D" unicode="D" horiz-adv-x="924" 
d="M99 700h462c215 0 303 -87 303 -282v-136c0 -195 -88 -282 -303 -282h-462c-20 0 -30 10 -30 30v640c0 20 10 30 30 30zM193 574v-448c0 -8 4 -12 12 -12h353c134 0 181 47 181 178v116c0 131 -47 178 -181 178h-353c-8 0 -12 -4 -12 -12z" />
    <glyph glyph-name="E" unicode="E" horiz-adv-x="847" 
d="M338 700h439c12 0 18 -6 18 -18v-77c0 -13 -6 -19 -18 -19h-438c-119 0 -157 -38 -157 -159v-23h589c12 0 18 -5 18 -18v-64c0 -12 -6 -18 -18 -18h-589v-31c0 -121 38 -159 157 -159h438c12 0 18 -6 18 -19v-77c0 -12 -6 -18 -18 -18h-439c-201 0 -277 72 -277 264v172
c0 192 76 264 277 264z" />
    <glyph glyph-name="F" unicode="F" horiz-adv-x="831" 
d="M338 700h439c12 0 18 -6 18 -18v-77c0 -13 -6 -19 -18 -19h-435c-119 0 -157 -38 -157 -159v-32h586c12 0 18 -6 18 -18v-65c0 -12 -6 -18 -18 -18h-586v-276c0 -12 -6 -18 -18 -18h-88c-12 0 -18 6 -18 18v418c0 192 76 264 277 264z" />
    <glyph glyph-name="G" unicode="G" horiz-adv-x="922" 
d="M338 700h504c13 0 19 -6 19 -18v-80c0 -12 -6 -18 -19 -18h-500c-119 0 -157 -39 -157 -160v-150c0 -121 38 -159 157 -159h341c42 0 61 20 61 75v104c0 9 -4 13 -12 13h-318c-12 0 -18 6 -18 18v62c0 12 6 18 18 18h416c20 0 30 -10 30 -30v-222
c0 -112 -44 -153 -123 -153h-399c-201 0 -277 72 -277 264v172c0 192 76 264 277 264z" />
    <glyph glyph-name="H" unicode="H" horiz-adv-x="902" 
d="M87 700h88c12 0 18 -6 18 -18v-276h516v276c0 12 6 18 18 18h88c13 0 19 -6 19 -18v-664c0 -12 -6 -18 -19 -18h-88c-12 0 -18 6 -18 18v282h-516v-282c0 -12 -6 -18 -18 -18h-88c-12 0 -18 6 -18 18v664c0 12 6 18 18 18z" />
    <glyph glyph-name="I" unicode="I" horiz-adv-x="262" 
d="M87 700h88c12 0 18 -6 18 -18v-664c0 -12 -6 -18 -18 -18h-88c-12 0 -18 6 -18 18v664c0 12 6 18 18 18z" />
    <glyph glyph-name="J" unicode="J" horiz-adv-x="778" 
d="M605 700h88c13 0 19 -6 19 -18v-418c0 -192 -77 -264 -277 -264h-391c-12 0 -18 6 -18 18v80c0 12 6 18 18 18h386c119 0 157 39 157 160v406c0 12 6 18 18 18z" />
    <glyph glyph-name="K" unicode="K" horiz-adv-x="843" 
d="M87 700h88c12 0 18 -6 18 -18v-280h158c78 0 100 8 135 54l176 233c6 8 10 11 25 11h100c14 0 17 -13 11 -21l-195 -251c-26 -34 -46 -56 -70 -72c31 -16 56 -40 83 -73l209 -260c4 -7 5 -23 -12 -23h-101c-15 0 -19 3 -25 11l-190 241c-33 41 -61 55 -136 55h-168v-289
c0 -12 -6 -18 -18 -18h-88c-12 0 -18 6 -18 18v664c0 12 6 18 18 18z" />
    <glyph glyph-name="L" unicode="L" horiz-adv-x="798" 
d="M85 700h88c12 0 18 -6 18 -18v-406c0 -121 38 -160 157 -160h405c13 0 19 -6 19 -18v-80c0 -12 -6 -18 -19 -18h-409c-201 0 -277 72 -277 264v418c0 12 6 18 18 18z" />
    <glyph glyph-name="M" unicode="M" horiz-adv-x="1187" 
d="M144 700h90c51 0 65 -11 91 -64l250 -516c4 -7 8 -10 15 -10h10c8 0 12 3 16 10l249 516c25 53 40 64 91 64h87c59 0 76 -24 76 -88v-594c0 -12 -6 -18 -19 -18h-83c-12 0 -18 6 -18 18v553c0 7 -2 10 -8 10h-11c-7 0 -11 -2 -14 -8l-245 -492c-29 -59 -52 -81 -108 -81
h-39c-56 0 -79 22 -108 81l-245 492c-3 6 -6 8 -14 8h-10c-6 0 -9 -3 -9 -10v-553c0 -12 -6 -18 -18 -18h-83c-12 0 -18 6 -18 18v594c0 64 16 88 75 88z" />
    <glyph glyph-name="N" unicode="N" horiz-adv-x="973" 
d="M145 700h73c53 0 65 -11 97 -49l435 -525c4 -5 8 -7 14 -7h10c6 0 9 3 9 10v553c0 12 5 18 18 18h85c12 0 18 -6 18 -18v-594c0 -68 -25 -88 -77 -88h-71c-50 0 -64 9 -97 49l-436 525c-4 5 -8 7 -14 7h-10c-6 0 -8 -3 -8 -10v-553c0 -12 -6 -18 -19 -18h-85
c-12 0 -18 6 -18 18v594c0 68 25 88 76 88z" />
    <glyph glyph-name="O" unicode="O" horiz-adv-x="981" 
d="M338 700h305c201 0 277 -72 277 -264v-172c0 -192 -76 -264 -277 -264h-305c-201 0 -277 72 -277 264v172c0 192 76 264 277 264zM185 427v-154c0 -121 38 -159 157 -159h296c120 0 157 38 157 159v154c0 121 -37 159 -157 159h-296c-119 0 -157 -38 -157 -159z" />
    <glyph glyph-name="P" unicode="P" horiz-adv-x="877" 
d="M99 700h531c151 0 212 -71 212 -204v-68c0 -134 -61 -205 -212 -205h-437v-205c0 -12 -6 -18 -18 -18h-88c-12 0 -18 6 -18 18v652c0 20 10 30 30 30zM193 576v-245h413c81 0 111 37 111 109v39c0 72 -30 109 -111 109h-401c-8 0 -12 -4 -12 -12z" />
    <glyph glyph-name="Q" unicode="Q" horiz-adv-x="981" 
d="M338 700h305c201 0 277 -72 277 -264v-155c0 -168 -59 -244 -208 -261l118 -168c5 -7 5 -22 -10 -22h-103c-14 0 -19 4 -24 11l-119 176h-236c-201 0 -277 72 -277 264v155c0 192 76 264 277 264zM185 427v-137c0 -121 38 -160 157 -160h296c120 0 157 39 157 160v137
c0 121 -37 159 -157 159h-296c-119 0 -157 -38 -157 -159z" />
    <glyph glyph-name="R" unicode="R" horiz-adv-x="901" 
d="M99 700h531c151 0 212 -71 212 -204v-55c0 -116 -46 -184 -157 -200l181 -219c6 -7 4 -22 -11 -22h-104c-14 0 -19 4 -24 11l-171 218h-363v-211c0 -12 -6 -18 -18 -18h-88c-12 0 -18 6 -18 18v652c0 20 10 30 30 30zM193 576v-247h413c81 0 111 36 111 108v43
c0 72 -30 108 -111 108h-401c-8 0 -12 -3 -12 -12z" />
    <glyph glyph-name="S" unicode="S" horiz-adv-x="854" 
d="M224 700h535c12 0 18 -6 18 -18v-77c0 -13 -6 -19 -18 -19h-512c-48 0 -66 -27 -66 -70v-42c0 -46 20 -70 66 -70h390c110 0 166 -59 166 -164v-82c0 -94 -51 -158 -168 -158h-559c-12 0 -18 6 -18 18v77c0 13 6 19 18 19h536c48 0 66 27 66 70v50c0 46 -20 70 -65 70
h-390c-110 0 -166 59 -166 164v73c0 95 51 159 167 159z" />
    <glyph glyph-name="T" unicode="T" horiz-adv-x="869" 
d="M44 700h781c13 0 19 -6 19 -18v-80c0 -12 -6 -18 -19 -18h-328v-566c0 -12 -6 -18 -18 -18h-88c-13 0 -19 6 -19 18v566h-328c-12 0 -18 6 -18 18v80c0 12 6 18 18 18z" />
    <glyph glyph-name="U" unicode="U" horiz-adv-x="972" 
d="M85 700h88c12 0 18 -6 18 -18v-406c0 -121 38 -160 157 -160h276c119 0 157 39 157 160v406c0 12 6 18 18 18h88c12 0 18 -6 18 -18v-418c0 -192 -76 -264 -277 -264h-284c-201 0 -277 72 -277 264v418c0 12 6 18 18 18z" />
    <glyph glyph-name="V" unicode="V" horiz-adv-x="970" 
d="M29 700h102c11 0 16 -3 20 -11l319 -566c3 -6 6 -7 12 -7h5c6 0 9 1 12 7l317 566c4 8 9 11 20 11h104c14 0 16 -9 10 -20l-347 -617c-28 -50 -53 -63 -89 -63h-48c-44 0 -69 13 -97 63l-350 617c-6 11 -3 20 10 20z" />
    <glyph glyph-name="W" unicode="W" horiz-adv-x="1295" 
d="M29 700h107c7 0 10 -3 13 -11l180 -566c1 -6 4 -7 9 -7h6c4 0 7 1 9 7l186 528c13 38 32 49 65 49h79c39 0 56 -13 69 -49l189 -528c2 -6 5 -7 10 -7h5c5 0 8 1 10 7l177 566c2 9 8 11 13 11h108c10 0 11 -9 8 -20l-204 -616c-16 -50 -33 -64 -67 -64h-94
c-35 0 -49 14 -67 64l-183 513c-1 6 -3 7 -8 7h-5c-5 0 -8 -1 -9 -7l-184 -513c-18 -50 -32 -64 -67 -64h-92c-40 0 -56 13 -72 64l-198 616c-4 11 -2 20 7 20z" />
    <glyph glyph-name="X" unicode="X" horiz-adv-x="888" 
d="M740 700h105c15 0 16 -14 8 -22l-326 -320l337 -336c8 -8 7 -22 -8 -22h-111c-14 0 -20 4 -27 12l-273 278l-280 -278c-8 -7 -14 -12 -27 -12h-106c-14 0 -15 14 -8 22l344 343l-312 313c-8 8 -7 22 8 22h111c13 0 20 -4 27 -12l248 -255l263 255c8 7 14 12 27 12z" />
    <glyph glyph-name="Y" unicode="Y" horiz-adv-x="893" 
d="M24 700h109c10 0 15 -3 20 -10l294 -381l295 381c6 7 11 10 21 10h106c9 0 13 -9 7 -17l-368 -465v-200c0 -12 -6 -18 -19 -18h-87c-13 0 -19 6 -19 18v200l-367 465c-5 8 -2 17 8 17z" />
    <glyph glyph-name="Z" unicode="Z" horiz-adv-x="851" 
d="M75 700h653c47 0 69 -21 69 -66v-74c0 -42 -9 -54 -42 -74l-561 -339c-6 -4 -8 -9 -8 -16v-9c0 -6 3 -8 10 -8h577c12 0 18 -6 18 -19v-77c0 -12 -6 -18 -18 -18h-654c-47 0 -69 21 -69 66v74c0 42 7 53 40 73l559 340c7 4 9 9 9 16v9c0 5 -4 8 -10 8h-573
c-12 0 -18 6 -18 19v77c0 12 6 18 18 18z" />
    <glyph glyph-name="bracketleft" unicode="[" horiz-adv-x="454" 
d="M222 896h178c7 0 10 -4 10 -12v-56c0 -8 -3 -11 -10 -11h-148c-18 0 -26 -10 -26 -30v-899c0 -20 8 -30 26 -30h148c7 0 10 -3 10 -11v-56c0 -8 -3 -12 -10 -12h-178c-52 0 -76 27 -76 83v951c0 56 24 83 76 83z" />
    <glyph glyph-name="backslash" unicode="\" horiz-adv-x="401" 
d="M19 815h57c11 0 14 -4 17 -14l298 -932c3 -10 -2 -16 -11 -16h-57c-11 0 -13 4 -17 14l-298 932c-3 10 2 16 11 16z" />
    <glyph glyph-name="bracketright" unicode="]" horiz-adv-x="454" 
d="M232 -221h-178c-7 0 -10 4 -10 12v56c0 8 3 11 10 11h148c18 0 26 10 26 30v899c0 20 -8 30 -26 30h-148c-7 0 -10 3 -10 11v56c0 8 3 12 10 12h178c52 0 76 -27 76 -83v-951c0 -56 -24 -83 -76 -83z" />
    <glyph glyph-name="asciicircum" unicode="^" horiz-adv-x="613" 
d="M281 700h50c24 0 40 -9 51 -39l179 -480c5 -11 -1 -21 -14 -21h-48c-12 0 -16 4 -19 12l-159 428c-2 6 -5 8 -12 8h-6c-7 0 -10 -2 -13 -8l-158 -428c-3 -8 -8 -12 -19 -12h-49c-12 0 -18 10 -14 21l179 480c11 30 28 39 52 39z" />
    <glyph glyph-name="underscore" unicode="_" horiz-adv-x="631" 
d="M20 -80h594c10 0 15 -5 15 -15v-49c0 -11 -5 -15 -15 -15h-594c-10 0 -15 4 -15 15v49c0 10 5 15 15 15z" />
    <glyph glyph-name="grave" unicode="`" horiz-adv-x="395" 
d="M109 808h72c13 0 20 -6 26 -19l94 -191c6 -13 0 -21 -13 -21h-62c-12 0 -18 7 -25 20l-105 191c-7 14 1 20 13 20z" />
    <glyph glyph-name="a" unicode="a" 
d="M75 541h429c178 0 236 -56 236 -199v-263c0 -64 -16 -79 -73 -79h-471c-117 0 -153 42 -153 140v45c0 82 36 128 153 128h427v24c0 76 -28 105 -130 105h-418c-10 0 -15 5 -15 15v69c0 10 5 15 15 15zM589 91c26 0 34 9 34 38v110h-395c-53 0 -71 -21 -71 -60v-23
c0 -45 18 -65 71 -65h361z" />
    <glyph glyph-name="b" unicode="b" horiz-adv-x="868" 
d="M81 750h80c12 0 18 -6 18 -18v-191h396c178 0 235 -56 235 -199v-143c0 -142 -57 -199 -235 -199h-277c-178 0 -235 57 -235 199v533c0 12 6 18 18 18zM564 442h-385v-221c0 -92 29 -122 130 -122h255c102 0 130 30 130 122v99c0 92 -28 122 -130 122z" />
    <glyph glyph-name="c" unicode="c" horiz-adv-x="727" 
d="M277 541h400c11 0 15 -5 15 -15v-69c0 -10 -4 -15 -15 -15h-389c-102 0 -130 -30 -130 -122v-99c0 -92 28 -122 130 -122h389c11 0 15 -5 15 -15v-69c0 -10 -4 -15 -15 -15h-400c-179 0 -235 57 -235 199v143c0 143 56 199 235 199z" />
    <glyph glyph-name="d" unicode="d" horiz-adv-x="868" 
d="M292 541h396v191c0 12 6 18 18 18h80c12 0 18 -6 18 -18v-533c0 -142 -57 -199 -235 -199h-277c-178 0 -235 57 -235 199v143c0 143 57 199 235 199zM558 99c102 0 130 30 130 122v221h-385c-101 0 -130 -30 -130 -122v-99c0 -92 29 -122 130 -122h255z" />
    <glyph glyph-name="e" unicode="e" 
d="M279 541h290c135 0 171 -42 171 -161v-89c0 -42 -18 -56 -57 -56h-524v-31c0 -75 29 -105 131 -105h418c10 0 15 -5 15 -15v-69c0 -10 -5 -15 -15 -15h-429c-179 0 -236 57 -236 199v143c0 143 57 199 236 199zM159 344v-35h446c14 0 21 5 21 21v46c0 54 -18 74 -79 74
h-257c-102 0 -131 -30 -131 -106z" />
    <glyph glyph-name="f" unicode="f" horiz-adv-x="483" 
d="M35 541h97v27c0 140 42 197 200 197h116c10 0 15 -5 15 -15v-67c0 -10 -5 -15 -15 -15h-97c-80 0 -102 -31 -102 -100v-27h193c10 0 15 -5 15 -15v-67c0 -10 -5 -15 -15 -15h-193v-426c0 -12 -6 -18 -19 -18h-79c-13 0 -19 6 -19 18v426h-97c-10 0 -15 5 -15 15v67
c0 10 5 15 15 15z" />
    <glyph glyph-name="g" unicode="g" horiz-adv-x="868" 
d="M292 541h277c179 0 235 -57 235 -200v-360c0 -145 -56 -202 -235 -202h-469c-10 0 -15 5 -15 15v69c0 10 5 15 15 15h458c102 0 130 30 130 125v25h-396c-178 0 -235 58 -235 203v108c0 145 57 202 235 202zM173 232c0 -81 29 -112 130 -112h385v211
c0 83 -28 114 -130 114h-255c-101 0 -130 -31 -130 -112v-101z" />
    <glyph glyph-name="h" unicode="h" horiz-adv-x="875" 
d="M85 750h79c13 0 19 -6 19 -18v-191h394c178 0 235 -57 235 -199v-324c0 -12 -6 -18 -18 -18h-80c-12 0 -18 6 -18 18v297c0 91 -23 122 -125 122h-388v-419c0 -12 -6 -18 -19 -18h-79c-13 0 -18 6 -18 18v714c0 12 5 18 18 18z" />
    <glyph glyph-name="i" unicode="i" horiz-adv-x="249" 
d="M85 541h79c13 0 19 -6 19 -18v-505c0 -12 -6 -18 -19 -18h-79c-13 0 -18 6 -18 18v505c0 12 5 18 18 18zM85 740h80c12 0 18 -6 18 -18v-93c0 -13 -6 -19 -18 -19h-80c-12 0 -18 6 -18 19v93c0 12 6 18 18 18z" />
    <glyph glyph-name="j" unicode="j" horiz-adv-x="265" 
d="M103 541h79c13 0 18 -6 18 -18v-546c0 -141 -51 -198 -220 -198h-70c-10 0 -15 5 -15 15v69c0 10 5 15 15 15h59c92 0 115 30 115 121v524c0 12 6 18 19 18zM102 740h80c12 0 18 -6 18 -18v-93c0 -13 -6 -19 -18 -19h-80c-12 0 -18 6 -18 19v93c0 12 6 18 18 18z" />
    <glyph glyph-name="k" unicode="k" horiz-adv-x="784" 
d="M83 750h80c12 0 18 -6 18 -18v-413h196c73 0 93 7 126 51l113 157c7 10 13 14 26 14h90c13 0 17 -12 9 -23l-128 -173c-23 -31 -45 -54 -70 -69c31 -16 56 -39 78 -67l142 -187c7 -10 2 -22 -10 -22h-90c-15 0 -20 3 -26 12l-125 166c-31 39 -57 52 -127 52h-204v-212
c0 -12 -6 -18 -18 -18h-80c-12 0 -18 6 -18 18v714c0 12 6 18 18 18z" />
    <glyph glyph-name="l" unicode="l" horiz-adv-x="249" 
d="M85 750h79c13 0 19 -6 19 -18v-714c0 -12 -6 -18 -19 -18h-79c-13 0 -18 6 -18 18v714c0 12 5 18 18 18z" />
    <glyph glyph-name="m" unicode="m" horiz-adv-x="1101" 
d="M298 541h505c178 0 235 -57 235 -199v-324c0 -12 -6 -18 -18 -18h-80c-12 0 -18 6 -18 18v297c0 91 -24 122 -125 122h-189v-419c0 -12 -6 -18 -18 -18h-80c-12 0 -18 6 -18 18v419h-183c-101 0 -130 -31 -130 -122v-297c0 -12 -6 -18 -18 -18h-80c-12 0 -18 6 -18 18
v324c0 142 57 199 235 199z" />
    <glyph glyph-name="n" unicode="n" horiz-adv-x="880" 
d="M298 541h284c178 0 235 -57 235 -199v-324c0 -12 -6 -18 -18 -18h-80c-12 0 -18 6 -18 18v297c0 91 -23 122 -125 122h-267c-101 0 -130 -31 -130 -122v-297c0 -12 -6 -18 -18 -18h-80c-12 0 -18 6 -18 18v324c0 142 57 199 235 199z" />
    <glyph glyph-name="o" unicode="o" horiz-adv-x="865" 
d="M292 541h280c178 0 235 -56 235 -199v-143c0 -142 -57 -199 -235 -199h-280c-178 0 -235 57 -235 199v143c0 143 57 199 235 199zM173 322v-103c0 -92 29 -123 130 -123h258c102 0 130 31 130 123v103c0 93 -28 123 -130 123h-258c-101 0 -130 -30 -130 -123z" />
    <glyph glyph-name="p" unicode="p" horiz-adv-x="868" 
d="M298 541h277c178 0 235 -57 235 -199v-143c0 -143 -57 -199 -235 -199h-396v-203c0 -12 -6 -18 -18 -18h-80c-12 0 -18 6 -18 18v545c0 142 57 199 235 199zM179 320v-221h385c102 0 130 30 130 122v99c0 92 -28 122 -130 122h-255c-101 0 -130 -30 -130 -122z" />
    <glyph glyph-name="q" unicode="q" horiz-adv-x="868" 
d="M292 541h277c178 0 235 -57 235 -199v-545c0 -12 -6 -18 -18 -18h-80c-12 0 -18 6 -18 18v203h-396c-178 0 -235 56 -235 199v143c0 142 57 199 235 199zM173 221c0 -92 29 -122 130 -122h385v221c0 92 -28 122 -130 122h-255c-101 0 -130 -30 -130 -122v-99z" />
    <glyph glyph-name="r" unicode="r" horiz-adv-x="613" 
d="M298 541h280c10 0 15 -5 15 -15v-69c0 -10 -5 -15 -15 -15h-269c-101 0 -130 -30 -130 -122v-302c0 -12 -6 -18 -18 -18h-80c-12 0 -18 6 -18 18v324c0 142 57 199 235 199z" />
    <glyph glyph-name="s" unicode="s" horiz-adv-x="780" 
d="M208 541h487c10 0 15 -5 15 -15v-65c0 -10 -5 -15 -15 -15h-457c-53 0 -71 -20 -71 -57v-16c0 -34 18 -55 71 -55h341c112 0 154 -46 154 -129v-51c0 -89 -38 -138 -155 -138h-510c-10 0 -15 5 -15 15v65c0 10 5 15 15 15h481c53 0 71 19 71 61v29c0 32 -18 53 -71 53
h-342c-112 0 -154 47 -154 131v39c0 82 38 133 155 133z" />
    <glyph glyph-name="t" unicode="t" horiz-adv-x="483" 
d="M35 541h97v134c0 13 6 19 18 19h80c12 0 18 -6 18 -19v-134h194c10 0 15 -5 15 -15v-67c0 -10 -5 -15 -15 -15h-194v-248c0 -69 22 -99 103 -99h97c10 0 15 -5 15 -15v-67c0 -10 -5 -15 -15 -15h-116c-158 0 -200 57 -200 196v248h-97c-10 0 -15 5 -15 15v67
c0 10 5 15 15 15z" />
    <glyph glyph-name="u" unicode="u" horiz-adv-x="872" 
d="M81 541h80c12 0 18 -6 18 -18v-297c0 -91 24 -122 125 -122h259c102 0 130 31 130 122v297c0 12 6 18 18 18h80c12 0 18 -6 18 -18v-324c0 -142 -57 -199 -235 -199h-276c-178 0 -235 57 -235 199v324c0 12 6 18 18 18z" />
    <glyph glyph-name="v" unicode="v" horiz-adv-x="827" 
d="M29 541h93c10 0 17 -3 20 -11l261 -429c3 -5 5 -6 10 -6h5c5 0 7 1 10 6l261 429c4 8 10 11 20 11h91c11 0 16 -10 11 -21l-293 -482c-15 -28 -34 -38 -71 -38h-66c-38 0 -56 10 -71 38l-292 482c-6 11 -1 21 11 21z" />
    <glyph glyph-name="w" unicode="w" horiz-adv-x="1158" 
d="M35 541h90c12 0 18 -5 20 -13l147 -426c2 -5 5 -7 11 -7h5c6 0 9 2 11 7l155 398c10 32 25 41 57 41h96c33 0 47 -9 58 -41l154 -398c2 -5 5 -7 11 -7h5c5 0 8 2 10 7l148 426c3 8 8 13 20 13h91c14 0 18 -8 14 -21l-166 -467c-14 -42 -30 -53 -67 -53h-101
c-31 0 -46 12 -59 53l-153 386c-2 5 -5 7 -10 7h-8c-6 0 -8 -2 -10 -7l-152 -386c-13 -41 -28 -53 -60 -53h-101c-36 0 -53 11 -67 53l-164 467c-3 13 0 21 15 21z" />
    <glyph glyph-name="x" unicode="x" horiz-adv-x="788" 
d="M55 541h103c12 0 18 -3 24 -10l221 -194l230 194c6 7 12 10 24 10h93c15 0 18 -14 9 -22l-282 -246l288 -251c9 -8 7 -22 -8 -22h-104c-12 0 -18 3 -25 10l-236 206l-244 -206c-6 -7 -12 -10 -24 -10h-93c-15 0 -17 14 -9 22l297 258l-273 239c-8 8 -6 22 9 22z" />
    <glyph glyph-name="y" unicode="y" horiz-adv-x="805" 
d="M697 541h91c11 0 16 -10 11 -21l-409 -679c-24 -43 -67 -62 -144 -62h-62c-10 0 -15 5 -15 15v67c0 10 5 15 15 15h54c28 0 45 7 56 25l66 108c-24 3 -38 13 -49 35l-293 476c-6 11 -1 21 11 21h93c11 0 17 -3 20 -11l253 -410c7 -12 10 -17 21 -19l261 429
c4 8 10 11 20 11z" />
    <glyph glyph-name="z" unicode="z" horiz-adv-x="731" 
d="M66 541h558c42 0 60 -18 60 -55v-62c0 -36 -7 -51 -38 -63l-471 -233c-6 -3 -8 -8 -8 -15v-8c0 -6 3 -8 9 -8h488c11 0 15 -5 15 -15v-67c0 -10 -4 -15 -15 -15h-557c-42 0 -60 18 -60 55v62c0 36 6 51 39 63l470 233c6 2 8 8 8 15v8c0 6 -3 8 -9 8h-489
c-10 0 -15 5 -15 15v67c0 10 5 15 15 15z" />
    <glyph glyph-name="braceleft" unicode="{" horiz-adv-x="454" 
d="M333 896h67c7 0 10 -4 10 -12v-56c0 -8 -3 -11 -10 -11h-63c-63 0 -83 -27 -83 -95v-284c0 -46 -18 -81 -47 -103c28 -22 47 -56 47 -101v-282c0 -67 20 -94 83 -94h63c7 0 10 -3 10 -11v-56c0 -8 -3 -12 -10 -12h-67c-112 0 -159 52 -159 173v284c0 36 -11 59 -56 59
h-48c-10 0 -15 5 -15 15v51c0 10 5 15 15 15h48c45 0 56 23 56 60v286c0 122 47 174 159 174z" />
    <glyph glyph-name="bar" unicode="|" horiz-adv-x="409" 
d="M180 815h49c10 0 15 -5 15 -15v-931c0 -10 -5 -15 -15 -15h-49c-11 0 -15 5 -15 15v931c0 10 4 15 15 15z" />
    <glyph glyph-name="braceright" unicode="}" horiz-adv-x="454" 
d="M121 -221h-67c-7 0 -10 4 -10 12v56c0 8 3 11 10 11h63c63 0 83 27 83 95v284c0 46 18 81 47 103c-28 22 -47 56 -47 101v282c0 67 -20 94 -83 94h-63c-7 0 -10 3 -10 11v56c0 8 3 12 10 12h67c112 0 159 -52 159 -173v-284c0 -36 11 -59 56 -59h48c10 0 15 -5 15 -15
v-51c0 -10 -5 -15 -15 -15h-48c-45 0 -56 -23 -56 -60v-286c0 -122 -47 -174 -159 -174z" />
    <glyph glyph-name="asciitilde" unicode="~" horiz-adv-x="613" 
d="M44 330v47c0 15 6 24 17 32c24 19 69 35 112 35c62 0 108 -25 147 -45c31 -18 67 -33 112 -33c29 0 55 8 88 35c14 12 20 18 32 18c10 0 16 -4 16 -15v-47c0 -14 -7 -24 -17 -32c-24 -19 -69 -35 -112 -35c-61 0 -107 24 -145 45c-32 17 -68 33 -114 33
c-30 0 -55 -7 -88 -35c-15 -12 -20 -18 -32 -18c-11 0 -16 5 -16 15z" />
    <glyph glyph-name="nbspace" unicode="&#xa0;" horiz-adv-x="331" 
 />
    <glyph glyph-name="exclamdown" unicode="&#xa1;" horiz-adv-x="244" 
d="M169 -220h-94c-13 0 -19 6 -19 19l24 458c1 12 6 18 18 18h48c12 0 17 -6 18 -18l23 -458c1 -13 -6 -19 -18 -19zM162 385h-80c-12 0 -18 6 -18 18v94c0 12 6 18 18 18h80c12 0 18 -6 18 -18v-94c0 -12 -6 -18 -18 -18z" />
    <glyph glyph-name="cent" unicode="&#xa2;" horiz-adv-x="813" 
d="M420 760h38c10 0 15 -5 15 -15v-78h231c11 0 16 -5 16 -17v-75c0 -12 -5 -17 -16 -17h-231v-411h231c11 0 16 -5 16 -17v-75c0 -12 -5 -17 -16 -17h-231v-83c0 -10 -5 -15 -15 -15h-38c-10 0 -15 5 -15 15v83h-114c-182 0 -239 61 -239 213v203c0 153 57 213 239 213h114
v78c0 10 5 15 15 15zM171 274c0 -95 28 -127 131 -127h103v411h-103c-103 0 -131 -31 -131 -127v-157z" />
    <glyph glyph-name="sterling" unicode="&#xa3;" horiz-adv-x="663" 
d="M46 390h103v111c0 143 48 199 192 199h258c13 0 19 -6 19 -18v-73c0 -12 -6 -18 -19 -18h-234c-75 0 -96 -27 -96 -101v-100h240c10 0 15 -5 15 -15v-39c0 -10 -5 -15 -15 -15h-240v-212h342c12 0 18 -6 18 -18v-73c0 -12 -6 -18 -18 -18h-567c-12 0 -18 6 -18 18v73
c0 12 6 18 18 18h105v212h-103c-11 0 -15 5 -15 15v39c0 10 4 15 15 15z" />
    <glyph glyph-name="currency" unicode="&#xa4;" horiz-adv-x="742" 
d="M83 603l35 35c8 7 14 7 21 0l57 -58c17 5 39 8 65 8h218c27 0 48 -3 66 -8l58 58c7 7 14 7 21 0l35 -35c7 -7 7 -14 0 -21l-58 -58c3 -13 5 -29 5 -47v-256c0 -17 -2 -32 -5 -45l58 -58c7 -7 7 -14 0 -22l-35 -35c-7 -6 -14 -6 -20 0l-58 57c-17 -5 -40 -8 -67 -8h-218
c-27 0 -48 2 -66 8l-56 -57c-7 -6 -14 -6 -21 0l-35 35c-7 8 -7 15 0 22l57 57c-4 13 -5 28 -5 46v256c0 18 1 34 5 48l-57 57c-7 7 -7 14 0 21zM212 455v-211c0 -48 13 -63 62 -63h193c48 0 61 15 61 63v211c0 47 -13 62 -61 62h-193c-49 0 -62 -15 -62 -62z" />
    <glyph glyph-name="yen" unicode="&#xa5;" horiz-adv-x="769" 
d="M109 372h170l-237 311c-6 8 -2 17 7 17h102c8 0 13 -3 18 -10l214 -285l216 285c5 8 10 10 19 10h99c8 0 12 -9 7 -17l-239 -311h174c10 0 15 -5 15 -15v-38c0 -10 -5 -15 -15 -15h-217v-110h217c10 0 15 -5 15 -15v-39c0 -10 -5 -15 -15 -15h-217v-107
c0 -12 -5 -18 -17 -18h-86c-11 0 -17 6 -17 18v107h-213c-10 0 -15 5 -15 15v39c0 10 5 15 15 15h213v110h-213c-10 0 -15 5 -15 15v38c0 10 5 15 15 15z" />
    <glyph glyph-name="brokenbar" unicode="&#xa6;" horiz-adv-x="409" 
d="M180 815h49c10 0 15 -5 15 -15v-391c0 -10 -5 -15 -15 -15h-49c-11 0 -15 5 -15 15v391c0 10 4 15 15 15zM180 275h49c10 0 15 -5 15 -15v-391c0 -10 -5 -15 -15 -15h-49c-11 0 -15 5 -15 15v391c0 10 4 15 15 15z" />
    <glyph glyph-name="section" unicode="&#xa7;" horiz-adv-x="731" 
d="M107 751h557c11 0 15 -5 15 -15v-67c0 -11 -4 -15 -15 -15h-488c-6 0 -9 -3 -9 -8v-9c0 -7 2 -12 7 -14l471 -228c32 -13 39 -27 39 -64v-61c0 -38 -19 -56 -61 -56h-445c-6 0 -9 -2 -9 -7v-9c0 -7 2 -12 7 -15l471 -224c32 -12 39 -27 39 -63v-62c0 -37 -19 -55 -61 -55
h-557c-10 0 -15 5 -15 15v67c0 10 5 15 15 15h488c6 0 9 2 9 8v8c0 7 -1 12 -7 15l-471 225c-32 11 -39 26 -39 63v61c0 38 19 55 61 55h445c6 0 9 3 9 8v9c0 7 -1 12 -7 14l-471 229c-32 12 -39 26 -39 63v61c0 38 19 56 61 56z" />
    <glyph glyph-name="dieresis" unicode="&#xa8;" horiz-adv-x="519" 
d="M356 740h80c12 0 18 -6 18 -18v-93c0 -13 -6 -19 -18 -19h-80c-12 0 -18 6 -18 19v93c0 12 6 18 18 18zM83 740h80c12 0 18 -6 18 -18v-93c0 -13 -6 -19 -18 -19h-80c-12 0 -18 6 -18 19v93c0 12 6 18 18 18z" />
    <glyph glyph-name="copyright" unicode="&#xa9;" horiz-adv-x="981" 
d="M338 700h305c201 0 277 -72 277 -264v-172c0 -192 -76 -264 -277 -264h-305c-201 0 -277 72 -277 264v172c0 192 76 264 277 264zM122 436v-172c0 -146 61 -202 216 -202h305c155 0 215 56 215 202v172c0 146 -60 202 -215 202h-305c-155 0 -216 -56 -216 -202zM421 548
h244c7 0 10 -4 10 -10v-44c0 -6 -3 -9 -10 -9h-242c-65 0 -85 -22 -85 -87v-81c0 -66 20 -87 85 -87h242c7 0 10 -3 10 -10v-43c0 -7 -3 -10 -10 -10h-244c-109 0 -151 39 -151 144v93c0 105 42 144 151 144z" />
    <glyph glyph-name="ordfeminine" unicode="&#xaa;" horiz-adv-x="469" 
d="M60 700h236c98 0 129 -32 129 -114v-231c0 -37 -9 -45 -40 -45h-259c-64 0 -83 24 -83 80v75c0 47 19 73 83 73h226v34c0 42 -15 59 -67 59h-225c-6 0 -9 3 -9 9v51c0 6 3 9 9 9zM337 375c11 0 15 4 15 18v89h-202c-27 0 -35 -11 -35 -32v-40c0 -25 8 -35 35 -35h187z
" />
    <glyph glyph-name="guillemotleft" unicode="&#xab;" horiz-adv-x="503" 
d="M391 541h61c13 0 18 -8 13 -18l-112 -229c-3 -7 -5 -13 -5 -21v-5c0 -8 2 -14 5 -21l112 -229c5 -10 0 -18 -13 -18h-61c-11 0 -19 5 -24 15l-102 211c-7 16 -9 24 -9 42v5c0 18 2 26 9 42l102 211c5 10 13 15 24 15zM170 541h61c13 0 18 -8 13 -18l-112 -229
c-3 -7 -5 -13 -5 -21v-5c0 -8 2 -14 5 -21l112 -229c5 -10 0 -18 -13 -18h-61c-11 0 -19 5 -24 15l-102 211c-7 16 -9 24 -9 42v5c0 18 2 26 9 42l102 211c5 10 13 15 24 15z" />
    <glyph glyph-name="logicalnot" unicode="&#xac;" horiz-adv-x="613" 
d="M59 543h489c13 0 20 -6 20 -19v-509c0 -10 -5 -15 -15 -15h-50c-10 0 -15 5 -15 15v449h-429c-10 0 -15 5 -15 15v49c0 10 5 15 15 15z" />
    <glyph glyph-name="uni00AD" unicode="&#xad;" horiz-adv-x="383" 
d="M40 387h303c10 0 15 -5 15 -15v-60c0 -10 -5 -15 -15 -15h-303c-10 0 -15 5 -15 15v60c0 10 5 15 15 15z" />
    <glyph glyph-name="registered" unicode="&#xae;" horiz-adv-x="981" 
d="M338 700h305c201 0 277 -72 277 -264v-172c0 -192 -76 -264 -277 -264h-305c-201 0 -277 72 -277 264v172c0 192 76 264 277 264zM122 436v-172c0 -146 61 -202 216 -202h305c155 0 215 56 215 202v172c0 146 -60 202 -215 202h-305c-155 0 -216 -56 -216 -202zM300 548
h289c82 0 115 -39 115 -111v-30c0 -63 -25 -100 -85 -109l98 -119c3 -4 2 -12 -6 -12h-56c-8 0 -11 2 -13 6l-93 119h-198v-115c0 -7 -3 -10 -10 -10h-48c-6 0 -9 3 -9 10v354c0 11 5 17 16 17zM351 480v-134h225c44 0 60 20 60 59v23c0 39 -16 59 -60 59h-218
c-5 0 -7 -2 -7 -7z" />
    <glyph glyph-name="macron" unicode="&#xaf;" horiz-adv-x="638" 
d="M83 718h472c12 0 18 -6 18 -18v-49c0 -12 -6 -18 -18 -18h-472c-12 0 -18 6 -18 18v49c0 12 6 18 18 18z" />
    <glyph glyph-name="degree" unicode="&#xb0;" horiz-adv-x="519" 
d="M199 700h120c104 0 144 -38 144 -138v-89c0 -100 -40 -138 -144 -138h-120c-104 0 -144 38 -144 138v89c0 100 40 138 144 138zM133 549v-63c0 -60 18 -79 77 -79h98c59 0 76 19 76 79v63c0 60 -17 79 -76 79h-98c-59 0 -77 -19 -77 -79z" />
    <glyph glyph-name="plusminus" unicode="&#xb1;" horiz-adv-x="613" 
d="M281 655h49c10 0 15 -4 15 -15v-206h208c10 0 15 -5 15 -15v-50c0 -10 -5 -15 -15 -15h-208v-207c0 -10 -5 -15 -15 -15h-49c-10 0 -15 5 -15 15v207h-207c-10 0 -15 5 -15 15v50c0 10 5 15 15 15h207v206c0 11 5 15 15 15zM59 80h494c10 0 15 -5 15 -15v-50
c0 -10 -5 -15 -15 -15h-494c-10 0 -15 5 -15 15v50c0 10 5 15 15 15z" />
    <glyph glyph-name="twosuperior" unicode="&#xb2;" horiz-adv-x="510" 
d="M75 700h293c64 0 93 -35 93 -87v-41c0 -58 -32 -92 -92 -92h-213c-23 0 -32 -14 -32 -38v-50c0 -7 2 -10 9 -10h316c7 0 11 -3 11 -10v-46c0 -8 -4 -11 -11 -11h-352c-34 0 -47 13 -47 43v88c0 59 31 93 92 93h213c23 0 32 12 32 36v23c0 22 -8 35 -33 35h-279
c-7 0 -11 3 -11 10v46c0 8 4 11 11 11z" />
    <glyph glyph-name="threesuperior" unicode="&#xb3;" horiz-adv-x="499" 
d="M57 700h291c70 0 96 -29 96 -90v-26c0 -30 -11 -54 -32 -70c24 -16 35 -41 35 -74v-33c0 -58 -23 -92 -90 -92h-299c-8 0 -11 3 -11 11v46c0 7 3 10 11 10h275c33 0 40 13 40 38v19c0 27 -7 42 -40 42h-272c-7 0 -11 3 -11 10v39c0 7 4 10 11 10h272c32 0 39 13 39 39v16
c0 27 -7 38 -39 38h-276c-7 0 -10 3 -10 10v47c0 7 3 10 10 10z" />
    <glyph glyph-name="acute" unicode="&#xb4;" horiz-adv-x="395" 
d="M213 808h72c11 0 19 -6 12 -20l-104 -191c-7 -13 -13 -20 -26 -20h-61c-13 0 -19 8 -13 21l93 191c6 13 14 19 27 19z" />
    <glyph glyph-name="paragraph" unicode="&#xb6;" horiz-adv-x="782" 
d="M259 750h155c58 0 87 -28 87 -85v-870c0 -11 -6 -16 -16 -16h-68c-10 0 -15 5 -15 16v484h-143c-149 0 -196 49 -196 174v124c0 125 47 173 196 173zM634 750h67c11 0 16 -5 16 -16v-939c0 -11 -5 -16 -16 -16h-67c-11 0 -16 5 -16 16v939c0 11 5 16 16 16zM161 471
c0 -82 24 -108 108 -108h133v261c0 28 -14 42 -41 42h-92c-84 0 -108 -26 -108 -107v-88z" />
    <glyph glyph-name="periodcentered" unicode="&#xb7;" horiz-adv-x="246" 
d="M83 416h80c12 0 18 -6 18 -18v-94c0 -12 -6 -18 -18 -18h-80c-12 0 -18 6 -18 18v94c0 12 6 18 18 18z" />
    <glyph glyph-name="cedilla" unicode="&#xb8;" horiz-adv-x="318" 
d="M150 -41h73c14 0 20 -7 16 -22l-41 -190c-4 -13 -10 -19 -22 -19h-45c-14 0 -21 7 -20 20l19 192c1 12 8 19 20 19z" />
    <glyph glyph-name="onesuperior" unicode="&#xb9;" horiz-adv-x="246" 
d="M43 700h83c41 0 58 -17 58 -55v-319c0 -8 -3 -11 -11 -11h-51c-8 0 -11 3 -11 11v286c0 14 -7 21 -21 21h-47c-7 0 -10 3 -10 10v46c0 8 3 11 10 11z" />
    <glyph glyph-name="ordmasculine" unicode="&#xba;" horiz-adv-x="512" 
d="M179 700h154c98 0 130 -32 130 -114v-162c0 -82 -32 -114 -130 -114h-154c-98 0 -129 32 -129 114v162c0 82 31 114 129 114zM124 565v-119c0 -52 14 -68 67 -68h131c52 0 67 16 67 68v119c0 50 -15 67 -67 67h-131c-53 0 -67 -17 -67 -67z" />
    <glyph glyph-name="guillemotright" unicode="&#xbb;" horiz-adv-x="503" 
d="M271 541h61c11 0 19 -5 24 -15l102 -211c7 -16 10 -24 10 -42v-5c0 -18 -3 -26 -10 -42l-102 -211c-5 -10 -13 -15 -24 -15h-61c-13 0 -18 8 -13 18l112 229c4 7 5 13 5 21v5c0 8 -1 14 -5 21l-112 229c-5 10 0 18 13 18zM50 541h61c11 0 19 -5 24 -15l102 -211
c7 -16 10 -24 10 -42v-5c0 -18 -3 -26 -10 -42l-102 -211c-5 -10 -13 -15 -24 -15h-61c-13 0 -18 8 -13 18l112 229c4 7 5 13 5 21v5c0 8 -1 14 -5 21l-112 229c-5 10 0 18 13 18z" />
    <glyph glyph-name="onequarter" unicode="&#xbc;" horiz-adv-x="935" 
d="M643 700h52c9 0 12 -9 6 -16l-537 -675c-5 -6 -11 -9 -23 -9h-51c-9 0 -12 9 -6 16l537 675c4 6 10 9 22 9zM104 700h83c41 0 58 -17 58 -55v-319c0 -8 -3 -11 -11 -11h-51c-8 0 -11 3 -11 11v286c0 14 -7 21 -21 21h-47c-7 0 -10 3 -10 10v46c0 8 3 11 10 11zM439 192
l247 176c19 13 30 17 54 17h31c29 0 44 -11 44 -51v-197h49c8 0 11 -3 11 -11v-42c0 -7 -3 -11 -11 -11h-49v-62c0 -8 -4 -11 -11 -11h-52c-7 0 -10 3 -10 11v62h-290c-24 0 -35 13 -35 32v40c0 18 2 33 22 47zM497 142c0 -3 2 -5 5 -5h240v175c0 5 -3 7 -6 7h-5
c-6 0 -10 -2 -16 -6l-212 -153c-4 -3 -6 -6 -6 -12v-6z" />
    <glyph glyph-name="onehalf" unicode="&#xbd;" horiz-adv-x="995" 
d="M643 700h52c9 0 12 -9 6 -16l-537 -675c-5 -6 -11 -9 -23 -9h-51c-9 0 -12 9 -6 16l537 675c4 6 10 9 22 9zM104 700h83c41 0 58 -17 58 -55v-319c0 -8 -3 -11 -11 -11h-51c-8 0 -11 3 -11 11v286c0 14 -7 21 -21 21h-47c-7 0 -10 3 -10 10v46c0 8 3 11 10 11zM549 385
h293c64 0 93 -35 93 -87v-41c0 -58 -32 -92 -92 -92h-213c-23 0 -32 -14 -32 -38v-50c0 -7 2 -10 9 -10h316c7 0 11 -3 11 -10v-46c0 -8 -4 -11 -11 -11h-352c-34 0 -47 13 -47 43v88c0 59 31 93 92 93h213c23 0 32 12 32 36v23c0 22 -8 35 -33 35h-279c-7 0 -11 3 -11 10
v46c0 8 4 11 11 11z" />
    <glyph glyph-name="threequarters" unicode="&#xbe;" horiz-adv-x="1141" 
d="M848 700h52c9 0 12 -9 6 -16l-537 -675c-5 -6 -11 -9 -23 -9h-51c-9 0 -12 9 -6 16l537 675c4 6 10 9 22 9zM644 192l247 176c19 13 30 17 54 17h31c29 0 44 -11 44 -51v-197h49c8 0 11 -3 11 -11v-42c0 -7 -3 -11 -11 -11h-49v-62c0 -8 -4 -11 -11 -11h-52
c-7 0 -10 3 -10 11v62h-290c-24 0 -35 13 -35 32v40c0 18 2 33 22 47zM702 142c0 -3 2 -5 5 -5h240v175c0 5 -3 7 -6 7h-5c-6 0 -10 -2 -16 -6l-212 -153c-4 -3 -6 -6 -6 -12v-6zM71 700h291c70 0 96 -29 96 -90v-26c0 -30 -11 -54 -32 -70c24 -16 35 -41 35 -74v-33
c0 -58 -23 -92 -90 -92h-299c-8 0 -11 3 -11 11v46c0 7 3 10 11 10h275c33 0 40 13 40 38v19c0 27 -7 42 -40 42h-272c-7 0 -11 3 -11 10v39c0 7 4 10 11 10h272c32 0 39 13 39 39v16c0 27 -7 38 -39 38h-276c-7 0 -10 3 -10 10v47c0 7 3 10 10 10z" />
    <glyph glyph-name="questiondown" unicode="&#xbf;" horiz-adv-x="630" 
d="M406 385h-80c-12 0 -18 6 -18 18v94c0 12 6 18 18 18h80c12 0 18 -6 18 -18v-94c0 -12 -6 -18 -18 -18zM578 -220h-412c-91 0 -133 46 -133 133v42c0 80 23 115 90 147l166 77c23 10 29 27 31 47l3 28c2 17 7 21 25 21h37c17 0 23 -6 23 -21v-47c0 -36 -9 -66 -48 -86
l-169 -85c-26 -13 -39 -33 -39 -68v-29c0 -37 16 -56 55 -56h371c12 0 18 -6 18 -18v-67c0 -12 -6 -18 -18 -18z" />
    <glyph glyph-name="Agrave" unicode="&#xc0;" horiz-adv-x="970" 
d="M455 700h49c43 0 68 -13 96 -63l350 -617c7 -12 4 -20 -10 -20h-102c-10 0 -15 3 -20 11l-79 141h-507l-78 -141c-4 -8 -9 -11 -20 -11h-105c-13 0 -16 8 -10 20l348 617c28 50 53 63 88 63zM470 577l-185 -330h400l-185 330c-4 6 -7 7 -12 7h-6c-5 0 -8 -1 -12 -7z
M367 915h72c12 0 20 -5 26 -15l92 -153c7 -10 0 -17 -12 -17h-62c-13 0 -19 6 -26 16l-103 153c-7 11 1 16 13 16z" />
    <glyph glyph-name="Aacute" unicode="&#xc1;" horiz-adv-x="970" 
d="M455 700h49c43 0 68 -13 96 -63l350 -617c7 -12 4 -20 -10 -20h-102c-10 0 -15 3 -20 11l-79 141h-507l-78 -141c-4 -8 -9 -11 -20 -11h-105c-13 0 -16 8 -10 20l348 617c28 50 53 63 88 63zM470 577l-185 -330h400l-185 330c-4 6 -7 7 -12 7h-6c-5 0 -8 -1 -12 -7z
M531 915h72c12 0 20 -5 12 -16l-102 -153c-7 -10 -14 -16 -26 -16h-62c-12 0 -19 7 -12 17l92 153c5 10 13 15 26 15z" />
    <glyph glyph-name="Acircumflex" unicode="&#xc2;" horiz-adv-x="970" 
d="M455 700h49c43 0 68 -13 96 -63l350 -617c7 -12 4 -20 -10 -20h-102c-10 0 -15 3 -20 11l-79 141h-507l-78 -141c-4 -8 -9 -11 -20 -11h-105c-13 0 -16 8 -10 20l348 617c28 50 53 63 88 63zM470 577l-185 -330h400l-185 330c-4 6 -7 7 -12 7h-6c-5 0 -8 -1 -12 -7z
M449 915h72c20 0 31 -6 41 -20l108 -147c7 -10 1 -18 -11 -18h-62c-14 0 -21 5 -27 16l-69 100c-3 6 -7 8 -14 8h-4c-7 0 -11 -2 -14 -8l-69 -100c-6 -11 -13 -16 -26 -16h-62c-12 0 -19 8 -11 18l107 147c10 14 20 20 41 20z" />
    <glyph glyph-name="Atilde" unicode="&#xc3;" horiz-adv-x="970" 
d="M455 700h49c43 0 68 -13 96 -63l350 -617c7 -12 4 -20 -10 -20h-102c-10 0 -15 3 -20 11l-79 141h-507l-78 -141c-4 -8 -9 -11 -20 -11h-105c-13 0 -16 8 -10 20l348 617c28 50 53 63 88 63zM470 577l-185 -330h400l-185 330c-4 6 -7 7 -12 7h-6c-5 0 -8 -1 -12 -7z
M291 744h-45c-14 0 -16 6 -16 24c0 110 33 142 122 142c73 0 116 -22 160 -58c25 -23 42 -37 88 -37s53 16 54 82c0 13 9 18 23 18h45c14 0 16 -6 16 -24c0 -110 -33 -142 -122 -142c-73 0 -116 22 -160 58c-25 23 -42 37 -88 37s-53 -16 -54 -81c0 -14 -9 -19 -23 -19z" />
    <glyph glyph-name="Adieresis" unicode="&#xc4;" horiz-adv-x="970" 
d="M455 700h49c43 0 68 -13 96 -63l350 -617c7 -12 4 -20 -10 -20h-102c-10 0 -15 3 -20 11l-79 141h-507l-78 -141c-4 -8 -9 -11 -20 -11h-105c-13 0 -16 8 -10 20l348 617c28 50 53 63 88 63zM470 577l-185 -330h400l-185 330c-4 6 -7 7 -12 7h-6c-5 0 -8 -1 -12 -7z
M309 881h79c13 0 19 -5 19 -15v-93c0 -11 -6 -15 -19 -15h-79c-13 0 -19 4 -19 15v93c0 10 6 15 19 15zM582 881h80c12 0 18 -5 18 -15v-93c0 -11 -6 -15 -18 -15h-80c-12 0 -18 4 -18 15v93c0 10 6 15 18 15z" />
    <glyph glyph-name="Aring" unicode="&#xc5;" horiz-adv-x="970" 
d="M455 700h49c43 0 68 -13 96 -63l350 -617c7 -12 4 -20 -10 -20h-102c-10 0 -15 3 -20 11l-79 141h-507l-78 -141c-4 -8 -9 -11 -20 -11h-105c-13 0 -16 8 -10 20l348 617c28 50 53 63 88 63zM470 577l-185 -330h400l-185 330c-4 6 -7 7 -12 7h-6c-5 0 -8 -1 -12 -7z
M436 915h96c74 0 102 -22 102 -78v-50c0 -56 -28 -78 -102 -78h-96c-73 0 -101 22 -101 78v50c0 56 28 78 101 78zM396 829v-34c0 -29 12 -39 51 -39h74c39 0 51 10 51 39v34c0 30 -12 40 -51 40h-74c-39 0 -51 -10 -51 -40z" />
    <glyph glyph-name="AE" unicode="&#xc6;" horiz-adv-x="1341" 
d="M455 700h815c13 0 19 -6 19 -18v-77c0 -13 -6 -19 -19 -19h-541v-182h536c12 0 18 -6 18 -19v-64c0 -12 -6 -18 -18 -18h-536v-30c0 -121 38 -159 157 -159h384c13 0 19 -6 19 -19v-77c0 -12 -6 -18 -19 -18h-386c-155 0 -237 43 -265 152h-387l-78 -141
c-4 -8 -9 -11 -20 -11h-105c-13 0 -16 8 -10 20l348 617c27 51 53 63 88 63zM471 579l-186 -332h322v339h-124c-5 0 -8 -1 -12 -7z" />
    <glyph glyph-name="Ccedilla" unicode="&#xc7;" horiz-adv-x="849" 
d="M338 700h449c12 0 18 -6 18 -18v-80c0 -12 -6 -18 -18 -18h-445c-119 0 -157 -39 -157 -160v-148c0 -121 38 -160 157 -160h445c12 0 18 -6 18 -18v-80c0 -12 -6 -18 -18 -18h-449c-201 0 -277 72 -277 264v172c0 192 76 264 277 264zM432 -41h73c14 0 20 -7 16 -22
l-41 -190c-4 -13 -10 -19 -22 -19h-45c-14 0 -21 7 -20 20l19 192c1 12 8 19 20 19z" />
    <glyph glyph-name="Egrave" unicode="&#xc8;" horiz-adv-x="847" 
d="M338 700h439c12 0 18 -6 18 -18v-77c0 -13 -6 -19 -18 -19h-438c-119 0 -157 -38 -157 -159v-23h589c12 0 18 -5 18 -18v-64c0 -12 -6 -18 -18 -18h-589v-31c0 -121 38 -159 157 -159h438c12 0 18 -6 18 -19v-77c0 -12 -6 -18 -18 -18h-439c-201 0 -277 72 -277 264v172
c0 192 76 264 277 264zM346 915h72c12 0 20 -5 26 -15l92 -153c7 -10 0 -17 -12 -17h-62c-13 0 -19 6 -26 16l-103 153c-7 11 1 16 13 16z" />
    <glyph glyph-name="Eacute" unicode="&#xc9;" horiz-adv-x="847" 
d="M338 700h439c12 0 18 -6 18 -18v-77c0 -13 -6 -19 -18 -19h-438c-119 0 -157 -38 -157 -159v-23h589c12 0 18 -5 18 -18v-64c0 -12 -6 -18 -18 -18h-589v-31c0 -121 38 -159 157 -159h438c12 0 18 -6 18 -19v-77c0 -12 -6 -18 -18 -18h-439c-201 0 -277 72 -277 264v172
c0 192 76 264 277 264zM511 915h72c12 0 20 -5 12 -16l-102 -153c-7 -10 -14 -16 -26 -16h-62c-12 0 -19 7 -12 17l92 153c5 10 13 15 26 15z" />
    <glyph glyph-name="Ecircumflex" unicode="&#xca;" horiz-adv-x="847" 
d="M338 700h439c12 0 18 -6 18 -18v-77c0 -13 -6 -19 -18 -19h-438c-119 0 -157 -38 -157 -159v-23h589c12 0 18 -5 18 -18v-64c0 -12 -6 -18 -18 -18h-589v-31c0 -121 38 -159 157 -159h438c12 0 18 -6 18 -19v-77c0 -12 -6 -18 -18 -18h-439c-201 0 -277 72 -277 264v172
c0 192 76 264 277 264zM428 915h72c20 0 31 -6 41 -20l108 -147c7 -10 1 -18 -11 -18h-62c-14 0 -21 5 -27 16l-69 100c-3 6 -7 8 -14 8h-4c-7 0 -11 -2 -14 -8l-69 -100c-6 -11 -13 -16 -26 -16h-62c-12 0 -19 8 -11 18l107 147c10 14 20 20 41 20z" />
    <glyph glyph-name="Edieresis" unicode="&#xcb;" horiz-adv-x="847" 
d="M338 700h439c12 0 18 -6 18 -18v-77c0 -13 -6 -19 -18 -19h-438c-119 0 -157 -38 -157 -159v-23h589c12 0 18 -5 18 -18v-64c0 -12 -6 -18 -18 -18h-589v-31c0 -121 38 -159 157 -159h438c12 0 18 -6 18 -19v-77c0 -12 -6 -18 -18 -18h-439c-201 0 -277 72 -277 264v172
c0 192 76 264 277 264zM288 881h79c13 0 19 -5 19 -15v-93c0 -11 -6 -15 -19 -15h-79c-13 0 -19 4 -19 15v93c0 10 6 15 19 15zM561 881h80c12 0 18 -5 18 -15v-93c0 -11 -6 -15 -18 -15h-80c-12 0 -18 4 -18 15v93c0 10 6 15 18 15z" />
    <glyph glyph-name="Igrave" unicode="&#xcc;" horiz-adv-x="266" 
d="M91 700h88c12 0 18 -6 18 -18v-664c0 -12 -6 -18 -18 -18h-88c-12 0 -18 6 -18 18v664c0 12 6 18 18 18zM16 915h72c12 0 20 -5 26 -15l92 -153c7 -10 0 -17 -12 -17h-62c-13 0 -19 6 -26 16l-103 153c-7 11 1 16 13 16z" />
    <glyph glyph-name="Iacute" unicode="&#xcd;" horiz-adv-x="266" 
d="M87 700h88c12 0 18 -6 18 -18v-664c0 -12 -6 -18 -18 -18h-88c-12 0 -18 6 -18 18v664c0 12 6 18 18 18zM177 915h72c12 0 20 -5 12 -16l-102 -153c-7 -10 -14 -16 -26 -16h-62c-12 0 -19 7 -12 17l92 153c5 10 13 15 26 15z" />
    <glyph glyph-name="Icircumflex" unicode="&#xce;" horiz-adv-x="357" 
d="M135 700h88c12 0 18 -6 18 -18v-664c0 -12 -6 -18 -18 -18h-88c-12 0 -18 6 -18 18v664c0 12 6 18 18 18zM143 915h72c20 0 31 -6 41 -20l108 -147c7 -10 1 -18 -11 -18h-62c-14 0 -21 5 -27 16l-69 100c-3 6 -7 8 -14 8h-4c-7 0 -11 -2 -14 -8l-69 -100
c-6 -11 -13 -16 -26 -16h-62c-12 0 -19 8 -11 18l107 147c10 14 20 20 41 20z" />
    <glyph glyph-name="Idieresis" unicode="&#xcf;" horiz-adv-x="340" 
d="M126 700h88c12 0 18 -6 18 -18v-664c0 -12 -6 -18 -18 -18h-88c-12 0 -18 6 -18 18v664c0 12 6 18 18 18zM240 881h79c13 0 19 -5 19 -15v-93c0 -11 -6 -15 -19 -15h-79c-13 0 -19 4 -19 15v93c0 10 6 15 19 15zM21 881h79c13 0 19 -5 19 -15v-93c0 -11 -6 -15 -19 -15
h-79c-13 0 -19 4 -19 15v93c0 10 6 15 19 15z" />
    <glyph glyph-name="Eth" unicode="&#xd0;" horiz-adv-x="979" 
d="M153 700h462c215 0 303 -87 303 -282v-136c0 -195 -88 -282 -303 -282h-462c-20 0 -30 10 -30 30v274h-89c-13 0 -18 6 -18 18v64c0 13 5 18 18 18h89v266c0 20 10 30 30 30zM247 574v-170h367c12 0 18 -5 18 -18v-64c0 -12 -6 -18 -18 -18h-367v-178c0 -8 4 -12 12 -12
h353c134 0 181 47 181 178v116c0 131 -47 178 -181 178h-353c-8 0 -12 -4 -12 -12z" />
    <glyph glyph-name="Ntilde" unicode="&#xd1;" horiz-adv-x="973" 
d="M145 700h73c53 0 65 -11 97 -49l435 -525c4 -5 8 -7 14 -7h10c6 0 9 3 9 10v553c0 12 5 18 18 18h85c12 0 18 -6 18 -18v-594c0 -68 -25 -88 -77 -88h-71c-50 0 -64 9 -97 49l-436 525c-4 5 -8 7 -14 7h-10c-6 0 -8 -3 -8 -10v-553c0 -12 -6 -18 -19 -18h-85
c-12 0 -18 6 -18 18v594c0 68 25 88 76 88zM296 744h-45c-14 0 -16 6 -16 24c0 110 33 142 122 142c73 0 116 -22 160 -58c25 -23 42 -37 88 -37s53 16 54 82c0 13 9 18 23 18h45c14 0 16 -6 16 -24c0 -110 -33 -142 -122 -142c-73 0 -116 22 -160 58c-25 23 -42 37 -88 37
s-53 -16 -54 -81c0 -14 -9 -19 -23 -19z" />
    <glyph glyph-name="Ograve" unicode="&#xd2;" horiz-adv-x="981" 
d="M338 700h305c201 0 277 -72 277 -264v-172c0 -192 -76 -264 -277 -264h-305c-201 0 -277 72 -277 264v172c0 192 76 264 277 264zM185 427v-154c0 -121 38 -159 157 -159h296c120 0 157 38 157 159v154c0 121 -37 159 -157 159h-296c-119 0 -157 -38 -157 -159zM365 915
h72c12 0 20 -5 26 -15l92 -153c7 -10 0 -17 -12 -17h-62c-13 0 -19 6 -26 16l-103 153c-7 11 1 16 13 16z" />
    <glyph glyph-name="Oacute" unicode="&#xd3;" horiz-adv-x="981" 
d="M338 700h305c201 0 277 -72 277 -264v-172c0 -192 -76 -264 -277 -264h-305c-201 0 -277 72 -277 264v172c0 192 76 264 277 264zM185 427v-154c0 -121 38 -159 157 -159h296c120 0 157 38 157 159v154c0 121 -37 159 -157 159h-296c-119 0 -157 -38 -157 -159zM535 915
h72c12 0 20 -5 12 -16l-102 -153c-7 -10 -14 -16 -26 -16h-62c-12 0 -19 7 -12 17l92 153c5 10 13 15 26 15z" />
    <glyph glyph-name="Ocircumflex" unicode="&#xd4;" horiz-adv-x="981" 
d="M338 700h305c201 0 277 -72 277 -264v-172c0 -192 -76 -264 -277 -264h-305c-201 0 -277 72 -277 264v172c0 192 76 264 277 264zM185 427v-154c0 -121 38 -159 157 -159h296c120 0 157 38 157 159v154c0 121 -37 159 -157 159h-296c-119 0 -157 -38 -157 -159zM454 915
h72c20 0 31 -6 41 -20l108 -147c7 -10 1 -18 -11 -18h-62c-14 0 -21 5 -27 16l-69 100c-3 6 -7 8 -14 8h-4c-7 0 -11 -2 -14 -8l-69 -100c-6 -11 -13 -16 -26 -16h-62c-12 0 -19 8 -11 18l107 147c10 14 20 20 41 20z" />
    <glyph glyph-name="Otilde" unicode="&#xd5;" horiz-adv-x="981" 
d="M338 700h305c201 0 277 -72 277 -264v-172c0 -192 -76 -264 -277 -264h-305c-201 0 -277 72 -277 264v172c0 192 76 264 277 264zM185 427v-154c0 -121 38 -159 157 -159h296c120 0 157 38 157 159v154c0 121 -37 159 -157 159h-296c-119 0 -157 -38 -157 -159zM297 744
h-45c-14 0 -16 6 -16 24c0 110 33 142 122 142c73 0 116 -22 160 -58c25 -23 42 -37 88 -37s53 16 54 82c0 13 9 18 23 18h45c14 0 16 -6 16 -24c0 -110 -33 -142 -122 -142c-73 0 -116 22 -160 58c-25 23 -42 37 -88 37s-53 -16 -54 -81c0 -14 -9 -19 -23 -19z" />
    <glyph glyph-name="Odieresis" unicode="&#xd6;" horiz-adv-x="981" 
d="M338 700h305c201 0 277 -72 277 -264v-172c0 -192 -76 -264 -277 -264h-305c-201 0 -277 72 -277 264v172c0 192 76 264 277 264zM185 427v-154c0 -121 38 -159 157 -159h296c120 0 157 38 157 159v154c0 121 -37 159 -157 159h-296c-119 0 -157 -38 -157 -159zM314 881
h79c13 0 19 -5 19 -15v-93c0 -11 -6 -15 -19 -15h-79c-13 0 -19 4 -19 15v93c0 10 6 15 19 15zM587 881h80c12 0 18 -5 18 -15v-93c0 -11 -6 -15 -18 -15h-80c-12 0 -18 4 -18 15v93c0 10 6 15 18 15z" />
    <glyph glyph-name="multiply" unicode="&#xd7;" horiz-adv-x="613" 
d="M68 552l35 36c7 7 15 7 22 0l181 -182l182 182c7 7 14 7 21 0l35 -36c7 -6 7 -14 0 -20l-182 -182l182 -182c7 -7 7 -14 0 -21l-35 -35c-7 -7 -14 -7 -21 0l-182 182l-182 -182c-7 -7 -14 -7 -21 0l-35 35c-7 7 -7 14 0 21l182 182l-182 182c-7 6 -7 14 0 20z" />
    <glyph glyph-name="Oslash" unicode="&#xd8;" horiz-adv-x="981" 
d="M338 700h305c22 0 42 -1 61 -3l66 89c9 12 17 14 27 14h50c9 0 15 -8 7 -17l-74 -100c99 -31 140 -107 140 -247v-172c0 -192 -76 -264 -277 -264h-305c-23 0 -43 0 -63 2l-65 -88c-9 -12 -17 -14 -27 -14h-50c-10 0 -15 8 -8 17l74 100c-98 32 -138 108 -138 247v172
c0 192 76 264 277 264zM795 427c0 95 -23 139 -92 153l-345 -466h280c120 0 157 38 157 159v154zM185 427v-154c0 -95 23 -139 90 -153l346 466h-279c-119 0 -157 -38 -157 -159z" />
    <glyph glyph-name="Ugrave" unicode="&#xd9;" horiz-adv-x="972" 
d="M85 700h88c12 0 18 -6 18 -18v-406c0 -121 38 -160 157 -160h276c119 0 157 39 157 160v406c0 12 6 18 18 18h88c12 0 18 -6 18 -18v-418c0 -192 -76 -264 -277 -264h-284c-201 0 -277 72 -277 264v418c0 12 6 18 18 18zM367 915h72c12 0 20 -5 26 -15l92 -153
c7 -10 0 -17 -12 -17h-62c-13 0 -19 6 -26 16l-103 153c-7 11 1 16 13 16z" />
    <glyph glyph-name="Uacute" unicode="&#xda;" horiz-adv-x="972" 
d="M85 700h88c12 0 18 -6 18 -18v-406c0 -121 38 -160 157 -160h276c119 0 157 39 157 160v406c0 12 6 18 18 18h88c12 0 18 -6 18 -18v-418c0 -192 -76 -264 -277 -264h-284c-201 0 -277 72 -277 264v418c0 12 6 18 18 18zM532 915h72c12 0 20 -5 12 -16l-102 -153
c-7 -10 -14 -16 -26 -16h-62c-12 0 -19 7 -12 17l92 153c5 10 13 15 26 15z" />
    <glyph glyph-name="Ucircumflex" unicode="&#xdb;" horiz-adv-x="972" 
d="M85 700h88c12 0 18 -6 18 -18v-406c0 -121 38 -160 157 -160h276c119 0 157 39 157 160v406c0 12 6 18 18 18h88c12 0 18 -6 18 -18v-418c0 -192 -76 -264 -277 -264h-284c-201 0 -277 72 -277 264v418c0 12 6 18 18 18zM449 915h72c20 0 31 -6 41 -20l108 -147
c7 -10 1 -18 -11 -18h-62c-14 0 -21 5 -27 16l-69 100c-3 6 -7 8 -14 8h-4c-7 0 -11 -2 -14 -8l-69 -100c-6 -11 -13 -16 -26 -16h-62c-12 0 -19 8 -11 18l107 147c10 14 20 20 41 20z" />
    <glyph glyph-name="Udieresis" unicode="&#xdc;" horiz-adv-x="972" 
d="M85 700h88c12 0 18 -6 18 -18v-406c0 -121 38 -160 157 -160h276c119 0 157 39 157 160v406c0 12 6 18 18 18h88c12 0 18 -6 18 -18v-418c0 -192 -76 -264 -277 -264h-284c-201 0 -277 72 -277 264v418c0 12 6 18 18 18zM309 881h79c13 0 19 -5 19 -15v-93
c0 -11 -6 -15 -19 -15h-79c-13 0 -19 4 -19 15v93c0 10 6 15 19 15zM582 881h80c12 0 18 -5 18 -15v-93c0 -11 -6 -15 -18 -15h-80c-12 0 -18 4 -18 15v93c0 10 6 15 18 15z" />
    <glyph glyph-name="Yacute" unicode="&#xdd;" horiz-adv-x="893" 
d="M24 700h109c10 0 15 -3 20 -10l294 -381l295 381c6 7 11 10 21 10h106c9 0 13 -9 7 -17l-368 -465v-200c0 -12 -6 -18 -19 -18h-87c-13 0 -19 6 -19 18v200l-367 465c-5 8 -2 17 8 17zM493 915h72c12 0 20 -5 12 -16l-102 -153c-7 -10 -14 -16 -26 -16h-62
c-12 0 -19 7 -12 17l92 153c5 10 13 15 26 15z" />
    <glyph glyph-name="Thorn" unicode="&#xde;" horiz-adv-x="885" 
d="M87 700h88c12 0 18 -6 18 -18v-116h444c146 0 205 -67 205 -196v-56c0 -129 -59 -197 -205 -197h-444v-99c0 -12 -6 -18 -18 -18h-88c-12 0 -18 6 -18 18v664c0 12 6 18 18 18zM193 458v-233h420c77 0 104 33 104 101v32c0 68 -27 100 -104 100h-420z" />
    <glyph glyph-name="germandbls" unicode="&#xdf;" horiz-adv-x="912" 
d="M265 765h102c150 0 190 -57 191 -196v-94c0 -36 14 -56 57 -56h85c109 0 155 -45 155 -154v-105c0 -103 -40 -160 -156 -160h-386c-10 0 -15 5 -15 15v67c0 10 5 15 15 15h348c56 0 78 28 78 79v71c0 54 -24 77 -79 77h-78c-103 0 -141 44 -141 129v116
c0 68 -20 99 -93 99h-64c-80 0 -102 -31 -102 -100v-550c0 -12 -6 -18 -18 -18h-80c-12 0 -18 6 -18 18v550c0 140 41 197 199 197z" />
    <glyph glyph-name="agrave" unicode="&#xe0;" 
d="M75 541h429c178 0 236 -56 236 -199v-263c0 -64 -16 -79 -73 -79h-471c-117 0 -153 42 -153 140v45c0 82 36 128 153 128h427v24c0 76 -28 105 -130 105h-418c-10 0 -15 5 -15 15v69c0 10 5 15 15 15zM589 91c26 0 34 9 34 38v110h-395c-53 0 -71 -21 -71 -60v-23
c0 -45 18 -65 71 -65h361zM279 808h72c13 0 20 -6 26 -19l94 -191c6 -13 0 -21 -13 -21h-62c-12 0 -18 7 -25 20l-105 191c-7 14 1 20 13 20z" />
    <glyph glyph-name="aacute" unicode="&#xe1;" 
d="M75 541h429c178 0 236 -56 236 -199v-263c0 -64 -16 -79 -73 -79h-471c-117 0 -153 42 -153 140v45c0 82 36 128 153 128h427v24c0 76 -28 105 -130 105h-418c-10 0 -15 5 -15 15v69c0 10 5 15 15 15zM589 91c26 0 34 9 34 38v110h-395c-53 0 -71 -21 -71 -60v-23
c0 -45 18 -65 71 -65h361zM443 808h72c11 0 19 -6 12 -20l-104 -191c-7 -13 -13 -20 -26 -20h-61c-13 0 -19 8 -13 21l93 191c6 13 14 19 27 19z" />
    <glyph glyph-name="acircumflex" unicode="&#xe2;" 
d="M75 541h429c178 0 236 -56 236 -199v-263c0 -64 -16 -79 -73 -79h-471c-117 0 -153 42 -153 140v45c0 82 36 128 153 128h427v24c0 76 -28 105 -130 105h-418c-10 0 -15 5 -15 15v69c0 10 5 15 15 15zM589 91c26 0 34 9 34 38v110h-395c-53 0 -71 -21 -71 -60v-23
c0 -45 18 -65 71 -65h361zM357 808h72c20 0 30 -7 40 -23l108 -186c8 -12 1 -22 -11 -22h-62c-14 0 -20 6 -26 19l-70 129c-3 6 -6 9 -13 9h-4c-7 0 -10 -3 -13 -9l-70 -129c-6 -13 -12 -19 -26 -19h-62c-12 0 -19 10 -12 22l109 186c9 16 20 23 40 23z" />
    <glyph glyph-name="atilde" unicode="&#xe3;" 
d="M75 541h429c178 0 236 -56 236 -199v-263c0 -64 -16 -79 -73 -79h-471c-117 0 -153 42 -153 140v45c0 82 36 128 153 128h427v24c0 76 -28 105 -130 105h-418c-10 0 -15 5 -15 15v69c0 10 5 15 15 15zM589 91c26 0 34 9 34 38v110h-395c-53 0 -71 -21 -71 -60v-23
c0 -45 18 -65 71 -65h361zM200 596h-45c-14 0 -16 8 -16 27c0 117 32 151 121 151c74 0 117 -23 161 -61c24 -23 42 -38 88 -38c47 0 53 17 54 83c0 15 9 21 23 21h45c14 0 16 -8 16 -27c0 -117 -33 -151 -121 -151c-74 0 -117 23 -161 61c-24 23 -42 38 -89 38
c-46 0 -52 -17 -53 -83c0 -15 -9 -21 -23 -21z" />
    <glyph glyph-name="adieresis" unicode="&#xe4;" 
d="M75 541h429c178 0 236 -56 236 -199v-263c0 -64 -16 -79 -73 -79h-471c-117 0 -153 42 -153 140v45c0 82 36 128 153 128h427v24c0 76 -28 105 -130 105h-418c-10 0 -15 5 -15 15v69c0 10 5 15 15 15zM589 91c26 0 34 9 34 38v110h-395c-53 0 -71 -21 -71 -60v-23
c0 -45 18 -65 71 -65h361zM490 740h80c12 0 18 -6 18 -18v-93c0 -13 -6 -19 -18 -19h-80c-12 0 -18 6 -18 19v93c0 12 6 18 18 18zM217 740h80c12 0 18 -6 18 -18v-93c0 -13 -6 -19 -18 -19h-80c-12 0 -18 6 -18 19v93c0 12 6 18 18 18z" />
    <glyph glyph-name="aring" unicode="&#xe5;" 
d="M75 541h429c178 0 236 -56 236 -199v-263c0 -64 -16 -79 -73 -79h-471c-117 0 -153 42 -153 140v45c0 82 36 128 153 128h427v24c0 76 -28 105 -130 105h-418c-10 0 -15 5 -15 15v69c0 10 5 15 15 15zM589 91c26 0 34 9 34 38v110h-395c-53 0 -71 -21 -71 -60v-23
c0 -45 18 -65 71 -65h361zM339 808h111c73 0 101 -27 101 -97v-63c0 -70 -28 -97 -101 -97h-111c-74 0 -102 27 -102 97v63c0 70 28 97 102 97zM299 701v-43c0 -38 11 -50 50 -50h91c38 0 50 12 50 50v43c0 39 -12 51 -50 51h-91c-39 0 -50 -12 -50 -51z" />
    <glyph glyph-name="ae" unicode="&#xe6;" horiz-adv-x="1370" 
d="M863 541h290c135 0 171 -42 171 -161v-89c0 -42 -18 -56 -57 -56h-524v-31c0 -75 29 -105 131 -105h418c10 0 15 -5 15 -15v-69c0 -10 -5 -15 -15 -15h-429c-57 0 -102 5 -136 18c-11 -14 -30 -18 -60 -18h-471c-117 0 -153 42 -153 140v45c0 82 36 128 153 128h427v24
c0 76 -28 105 -130 105h-418c-10 0 -15 5 -15 15v69c0 10 5 15 15 15h429c85 0 142 -13 179 -41c37 28 95 41 180 41zM589 91c26 0 34 9 34 38v110h-395c-53 0 -71 -21 -71 -60v-23c0 -45 18 -65 71 -65h361zM743 344v-35h446c14 0 21 5 21 21v46c0 54 -18 74 -79 74h-257
c-102 0 -131 -30 -131 -106z" />
    <glyph glyph-name="ccedilla" unicode="&#xe7;" horiz-adv-x="727" 
d="M277 541h400c11 0 15 -5 15 -15v-69c0 -10 -4 -15 -15 -15h-389c-102 0 -130 -30 -130 -122v-99c0 -92 28 -122 130 -122h389c11 0 15 -5 15 -15v-69c0 -10 -4 -15 -15 -15h-400c-179 0 -235 57 -235 199v143c0 143 56 199 235 199zM357 -41h73c14 0 20 -7 16 -22
l-41 -190c-4 -13 -10 -19 -22 -19h-45c-14 0 -21 7 -20 20l19 192c1 12 8 19 20 19z" />
    <glyph glyph-name="egrave" unicode="&#xe8;" 
d="M279 541h290c135 0 171 -42 171 -161v-89c0 -42 -18 -56 -57 -56h-524v-31c0 -75 29 -105 131 -105h418c10 0 15 -5 15 -15v-69c0 -10 -5 -15 -15 -15h-429c-179 0 -236 57 -236 199v143c0 143 57 199 236 199zM159 344v-35h446c14 0 21 5 21 21v46c0 54 -18 74 -79 74
h-257c-102 0 -131 -30 -131 -106zM276 808h72c13 0 20 -6 26 -19l94 -191c6 -13 0 -21 -13 -21h-62c-12 0 -18 7 -25 20l-105 191c-7 14 1 20 13 20z" />
    <glyph glyph-name="eacute" unicode="&#xe9;" 
d="M279 541h290c135 0 171 -42 171 -161v-89c0 -42 -18 -56 -57 -56h-524v-31c0 -75 29 -105 131 -105h418c10 0 15 -5 15 -15v-69c0 -10 -5 -15 -15 -15h-429c-179 0 -236 57 -236 199v143c0 143 57 199 236 199zM159 344v-35h446c14 0 21 5 21 21v46c0 54 -18 74 -79 74
h-257c-102 0 -131 -30 -131 -106zM440 808h72c11 0 19 -6 12 -20l-104 -191c-7 -13 -13 -20 -26 -20h-61c-13 0 -19 8 -13 21l93 191c6 13 14 19 27 19z" />
    <glyph glyph-name="ecircumflex" unicode="&#xea;" 
d="M279 541h290c135 0 171 -42 171 -161v-89c0 -42 -18 -56 -57 -56h-524v-31c0 -75 29 -105 131 -105h418c10 0 15 -5 15 -15v-69c0 -10 -5 -15 -15 -15h-429c-179 0 -236 57 -236 199v143c0 143 57 199 236 199zM159 344v-35h446c14 0 21 5 21 21v46c0 54 -18 74 -79 74
h-257c-102 0 -131 -30 -131 -106zM357 808h72c20 0 30 -7 40 -23l108 -186c8 -12 1 -22 -11 -22h-62c-14 0 -20 6 -26 19l-70 129c-3 6 -6 9 -13 9h-4c-7 0 -10 -3 -13 -9l-70 -129c-6 -13 -12 -19 -26 -19h-62c-12 0 -19 10 -12 22l109 186c9 16 20 23 40 23z" />
    <glyph glyph-name="edieresis" unicode="&#xeb;" 
d="M279 541h290c135 0 171 -42 171 -161v-89c0 -42 -18 -56 -57 -56h-524v-31c0 -75 29 -105 131 -105h418c10 0 15 -5 15 -15v-69c0 -10 -5 -15 -15 -15h-429c-179 0 -236 57 -236 199v143c0 143 57 199 236 199zM159 344v-35h446c14 0 21 5 21 21v46c0 54 -18 74 -79 74
h-257c-102 0 -131 -30 -131 -106zM490 740h80c12 0 18 -6 18 -18v-93c0 -13 -6 -19 -18 -19h-80c-12 0 -18 6 -18 19v93c0 12 6 18 18 18zM217 740h80c12 0 18 -6 18 -18v-93c0 -13 -6 -19 -18 -19h-80c-12 0 -18 6 -18 19v93c0 12 6 18 18 18z" />
    <glyph glyph-name="igrave" unicode="&#xec;" horiz-adv-x="259" 
d="M16 808h72c13 0 20 -6 26 -19l94 -191c6 -13 0 -21 -13 -21h-62c-12 0 -18 7 -25 20l-105 191c-7 14 1 20 13 20zM95 541h79c13 0 19 -6 19 -18v-505c0 -12 -6 -18 -19 -18h-79c-13 0 -18 6 -18 18v505c0 12 5 18 18 18z" />
    <glyph glyph-name="iacute" unicode="&#xed;" horiz-adv-x="260" 
d="M172 808h72c11 0 19 -6 12 -20l-104 -191c-7 -13 -13 -20 -26 -20h-61c-13 0 -19 8 -13 21l93 191c6 13 14 19 27 19zM85 541h79c13 0 19 -6 19 -18v-505c0 -12 -6 -18 -19 -18h-79c-13 0 -18 6 -18 18v505c0 12 5 18 18 18z" />
    <glyph glyph-name="icircumflex" unicode="&#xee;" horiz-adv-x="352" 
d="M136 541h79c13 0 19 -6 19 -18v-505c0 -12 -6 -18 -19 -18h-79c-13 0 -18 6 -18 18v505c0 12 5 18 18 18zM140 808h72c20 0 30 -7 40 -23l108 -186c8 -12 1 -22 -11 -22h-62c-14 0 -20 6 -26 19l-70 129c-3 6 -6 9 -13 9h-4c-7 0 -10 -3 -13 -9l-70 -129
c-6 -13 -12 -19 -26 -19h-62c-12 0 -19 10 -12 22l109 186c9 16 20 23 40 23z" />
    <glyph glyph-name="idieresis" unicode="&#xef;" horiz-adv-x="346" 
d="M134 541h79c13 0 19 -6 19 -18v-505c0 -12 -6 -18 -19 -18h-79c-13 0 -18 6 -18 18v505c0 12 5 18 18 18zM243 740h80c12 0 18 -6 18 -18v-93c0 -13 -6 -19 -18 -19h-80c-12 0 -18 6 -18 19v93c0 12 6 18 18 18zM22 740h80c12 0 18 -6 18 -18v-93c0 -13 -6 -19 -18 -19
h-80c-12 0 -18 6 -18 19v93c0 12 6 18 18 18z" />
    <glyph glyph-name="eth" unicode="&#xf0;" horiz-adv-x="868" 
d="M423 863h55c9 0 14 -7 10 -17l-40 -75h121c179 0 235 -58 235 -204v-364c0 -145 -56 -203 -235 -203h-277c-178 0 -235 58 -235 203v79c0 145 57 203 235 203h396v68c0 83 -30 119 -129 119h-163l-61 -117c-4 -10 -7 -15 -19 -15h-54c-10 0 -15 7 -11 17l61 115h-100
c-10 0 -15 5 -15 15v69c0 10 5 15 15 15h152l41 77c4 10 7 15 18 15zM558 99c103 0 130 30 130 127v173h-385c-103 0 -130 -31 -130 -126v-48c0 -94 29 -126 139 -126h246z" />
    <glyph glyph-name="ntilde" unicode="&#xf1;" horiz-adv-x="880" 
d="M298 541h284c178 0 235 -57 235 -199v-324c0 -12 -6 -18 -18 -18h-80c-12 0 -18 6 -18 18v297c0 91 -23 122 -125 122h-267c-101 0 -130 -31 -130 -122v-297c0 -12 -6 -18 -18 -18h-80c-12 0 -18 6 -18 18v324c0 142 57 199 235 199zM247 596h-45c-14 0 -16 8 -16 27
c0 117 32 151 121 151c74 0 117 -23 161 -61c24 -23 42 -38 88 -38c47 0 53 17 54 83c0 15 9 21 23 21h45c14 0 16 -8 16 -27c0 -117 -33 -151 -121 -151c-74 0 -117 23 -161 61c-24 23 -42 38 -89 38c-46 0 -52 -17 -53 -83c0 -15 -9 -21 -23 -21z" />
    <glyph glyph-name="ograve" unicode="&#xf2;" horiz-adv-x="865" 
d="M292 541h280c178 0 235 -56 235 -199v-143c0 -142 -57 -199 -235 -199h-280c-178 0 -235 57 -235 199v143c0 143 57 199 235 199zM173 322v-103c0 -92 29 -123 130 -123h258c102 0 130 31 130 123v103c0 93 -28 123 -130 123h-258c-101 0 -130 -30 -130 -123zM315 808h72
c13 0 20 -6 26 -19l94 -191c6 -13 0 -21 -13 -21h-62c-12 0 -18 7 -25 20l-105 191c-7 14 1 20 13 20z" />
    <glyph glyph-name="oacute" unicode="&#xf3;" horiz-adv-x="865" 
d="M292 541h280c178 0 235 -56 235 -199v-143c0 -142 -57 -199 -235 -199h-280c-178 0 -235 57 -235 199v143c0 143 57 199 235 199zM173 322v-103c0 -92 29 -123 130 -123h258c102 0 130 31 130 123v103c0 93 -28 123 -130 123h-258c-101 0 -130 -30 -130 -123zM476 808h72
c11 0 19 -6 12 -20l-104 -191c-7 -13 -13 -20 -26 -20h-61c-13 0 -19 8 -13 21l93 191c6 13 14 19 27 19z" />
    <glyph glyph-name="ocircumflex" unicode="&#xf4;" horiz-adv-x="865" 
d="M292 541h280c178 0 235 -56 235 -199v-143c0 -142 -57 -199 -235 -199h-280c-178 0 -235 57 -235 199v143c0 143 57 199 235 199zM173 322v-103c0 -92 29 -123 130 -123h258c102 0 130 31 130 123v103c0 93 -28 123 -130 123h-258c-101 0 -130 -30 -130 -123zM395 808h72
c20 0 30 -7 40 -23l108 -186c8 -12 1 -22 -11 -22h-62c-14 0 -20 6 -26 19l-70 129c-3 6 -6 9 -13 9h-4c-7 0 -10 -3 -13 -9l-70 -129c-6 -13 -12 -19 -26 -19h-62c-12 0 -19 10 -12 22l109 186c9 16 20 23 40 23z" />
    <glyph glyph-name="otilde" unicode="&#xf5;" horiz-adv-x="865" 
d="M292 541h280c178 0 235 -56 235 -199v-143c0 -142 -57 -199 -235 -199h-280c-178 0 -235 57 -235 199v143c0 143 57 199 235 199zM173 322v-103c0 -92 29 -123 130 -123h258c102 0 130 31 130 123v103c0 93 -28 123 -130 123h-258c-101 0 -130 -30 -130 -123zM239 596
h-45c-14 0 -16 8 -16 27c0 117 32 151 121 151c74 0 117 -23 161 -61c24 -23 42 -38 88 -38c47 0 53 17 54 83c0 15 9 21 23 21h45c14 0 16 -8 16 -27c0 -117 -33 -151 -121 -151c-74 0 -117 23 -161 61c-24 23 -42 38 -89 38c-46 0 -52 -17 -53 -83c0 -15 -9 -21 -23 -21z
" />
    <glyph glyph-name="odieresis" unicode="&#xf6;" horiz-adv-x="865" 
d="M292 541h280c178 0 235 -56 235 -199v-143c0 -142 -57 -199 -235 -199h-280c-178 0 -235 57 -235 199v143c0 143 57 199 235 199zM173 322v-103c0 -92 29 -123 130 -123h258c102 0 130 31 130 123v103c0 93 -28 123 -130 123h-258c-101 0 -130 -30 -130 -123zM528 740h80
c12 0 18 -6 18 -18v-93c0 -13 -6 -19 -18 -19h-80c-12 0 -18 6 -18 19v93c0 12 6 18 18 18zM255 740h80c12 0 18 -6 18 -18v-93c0 -13 -6 -19 -18 -19h-80c-12 0 -18 6 -18 19v93c0 12 6 18 18 18z" />
    <glyph glyph-name="divide" unicode="&#xf7;" horiz-adv-x="613" 
d="M59 390h494c10 0 15 -5 15 -15v-50c0 -10 -5 -15 -15 -15h-494c-10 0 -15 5 -15 15v50c0 10 5 15 15 15zM266 197h80c12 0 18 -6 18 -18v-94c0 -12 -6 -18 -18 -18h-80c-12 0 -18 6 -18 18v94c0 12 6 18 18 18zM266 633h80c12 0 18 -6 18 -18v-94c0 -12 -6 -18 -18 -18
h-80c-12 0 -18 6 -18 18v94c0 12 6 18 18 18z" />
    <glyph glyph-name="oslash" unicode="&#xf8;" horiz-adv-x="865" 
d="M292 541h280c23 0 44 -1 63 -3l73 80c9 10 14 14 27 14h50c11 0 15 -9 8 -17l-85 -93c72 -26 99 -83 99 -180v-143c0 -142 -57 -199 -235 -199h-280c-23 0 -43 0 -62 2l-73 -79c-8 -10 -14 -14 -27 -14h-50c-10 0 -14 9 -7 17l84 92c-74 26 -100 84 -100 181v143
c0 143 57 199 235 199zM173 322v-103c0 -67 15 -102 63 -116l313 342h-246c-101 0 -130 -30 -130 -123zM691 322c0 67 -15 101 -61 115l-314 -341h245c102 0 130 31 130 123v103z" />
    <glyph glyph-name="ugrave" unicode="&#xf9;" horiz-adv-x="872" 
d="M81 541h80c12 0 18 -6 18 -18v-297c0 -91 24 -122 125 -122h259c102 0 130 31 130 122v297c0 12 6 18 18 18h80c12 0 18 -6 18 -18v-324c0 -142 -57 -199 -235 -199h-276c-178 0 -235 57 -235 199v324c0 12 6 18 18 18zM318 808h72c13 0 20 -6 26 -19l94 -191
c6 -13 0 -21 -13 -21h-62c-12 0 -18 7 -25 20l-105 191c-7 14 1 20 13 20z" />
    <glyph glyph-name="uacute" unicode="&#xfa;" horiz-adv-x="872" 
d="M81 541h80c12 0 18 -6 18 -18v-297c0 -91 24 -122 125 -122h259c102 0 130 31 130 122v297c0 12 6 18 18 18h80c12 0 18 -6 18 -18v-324c0 -142 -57 -199 -235 -199h-276c-178 0 -235 57 -235 199v324c0 12 6 18 18 18zM483 808h72c11 0 19 -6 12 -20l-104 -191
c-7 -13 -13 -20 -26 -20h-61c-13 0 -19 8 -13 21l93 191c6 13 14 19 27 19z" />
    <glyph glyph-name="ucircumflex" unicode="&#xfb;" horiz-adv-x="872" 
d="M81 541h80c12 0 18 -6 18 -18v-297c0 -91 24 -122 125 -122h259c102 0 130 31 130 122v297c0 12 6 18 18 18h80c12 0 18 -6 18 -18v-324c0 -142 -57 -199 -235 -199h-276c-178 0 -235 57 -235 199v324c0 12 6 18 18 18zM399 808h72c20 0 30 -7 40 -23l108 -186
c8 -12 1 -22 -11 -22h-62c-14 0 -20 6 -26 19l-70 129c-3 6 -6 9 -13 9h-4c-7 0 -10 -3 -13 -9l-70 -129c-6 -13 -12 -19 -26 -19h-62c-12 0 -19 10 -12 22l109 186c9 16 20 23 40 23z" />
    <glyph glyph-name="udieresis" unicode="&#xfc;" horiz-adv-x="872" 
d="M81 541h80c12 0 18 -6 18 -18v-297c0 -91 24 -122 125 -122h259c102 0 130 31 130 122v297c0 12 6 18 18 18h80c12 0 18 -6 18 -18v-324c0 -142 -57 -199 -235 -199h-276c-178 0 -235 57 -235 199v324c0 12 6 18 18 18zM534 740h80c12 0 18 -6 18 -18v-93
c0 -13 -6 -19 -18 -19h-80c-12 0 -18 6 -18 19v93c0 12 6 18 18 18zM261 740h80c12 0 18 -6 18 -18v-93c0 -13 -6 -19 -18 -19h-80c-12 0 -18 6 -18 19v93c0 12 6 18 18 18z" />
    <glyph glyph-name="yacute" unicode="&#xfd;" horiz-adv-x="827" 
d="M697 541h91c11 0 16 -10 11 -21l-409 -679c-24 -43 -67 -62 -144 -62h-62c-10 0 -15 5 -15 15v67c0 10 5 15 15 15h54c28 0 45 7 56 25l66 108c-24 3 -38 13 -49 35l-293 476c-6 11 -1 21 11 21h93c11 0 17 -3 20 -11l253 -410c7 -12 10 -17 21 -19l261 429
c4 8 10 11 20 11zM463 808h72c11 0 19 -6 12 -20l-104 -191c-7 -13 -13 -20 -26 -20h-61c-13 0 -19 8 -13 21l93 191c6 13 14 19 27 19z" />
    <glyph glyph-name="thorn" unicode="&#xfe;" horiz-adv-x="868" 
d="M81 750h80c12 0 18 -6 18 -18v-191h396c178 0 235 -56 235 -199v-143c0 -142 -57 -199 -235 -199h-396v-203c0 -12 -6 -18 -18 -18h-80c-12 0 -18 6 -18 18v935c0 12 6 18 18 18zM179 442v-343h385c102 0 130 30 130 122v99c0 92 -28 122 -130 122h-385z" />
    <glyph glyph-name="ydieresis" unicode="&#xff;" horiz-adv-x="827" 
d="M697 541h91c11 0 16 -10 11 -21l-409 -679c-24 -43 -67 -62 -144 -62h-62c-10 0 -15 5 -15 15v67c0 10 5 15 15 15h54c28 0 45 7 56 25l66 108c-24 3 -38 13 -49 35l-293 476c-6 11 -1 21 11 21h93c11 0 17 -3 20 -11l253 -410c7 -12 10 -17 21 -19l261 429
c4 8 10 11 20 11zM511 740h80c12 0 18 -6 18 -18v-93c0 -13 -6 -19 -18 -19h-80c-12 0 -18 6 -18 19v93c0 12 6 18 18 18zM238 740h80c12 0 18 -6 18 -18v-93c0 -13 -6 -19 -18 -19h-80c-12 0 -18 6 -18 19v93c0 12 6 18 18 18z" />
    <glyph glyph-name="Amacron" unicode="&#x100;" horiz-adv-x="970" 
d="M455 700h49c43 0 68 -13 96 -63l350 -617c7 -12 4 -20 -10 -20h-102c-10 0 -15 3 -20 11l-79 141h-507l-78 -141c-4 -8 -9 -11 -20 -11h-105c-13 0 -16 8 -10 20l348 617c28 50 53 63 88 63zM470 577l-185 -330h400l-185 330c-4 6 -7 7 -12 7h-6c-5 0 -8 -1 -12 -7z
M251 862h471c13 0 19 -5 19 -15v-52c0 -10 -6 -15 -19 -15h-471c-13 0 -19 5 -19 15v52c0 10 6 15 19 15z" />
    <glyph glyph-name="amacron" unicode="&#x101;" 
d="M75 541h429c178 0 236 -56 236 -199v-263c0 -64 -16 -79 -73 -79h-471c-117 0 -153 42 -153 140v45c0 82 36 128 153 128h427v24c0 76 -28 105 -130 105h-418c-10 0 -15 5 -15 15v69c0 10 5 15 15 15zM589 91c26 0 34 9 34 38v110h-395c-53 0 -71 -21 -71 -60v-23
c0 -45 18 -65 71 -65h361zM158 718h472c12 0 18 -6 18 -18v-49c0 -12 -6 -18 -18 -18h-472c-12 0 -18 6 -18 18v49c0 12 6 18 18 18z" />
    <glyph glyph-name="Abreve" unicode="&#x102;" horiz-adv-x="970" 
d="M455 700h49c43 0 68 -13 96 -63l350 -617c7 -12 4 -20 -10 -20h-102c-10 0 -15 3 -20 11l-79 141h-507l-78 -141c-4 -8 -9 -11 -20 -11h-105c-13 0 -16 8 -10 20l348 617c28 50 53 63 88 63zM470 577l-185 -330h400l-185 330c-4 6 -7 7 -12 7h-6c-5 0 -8 -1 -12 -7z
M248 855v34c0 9 6 16 16 16c6 0 13 -2 21 -8c26 -20 100 -72 201 -72c100 0 175 52 200 72c8 6 15 8 21 8c10 0 16 -7 16 -16v-34c0 -12 -2 -20 -17 -30c-36 -26 -125 -66 -220 -66c-96 0 -185 40 -220 66c-16 10 -18 18 -18 30z" />
    <glyph glyph-name="abreve" unicode="&#x103;" 
d="M75 541h429c178 0 236 -56 236 -199v-263c0 -64 -16 -79 -73 -79h-471c-117 0 -153 42 -153 140v45c0 82 36 128 153 128h427v24c0 76 -28 105 -130 105h-418c-10 0 -15 5 -15 15v69c0 10 5 15 15 15zM589 91c26 0 34 9 34 38v110h-395c-53 0 -71 -21 -71 -60v-23
c0 -45 18 -65 71 -65h361zM157 722v42c0 11 6 19 15 19c6 0 13 -3 21 -10c26 -21 101 -80 201 -80s175 59 201 80c8 7 16 10 21 10c10 0 15 -8 15 -19v-42c0 -14 -2 -24 -17 -36c-36 -29 -125 -73 -220 -73c-96 0 -185 44 -220 73c-15 12 -17 22 -17 36z" />
    <glyph glyph-name="Aogonek" unicode="&#x104;" horiz-adv-x="970" 
d="M733 -38l92 36l-86 154h-507l-78 -141c-4 -8 -9 -11 -20 -11h-105c-13 0 -16 8 -10 20l348 617c28 50 53 63 88 63h49c43 0 68 -13 96 -63l350 -617c5 -9 5 -15 0 -18l-139 -64c-49 -22 -56 -34 -56 -68c0 -42 12 -54 64 -54h95c10 0 15 -5 15 -15v-58
c0 -10 -5 -15 -15 -15h-129c-101 0 -127 29 -127 119c0 64 13 92 75 115zM470 577l-185 -330h400l-185 330c-4 6 -7 7 -12 7h-6c-5 0 -8 -1 -12 -7z" />
    <glyph glyph-name="aogonek" unicode="&#x105;" 
d="M486 -38l98 38h-388c-117 0 -153 42 -153 140v45c0 82 36 128 153 128h427v24c0 76 -28 105 -130 105h-418c-10 0 -15 5 -15 15v69c0 10 5 15 15 15h429c178 0 236 -56 236 -199v-263c0 -40 -6 -62 -25 -71l-151 -70c-49 -23 -56 -34 -56 -68c0 -42 12 -54 64 -54h95
c10 0 15 -5 15 -15v-58c0 -10 -5 -15 -15 -15h-129c-101 0 -127 29 -127 119c0 64 13 92 75 115zM589 91c26 0 34 9 34 38v110h-395c-53 0 -71 -21 -71 -60v-23c0 -45 18 -65 71 -65h361z" />
    <glyph glyph-name="Cacute" unicode="&#x106;" horiz-adv-x="849" 
d="M338 700h449c12 0 18 -6 18 -18v-80c0 -12 -6 -18 -18 -18h-445c-119 0 -157 -39 -157 -160v-148c0 -121 38 -160 157 -160h445c12 0 18 -6 18 -18v-80c0 -12 -6 -18 -18 -18h-449c-201 0 -277 72 -277 264v172c0 192 76 264 277 264zM511 915h72c12 0 20 -5 12 -16
l-102 -153c-7 -10 -14 -16 -26 -16h-62c-12 0 -19 7 -12 17l92 153c5 10 13 15 26 15z" />
    <glyph glyph-name="cacute" unicode="&#x107;" horiz-adv-x="727" 
d="M277 541h400c11 0 15 -5 15 -15v-69c0 -10 -4 -15 -15 -15h-389c-102 0 -130 -30 -130 -122v-99c0 -92 28 -122 130 -122h389c11 0 15 -5 15 -15v-69c0 -10 -4 -15 -15 -15h-400c-179 0 -235 57 -235 199v143c0 143 56 199 235 199zM445 808h72c11 0 19 -6 12 -20
l-104 -191c-7 -13 -13 -20 -26 -20h-61c-13 0 -19 8 -13 21l93 191c6 13 14 19 27 19z" />
    <glyph glyph-name="Cdotaccent" unicode="&#x10a;" horiz-adv-x="849" 
d="M338 700h449c12 0 18 -6 18 -18v-80c0 -12 -6 -18 -18 -18h-445c-119 0 -157 -39 -157 -160v-148c0 -121 38 -160 157 -160h445c12 0 18 -6 18 -18v-80c0 -12 -6 -18 -18 -18h-449c-201 0 -277 72 -277 264v172c0 192 76 264 277 264zM425 881h79c13 0 19 -5 19 -15v-93
c0 -11 -6 -15 -19 -15h-79c-13 0 -19 4 -19 15v93c0 10 6 15 19 15z" />
    <glyph glyph-name="cdotaccent" unicode="&#x10b;" horiz-adv-x="727" 
d="M277 541h400c11 0 15 -5 15 -15v-69c0 -10 -4 -15 -15 -15h-389c-102 0 -130 -30 -130 -122v-99c0 -92 28 -122 130 -122h389c11 0 15 -5 15 -15v-69c0 -10 -4 -15 -15 -15h-400c-179 0 -235 57 -235 199v143c0 143 56 199 235 199zM352 740h80c12 0 18 -6 18 -18v-93
c0 -13 -6 -19 -18 -19h-80c-12 0 -18 6 -18 19v93c0 12 6 18 18 18z" />
    <glyph glyph-name="Ccaron" unicode="&#x10c;" horiz-adv-x="849" 
d="M338 700h449c12 0 18 -6 18 -18v-80c0 -12 -6 -18 -18 -18h-445c-119 0 -157 -39 -157 -160v-148c0 -121 38 -160 157 -160h445c12 0 18 -6 18 -18v-80c0 -12 -6 -18 -18 -18h-449c-201 0 -277 72 -277 264v172c0 192 76 264 277 264zM291 915h62c13 0 20 -4 26 -15
l69 -100c3 -6 7 -8 14 -8h4c7 0 11 2 14 8l69 100c6 11 13 15 27 15h62c12 0 18 -7 11 -17l-108 -147c-10 -14 -21 -21 -41 -21h-72c-21 0 -31 7 -41 21l-107 147c-8 10 -1 17 11 17z" />
    <glyph glyph-name="ccaron" unicode="&#x10d;" horiz-adv-x="727" 
d="M277 541h400c11 0 15 -5 15 -15v-69c0 -10 -4 -15 -15 -15h-389c-102 0 -130 -30 -130 -122v-99c0 -92 28 -122 130 -122h389c11 0 15 -5 15 -15v-69c0 -10 -4 -15 -15 -15h-400c-179 0 -235 57 -235 199v143c0 143 56 199 235 199zM219 808h62c14 0 20 -5 26 -18
l70 -129c3 -6 6 -9 13 -9h4c7 0 10 3 13 9l70 129c6 13 12 18 26 18h62c12 0 19 -9 11 -21l-108 -186c-10 -16 -20 -24 -40 -24h-72c-20 0 -31 8 -40 24l-109 186c-7 12 0 21 12 21z" />
    <glyph glyph-name="Dcaron" unicode="&#x10e;" horiz-adv-x="924" 
d="M99 700h462c215 0 303 -87 303 -282v-136c0 -195 -88 -282 -303 -282h-462c-20 0 -30 10 -30 30v640c0 20 10 30 30 30zM193 574v-448c0 -8 4 -12 12 -12h353c134 0 181 47 181 178v116c0 131 -47 178 -181 178h-353c-8 0 -12 -4 -12 -12zM254 915h62c13 0 20 -4 26 -15
l69 -100c3 -6 7 -8 14 -8h4c7 0 11 2 14 8l69 100c6 11 13 15 27 15h62c12 0 18 -7 11 -17l-108 -147c-10 -14 -21 -21 -41 -21h-72c-21 0 -31 7 -41 21l-107 147c-8 10 -1 17 11 17z" />
    <glyph glyph-name="dcaron" unicode="&#x10f;" horiz-adv-x="968" 
d="M292 541h396v191c0 12 6 18 18 18h80c12 0 18 -6 18 -18v-533c0 -142 -57 -199 -235 -199h-277c-178 0 -235 57 -235 199v143c0 143 57 199 235 199zM558 99c102 0 130 30 130 122v221h-385c-101 0 -130 -30 -130 -122v-99c0 -92 29 -122 130 -122h255zM896 747h73
c14 0 20 -7 16 -22l-41 -190c-4 -13 -10 -19 -22 -19h-45c-14 0 -21 7 -20 20l19 192c1 12 8 19 20 19z" />
    <glyph glyph-name="Dcroat" unicode="&#x110;" horiz-adv-x="979" 
d="M153 700h462c215 0 303 -87 303 -282v-136c0 -195 -88 -282 -303 -282h-462c-20 0 -30 10 -30 30v274h-89c-13 0 -18 6 -18 18v64c0 13 5 18 18 18h89v266c0 20 10 30 30 30zM247 574v-170h367c12 0 18 -5 18 -18v-64c0 -12 -6 -18 -18 -18h-367v-178c0 -8 4 -12 12 -12
h353c134 0 181 47 181 178v116c0 131 -47 178 -181 178h-353c-8 0 -12 -4 -12 -12z" />
    <glyph glyph-name="dmacron" unicode="&#x111;" horiz-adv-x="868" 
d="M369 718h319v14c0 12 6 18 18 18h80c12 0 18 -6 18 -18v-14h37c12 0 18 -6 18 -18v-49c0 -12 -6 -18 -18 -18h-37v-434c0 -142 -57 -199 -235 -199h-277c-178 0 -235 57 -235 199v143c0 143 57 199 235 199h396v92h-319c-12 0 -18 6 -18 18v49c0 12 6 18 18 18zM558 99
c102 0 130 30 130 122v221h-385c-101 0 -130 -30 -130 -122v-99c0 -92 29 -122 130 -122h255z" />
    <glyph glyph-name="Emacron" unicode="&#x112;" horiz-adv-x="847" 
d="M338 700h439c12 0 18 -6 18 -18v-77c0 -13 -6 -19 -18 -19h-438c-119 0 -157 -38 -157 -159v-23h589c12 0 18 -5 18 -18v-64c0 -12 -6 -18 -18 -18h-589v-31c0 -121 38 -159 157 -159h438c12 0 18 -6 18 -19v-77c0 -12 -6 -18 -18 -18h-439c-201 0 -277 72 -277 264v172
c0 192 76 264 277 264zM229 862h471c13 0 19 -5 19 -15v-52c0 -10 -6 -15 -19 -15h-471c-13 0 -19 5 -19 15v52c0 10 6 15 19 15z" />
    <glyph glyph-name="emacron" unicode="&#x113;" 
d="M279 541h290c135 0 171 -42 171 -161v-89c0 -42 -18 -56 -57 -56h-524v-31c0 -75 29 -105 131 -105h418c10 0 15 -5 15 -15v-69c0 -10 -5 -15 -15 -15h-429c-179 0 -236 57 -236 199v143c0 143 57 199 236 199zM159 344v-35h446c14 0 21 5 21 21v46c0 54 -18 74 -79 74
h-257c-102 0 -131 -30 -131 -106zM157 718h472c12 0 18 -6 18 -18v-49c0 -12 -6 -18 -18 -18h-472c-12 0 -18 6 -18 18v49c0 12 6 18 18 18z" />
    <glyph glyph-name="Ebreve" unicode="&#x114;" horiz-adv-x="847" 
d="M338 700h439c12 0 18 -6 18 -18v-77c0 -13 -6 -19 -18 -19h-438c-119 0 -157 -38 -157 -159v-23h589c12 0 18 -5 18 -18v-64c0 -12 -6 -18 -18 -18h-589v-31c0 -121 38 -159 157 -159h438c12 0 18 -6 18 -19v-77c0 -12 -6 -18 -18 -18h-439c-201 0 -277 72 -277 264v172
c0 192 76 264 277 264zM227 855v34c0 9 6 16 16 16c6 0 13 -2 21 -8c26 -20 100 -72 201 -72c100 0 175 52 200 72c8 6 15 8 21 8c10 0 16 -7 16 -16v-34c0 -12 -2 -20 -17 -30c-36 -26 -125 -66 -220 -66c-96 0 -185 40 -220 66c-16 10 -18 18 -18 30z" />
    <glyph glyph-name="ebreve" unicode="&#x115;" 
d="M279 541h290c135 0 171 -42 171 -161v-89c0 -42 -18 -56 -57 -56h-524v-31c0 -75 29 -105 131 -105h418c10 0 15 -5 15 -15v-69c0 -10 -5 -15 -15 -15h-429c-179 0 -236 57 -236 199v143c0 143 57 199 236 199zM159 344v-35h446c14 0 21 5 21 21v46c0 54 -18 74 -79 74
h-257c-102 0 -131 -30 -131 -106zM156 722v42c0 11 6 19 15 19c6 0 13 -3 21 -10c26 -21 101 -80 201 -80s175 59 201 80c8 7 16 10 21 10c10 0 15 -8 15 -19v-42c0 -14 -2 -24 -17 -36c-36 -29 -125 -73 -220 -73c-96 0 -185 44 -220 73c-15 12 -17 22 -17 36z" />
    <glyph glyph-name="Edotaccent" unicode="&#x116;" horiz-adv-x="847" 
d="M338 700h439c12 0 18 -6 18 -18v-77c0 -13 -6 -19 -18 -19h-438c-119 0 -157 -38 -157 -159v-23h589c12 0 18 -5 18 -18v-64c0 -12 -6 -18 -18 -18h-589v-31c0 -121 38 -159 157 -159h438c12 0 18 -6 18 -19v-77c0 -12 -6 -18 -18 -18h-439c-201 0 -277 72 -277 264v172
c0 192 76 264 277 264zM425 881h79c13 0 19 -5 19 -15v-93c0 -11 -6 -15 -19 -15h-79c-13 0 -19 4 -19 15v93c0 10 6 15 19 15z" />
    <glyph glyph-name="edotaccent" unicode="&#x117;" 
d="M279 541h290c135 0 171 -42 171 -161v-89c0 -42 -18 -56 -57 -56h-524v-31c0 -75 29 -105 131 -105h418c10 0 15 -5 15 -15v-69c0 -10 -5 -15 -15 -15h-429c-179 0 -236 57 -236 199v143c0 143 57 199 236 199zM159 344v-35h446c14 0 21 5 21 21v46c0 54 -18 74 -79 74
h-257c-102 0 -131 -30 -131 -106zM352 740h80c12 0 18 -6 18 -18v-93c0 -13 -6 -19 -18 -19h-80c-12 0 -18 6 -18 19v93c0 12 6 18 18 18z" />
    <glyph glyph-name="Eogonek" unicode="&#x118;" horiz-adv-x="847" 
d="M570 -38l98 38h-330c-201 0 -277 72 -277 264v172c0 192 76 264 277 264h439c12 0 18 -6 18 -18v-77c0 -13 -6 -19 -18 -19h-438c-119 0 -157 -38 -157 -159v-23h589c12 0 18 -5 18 -18v-64c0 -12 -6 -18 -18 -18h-589v-31c0 -121 38 -159 157 -159h438
c12 0 18 -6 18 -19v-77c0 -8 -2 -13 -7 -15l-140 -65c-49 -22 -56 -34 -56 -68c0 -42 12 -54 64 -54h95c10 0 15 -5 15 -15v-58c0 -10 -5 -15 -15 -15h-129c-101 0 -127 29 -127 119c0 64 13 92 75 115z" />
    <glyph glyph-name="eogonek" unicode="&#x119;" 
d="M500 -38l98 38h-319c-179 0 -236 57 -236 199v143c0 143 57 199 236 199h290c135 0 171 -42 171 -161v-89c0 -42 -18 -56 -57 -56h-524v-31c0 -75 29 -105 131 -105h418c10 0 15 -5 15 -15v-69c0 -6 -3 -10 -9 -13l-136 -64c-49 -23 -56 -34 -56 -68c0 -42 12 -54 64 -54
h95c10 0 15 -5 15 -15v-58c0 -10 -5 -15 -15 -15h-129c-101 0 -127 29 -127 119c0 64 13 92 75 115zM159 344v-35h446c14 0 21 5 21 21v46c0 54 -18 74 -79 74h-257c-102 0 -131 -30 -131 -106z" />
    <glyph glyph-name="Ecaron" unicode="&#x11a;" horiz-adv-x="847" 
d="M338 700h439c12 0 18 -6 18 -18v-77c0 -13 -6 -19 -18 -19h-438c-119 0 -157 -38 -157 -159v-23h589c12 0 18 -5 18 -18v-64c0 -12 -6 -18 -18 -18h-589v-31c0 -121 38 -159 157 -159h438c12 0 18 -6 18 -19v-77c0 -12 -6 -18 -18 -18h-439c-201 0 -277 72 -277 264v172
c0 192 76 264 277 264zM291 915h62c13 0 20 -4 26 -15l69 -100c3 -6 7 -8 14 -8h4c7 0 11 2 14 8l69 100c6 11 13 15 27 15h62c12 0 18 -7 11 -17l-108 -147c-10 -14 -21 -21 -41 -21h-72c-21 0 -31 7 -41 21l-107 147c-8 10 -1 17 11 17z" />
    <glyph glyph-name="ecaron" unicode="&#x11b;" 
d="M279 541h290c135 0 171 -42 171 -161v-89c0 -42 -18 -56 -57 -56h-524v-31c0 -75 29 -105 131 -105h418c10 0 15 -5 15 -15v-69c0 -10 -5 -15 -15 -15h-429c-179 0 -236 57 -236 199v143c0 143 57 199 236 199zM159 344v-35h446c14 0 21 5 21 21v46c0 54 -18 74 -79 74
h-257c-102 0 -131 -30 -131 -106zM220 808h62c14 0 20 -5 26 -18l70 -129c3 -6 6 -9 13 -9h4c7 0 10 3 13 9l70 129c6 13 12 18 26 18h62c12 0 19 -9 11 -21l-108 -186c-10 -16 -20 -24 -40 -24h-72c-20 0 -31 8 -40 24l-109 186c-7 12 0 21 12 21z" />
    <glyph glyph-name="Gbreve" unicode="&#x11e;" horiz-adv-x="922" 
d="M338 700h504c13 0 19 -6 19 -18v-80c0 -12 -6 -18 -19 -18h-500c-119 0 -157 -39 -157 -160v-150c0 -121 38 -159 157 -159h341c42 0 61 20 61 75v104c0 9 -4 13 -12 13h-318c-12 0 -18 6 -18 18v62c0 12 6 18 18 18h416c20 0 30 -10 30 -30v-222
c0 -112 -44 -153 -123 -153h-399c-201 0 -277 72 -277 264v172c0 192 76 264 277 264zM236 855v34c0 9 6 16 16 16c6 0 13 -2 21 -8c26 -20 100 -72 201 -72c100 0 175 52 200 72c8 6 15 8 21 8c10 0 16 -7 16 -16v-34c0 -12 -2 -20 -17 -30c-36 -26 -125 -66 -220 -66
c-96 0 -185 40 -220 66c-16 10 -18 18 -18 30z" />
    <glyph glyph-name="gbreve" unicode="&#x11f;" horiz-adv-x="868" 
d="M292 541h277c179 0 235 -57 235 -200v-360c0 -145 -56 -202 -235 -202h-469c-10 0 -15 5 -15 15v69c0 10 5 15 15 15h458c102 0 130 30 130 125v25h-396c-178 0 -235 58 -235 203v108c0 145 57 202 235 202zM173 232c0 -81 29 -112 130 -112h385v211
c0 83 -28 114 -130 114h-255c-101 0 -130 -31 -130 -112v-101zM196 722v42c0 11 6 19 15 19c6 0 13 -3 21 -10c26 -21 101 -80 201 -80s175 59 201 80c8 7 16 10 21 10c10 0 15 -8 15 -19v-42c0 -14 -2 -24 -17 -36c-36 -29 -125 -73 -220 -73c-96 0 -185 44 -220 73
c-15 12 -17 22 -17 36z" />
    <glyph glyph-name="Gdotaccent" unicode="&#x120;" horiz-adv-x="922" 
d="M338 700h504c13 0 19 -6 19 -18v-80c0 -12 -6 -18 -19 -18h-500c-119 0 -157 -39 -157 -160v-150c0 -121 38 -159 157 -159h341c42 0 61 20 61 75v104c0 9 -4 13 -12 13h-318c-12 0 -18 6 -18 18v62c0 12 6 18 18 18h416c20 0 30 -10 30 -30v-222
c0 -112 -44 -153 -123 -153h-399c-201 0 -277 72 -277 264v172c0 192 76 264 277 264zM448 881h79c13 0 19 -5 19 -15v-93c0 -11 -6 -15 -19 -15h-79c-13 0 -19 4 -19 15v93c0 10 6 15 19 15z" />
    <glyph glyph-name="gdotaccent" unicode="&#x121;" horiz-adv-x="868" 
d="M292 541h277c179 0 235 -57 235 -200v-360c0 -145 -56 -202 -235 -202h-469c-10 0 -15 5 -15 15v69c0 10 5 15 15 15h458c102 0 130 30 130 125v25h-396c-178 0 -235 58 -235 203v108c0 145 57 202 235 202zM173 232c0 -81 29 -112 130 -112h385v211
c0 83 -28 114 -130 114h-255c-101 0 -130 -31 -130 -112v-101zM389 740h80c12 0 18 -6 18 -18v-93c0 -13 -6 -19 -18 -19h-80c-12 0 -18 6 -18 19v93c0 12 6 18 18 18z" />
    <glyph glyph-name="Gcommaaccent" unicode="&#x122;" horiz-adv-x="922" 
d="M338 700h504c13 0 19 -6 19 -18v-80c0 -12 -6 -18 -19 -18h-500c-119 0 -157 -39 -157 -160v-150c0 -121 38 -159 157 -159h341c42 0 61 20 61 75v104c0 9 -4 13 -12 13h-318c-12 0 -18 6 -18 18v62c0 12 6 18 18 18h416c20 0 30 -10 30 -30v-222
c0 -112 -44 -153 -123 -153h-399c-201 0 -277 72 -277 264v172c0 192 76 264 277 264zM430 -41h73c14 0 20 -7 16 -22l-41 -190c-4 -13 -10 -19 -22 -19h-45c-14 0 -21 7 -20 20l19 192c1 12 8 19 20 19z" />
    <glyph glyph-name="gcommaaccent" unicode="&#x123;" horiz-adv-x="868" 
d="M292 541h277c179 0 235 -57 235 -200v-360c0 -145 -56 -202 -235 -202h-469c-10 0 -15 5 -15 15v69c0 10 5 15 15 15h458c102 0 130 30 130 125v25h-396c-178 0 -235 58 -235 203v108c0 145 57 202 235 202zM173 232c0 -81 29 -112 130 -112h385v211
c0 83 -28 114 -130 114h-255c-101 0 -130 -31 -130 -112v-101zM414 808h45c14 0 21 -7 20 -20l-18 -191c-1 -13 -9 -20 -21 -20h-73c-14 0 -20 8 -16 22l41 190c4 13 10 19 22 19z" />
    <glyph glyph-name="Hbar" unicode="&#x126;" horiz-adv-x="902" 
d="M27 606h42v76c0 12 6 18 18 18h88c12 0 18 -6 18 -18v-76h516v76c0 12 6 18 18 18h88c13 0 19 -6 19 -18v-76h42c12 0 18 -6 18 -18v-49c0 -12 -6 -18 -18 -18h-42v-503c0 -12 -6 -18 -19 -18h-88c-12 0 -18 6 -18 18v282h-516v-282c0 -12 -6 -18 -18 -18h-88
c-12 0 -18 6 -18 18v503h-42c-12 0 -18 6 -18 18v49c0 12 6 18 18 18zM193 406h516v115h-516v-115z" />
    <glyph glyph-name="hbar" unicode="&#x127;" horiz-adv-x="875" 
d="M27 718h40v14c0 12 5 18 18 18h79c13 0 19 -6 19 -18v-14h316c12 0 18 -6 18 -18v-49c0 -12 -6 -18 -18 -18h-316v-92h394c178 0 235 -57 235 -199v-324c0 -12 -6 -18 -18 -18h-80c-12 0 -18 6 -18 18v297c0 91 -23 122 -125 122h-388v-419c0 -12 -6 -18 -19 -18h-79
c-13 0 -18 6 -18 18v615h-40c-12 0 -18 6 -18 18v49c0 12 6 18 18 18z" />
    <glyph glyph-name="Itilde" unicode="&#x128;" horiz-adv-x="486" 
d="M199 700h88c12 0 18 -6 18 -18v-664c0 -12 -6 -18 -18 -18h-88c-12 0 -18 6 -18 18v664c0 12 6 18 18 18zM50 744h-45c-14 0 -16 6 -16 24c0 110 33 142 122 142c73 0 116 -22 160 -58c25 -23 42 -37 88 -37s53 16 54 82c0 13 9 18 23 18h45c14 0 16 -6 16 -24
c0 -110 -33 -142 -122 -142c-73 0 -116 22 -160 58c-25 23 -42 37 -88 37s-53 -16 -54 -81c0 -14 -9 -19 -23 -19z" />
    <glyph glyph-name="itilde" unicode="&#x129;" horiz-adv-x="508" 
d="M61 596h-45c-14 0 -16 8 -16 27c0 117 32 151 121 151c74 0 117 -23 161 -61c24 -23 42 -38 88 -38c47 0 53 17 54 83c0 15 9 21 23 21h45c14 0 16 -8 16 -27c0 -117 -33 -151 -121 -151c-74 0 -117 23 -161 61c-24 23 -42 38 -89 38c-46 0 -52 -17 -53 -83
c0 -15 -9 -21 -23 -21zM215 541h79c13 0 19 -6 19 -18v-505c0 -12 -6 -18 -19 -18h-79c-13 0 -18 6 -18 18v505c0 12 5 18 18 18z" />
    <glyph glyph-name="Imacron" unicode="&#x12a;" horiz-adv-x="441" 
d="M177 700h88c12 0 18 -6 18 -18v-664c0 -12 -6 -18 -18 -18h-88c-12 0 -18 6 -18 18v664c0 12 6 18 18 18zM-15 862h471c13 0 19 -5 19 -15v-52c0 -10 -6 -15 -19 -15h-471c-13 0 -19 5 -19 15v52c0 10 6 15 19 15z" />
    <glyph glyph-name="imacron" unicode="&#x12b;" horiz-adv-x="482" 
d="M5 718h472c12 0 18 -6 18 -18v-49c0 -12 -6 -18 -18 -18h-472c-12 0 -18 6 -18 18v49c0 12 6 18 18 18zM201 541h79c13 0 19 -6 19 -18v-505c0 -12 -6 -18 -19 -18h-79c-13 0 -18 6 -18 18v505c0 12 5 18 18 18z" />
    <glyph glyph-name="Ibreve" unicode="&#x12c;" horiz-adv-x="431" 
d="M172 700h88c12 0 18 -6 18 -18v-664c0 -12 -6 -18 -18 -18h-88c-12 0 -18 6 -18 18v664c0 12 6 18 18 18zM-22 855v34c0 9 6 16 16 16c6 0 13 -2 21 -8c26 -20 100 -72 201 -72c100 0 175 52 200 72c8 6 15 8 21 8c10 0 16 -7 16 -16v-34c0 -12 -2 -20 -17 -30
c-36 -26 -125 -66 -220 -66c-96 0 -185 40 -220 66c-16 10 -18 18 -18 30z" />
    <glyph glyph-name="ibreve" unicode="&#x12d;" horiz-adv-x="459" 
d="M-7 722v42c0 11 6 19 15 19c6 0 13 -3 21 -10c26 -21 101 -80 201 -80s175 59 201 80c8 7 16 10 21 10c10 0 15 -8 15 -19v-42c0 -14 -2 -24 -17 -36c-36 -29 -125 -73 -220 -73c-96 0 -185 44 -220 73c-15 12 -17 22 -17 36zM190 541h79c13 0 19 -6 19 -18v-505
c0 -12 -6 -18 -19 -18h-79c-13 0 -18 6 -18 18v505c0 12 5 18 18 18z" />
    <glyph glyph-name="Iogonek" unicode="&#x12e;" horiz-adv-x="327" 
d="M34 -38l100 38v682c0 12 6 18 18 18h88c12 0 18 -6 18 -18v-664c0 -9 -4 -14 -11 -17l-135 -63c-49 -23 -56 -34 -56 -68c0 -42 12 -54 64 -54h95c10 0 15 -5 15 -15v-58c0 -10 -5 -15 -15 -15h-129c-101 0 -127 29 -127 119c0 64 13 91 75 115z" />
    <glyph glyph-name="iogonek" unicode="&#x12f;" horiz-adv-x="317" 
d="M153 541h79c13 0 19 -6 19 -18v-505c0 -8 -3 -14 -9 -17l-136 -63c-49 -23 -56 -34 -56 -68c0 -42 12 -54 64 -54h95c10 0 15 -5 15 -15v-58c0 -10 -5 -15 -15 -15h-129c-101 0 -127 29 -127 119c0 64 13 91 75 115l107 41v520c0 12 5 18 18 18zM153 740h80
c12 0 18 -6 18 -18v-93c0 -13 -6 -19 -18 -19h-80c-12 0 -18 6 -18 19v93c0 12 6 18 18 18z" />
    <glyph glyph-name="Idotaccent" unicode="&#x130;" horiz-adv-x="262" 
d="M87 700h88c12 0 18 -6 18 -18v-664c0 -12 -6 -18 -18 -18h-88c-12 0 -18 6 -18 18v664c0 12 6 18 18 18zM91 881h79c13 0 19 -5 19 -15v-93c0 -11 -6 -15 -19 -15h-79c-13 0 -19 4 -19 15v93c0 10 6 15 19 15z" />
    <glyph glyph-name="dotlessi" unicode="&#x131;" horiz-adv-x="249" 
d="M85 541h79c13 0 19 -6 19 -18v-505c0 -12 -6 -18 -19 -18h-79c-13 0 -18 6 -18 18v505c0 12 5 18 18 18z" />
    <glyph glyph-name="IJ" unicode="&#x132;" horiz-adv-x="1040" 
d="M87 700h88c12 0 18 -6 18 -18v-664c0 -12 -6 -18 -18 -18h-88c-12 0 -18 6 -18 18v664c0 12 6 18 18 18zM867 700h88c13 0 19 -6 19 -18v-418c0 -192 -77 -264 -277 -264h-391c-12 0 -18 6 -18 18v80c0 12 6 18 18 18h386c119 0 157 39 157 160v406c0 12 6 18 18 18z" />
    <glyph glyph-name="ij" unicode="&#x133;" horiz-adv-x="515" 
d="M85 541h79c13 0 19 -6 19 -18v-505c0 -12 -6 -18 -19 -18h-79c-13 0 -18 6 -18 18v505c0 12 5 18 18 18zM352 541h79c13 0 18 -6 18 -18v-546c0 -141 -51 -198 -220 -198h-70c-10 0 -15 5 -15 15v69c0 10 5 15 15 15h59c92 0 115 30 115 121v524c0 12 6 18 19 18z
M352 740h80c12 0 18 -6 18 -18v-93c0 -13 -6 -19 -18 -19h-80c-12 0 -18 6 -18 19v93c0 12 6 18 18 18zM85 740h80c12 0 18 -6 18 -18v-93c0 -13 -6 -19 -18 -19h-80c-12 0 -18 6 -18 19v93c0 12 6 18 18 18z" />
    <glyph glyph-name="Kcommaaccent" unicode="&#x136;" horiz-adv-x="843" 
d="M87 700h88c12 0 18 -6 18 -18v-280h158c78 0 100 8 135 54l176 233c6 8 10 11 25 11h100c14 0 17 -13 11 -21l-195 -251c-26 -34 -46 -56 -70 -72c31 -16 56 -40 83 -73l209 -260c4 -7 5 -23 -12 -23h-101c-15 0 -19 3 -25 11l-190 241c-33 41 -61 55 -136 55h-168v-289
c0 -12 -6 -18 -18 -18h-88c-12 0 -18 6 -18 18v664c0 12 6 18 18 18zM377 -41h73c14 0 20 -7 16 -22l-41 -190c-4 -13 -10 -19 -22 -19h-45c-14 0 -21 7 -20 20l19 192c1 12 8 19 20 19z" />
    <glyph glyph-name="kcommaaccent" unicode="&#x137;" horiz-adv-x="784" 
d="M83 750h80c12 0 18 -6 18 -18v-413h196c73 0 93 7 126 51l113 157c7 10 13 14 26 14h90c13 0 17 -12 9 -23l-128 -173c-23 -31 -45 -54 -70 -69c31 -16 56 -39 78 -67l142 -187c7 -10 2 -22 -10 -22h-90c-15 0 -20 3 -26 12l-125 166c-31 39 -57 52 -127 52h-204v-212
c0 -12 -6 -18 -18 -18h-80c-12 0 -18 6 -18 18v714c0 12 6 18 18 18zM354 -41h73c14 0 20 -7 16 -22l-41 -190c-4 -13 -10 -19 -22 -19h-45c-14 0 -21 7 -20 20l19 192c1 12 8 19 20 19z" />
    <glyph glyph-name="Lacute" unicode="&#x139;" horiz-adv-x="798" 
d="M85 700h88c12 0 18 -6 18 -18v-406c0 -121 38 -160 157 -160h405c13 0 19 -6 19 -18v-80c0 -12 -6 -18 -19 -18h-409c-201 0 -277 72 -277 264v418c0 12 6 18 18 18zM215 915h72c12 0 20 -5 12 -16l-102 -153c-7 -10 -14 -16 -26 -16h-62c-12 0 -19 7 -12 17l92 153
c5 10 13 15 26 15z" />
    <glyph glyph-name="lacute" unicode="&#x13a;" horiz-adv-x="265" 
d="M203 915h72c12 0 20 -5 12 -16l-106 -159c1 -2 2 -5 2 -8v-714c0 -12 -6 -18 -19 -18h-79c-13 0 -18 6 -18 18v714c0 12 5 18 20 18l90 150c5 10 13 15 26 15z" />
    <glyph glyph-name="Lcommaaccent" unicode="&#x13b;" horiz-adv-x="798" 
d="M85 700h88c12 0 18 -6 18 -18v-406c0 -121 38 -160 157 -160h405c13 0 19 -6 19 -18v-80c0 -12 -6 -18 -19 -18h-409c-201 0 -277 72 -277 264v418c0 12 6 18 18 18zM397 -41h73c14 0 20 -7 16 -22l-41 -190c-4 -13 -10 -19 -22 -19h-45c-14 0 -21 7 -20 20l19 192
c1 12 8 19 20 19z" />
    <glyph glyph-name="lcommaaccent" unicode="&#x13c;" horiz-adv-x="249" 
d="M85 750h79c13 0 19 -6 19 -18v-714c0 -12 -6 -18 -19 -18h-79c-13 0 -18 6 -18 18v714c0 12 5 18 18 18zM85 -41h73c14 0 20 -7 16 -22l-41 -190c-4 -13 -10 -19 -22 -19h-45c-14 0 -21 7 -20 20l19 192c1 12 8 19 20 19z" />
    <glyph glyph-name="Lcaron" unicode="&#x13d;" horiz-adv-x="798" 
d="M85 700h88c12 0 18 -6 18 -18v-406c0 -121 38 -160 157 -160h405c13 0 19 -6 19 -18v-80c0 -12 -6 -18 -19 -18h-409c-201 0 -277 72 -277 264v418c0 12 6 18 18 18zM470 747h73c14 0 20 -7 16 -22l-41 -190c-4 -13 -10 -19 -22 -19h-45c-14 0 -21 7 -20 20l19 192
c1 12 8 19 20 19z" />
    <glyph glyph-name="lcaron" unicode="&#x13e;" horiz-adv-x="342" 
d="M85 750h79c13 0 19 -6 19 -18v-714c0 -12 -6 -18 -19 -18h-79c-13 0 -18 6 -18 18v714c0 12 5 18 18 18zM270 747h73c14 0 20 -7 16 -22l-41 -190c-4 -13 -10 -19 -22 -19h-45c-14 0 -21 7 -20 20l19 192c1 12 8 19 20 19z" />
    <glyph glyph-name="Lslash" unicode="&#x141;" horiz-adv-x="819" 
d="M106 700h88c12 0 18 -6 18 -18v-185l187 64c10 4 16 0 16 -9v-57c0 -11 -4 -14 -14 -17l-189 -65v-137c0 -121 38 -160 157 -160h405c13 0 19 -6 19 -18v-80c0 -12 -6 -18 -19 -18h-409c-201 0 -277 72 -277 264v106l-66 -22c-10 -4 -16 1 -16 11v56c0 10 4 13 15 17
l67 23v227c0 12 6 18 18 18z" />
    <glyph glyph-name="lslash" unicode="&#x142;" horiz-adv-x="416" 
d="M168 750h79c13 0 19 -6 19 -18v-152l130 45c10 4 16 0 16 -9v-57c0 -11 -4 -14 -14 -17l-132 -45v-479c0 -12 -6 -18 -19 -18h-79c-13 0 -18 6 -18 18v439l-131 -45c-10 -4 -16 1 -16 11v56c0 10 4 13 15 17l132 45v191c0 12 5 18 18 18z" />
    <glyph glyph-name="Nacute" unicode="&#x143;" horiz-adv-x="973" 
d="M145 700h73c53 0 65 -11 97 -49l435 -525c4 -5 8 -7 14 -7h10c6 0 9 3 9 10v553c0 12 5 18 18 18h85c12 0 18 -6 18 -18v-594c0 -68 -25 -88 -77 -88h-71c-50 0 -64 9 -97 49l-436 525c-4 5 -8 7 -14 7h-10c-6 0 -8 -3 -8 -10v-553c0 -12 -6 -18 -19 -18h-85
c-12 0 -18 6 -18 18v594c0 68 25 88 76 88zM537 915h72c12 0 20 -5 12 -16l-102 -153c-7 -10 -14 -16 -26 -16h-62c-12 0 -19 7 -12 17l92 153c5 10 13 15 26 15z" />
    <glyph glyph-name="nacute" unicode="&#x144;" horiz-adv-x="880" 
d="M298 541h284c178 0 235 -57 235 -199v-324c0 -12 -6 -18 -18 -18h-80c-12 0 -18 6 -18 18v297c0 91 -23 122 -125 122h-267c-101 0 -130 -31 -130 -122v-297c0 -12 -6 -18 -18 -18h-80c-12 0 -18 6 -18 18v324c0 142 57 199 235 199zM484 808h72c11 0 19 -6 12 -20
l-104 -191c-7 -13 -13 -20 -26 -20h-61c-13 0 -19 8 -13 21l93 191c6 13 14 19 27 19z" />
    <glyph glyph-name="Ncommaaccent" unicode="&#x145;" horiz-adv-x="973" 
d="M145 700h73c53 0 65 -11 97 -49l435 -525c4 -5 8 -7 14 -7h10c6 0 9 3 9 10v553c0 12 5 18 18 18h85c12 0 18 -6 18 -18v-594c0 -68 -25 -88 -77 -88h-71c-50 0 -64 9 -97 49l-436 525c-4 5 -8 7 -14 7h-10c-6 0 -8 -3 -8 -10v-553c0 -12 -6 -18 -19 -18h-85
c-12 0 -18 6 -18 18v594c0 68 25 88 76 88zM427 -41h73c14 0 20 -7 16 -22l-41 -190c-4 -13 -10 -19 -22 -19h-45c-14 0 -21 7 -20 20l19 192c1 12 8 19 20 19z" />
    <glyph glyph-name="ncommaaccent" unicode="&#x146;" horiz-adv-x="880" 
d="M298 541h284c178 0 235 -57 235 -199v-324c0 -12 -6 -18 -18 -18h-80c-12 0 -18 6 -18 18v297c0 91 -23 122 -125 122h-267c-101 0 -130 -31 -130 -122v-297c0 -12 -6 -18 -18 -18h-80c-12 0 -18 6 -18 18v324c0 142 57 199 235 199zM409 -41h73c14 0 20 -7 16 -22
l-41 -190c-4 -13 -10 -19 -22 -19h-45c-14 0 -21 7 -20 20l19 192c1 12 8 19 20 19z" />
    <glyph glyph-name="Ncaron" unicode="&#x147;" horiz-adv-x="973" 
d="M145 700h73c53 0 65 -11 97 -49l435 -525c4 -5 8 -7 14 -7h10c6 0 9 3 9 10v553c0 12 5 18 18 18h85c12 0 18 -6 18 -18v-594c0 -68 -25 -88 -77 -88h-71c-50 0 -64 9 -97 49l-436 525c-4 5 -8 7 -14 7h-10c-6 0 -8 -3 -8 -10v-553c0 -12 -6 -18 -19 -18h-85
c-12 0 -18 6 -18 18v594c0 68 25 88 76 88zM315 915h62c13 0 20 -4 26 -15l69 -100c3 -6 7 -8 14 -8h4c7 0 11 2 14 8l69 100c6 11 13 15 27 15h62c12 0 18 -7 11 -17l-108 -147c-10 -14 -21 -21 -41 -21h-72c-21 0 -31 7 -41 21l-107 147c-8 10 -1 17 11 17z" />
    <glyph glyph-name="ncaron" unicode="&#x148;" horiz-adv-x="880" 
d="M298 541h284c178 0 235 -57 235 -199v-324c0 -12 -6 -18 -18 -18h-80c-12 0 -18 6 -18 18v297c0 91 -23 122 -125 122h-267c-101 0 -130 -31 -130 -122v-297c0 -12 -6 -18 -18 -18h-80c-12 0 -18 6 -18 18v324c0 142 57 199 235 199zM267 808h62c14 0 20 -5 26 -18
l70 -129c3 -6 6 -9 13 -9h4c7 0 10 3 13 9l70 129c6 13 12 18 26 18h62c12 0 19 -9 11 -21l-108 -186c-10 -16 -20 -24 -40 -24h-72c-20 0 -31 8 -40 24l-109 186c-7 12 0 21 12 21z" />
    <glyph glyph-name="Eng" unicode="&#x14a;" horiz-adv-x="972" 
d="M781 -1v425c0 121 -38 160 -157 160h-276c-119 0 -157 -39 -157 -160v-406c0 -12 -6 -18 -18 -18h-88c-12 0 -18 6 -18 18v418c0 192 76 264 277 264h284c201 0 277 -72 277 -264v-459c0 -141 -59 -198 -228 -198h-70c-10 0 -15 5 -15 15v69c0 10 5 15 15 15h59
c92 0 115 30 115 121z" />
    <glyph glyph-name="eng" unicode="&#x14b;" horiz-adv-x="880" 
d="M701 -1v316c0 91 -23 122 -125 122h-267c-101 0 -130 -31 -130 -122v-297c0 -12 -6 -18 -18 -18h-80c-12 0 -18 6 -18 18v324c0 142 57 199 235 199h284c178 0 235 -57 235 -199v-365c0 -141 -51 -198 -220 -198h-70c-10 0 -15 5 -15 15v69c0 10 5 15 15 15h59
c92 0 115 30 115 121z" />
    <glyph glyph-name="Omacron" unicode="&#x14c;" horiz-adv-x="981" 
d="M338 700h305c201 0 277 -72 277 -264v-172c0 -192 -76 -264 -277 -264h-305c-201 0 -277 72 -277 264v172c0 192 76 264 277 264zM185 427v-154c0 -121 38 -159 157 -159h296c120 0 157 38 157 159v154c0 121 -37 159 -157 159h-296c-119 0 -157 -38 -157 -159zM255 862
h471c13 0 19 -5 19 -15v-52c0 -10 -6 -15 -19 -15h-471c-13 0 -19 5 -19 15v52c0 10 6 15 19 15z" />
    <glyph glyph-name="omacron" unicode="&#x14d;" horiz-adv-x="865" 
d="M292 541h280c178 0 235 -56 235 -199v-143c0 -142 -57 -199 -235 -199h-280c-178 0 -235 57 -235 199v143c0 143 57 199 235 199zM173 322v-103c0 -92 29 -123 130 -123h258c102 0 130 31 130 123v103c0 93 -28 123 -130 123h-258c-101 0 -130 -30 -130 -123zM196 718
h472c12 0 18 -6 18 -18v-49c0 -12 -6 -18 -18 -18h-472c-12 0 -18 6 -18 18v49c0 12 6 18 18 18z" />
    <glyph glyph-name="Obreve" unicode="&#x14e;" horiz-adv-x="981" 
d="M338 700h305c201 0 277 -72 277 -264v-172c0 -192 -76 -264 -277 -264h-305c-201 0 -277 72 -277 264v172c0 192 76 264 277 264zM185 427v-154c0 -121 38 -159 157 -159h296c120 0 157 38 157 159v154c0 121 -37 159 -157 159h-296c-119 0 -157 -38 -157 -159zM251 855
v34c0 9 6 16 16 16c6 0 13 -2 21 -8c26 -20 100 -72 201 -72c100 0 175 52 200 72c8 6 15 8 21 8c10 0 16 -7 16 -16v-34c0 -12 -2 -20 -17 -30c-36 -26 -125 -66 -220 -66c-96 0 -185 40 -220 66c-16 10 -18 18 -18 30z" />
    <glyph glyph-name="obreve" unicode="&#x14f;" horiz-adv-x="865" 
d="M292 541h280c178 0 235 -56 235 -199v-143c0 -142 -57 -199 -235 -199h-280c-178 0 -235 57 -235 199v143c0 143 57 199 235 199zM173 322v-103c0 -92 29 -123 130 -123h258c102 0 130 31 130 123v103c0 93 -28 123 -130 123h-258c-101 0 -130 -30 -130 -123zM194 722v42
c0 11 6 19 15 19c6 0 13 -3 21 -10c26 -21 101 -80 201 -80s175 59 201 80c8 7 16 10 21 10c10 0 15 -8 15 -19v-42c0 -14 -2 -24 -17 -36c-36 -29 -125 -73 -220 -73c-96 0 -185 44 -220 73c-15 12 -17 22 -17 36z" />
    <glyph glyph-name="Ohungarumlaut" unicode="&#x150;" horiz-adv-x="981" 
d="M338 700h305c201 0 277 -72 277 -264v-172c0 -192 -76 -264 -277 -264h-305c-201 0 -277 72 -277 264v172c0 192 76 264 277 264zM185 427v-154c0 -121 38 -159 157 -159h296c120 0 157 38 157 159v154c0 121 -37 159 -157 159h-296c-119 0 -157 -38 -157 -159zM428 915
h72c12 0 20 -5 12 -16l-103 -153c-6 -10 -13 -16 -26 -16h-61c-13 0 -19 7 -13 17l92 153c6 10 14 15 27 15zM646 915h72c12 0 20 -5 12 -16l-103 -153c-7 -10 -13 -16 -26 -16h-61c-13 0 -19 7 -13 17l92 153c6 10 14 15 27 15z" />
    <glyph glyph-name="ohungarumlaut" unicode="&#x151;" horiz-adv-x="865" 
d="M292 541h280c178 0 235 -56 235 -199v-143c0 -142 -57 -199 -235 -199h-280c-178 0 -235 57 -235 199v143c0 143 57 199 235 199zM173 322v-103c0 -92 29 -123 130 -123h258c102 0 130 31 130 123v103c0 93 -28 123 -130 123h-258c-101 0 -130 -30 -130 -123zM584 808h72
c11 0 19 -6 12 -20l-104 -191c-7 -13 -13 -20 -26 -20h-61c-13 0 -19 8 -13 21l94 191c6 13 13 19 26 19zM366 808h72c12 0 19 -6 13 -20l-105 -191c-7 -13 -13 -20 -26 -20h-61c-13 0 -19 8 -13 21l94 191c6 13 13 19 26 19z" />
    <glyph glyph-name="OE" unicode="&#x152;" horiz-adv-x="1586" 
d="M338 700h305c103 0 173 -19 217 -63c44 44 114 63 217 63h439c12 0 18 -6 18 -18v-77c0 -13 -6 -19 -18 -19h-438c-119 0 -157 -38 -157 -159v-23h589c12 0 18 -5 18 -18v-64c0 -12 -6 -18 -18 -18h-589v-31c0 -121 38 -159 157 -159h438c12 0 18 -6 18 -19v-77
c0 -12 -6 -18 -18 -18h-439c-103 0 -173 19 -217 63c-44 -44 -114 -63 -217 -63h-305c-201 0 -277 72 -277 264v172c0 192 76 264 277 264zM185 427v-154c0 -121 38 -159 157 -159h296c120 0 157 38 157 159v154c0 121 -37 159 -157 159h-296c-119 0 -157 -38 -157 -159z
" />
    <glyph glyph-name="oe" unicode="&#x153;" horiz-adv-x="1438" 
d="M292 541h280c85 0 142 -13 179 -42c37 29 94 42 180 42h290c135 0 171 -42 171 -161v-89c0 -42 -18 -56 -57 -56h-524v-31c0 -75 29 -105 131 -105h418c10 0 15 -5 15 -15v-69c0 -10 -5 -15 -15 -15h-429c-86 0 -143 13 -180 42c-37 -29 -94 -42 -179 -42h-280
c-178 0 -235 57 -235 199v143c0 143 57 199 235 199zM173 322v-103c0 -92 29 -123 130 -123h258c102 0 130 31 130 123v103c0 93 -28 123 -130 123h-258c-101 0 -130 -30 -130 -123zM811 344v-35h446c14 0 21 5 21 21v46c0 54 -18 74 -79 74h-257c-102 0 -131 -30 -131 -106
z" />
    <glyph glyph-name="Racute" unicode="&#x154;" horiz-adv-x="901" 
d="M99 700h531c151 0 212 -71 212 -204v-55c0 -116 -46 -184 -157 -200l181 -219c6 -7 4 -22 -11 -22h-104c-14 0 -19 4 -24 11l-171 218h-363v-211c0 -12 -6 -18 -18 -18h-88c-12 0 -18 6 -18 18v652c0 20 10 30 30 30zM193 576v-247h413c81 0 111 36 111 108v43
c0 72 -30 108 -111 108h-401c-8 0 -12 -3 -12 -12zM469 915h72c12 0 20 -5 12 -16l-102 -153c-7 -10 -14 -16 -26 -16h-62c-12 0 -19 7 -12 17l92 153c5 10 13 15 26 15z" />
    <glyph glyph-name="racute" unicode="&#x155;" horiz-adv-x="613" 
d="M298 541h280c10 0 15 -5 15 -15v-69c0 -10 -5 -15 -15 -15h-269c-101 0 -130 -30 -130 -122v-302c0 -12 -6 -18 -18 -18h-80c-12 0 -18 6 -18 18v324c0 142 57 199 235 199zM394 808h72c11 0 19 -6 12 -20l-104 -191c-7 -13 -13 -20 -26 -20h-61c-13 0 -19 8 -13 21
l93 191c6 13 14 19 27 19z" />
    <glyph glyph-name="Rcommaaccent" unicode="&#x156;" horiz-adv-x="901" 
d="M99 700h531c151 0 212 -71 212 -204v-55c0 -116 -46 -184 -157 -200l181 -219c6 -7 4 -22 -11 -22h-104c-14 0 -19 4 -24 11l-171 218h-363v-211c0 -12 -6 -18 -18 -18h-88c-12 0 -18 6 -18 18v652c0 20 10 30 30 30zM193 576v-247h413c81 0 111 36 111 108v43
c0 72 -30 108 -111 108h-401c-8 0 -12 -3 -12 -12zM401 -41h73c14 0 20 -7 16 -22l-41 -190c-4 -13 -10 -19 -22 -19h-45c-14 0 -21 7 -20 20l19 192c1 12 8 19 20 19z" />
    <glyph glyph-name="rcommaaccent" unicode="&#x157;" horiz-adv-x="613" 
d="M298 541h280c10 0 15 -5 15 -15v-69c0 -10 -5 -15 -15 -15h-269c-101 0 -130 -30 -130 -122v-302c0 -12 -6 -18 -18 -18h-80c-12 0 -18 6 -18 18v324c0 142 57 199 235 199zM85 -41h73c14 0 20 -7 16 -22l-41 -190c-4 -13 -10 -19 -22 -19h-45c-14 0 -21 7 -20 20l19 192
c1 12 8 19 20 19z" />
    <glyph glyph-name="Rcaron" unicode="&#x158;" horiz-adv-x="901" 
d="M99 700h531c151 0 212 -71 212 -204v-55c0 -116 -46 -184 -157 -200l181 -219c6 -7 4 -22 -11 -22h-104c-14 0 -19 4 -24 11l-171 218h-363v-211c0 -12 -6 -18 -18 -18h-88c-12 0 -18 6 -18 18v652c0 20 10 30 30 30zM193 576v-247h413c81 0 111 36 111 108v43
c0 72 -30 108 -111 108h-401c-8 0 -12 -3 -12 -12zM243 915h62c13 0 20 -4 26 -15l69 -100c3 -6 7 -8 14 -8h4c7 0 11 2 14 8l69 100c6 11 13 15 27 15h62c12 0 18 -7 11 -17l-108 -147c-10 -14 -21 -21 -41 -21h-72c-21 0 -31 7 -41 21l-107 147c-8 10 -1 17 11 17z" />
    <glyph glyph-name="rcaron" unicode="&#x159;" horiz-adv-x="613" 
d="M298 541h280c10 0 15 -5 15 -15v-69c0 -10 -5 -15 -15 -15h-269c-101 0 -130 -30 -130 -122v-302c0 -12 -6 -18 -18 -18h-80c-12 0 -18 6 -18 18v324c0 142 57 199 235 199zM162 808h62c14 0 20 -5 26 -18l70 -129c3 -6 6 -9 13 -9h4c7 0 10 3 13 9l70 129
c6 13 12 18 26 18h62c12 0 19 -9 11 -21l-108 -186c-10 -16 -20 -24 -40 -24h-72c-20 0 -31 8 -40 24l-109 186c-7 12 0 21 12 21z" />
    <glyph glyph-name="Sacute" unicode="&#x15a;" horiz-adv-x="854" 
d="M224 700h535c12 0 18 -6 18 -18v-77c0 -13 -6 -19 -18 -19h-512c-48 0 -66 -27 -66 -70v-42c0 -46 20 -70 66 -70h390c110 0 166 -59 166 -164v-82c0 -94 -51 -158 -168 -158h-559c-12 0 -18 6 -18 18v77c0 13 6 19 18 19h536c48 0 66 27 66 70v50c0 46 -20 70 -65 70
h-390c-110 0 -166 59 -166 164v73c0 95 51 159 167 159zM471 915h72c12 0 20 -5 12 -16l-102 -153c-7 -10 -14 -16 -26 -16h-62c-12 0 -19 7 -12 17l92 153c5 10 13 15 26 15z" />
    <glyph glyph-name="sacute" unicode="&#x15b;" horiz-adv-x="780" 
d="M208 541h487c10 0 15 -5 15 -15v-65c0 -10 -5 -15 -15 -15h-457c-53 0 -71 -20 -71 -57v-16c0 -34 18 -55 71 -55h341c112 0 154 -46 154 -129v-51c0 -89 -38 -138 -155 -138h-510c-10 0 -15 5 -15 15v65c0 10 5 15 15 15h481c53 0 71 19 71 61v29c0 32 -18 53 -71 53
h-342c-112 0 -154 47 -154 131v39c0 82 38 133 155 133zM437 808h72c11 0 19 -6 12 -20l-104 -191c-7 -13 -13 -20 -26 -20h-61c-13 0 -19 8 -13 21l93 191c6 13 14 19 27 19z" />
    <glyph glyph-name="Scedilla" unicode="&#x15e;" horiz-adv-x="854" 
d="M224 700h535c12 0 18 -6 18 -18v-77c0 -13 -6 -19 -18 -19h-512c-48 0 -66 -27 -66 -70v-42c0 -46 20 -70 66 -70h390c110 0 166 -59 166 -164v-82c0 -94 -51 -158 -168 -158h-559c-12 0 -18 6 -18 18v77c0 13 6 19 18 19h536c48 0 66 27 66 70v50c0 46 -20 70 -65 70
h-390c-110 0 -166 59 -166 164v73c0 95 51 159 167 159zM396 -41h73c14 0 20 -7 16 -22l-41 -190c-4 -13 -10 -19 -22 -19h-45c-14 0 -21 7 -20 20l19 192c1 12 8 19 20 19z" />
    <glyph glyph-name="scedilla" unicode="&#x15f;" horiz-adv-x="780" 
d="M208 541h487c10 0 15 -5 15 -15v-65c0 -10 -5 -15 -15 -15h-457c-53 0 -71 -20 -71 -57v-16c0 -34 18 -55 71 -55h341c112 0 154 -46 154 -129v-51c0 -89 -38 -138 -155 -138h-510c-10 0 -15 5 -15 15v65c0 10 5 15 15 15h481c53 0 71 19 71 61v29c0 32 -18 53 -71 53
h-342c-112 0 -154 47 -154 131v39c0 82 38 133 155 133zM359 -41h73c14 0 20 -7 16 -22l-41 -190c-4 -13 -10 -19 -22 -19h-45c-14 0 -21 7 -20 20l19 192c1 12 8 19 20 19z" />
    <glyph glyph-name="Scaron" unicode="&#x160;" horiz-adv-x="854" 
d="M224 700h535c12 0 18 -6 18 -18v-77c0 -13 -6 -19 -18 -19h-512c-48 0 -66 -27 -66 -70v-42c0 -46 20 -70 66 -70h390c110 0 166 -59 166 -164v-82c0 -94 -51 -158 -168 -158h-559c-12 0 -18 6 -18 18v77c0 13 6 19 18 19h536c48 0 66 27 66 70v50c0 46 -20 70 -65 70
h-390c-110 0 -166 59 -166 164v73c0 95 51 159 167 159zM257 915h62c13 0 20 -4 26 -15l69 -100c3 -6 7 -8 14 -8h4c7 0 11 2 14 8l69 100c6 11 13 15 27 15h62c12 0 18 -7 11 -17l-108 -147c-10 -14 -21 -21 -41 -21h-72c-21 0 -31 7 -41 21l-107 147c-8 10 -1 17 11 17z
" />
    <glyph glyph-name="scaron" unicode="&#x161;" horiz-adv-x="780" 
d="M208 541h487c10 0 15 -5 15 -15v-65c0 -10 -5 -15 -15 -15h-457c-53 0 -71 -20 -71 -57v-16c0 -34 18 -55 71 -55h341c112 0 154 -46 154 -129v-51c0 -89 -38 -138 -155 -138h-510c-10 0 -15 5 -15 15v65c0 10 5 15 15 15h481c53 0 71 19 71 61v29c0 32 -18 53 -71 53
h-342c-112 0 -154 47 -154 131v39c0 82 38 133 155 133zM218 808h62c14 0 20 -5 26 -18l70 -129c3 -6 6 -9 13 -9h4c7 0 10 3 13 9l70 129c6 13 12 18 26 18h62c12 0 19 -9 11 -21l-108 -186c-10 -16 -20 -24 -40 -24h-72c-20 0 -31 8 -40 24l-109 186c-7 12 0 21 12 21z
" />
    <glyph glyph-name="Tcedilla" unicode="&#x162;" horiz-adv-x="869" 
d="M44 700h781c13 0 19 -6 19 -18v-80c0 -12 -6 -18 -19 -18h-328v-566c0 -12 -6 -18 -18 -18h-88c-13 0 -19 6 -19 18v566h-328c-12 0 -18 6 -18 18v80c0 12 6 18 18 18zM394 -41h73c14 0 20 -7 16 -22l-41 -190c-4 -13 -10 -19 -22 -19h-45c-14 0 -21 7 -20 20l19 192
c1 12 8 19 20 19z" />
    <glyph glyph-name="tcedilla" unicode="&#x163;" horiz-adv-x="505" 
d="M35 541h97v134c0 13 6 19 18 19h80c12 0 18 -6 18 -19v-134h194c10 0 15 -5 15 -15v-67c0 -10 -5 -15 -15 -15h-194v-248c0 -69 22 -99 103 -99h97c10 0 15 -5 15 -15v-67c0 -10 -5 -15 -15 -15h-116c-158 0 -200 57 -200 196v248h-97c-10 0 -15 5 -15 15v67
c0 10 5 15 15 15zM251 -41h73c14 0 20 -7 16 -22l-41 -190c-4 -13 -10 -19 -22 -19h-45c-14 0 -21 7 -20 20l19 192c1 12 8 19 20 19z" />
    <glyph glyph-name="Tcaron" unicode="&#x164;" horiz-adv-x="869" 
d="M44 700h781c13 0 19 -6 19 -18v-80c0 -12 -6 -18 -19 -18h-328v-566c0 -12 -6 -18 -18 -18h-88c-13 0 -19 6 -19 18v566h-328c-12 0 -18 6 -18 18v80c0 12 6 18 18 18zM261 915h62c13 0 20 -4 26 -15l69 -100c3 -6 7 -8 14 -8h4c7 0 11 2 14 8l69 100c6 11 13 15 27 15
h62c12 0 18 -7 11 -17l-108 -147c-10 -14 -21 -21 -41 -21h-72c-21 0 -31 7 -41 21l-107 147c-8 10 -1 17 11 17z" />
    <glyph glyph-name="tcaron" unicode="&#x165;" horiz-adv-x="592" 
d="M35 541h97v134c0 13 6 19 18 19h80c12 0 18 -6 18 -19v-134h194c10 0 15 -5 15 -15v-67c0 -10 -5 -15 -15 -15h-194v-248c0 -69 22 -99 103 -99h97c10 0 15 -5 15 -15v-67c0 -10 -5 -15 -15 -15h-116c-158 0 -200 57 -200 196v248h-97c-10 0 -15 5 -15 15v67
c0 10 5 15 15 15zM521 747h73c14 0 20 -7 16 -22l-41 -190c-4 -13 -10 -19 -22 -19h-45c-14 0 -21 7 -20 20l19 192c1 12 8 19 20 19z" />
    <glyph glyph-name="Tbar" unicode="&#x166;" horiz-adv-x="869" 
d="M198 352h174v232h-328c-12 0 -18 6 -18 18v80c0 12 6 18 18 18h781c13 0 19 -6 19 -18v-80c0 -12 -6 -18 -19 -18h-328v-232h173c12 0 18 -6 18 -18v-49c0 -12 -6 -18 -18 -18h-173v-249c0 -12 -6 -18 -18 -18h-88c-13 0 -19 6 -19 18v249h-174c-12 0 -18 6 -18 18v49
c0 12 6 18 18 18z" />
    <glyph glyph-name="tbar" unicode="&#x167;" horiz-adv-x="532" 
d="M31 328h113v116h-97c-10 0 -15 5 -15 15v67c0 10 5 15 15 15h97v134c0 13 6 19 18 19h80c12 0 18 -6 18 -19v-134h194c10 0 15 -5 15 -15v-67c0 -10 -5 -15 -15 -15h-194v-116h243c12 0 18 -6 18 -18v-49c0 -12 -6 -18 -18 -18h-243v-47c0 -69 22 -99 103 -99h97
c10 0 15 -5 15 -15v-67c0 -10 -5 -15 -15 -15h-116c-158 0 -200 57 -200 196v47h-113c-12 0 -18 6 -18 18v49c0 12 6 18 18 18z" />
    <glyph glyph-name="Utilde" unicode="&#x168;" horiz-adv-x="972" 
d="M85 700h88c12 0 18 -6 18 -18v-406c0 -121 38 -160 157 -160h276c119 0 157 39 157 160v406c0 12 6 18 18 18h88c12 0 18 -6 18 -18v-418c0 -192 -76 -264 -277 -264h-284c-201 0 -277 72 -277 264v418c0 12 6 18 18 18zM292 744h-45c-14 0 -16 6 -16 24
c0 110 33 142 122 142c73 0 116 -22 160 -58c25 -23 42 -37 88 -37s53 16 54 82c0 13 9 18 23 18h45c14 0 16 -6 16 -24c0 -110 -33 -142 -122 -142c-73 0 -116 22 -160 58c-25 23 -42 37 -88 37s-53 -16 -54 -81c0 -14 -9 -19 -23 -19z" />
    <glyph glyph-name="utilde" unicode="&#x169;" horiz-adv-x="872" 
d="M81 541h80c12 0 18 -6 18 -18v-297c0 -91 24 -122 125 -122h259c102 0 130 31 130 122v297c0 12 6 18 18 18h80c12 0 18 -6 18 -18v-324c0 -142 -57 -199 -235 -199h-276c-178 0 -235 57 -235 199v324c0 12 6 18 18 18zM243 596h-45c-14 0 -16 8 -16 27
c0 117 32 151 121 151c74 0 117 -23 161 -61c24 -23 42 -38 88 -38c47 0 53 17 54 83c0 15 9 21 23 21h45c14 0 16 -8 16 -27c0 -117 -33 -151 -121 -151c-74 0 -117 23 -161 61c-24 23 -42 38 -89 38c-46 0 -52 -17 -53 -83c0 -15 -9 -21 -23 -21z" />
    <glyph glyph-name="Umacron" unicode="&#x16a;" horiz-adv-x="972" 
d="M85 700h88c12 0 18 -6 18 -18v-406c0 -121 38 -160 157 -160h276c119 0 157 39 157 160v406c0 12 6 18 18 18h88c12 0 18 -6 18 -18v-418c0 -192 -76 -264 -277 -264h-284c-201 0 -277 72 -277 264v418c0 12 6 18 18 18zM250 862h471c13 0 19 -5 19 -15v-52
c0 -10 -6 -15 -19 -15h-471c-13 0 -19 5 -19 15v52c0 10 6 15 19 15z" />
    <glyph glyph-name="umacron" unicode="&#x16b;" horiz-adv-x="872" 
d="M81 541h80c12 0 18 -6 18 -18v-297c0 -91 24 -122 125 -122h259c102 0 130 31 130 122v297c0 12 6 18 18 18h80c12 0 18 -6 18 -18v-324c0 -142 -57 -199 -235 -199h-276c-178 0 -235 57 -235 199v324c0 12 6 18 18 18zM200 718h472c12 0 18 -6 18 -18v-49
c0 -12 -6 -18 -18 -18h-472c-12 0 -18 6 -18 18v49c0 12 6 18 18 18z" />
    <glyph glyph-name="Uring" unicode="&#x16e;" horiz-adv-x="972" 
d="M85 700h88c12 0 18 -6 18 -18v-406c0 -121 38 -160 157 -160h276c119 0 157 39 157 160v406c0 12 6 18 18 18h88c12 0 18 -6 18 -18v-418c0 -192 -76 -264 -277 -264h-284c-201 0 -277 72 -277 264v418c0 12 6 18 18 18zM437 915h96c74 0 102 -22 102 -78v-50
c0 -56 -28 -78 -102 -78h-96c-73 0 -101 22 -101 78v50c0 56 28 78 101 78zM397 829v-34c0 -29 12 -39 51 -39h74c39 0 51 10 51 39v34c0 30 -12 40 -51 40h-74c-39 0 -51 -10 -51 -40z" />
    <glyph glyph-name="uring" unicode="&#x16f;" horiz-adv-x="872" 
d="M81 541h80c12 0 18 -6 18 -18v-297c0 -91 24 -122 125 -122h259c102 0 130 31 130 122v297c0 12 6 18 18 18h80c12 0 18 -6 18 -18v-324c0 -142 -57 -199 -235 -199h-276c-178 0 -235 57 -235 199v324c0 12 6 18 18 18zM381 808h111c73 0 101 -27 101 -97v-63
c0 -70 -28 -97 -101 -97h-111c-74 0 -102 27 -102 97v63c0 70 28 97 102 97zM341 701v-43c0 -38 11 -50 50 -50h91c38 0 50 12 50 50v43c0 39 -12 51 -50 51h-91c-39 0 -50 -12 -50 -51z" />
    <glyph glyph-name="Uhungarumlaut" unicode="&#x170;" horiz-adv-x="972" 
d="M85 700h88c12 0 18 -6 18 -18v-406c0 -121 38 -160 157 -160h276c119 0 157 39 157 160v406c0 12 6 18 18 18h88c12 0 18 -6 18 -18v-418c0 -192 -76 -264 -277 -264h-284c-201 0 -277 72 -277 264v418c0 12 6 18 18 18zM424 915h72c12 0 20 -5 12 -16l-103 -153
c-6 -10 -13 -16 -26 -16h-61c-13 0 -19 7 -13 17l92 153c6 10 14 15 27 15zM642 915h72c12 0 20 -5 12 -16l-103 -153c-7 -10 -13 -16 -26 -16h-61c-13 0 -19 7 -13 17l92 153c6 10 14 15 27 15z" />
    <glyph glyph-name="uhungarumlaut" unicode="&#x171;" horiz-adv-x="872" 
d="M81 541h80c12 0 18 -6 18 -18v-297c0 -91 24 -122 125 -122h259c102 0 130 31 130 122v297c0 12 6 18 18 18h80c12 0 18 -6 18 -18v-324c0 -142 -57 -199 -235 -199h-276c-178 0 -235 57 -235 199v324c0 12 6 18 18 18zM588 808h72c11 0 19 -6 12 -20l-104 -191
c-7 -13 -13 -20 -26 -20h-61c-13 0 -19 8 -13 21l94 191c6 13 13 19 26 19zM370 808h72c12 0 19 -6 13 -20l-105 -191c-7 -13 -13 -20 -26 -20h-61c-13 0 -19 8 -13 21l94 191c6 13 13 19 26 19z" />
    <glyph glyph-name="Uogonek" unicode="&#x172;" horiz-adv-x="972" 
d="M417 -38l98 38h-171c-201 0 -277 72 -277 264v418c0 12 6 18 18 18h88c12 0 18 -6 18 -18v-406c0 -121 38 -160 157 -160h276c119 0 157 39 157 160v406c0 12 6 18 18 18h88c12 0 18 -6 18 -18v-418c0 -192 -76 -264 -275 -264l-135 -62c-49 -22 -56 -34 -56 -68
c0 -42 12 -54 64 -54h95c10 0 15 -5 15 -15v-58c0 -10 -5 -15 -15 -15h-129c-101 0 -127 29 -127 119c0 64 13 92 75 115z" />
    <glyph glyph-name="uogonek" unicode="&#x173;" horiz-adv-x="872" 
d="M409 -38l98 38h-209c-178 0 -235 57 -235 199v324c0 12 6 18 18 18h80c12 0 18 -6 18 -18v-297c0 -91 24 -122 125 -122h259c102 0 130 31 130 122v297c0 12 6 18 18 18h80c12 0 18 -6 18 -18v-324c0 -128 -46 -187 -184 -198l-138 -63c-49 -22 -56 -34 -56 -68
c0 -42 12 -54 64 -54h95c10 0 15 -5 15 -15v-58c0 -10 -5 -15 -15 -15h-129c-101 0 -127 29 -127 119c0 64 13 92 75 115z" />
    <glyph glyph-name="Wcircumflex" unicode="&#x174;" horiz-adv-x="1295" 
d="M29 700h107c7 0 10 -3 13 -11l180 -566c1 -6 4 -7 9 -7h6c4 0 7 1 9 7l186 528c13 38 32 49 65 49h79c39 0 56 -13 69 -49l189 -528c2 -6 5 -7 10 -7h5c5 0 8 1 10 7l177 566c2 9 8 11 13 11h108c10 0 11 -9 8 -20l-204 -616c-16 -50 -33 -64 -67 -64h-94
c-35 0 -49 14 -67 64l-183 513c-1 6 -3 7 -8 7h-5c-5 0 -8 -1 -9 -7l-184 -513c-18 -50 -32 -64 -67 -64h-92c-40 0 -56 13 -72 64l-198 616c-4 11 -2 20 7 20zM611 915h72c20 0 31 -6 41 -20l108 -147c7 -10 1 -18 -11 -18h-62c-14 0 -21 5 -27 16l-69 100c-3 6 -7 8 -14 8
h-4c-7 0 -11 -2 -14 -8l-69 -100c-6 -11 -13 -16 -26 -16h-62c-12 0 -19 8 -11 18l107 147c10 14 20 20 41 20z" />
    <glyph glyph-name="wcircumflex" unicode="&#x175;" horiz-adv-x="1158" 
d="M35 541h90c12 0 18 -5 20 -13l147 -426c2 -5 5 -7 11 -7h5c6 0 9 2 11 7l155 398c10 32 25 41 57 41h96c33 0 47 -9 58 -41l154 -398c2 -5 5 -7 11 -7h5c5 0 8 2 10 7l148 426c3 8 8 13 20 13h91c14 0 18 -8 14 -21l-166 -467c-14 -42 -30 -53 -67 -53h-101
c-31 0 -46 12 -59 53l-153 386c-2 5 -5 7 -10 7h-8c-6 0 -8 -2 -10 -7l-152 -386c-13 -41 -28 -53 -60 -53h-101c-36 0 -53 11 -67 53l-164 467c-3 13 0 21 15 21zM543 808h72c20 0 30 -7 40 -23l108 -186c8 -12 1 -22 -11 -22h-62c-14 0 -20 6 -26 19l-70 129
c-3 6 -6 9 -13 9h-4c-7 0 -10 -3 -13 -9l-70 -129c-6 -13 -12 -19 -26 -19h-62c-12 0 -19 10 -12 22l109 186c9 16 20 23 40 23z" />
    <glyph glyph-name="Ycircumflex" unicode="&#x176;" horiz-adv-x="893" 
d="M24 700h109c10 0 15 -3 20 -10l294 -381l295 381c6 7 11 10 21 10h106c9 0 13 -9 7 -17l-368 -465v-200c0 -12 -6 -18 -19 -18h-87c-13 0 -19 6 -19 18v200l-367 465c-5 8 -2 17 8 17zM410 915h72c20 0 31 -6 41 -20l108 -147c7 -10 1 -18 -11 -18h-62
c-14 0 -21 5 -27 16l-69 100c-3 6 -7 8 -14 8h-4c-7 0 -11 -2 -14 -8l-69 -100c-6 -11 -13 -16 -26 -16h-62c-12 0 -19 8 -11 18l107 147c10 14 20 20 41 20z" />
    <glyph glyph-name="ycircumflex" unicode="&#x177;" horiz-adv-x="827" 
d="M697 541h91c11 0 16 -10 11 -21l-409 -679c-24 -43 -67 -62 -144 -62h-62c-10 0 -15 5 -15 15v67c0 10 5 15 15 15h54c28 0 45 7 56 25l66 108c-24 3 -38 13 -49 35l-293 476c-6 11 -1 21 11 21h93c11 0 17 -3 20 -11l253 -410c7 -12 10 -17 21 -19l261 429
c4 8 10 11 20 11zM379 808h72c20 0 30 -7 40 -23l108 -186c8 -12 1 -22 -11 -22h-62c-14 0 -20 6 -26 19l-70 129c-3 6 -6 9 -13 9h-4c-7 0 -10 -3 -13 -9l-70 -129c-6 -13 -12 -19 -26 -19h-62c-12 0 -19 10 -12 22l109 186c9 16 20 23 40 23z" />
    <glyph glyph-name="Ydieresis" unicode="&#x178;" horiz-adv-x="893" 
d="M24 700h109c10 0 15 -3 20 -10l294 -381l295 381c6 7 11 10 21 10h106c9 0 13 -9 7 -17l-368 -465v-200c0 -12 -6 -18 -19 -18h-87c-13 0 -19 6 -19 18v200l-367 465c-5 8 -2 17 8 17zM269 881h79c13 0 19 -5 19 -15v-93c0 -11 -6 -15 -19 -15h-79c-13 0 -19 4 -19 15v93
c0 10 6 15 19 15zM542 881h80c12 0 18 -5 18 -15v-93c0 -11 -6 -15 -18 -15h-80c-12 0 -18 4 -18 15v93c0 10 6 15 18 15z" />
    <glyph glyph-name="Zacute" unicode="&#x179;" horiz-adv-x="851" 
d="M75 700h653c47 0 69 -21 69 -66v-74c0 -42 -9 -54 -42 -74l-561 -339c-6 -4 -8 -9 -8 -16v-9c0 -6 3 -8 10 -8h577c12 0 18 -6 18 -19v-77c0 -12 -6 -18 -18 -18h-654c-47 0 -69 21 -69 66v74c0 42 7 53 40 73l559 340c7 4 9 9 9 16v9c0 5 -4 8 -10 8h-573
c-12 0 -18 6 -18 19v77c0 12 6 18 18 18zM470 915h72c12 0 20 -5 12 -16l-102 -153c-7 -10 -14 -16 -26 -16h-62c-12 0 -19 7 -12 17l92 153c5 10 13 15 26 15z" />
    <glyph glyph-name="zacute" unicode="&#x17a;" horiz-adv-x="731" 
d="M66 541h558c42 0 60 -18 60 -55v-62c0 -36 -7 -51 -38 -63l-471 -233c-6 -3 -8 -8 -8 -15v-8c0 -6 3 -8 9 -8h488c11 0 15 -5 15 -15v-67c0 -10 -4 -15 -15 -15h-557c-42 0 -60 18 -60 55v62c0 36 6 51 39 63l470 233c6 2 8 8 8 15v8c0 6 -3 8 -9 8h-489
c-10 0 -15 5 -15 15v67c0 10 5 15 15 15zM411 808h72c11 0 19 -6 12 -20l-104 -191c-7 -13 -13 -20 -26 -20h-61c-13 0 -19 8 -13 21l93 191c6 13 14 19 27 19z" />
    <glyph glyph-name="Zdotaccent" unicode="&#x17b;" horiz-adv-x="851" 
d="M75 700h653c47 0 69 -21 69 -66v-74c0 -42 -9 -54 -42 -74l-561 -339c-6 -4 -8 -9 -8 -16v-9c0 -6 3 -8 10 -8h577c12 0 18 -6 18 -19v-77c0 -12 -6 -18 -18 -18h-654c-47 0 -69 21 -69 66v74c0 42 7 53 40 73l559 340c7 4 9 9 9 16v9c0 5 -4 8 -10 8h-573
c-12 0 -18 6 -18 19v77c0 12 6 18 18 18zM385 881h79c13 0 19 -5 19 -15v-93c0 -11 -6 -15 -19 -15h-79c-13 0 -19 4 -19 15v93c0 10 6 15 19 15z" />
    <glyph glyph-name="zdotaccent" unicode="&#x17c;" horiz-adv-x="731" 
d="M66 541h558c42 0 60 -18 60 -55v-62c0 -36 -7 -51 -38 -63l-471 -233c-6 -3 -8 -8 -8 -15v-8c0 -6 3 -8 9 -8h488c11 0 15 -5 15 -15v-67c0 -10 -4 -15 -15 -15h-557c-42 0 -60 18 -60 55v62c0 36 6 51 39 63l470 233c6 2 8 8 8 15v8c0 6 -3 8 -9 8h-489
c-10 0 -15 5 -15 15v67c0 10 5 15 15 15zM328 740h80c12 0 18 -6 18 -18v-93c0 -13 -6 -19 -18 -19h-80c-12 0 -18 6 -18 19v93c0 12 6 18 18 18z" />
    <glyph glyph-name="Zcaron" unicode="&#x17d;" horiz-adv-x="851" 
d="M75 700h653c47 0 69 -21 69 -66v-74c0 -42 -9 -54 -42 -74l-561 -339c-6 -4 -8 -9 -8 -16v-9c0 -6 3 -8 10 -8h577c12 0 18 -6 18 -19v-77c0 -12 -6 -18 -18 -18h-654c-47 0 -69 21 -69 66v74c0 42 7 53 40 73l559 340c7 4 9 9 9 16v9c0 5 -4 8 -10 8h-573
c-12 0 -18 6 -18 19v77c0 12 6 18 18 18zM250 915h62c13 0 20 -4 26 -15l69 -100c3 -6 7 -8 14 -8h4c7 0 11 2 14 8l69 100c6 11 13 15 27 15h62c12 0 18 -7 11 -17l-108 -147c-10 -14 -21 -21 -41 -21h-72c-21 0 -31 7 -41 21l-107 147c-8 10 -1 17 11 17z" />
    <glyph glyph-name="zcaron" unicode="&#x17e;" horiz-adv-x="731" 
d="M66 541h558c42 0 60 -18 60 -55v-62c0 -36 -7 -51 -38 -63l-471 -233c-6 -3 -8 -8 -8 -15v-8c0 -6 3 -8 9 -8h488c11 0 15 -5 15 -15v-67c0 -10 -4 -15 -15 -15h-557c-42 0 -60 18 -60 55v62c0 36 6 51 39 63l470 233c6 2 8 8 8 15v8c0 6 -3 8 -9 8h-489
c-10 0 -15 5 -15 15v67c0 10 5 15 15 15zM191 808h62c14 0 20 -5 26 -18l70 -129c3 -6 6 -9 13 -9h4c7 0 10 3 13 9l70 129c6 13 12 18 26 18h62c12 0 19 -9 11 -21l-108 -186c-10 -16 -20 -24 -40 -24h-72c-20 0 -31 8 -40 24l-109 186c-7 12 0 21 12 21z" />
    <glyph glyph-name="uni0180" unicode="&#x180;" horiz-adv-x="868" 
d="M27 718h36v14c0 12 6 18 18 18h80c12 0 18 -6 18 -18v-14h320c12 0 18 -6 18 -18v-49c0 -12 -6 -18 -18 -18h-320v-92h396c178 0 235 -56 235 -199v-143c0 -142 -57 -199 -235 -199h-277c-178 0 -235 57 -235 199v434h-36c-12 0 -18 6 -18 18v49c0 12 6 18 18 18z
M564 442h-385v-221c0 -92 29 -122 130 -122h255c102 0 130 30 130 122v99c0 92 -28 122 -130 122z" />
    <glyph glyph-name="uni0181" unicode="&#x181;" horiz-adv-x="1172" 
d="M191 700h733c136 0 188 -54 188 -162v-49c0 -59 -23 -103 -71 -130c52 -26 76 -70 76 -131v-60c0 -104 -46 -168 -178 -168h-584c-20 0 -30 10 -30 30v573h-115c-51 0 -73 -25 -73 -73v-149c0 -12 -6 -18 -18 -18h-80c-12 0 -18 6 -18 18v149c0 119 43 170 170 170z
M882 310h-433v-185c0 -9 4 -13 12 -13h440c66 0 93 24 93 77v43c0 50 -25 78 -112 78zM449 575v-175h433c87 0 110 26 110 74v38c0 52 -26 76 -93 76h-438c-8 0 -12 -5 -12 -13z" />
    <glyph glyph-name="uni0187" unicode="&#x187;" horiz-adv-x="996" 
d="M338 700h347c21 53 68 77 156 77h140c10 0 15 -5 15 -15v-67c0 -10 -5 -15 -15 -15h-121c-51 0 -73 -25 -73 -73v-95c0 -12 -6 -18 -18 -18h-80c-13 0 -18 6 -18 18v72h-329c-119 0 -157 -39 -157 -160v-148c0 -121 38 -160 157 -160h445c12 0 18 -6 18 -18v-80
c0 -12 -6 -18 -18 -18h-449c-201 0 -277 72 -277 264v172c0 192 76 264 277 264z" />
    <glyph glyph-name="uni0188" unicode="&#x188;" horiz-adv-x="898" 
d="M277 541h298c12 82 59 118 167 118h140c10 0 15 -5 15 -15v-67c0 -10 -5 -15 -15 -15h-121c-51 0 -73 -25 -73 -73v-84c0 -12 -6 -18 -18 -18h-80c-13 0 -18 6 -18 18v37h-284c-102 0 -130 -30 -130 -122v-99c0 -92 28 -122 130 -122h389c11 0 15 -5 15 -15v-69
c0 -10 -4 -15 -15 -15h-400c-179 0 -235 57 -235 199v143c0 143 56 199 235 199z" />
    <glyph glyph-name="uni018A" unicode="&#x18a;" horiz-adv-x="1181" 
d="M817 700c215 0 303 -87 303 -282v-136c0 -195 -88 -282 -303 -282h-462c-20 0 -30 10 -30 30v573h-115c-51 0 -73 -25 -73 -73v-149c0 -12 -6 -18 -18 -18h-80c-12 0 -18 6 -18 18v149c0 119 43 170 170 170h626zM449 574v-448c0 -8 4 -12 12 -12h353
c134 0 181 47 181 178v116c0 131 -47 178 -181 178h-353c-8 0 -12 -4 -12 -12z" />
    <glyph glyph-name="uni018E" unicode="&#x18e;" horiz-adv-x="847" 
d="M508 0h-439c-12 0 -18 6 -18 18v77c0 13 6 19 18 19h438c119 0 157 38 157 159v23h-589c-12 0 -18 5 -18 18v64c0 12 6 18 18 18h589v31c0 121 -38 159 -157 159h-438c-12 0 -18 6 -18 19v77c0 12 6 18 18 18h439c201 0 277 -72 277 -264v-172c0 -192 -76 -264 -277 -264
z" />
    <glyph glyph-name="uni018F" unicode="&#x18f;" horiz-adv-x="952" 
d="M103 700h512c200 0 277 -72 277 -264v-172c0 -192 -77 -264 -277 -264h-370c-136 0 -188 69 -188 176v70c0 108 47 176 178 176h532v2c0 121 -38 160 -157 160h-507c-13 0 -19 6 -19 18v80c0 12 6 18 19 18zM610 114c119 0 157 38 157 159v58h-504c-59 0 -82 -31 -82 -85
v-47c0 -53 25 -85 87 -85h342z" />
    <glyph glyph-name="florin" unicode="&#x192;" horiz-adv-x="663" 
d="M449 700h147c10 0 15 -5 15 -15v-67c0 -10 -5 -15 -15 -15h-124c-80 0 -102 -30 -102 -99v-115h237c10 0 15 -5 15 -15v-38c0 -10 -5 -15 -15 -15h-237v-346c0 -139 -42 -196 -200 -196h-116c-10 0 -15 5 -15 15v67c0 10 5 15 15 15h93c80 0 102 30 102 99v346h-192
c-11 0 -15 5 -15 15v38c0 10 4 15 15 15h192v115c0 139 42 196 200 196z" />
    <glyph glyph-name="uni0194" unicode="&#x194;" horiz-adv-x="970" 
d="M29 700h109c13 0 17 -5 21 -10l326 -464l326 464c4 5 8 10 21 10h110c13 0 14 -12 9 -19l-400 -548l96 -137c28 -38 36 -59 36 -110v-79c0 -57 -46 -79 -100 -79h-195c-54 0 -100 22 -100 79v79c0 51 7 72 35 110l96 137l-399 548c-6 7 -5 19 9 19zM560 -60l-75 103
l-75 -103c-16 -21 -19 -37 -19 -61v-25c0 -32 9 -37 37 -37h115c27 0 37 5 37 37v25c0 24 -4 40 -20 61z" />
    <glyph glyph-name="uni0198" unicode="&#x198;" horiz-adv-x="979" 
d="M682 530l-79 -102c-26 -34 -46 -56 -70 -72c31 -16 56 -40 83 -73l209 -260c4 -7 5 -23 -12 -23h-101c-15 0 -19 3 -25 11l-190 241c-33 41 -61 55 -136 55h-168v-289c0 -12 -6 -18 -18 -18h-88c-12 0 -18 6 -18 18v664c0 12 6 18 18 18h88c12 0 18 -6 18 -18v-280h158
c78 0 100 8 135 54l115 151c116 151 162 158 333 158h30c10 0 15 -5 15 -15v-67c0 -10 -5 -15 -15 -15h-30c-121 0 -152 -10 -252 -138z" />
    <glyph glyph-name="uni0199" unicode="&#x199;" horiz-adv-x="784" 
d="M65 18v578c0 119 42 170 170 170h140c10 0 15 -5 15 -15v-67c0 -10 -5 -15 -15 -15h-121c-51 0 -73 -25 -73 -73v-277h196c73 0 93 7 126 51l113 157c7 10 13 14 26 14h90c13 0 17 -12 9 -23l-128 -173c-23 -31 -45 -54 -70 -69c31 -16 56 -39 78 -67l142 -187
c7 -10 2 -22 -10 -22h-90c-15 0 -20 3 -26 12l-125 166c-31 39 -57 52 -127 52h-204v-212c0 -12 -6 -18 -18 -18h-80c-12 0 -18 6 -18 18z" />
    <glyph glyph-name="uni019D" unicode="&#x19d;" horiz-adv-x="972" 
d="M191 424v-447c0 -141 -59 -198 -228 -198h-70c-10 0 -15 5 -15 15v69c0 10 5 15 15 15h59c92 0 115 30 115 121v437c0 192 76 264 277 264h284c201 0 277 -72 277 -264v-418c0 -12 -6 -18 -18 -18h-88c-12 0 -18 6 -18 18v406c0 121 -38 160 -157 160h-276
c-119 0 -157 -39 -157 -160z" />
    <glyph glyph-name="uni01A0" unicode="&#x1a0;" horiz-adv-x="1021" 
d="M970 793h63c12 0 18 -5 18 -18v-96c0 -104 -36 -157 -136 -169c3 -23 5 -47 5 -74v-172c0 -192 -76 -264 -277 -264h-305c-201 0 -277 72 -277 264v172c0 192 76 264 277 264h305c133 0 211 -32 249 -109c43 7 60 34 60 88v96c0 13 6 18 18 18zM185 427v-154
c0 -121 38 -159 157 -159h296c120 0 157 38 157 159v154c0 121 -37 159 -157 159h-296c-119 0 -157 -38 -157 -159z" />
    <glyph glyph-name="uni01A1" unicode="&#x1a1;" horiz-adv-x="932" 
d="M881 635h63c13 0 18 -6 18 -18v-97c0 -107 -39 -159 -155 -169v-152c0 -142 -57 -199 -235 -199h-280c-178 0 -235 57 -235 199v143c0 143 57 199 235 199h280c134 0 199 -32 223 -108c51 7 68 33 68 87v97c0 12 6 18 18 18zM173 322v-103c0 -92 29 -123 130 -123h258
c102 0 130 31 130 123v103c0 93 -28 123 -130 123h-258c-101 0 -130 -30 -130 -123z" />
    <glyph glyph-name="uni01AF" unicode="&#x1af;" horiz-adv-x="1099" 
d="M1048 793h63c12 0 18 -5 18 -18v-96c0 -120 -49 -172 -186 -172h-38v-243c0 -192 -76 -264 -277 -264h-284c-201 0 -277 72 -277 264v418c0 12 6 18 18 18h88c12 0 18 -6 18 -18v-406c0 -121 38 -160 157 -160h276c119 0 157 39 157 160v406c0 12 6 18 18 18h88
c12 0 18 -6 18 -18v-92h39c62 0 85 25 85 89v96c0 13 6 18 19 18z" />
    <glyph glyph-name="uni01B0" unicode="&#x1b0;" horiz-adv-x="980" 
d="M928 635h63c13 0 19 -6 19 -18v-97c0 -119 -49 -171 -186 -171h-15v-150c0 -142 -57 -199 -235 -199h-276c-178 0 -235 57 -235 199v324c0 12 6 18 18 18h80c12 0 18 -6 18 -18v-297c0 -91 24 -122 125 -122h259c102 0 130 31 130 122v297c0 12 6 18 18 18h80
c12 0 18 -6 18 -18v-92h15c63 0 86 25 86 89v97c0 12 6 18 18 18z" />
    <glyph glyph-name="uni01B3" unicode="&#x1b3;" horiz-adv-x="1069" 
d="M714 479l-206 -261v-200c0 -12 -6 -18 -19 -18h-87c-13 0 -19 6 -19 18v200l-367 465c-5 8 -2 17 8 17h109c10 0 15 -3 20 -10l294 -381l182 236c170 219 216 232 409 232h16c10 0 15 -5 15 -15v-67c0 -10 -5 -15 -15 -15h-17c-131 0 -165 -1 -323 -201z" />
    <glyph glyph-name="uni01B4" unicode="&#x1b4;" horiz-adv-x="1048" 
d="M702 357l-312 -516c-24 -43 -67 -62 -144 -62h-62c-10 0 -15 5 -15 15v67c0 10 5 15 15 15h54c28 0 45 7 56 25l66 108c-24 3 -38 13 -49 35l-293 476c-6 11 -1 21 11 21h93c11 0 17 -3 20 -11l253 -410c7 -12 10 -17 21 -19l185 304c170 280 216 297 416 297h16
c10 0 15 -5 15 -15v-67c0 -10 -5 -15 -15 -15h-16c-133 0 -168 -5 -315 -248z" />
    <glyph glyph-name="uni01C4" unicode="&#x1c4;" horiz-adv-x="1775" 
d="M99 700h462c215 0 303 -87 303 -282v-136c0 -195 -88 -282 -303 -282h-462c-20 0 -30 10 -30 30v640c0 20 10 30 30 30zM193 574v-448c0 -8 4 -12 12 -12h353c134 0 181 47 181 178v116c0 131 -47 178 -181 178h-353c-8 0 -12 -4 -12 -12zM999 700h653
c47 0 69 -21 69 -66v-74c0 -42 -9 -54 -42 -74l-561 -339c-6 -4 -8 -9 -8 -16v-9c0 -6 3 -8 10 -8h577c12 0 18 -6 18 -19v-77c0 -12 -6 -18 -18 -18h-654c-47 0 -69 21 -69 66v74c0 42 7 53 40 73l559 340c7 4 9 9 9 16v9c0 5 -4 8 -10 8h-573c-12 0 -18 6 -18 19v77
c0 12 6 18 18 18zM1174 915h62c13 0 20 -4 26 -15l69 -100c3 -6 7 -8 14 -8h4c7 0 11 2 14 8l69 100c6 11 13 15 27 15h62c12 0 18 -7 11 -17l-108 -147c-10 -14 -21 -21 -41 -21h-72c-21 0 -31 7 -41 21l-107 147c-8 10 -1 17 11 17z" />
    <glyph glyph-name="uni01C5" unicode="&#x1c5;" horiz-adv-x="1655" 
d="M99 700h462c215 0 303 -87 303 -282v-136c0 -195 -88 -282 -303 -282h-462c-20 0 -30 10 -30 30v640c0 20 10 30 30 30zM193 574v-448c0 -8 4 -12 12 -12h353c134 0 181 47 181 178v116c0 131 -47 178 -181 178h-353c-8 0 -12 -4 -12 -12zM990 541h558
c42 0 60 -18 60 -55v-62c0 -36 -7 -51 -38 -63l-471 -233c-6 -3 -8 -8 -8 -15v-8c0 -6 3 -8 9 -8h488c11 0 15 -5 15 -15v-67c0 -10 -4 -15 -15 -15h-557c-42 0 -60 18 -60 55v62c0 36 6 51 39 63l470 233c6 2 8 8 8 15v8c0 6 -3 8 -9 8h-489c-10 0 -15 5 -15 15v67
c0 10 5 15 15 15zM1115 808h62c14 0 20 -5 26 -18l70 -129c3 -6 6 -9 13 -9h4c7 0 10 3 13 9l70 129c6 13 12 18 26 18h62c12 0 19 -9 11 -21l-108 -186c-10 -16 -20 -24 -40 -24h-72c-20 0 -31 8 -40 24l-109 186c-7 12 0 21 12 21z" />
    <glyph glyph-name="uni01C6" unicode="&#x1c6;" horiz-adv-x="1599" 
d="M292 541h396v191c0 12 6 18 18 18h80c12 0 18 -6 18 -18v-533c0 -142 -57 -199 -235 -199h-277c-178 0 -235 57 -235 199v143c0 143 57 199 235 199zM558 99c102 0 130 30 130 122v221h-385c-101 0 -130 -30 -130 -122v-99c0 -92 29 -122 130 -122h255zM934 541h558
c42 0 60 -18 60 -55v-62c0 -36 -7 -51 -38 -63l-471 -233c-6 -3 -8 -8 -8 -15v-8c0 -6 3 -8 9 -8h488c11 0 15 -5 15 -15v-67c0 -10 -4 -15 -15 -15h-557c-42 0 -60 18 -60 55v62c0 36 6 51 39 63l470 233c6 2 8 8 8 15v8c0 6 -3 8 -9 8h-489c-10 0 -15 5 -15 15v67
c0 10 5 15 15 15zM1059 808h62c14 0 20 -5 26 -18l70 -129c3 -6 6 -9 13 -9h4c7 0 10 3 13 9l70 129c6 13 12 18 26 18h62c12 0 19 -9 11 -21l-108 -186c-10 -16 -20 -24 -40 -24h-72c-20 0 -31 8 -40 24l-109 186c-7 12 0 21 12 21z" />
    <glyph glyph-name="uni01DD" unicode="&#x1dd;" 
d="M507 0h-290c-135 0 -171 42 -171 161v89c0 42 18 56 57 56h524v31c0 75 -29 105 -131 105h-418c-10 0 -15 5 -15 15v69c0 10 5 15 15 15h429c179 0 236 -57 236 -199v-143c0 -143 -57 -199 -236 -199zM627 197v35h-446c-14 0 -21 -5 -21 -21v-46c0 -54 18 -74 79 -74h257
c102 0 131 30 131 106z" />
    <glyph glyph-name="uni01E6" unicode="&#x1e6;" horiz-adv-x="922" 
d="M338 700h504c13 0 19 -6 19 -18v-80c0 -12 -6 -18 -19 -18h-500c-119 0 -157 -39 -157 -160v-150c0 -121 38 -159 157 -159h341c42 0 61 20 61 75v104c0 9 -4 13 -12 13h-318c-12 0 -18 6 -18 18v62c0 12 6 18 18 18h416c20 0 30 -10 30 -30v-222
c0 -112 -44 -153 -123 -153h-399c-201 0 -277 72 -277 264v172c0 192 76 264 277 264zM301 915h62c13 0 20 -4 26 -15l69 -100c3 -6 7 -8 14 -8h4c7 0 11 2 14 8l69 100c6 11 13 15 27 15h62c12 0 18 -7 11 -17l-108 -147c-10 -14 -21 -21 -41 -21h-72c-21 0 -31 7 -41 21
l-107 147c-8 10 -1 17 11 17z" />
    <glyph glyph-name="uni01E7" unicode="&#x1e7;" horiz-adv-x="868" 
d="M292 541h277c179 0 235 -57 235 -200v-360c0 -145 -56 -202 -235 -202h-469c-10 0 -15 5 -15 15v69c0 10 5 15 15 15h458c102 0 130 30 130 125v25h-396c-178 0 -235 58 -235 203v108c0 145 57 202 235 202zM173 232c0 -81 29 -112 130 -112h385v211
c0 83 -28 114 -130 114h-255c-101 0 -130 -31 -130 -112v-101zM261 808h62c14 0 20 -5 26 -18l70 -129c3 -6 6 -9 13 -9h4c7 0 10 3 13 9l70 129c6 13 12 18 26 18h62c12 0 19 -9 11 -21l-108 -186c-10 -16 -20 -24 -40 -24h-72c-20 0 -31 8 -40 24l-109 186
c-7 12 0 21 12 21z" />
    <glyph glyph-name="uni01F0" unicode="&#x1f0;" horiz-adv-x="367" 
d="M6 808h62c14 0 20 -5 26 -18l70 -129c3 -6 6 -9 13 -9h4c7 0 10 3 13 9l70 129c6 13 12 18 26 18h62c12 0 19 -9 11 -21l-108 -186c-10 -16 -20 -24 -40 -24h-72c-20 0 -31 8 -40 24l-109 186c-7 12 0 21 12 21zM142 541h79c13 0 18 -6 18 -18v-546
c0 -141 -51 -198 -220 -198h-70c-10 0 -15 5 -15 15v69c0 10 5 15 15 15h59c92 0 115 30 115 121v524c0 12 6 18 19 18z" />
    <glyph glyph-name="uni01F1" unicode="&#x1f1;" horiz-adv-x="1775" 
d="M99 700h462c215 0 303 -87 303 -282v-136c0 -195 -88 -282 -303 -282h-462c-20 0 -30 10 -30 30v640c0 20 10 30 30 30zM193 574v-448c0 -8 4 -12 12 -12h353c134 0 181 47 181 178v116c0 131 -47 178 -181 178h-353c-8 0 -12 -4 -12 -12zM999 700h653
c47 0 69 -21 69 -66v-74c0 -42 -9 -54 -42 -74l-561 -339c-6 -4 -8 -9 -8 -16v-9c0 -6 3 -8 10 -8h577c12 0 18 -6 18 -19v-77c0 -12 -6 -18 -18 -18h-654c-47 0 -69 21 -69 66v74c0 42 7 53 40 73l559 340c7 4 9 9 9 16v9c0 5 -4 8 -10 8h-573c-12 0 -18 6 -18 19v77
c0 12 6 18 18 18z" />
    <glyph glyph-name="uni01F2" unicode="&#x1f2;" horiz-adv-x="1655" 
d="M99 700h462c215 0 303 -87 303 -282v-136c0 -195 -88 -282 -303 -282h-462c-20 0 -30 10 -30 30v640c0 20 10 30 30 30zM193 574v-448c0 -8 4 -12 12 -12h353c134 0 181 47 181 178v116c0 131 -47 178 -181 178h-353c-8 0 -12 -4 -12 -12zM990 541h558
c42 0 60 -18 60 -55v-62c0 -36 -7 -51 -38 -63l-471 -233c-6 -3 -8 -8 -8 -15v-8c0 -6 3 -8 9 -8h488c11 0 15 -5 15 -15v-67c0 -10 -4 -15 -15 -15h-557c-42 0 -60 18 -60 55v62c0 36 6 51 39 63l470 233c6 2 8 8 8 15v8c0 6 -3 8 -9 8h-489c-10 0 -15 5 -15 15v67
c0 10 5 15 15 15z" />
    <glyph glyph-name="uni01F3" unicode="&#x1f3;" horiz-adv-x="1599" 
d="M292 541h396v191c0 12 6 18 18 18h80c12 0 18 -6 18 -18v-533c0 -142 -57 -199 -235 -199h-277c-178 0 -235 57 -235 199v143c0 143 57 199 235 199zM558 99c102 0 130 30 130 122v221h-385c-101 0 -130 -30 -130 -122v-99c0 -92 29 -122 130 -122h255zM934 541h558
c42 0 60 -18 60 -55v-62c0 -36 -7 -51 -38 -63l-471 -233c-6 -3 -8 -8 -8 -15v-8c0 -6 3 -8 9 -8h488c11 0 15 -5 15 -15v-67c0 -10 -4 -15 -15 -15h-557c-42 0 -60 18 -60 55v62c0 36 6 51 39 63l470 233c6 2 8 8 8 15v8c0 6 -3 8 -9 8h-489c-10 0 -15 5 -15 15v67
c0 10 5 15 15 15z" />
    <glyph glyph-name="uni01F4" unicode="&#x1f4;" horiz-adv-x="922" 
d="M338 700h504c13 0 19 -6 19 -18v-80c0 -12 -6 -18 -19 -18h-500c-119 0 -157 -39 -157 -160v-150c0 -121 38 -159 157 -159h341c42 0 61 20 61 75v104c0 9 -4 13 -12 13h-318c-12 0 -18 6 -18 18v62c0 12 6 18 18 18h416c20 0 30 -10 30 -30v-222
c0 -112 -44 -153 -123 -153h-399c-201 0 -277 72 -277 264v172c0 192 76 264 277 264zM531 915h72c12 0 20 -5 12 -16l-102 -153c-7 -10 -14 -16 -26 -16h-62c-12 0 -19 7 -12 17l92 153c5 10 13 15 26 15z" />
    <glyph glyph-name="uni01F5" unicode="&#x1f5;" horiz-adv-x="868" 
d="M292 541h277c179 0 235 -57 235 -200v-360c0 -145 -56 -202 -235 -202h-469c-10 0 -15 5 -15 15v69c0 10 5 15 15 15h458c102 0 130 30 130 125v25h-396c-178 0 -235 58 -235 203v108c0 145 57 202 235 202zM173 232c0 -81 29 -112 130 -112h385v211
c0 83 -28 114 -130 114h-255c-101 0 -130 -31 -130 -112v-101zM485 808h72c11 0 19 -6 12 -20l-104 -191c-7 -13 -13 -20 -26 -20h-61c-13 0 -19 8 -13 21l93 191c6 13 14 19 27 19z" />
    <glyph glyph-name="uni01F8" unicode="&#x1f8;" horiz-adv-x="973" 
d="M145 700h73c53 0 65 -11 97 -49l435 -525c4 -5 8 -7 14 -7h10c6 0 9 3 9 10v553c0 12 5 18 18 18h85c12 0 18 -6 18 -18v-594c0 -68 -25 -88 -77 -88h-71c-50 0 -64 9 -97 49l-436 525c-4 5 -8 7 -14 7h-10c-6 0 -8 -3 -8 -10v-553c0 -12 -6 -18 -19 -18h-85
c-12 0 -18 6 -18 18v594c0 68 25 88 76 88zM368 915h72c12 0 20 -5 26 -15l92 -153c7 -10 0 -17 -12 -17h-62c-13 0 -19 6 -26 16l-103 153c-7 11 1 16 13 16z" />
    <glyph glyph-name="uni01F9" unicode="&#x1f9;" horiz-adv-x="880" 
d="M298 541h284c178 0 235 -57 235 -199v-324c0 -12 -6 -18 -18 -18h-80c-12 0 -18 6 -18 18v297c0 91 -23 122 -125 122h-267c-101 0 -130 -31 -130 -122v-297c0 -12 -6 -18 -18 -18h-80c-12 0 -18 6 -18 18v324c0 142 57 199 235 199zM321 808h72c13 0 20 -6 26 -19
l94 -191c6 -13 0 -21 -13 -21h-62c-12 0 -18 7 -25 20l-105 191c-7 14 1 20 13 20z" />
    <glyph glyph-name="Scommaaccent" unicode="&#x218;" horiz-adv-x="854" 
d="M224 700h535c12 0 18 -6 18 -18v-77c0 -13 -6 -19 -18 -19h-512c-48 0 -66 -27 -66 -70v-42c0 -46 20 -70 66 -70h390c110 0 166 -59 166 -164v-82c0 -94 -51 -158 -168 -158h-559c-12 0 -18 6 -18 18v77c0 13 6 19 18 19h536c48 0 66 27 66 70v50c0 46 -20 70 -65 70
h-390c-110 0 -166 59 -166 164v73c0 95 51 159 167 159zM396 -41h73c14 0 20 -7 16 -22l-41 -190c-4 -13 -10 -19 -22 -19h-45c-14 0 -21 7 -20 20l19 192c1 12 8 19 20 19z" />
    <glyph glyph-name="scommaaccent" unicode="&#x219;" horiz-adv-x="780" 
d="M208 541h487c10 0 15 -5 15 -15v-65c0 -10 -5 -15 -15 -15h-457c-53 0 -71 -20 -71 -57v-16c0 -34 18 -55 71 -55h341c112 0 154 -46 154 -129v-51c0 -89 -38 -138 -155 -138h-510c-10 0 -15 5 -15 15v65c0 10 5 15 15 15h481c53 0 71 19 71 61v29c0 32 -18 53 -71 53
h-342c-112 0 -154 47 -154 131v39c0 82 38 133 155 133zM359 -41h73c14 0 20 -7 16 -22l-41 -190c-4 -13 -10 -19 -22 -19h-45c-14 0 -21 7 -20 20l19 192c1 12 8 19 20 19z" />
    <glyph glyph-name="uni021A" unicode="&#x21a;" horiz-adv-x="869" 
d="M44 700h781c13 0 19 -6 19 -18v-80c0 -12 -6 -18 -19 -18h-328v-566c0 -12 -6 -18 -18 -18h-88c-13 0 -19 6 -19 18v566h-328c-12 0 -18 6 -18 18v80c0 12 6 18 18 18zM393 -41h73c14 0 20 -7 16 -22l-41 -190c-4 -13 -10 -19 -22 -19h-45c-14 0 -21 7 -20 20l19 192
c1 12 8 19 20 19z" />
    <glyph glyph-name="uni021B" unicode="&#x21b;" horiz-adv-x="505" 
d="M35 541h97v134c0 13 6 19 18 19h80c12 0 18 -6 18 -19v-134h194c10 0 15 -5 15 -15v-67c0 -10 -5 -15 -15 -15h-194v-248c0 -69 22 -99 103 -99h97c10 0 15 -5 15 -15v-67c0 -10 -5 -15 -15 -15h-116c-158 0 -200 57 -200 196v248h-97c-10 0 -15 5 -15 15v67
c0 10 5 15 15 15zM251 -41h73c14 0 20 -7 16 -22l-41 -190c-4 -13 -10 -19 -22 -19h-45c-14 0 -21 7 -20 20l19 192c1 12 8 19 20 19z" />
    <glyph glyph-name="dotlessj" unicode="&#x237;" horiz-adv-x="265" 
d="M103 541h79c13 0 18 -6 18 -18v-546c0 -141 -51 -198 -220 -198h-70c-10 0 -15 5 -15 15v69c0 10 5 15 15 15h59c92 0 115 30 115 121v524c0 12 6 18 19 18z" />
    <glyph glyph-name="uni0241" unicode="&#x241;" horiz-adv-x="551" 
d="M38 700h341c95 0 138 -48 138 -138v-43c0 -85 -27 -111 -92 -147l-93 -51c-27 -14 -37 -30 -37 -70v-233c0 -12 -6 -18 -18 -18h-80c-12 0 -18 6 -18 18v243c0 63 13 88 52 109l125 67c28 15 42 29 42 69v30c0 40 -18 61 -59 61h-301c-12 0 -18 6 -18 18v67
c0 12 6 18 18 18z" />
    <glyph glyph-name="uni0242" unicode="&#x242;" horiz-adv-x="551" 
d="M38 541h341c95 0 138 -46 138 -131v-41c0 -80 -27 -105 -92 -139l-93 -48c-27 -13 -37 -28 -37 -64v-100c0 -12 -6 -18 -18 -18h-80c-12 0 -18 6 -18 18v110c0 58 13 83 52 102l125 65c28 14 42 25 42 61v28c0 36 -18 54 -59 54h-301c-12 0 -18 6 -18 18v67
c0 12 6 18 18 18z" />
    <glyph glyph-name="uni024C" unicode="&#x24c;" horiz-adv-x="948" 
d="M25 329h91v341c0 20 10 30 30 30h531c151 0 212 -71 212 -204v-55c0 -116 -46 -184 -157 -200l181 -219c6 -7 4 -22 -11 -22h-104c-14 0 -19 4 -24 11l-171 218h-363v-211c0 -12 -6 -18 -18 -18h-88c-12 0 -18 6 -18 18v211h-91c-13 0 -20 7 -20 20v60c0 14 7 20 20 20z
M240 576v-247h413c81 0 111 36 111 108v43c0 72 -30 108 -111 108h-401c-8 0 -12 -3 -12 -12z" />
    <glyph glyph-name="uni024D" unicode="&#x24d;" horiz-adv-x="667" 
d="M38 267h79v75c0 142 57 199 235 199h280c10 0 15 -5 15 -15v-69c0 -10 -5 -15 -15 -15h-269c-101 0 -130 -30 -130 -122v-53h277c12 0 18 -6 18 -18v-49c0 -12 -6 -18 -18 -18h-277v-164c0 -12 -6 -18 -18 -18h-80c-12 0 -18 6 -18 18v164h-79c-12 0 -18 6 -18 18v49
c0 12 6 18 18 18z" />
    <glyph glyph-name="uni0253" unicode="&#x253;" horiz-adv-x="868" 
d="M233 765h140c10 0 15 -5 15 -15v-67c0 -10 -5 -15 -15 -15h-121c-51 0 -73 -25 -73 -73v-54h396c178 0 235 -56 235 -199v-143c0 -142 -57 -199 -235 -199h-277c-178 0 -235 57 -235 199v396c0 119 42 170 170 170zM564 442h-385v-221c0 -92 29 -122 130 -122h255
c102 0 130 30 130 122v99c0 92 -28 122 -130 122z" />
    <glyph glyph-name="uni0257" unicode="&#x257;" horiz-adv-x="1041" 
d="M292 541h397v54c0 119 42 170 170 170h140c10 0 15 -5 15 -15v-67c0 -10 -5 -15 -15 -15h-121c-51 0 -74 -25 -74 -73v-396c0 -142 -57 -199 -235 -199h-277c-178 0 -235 57 -235 199v143c0 143 57 199 235 199zM558 99c102 0 130 30 130 122v221h-385
c-101 0 -130 -30 -130 -122v-99c0 -92 29 -122 130 -122h255z" />
    <glyph glyph-name="uni0263" unicode="&#x263;" horiz-adv-x="827" 
d="M27 541h103c10 0 16 -3 20 -9l262 -356l264 356c4 6 10 9 20 9h104c11 0 12 -11 8 -17l-333 -433l80 -108c25 -33 33 -53 33 -98v-84c0 -51 -39 -73 -89 -73h-174c-50 0 -89 22 -89 73v84c0 45 8 65 34 98l79 107l-331 434c-4 6 -3 17 9 17zM481 -81l-69 90l-69 -90
c-14 -20 -16 -36 -16 -57v-21c0 -26 8 -35 35 -35h101c27 0 34 9 34 35v21c0 21 -2 37 -16 57z" />
    <glyph glyph-name="uni0272" unicode="&#x272;" horiz-adv-x="947" 
d="M365 541h284c178 0 235 -57 235 -199v-324c0 -12 -6 -18 -18 -18h-80c-12 0 -18 6 -18 18v297c0 91 -23 122 -125 122h-267c-101 0 -130 -31 -130 -122v-338c0 -141 -51 -198 -220 -198h-70c-10 0 -15 5 -15 15v69c0 10 5 15 15 15h59c92 0 115 30 115 121v343
c0 142 57 199 235 199z" />
    <glyph glyph-name="circumflex" unicode="&#x2c6;" horiz-adv-x="482" 
d="M205 808h72c20 0 30 -7 40 -23l108 -186c8 -12 1 -22 -11 -22h-62c-14 0 -20 6 -26 19l-70 129c-3 6 -6 9 -13 9h-4c-7 0 -10 -3 -13 -9l-70 -129c-6 -13 -12 -19 -26 -19h-62c-12 0 -19 10 -12 22l109 186c9 16 20 23 40 23z" />
    <glyph glyph-name="caron" unicode="&#x2c7;" horiz-adv-x="482" 
d="M68 808h62c14 0 20 -5 26 -18l70 -129c3 -6 6 -9 13 -9h4c7 0 10 3 13 9l70 129c6 13 12 18 26 18h62c12 0 19 -9 11 -21l-108 -186c-10 -16 -20 -24 -40 -24h-72c-20 0 -31 8 -40 24l-109 186c-7 12 0 21 12 21z" />
    <glyph glyph-name="breve" unicode="&#x2d8;" horiz-adv-x="604" 
d="M65 722v42c0 11 6 19 15 19c6 0 13 -3 21 -10c26 -21 101 -80 201 -80s175 59 201 80c8 7 16 10 21 10c10 0 15 -8 15 -19v-42c0 -14 -2 -24 -17 -36c-36 -29 -125 -73 -220 -73c-96 0 -185 44 -220 73c-15 12 -17 22 -17 36z" />
    <glyph glyph-name="dotaccent" unicode="&#x2d9;" horiz-adv-x="246" 
d="M83 740h80c12 0 18 -6 18 -18v-93c0 -13 -6 -19 -18 -19h-80c-12 0 -18 6 -18 19v93c0 12 6 18 18 18z" />
    <glyph glyph-name="ring" unicode="&#x2da;" horiz-adv-x="444" 
d="M167 808h111c73 0 101 -27 101 -97v-63c0 -70 -28 -97 -101 -97h-111c-74 0 -102 27 -102 97v63c0 70 28 97 102 97zM127 701v-43c0 -38 11 -50 50 -50h91c38 0 50 12 50 50v43c0 39 -12 51 -50 51h-91c-39 0 -50 -12 -50 -51z" />
    <glyph glyph-name="ogonek" unicode="&#x2db;" horiz-adv-x="418" 
d="M140 -38l98 38h115l-135 -62c-49 -22 -56 -34 -56 -68c0 -42 12 -54 64 -54h95c10 0 15 -5 15 -15v-58c0 -10 -5 -15 -15 -15h-129c-101 0 -127 29 -127 119c0 64 13 92 75 115z" />
    <glyph glyph-name="tilde" unicode="&#x2dc;" horiz-adv-x="638" 
d="M126 596h-45c-14 0 -16 8 -16 27c0 117 32 151 121 151c74 0 117 -23 161 -61c24 -23 42 -38 88 -38c47 0 53 17 54 83c0 15 9 21 23 21h45c14 0 16 -8 16 -27c0 -117 -33 -151 -121 -151c-74 0 -117 23 -161 61c-24 23 -42 38 -89 38c-46 0 -52 -17 -53 -83
c0 -15 -9 -21 -23 -21z" />
    <glyph glyph-name="hungarumlaut" unicode="&#x2dd;" horiz-adv-x="613" 
d="M442 808h72c11 0 19 -6 12 -20l-104 -191c-7 -13 -13 -20 -26 -20h-61c-13 0 -19 8 -13 21l94 191c6 13 13 19 26 19zM224 808h72c12 0 19 -6 13 -20l-105 -191c-7 -13 -13 -20 -26 -20h-61c-13 0 -19 8 -13 21l94 191c6 13 13 19 26 19z" />
    <glyph glyph-name="gravecomb" unicode="&#x300;" horiz-adv-x="0" 
d="M-559 808h72c13 0 20 -6 26 -19l94 -191c6 -13 0 -21 -13 -21h-62c-12 0 -18 7 -25 20l-105 191c-7 14 1 20 13 20z" />
    <glyph glyph-name="acutecomb" unicode="&#x301;" horiz-adv-x="0" 
d="M-393 808h72c11 0 19 -6 12 -20l-104 -191c-7 -13 -13 -20 -26 -20h-61c-13 0 -19 8 -13 21l93 191c6 13 14 19 27 19z" />
    <glyph glyph-name="uni0302" unicode="&#x302;" horiz-adv-x="0" 
d="M-476 808h72c20 0 30 -7 40 -23l108 -186c8 -12 1 -22 -11 -22h-62c-14 0 -20 6 -26 19l-70 129c-3 6 -6 9 -13 9h-4c-7 0 -10 -3 -13 -9l-70 -129c-6 -13 -12 -19 -26 -19h-62c-12 0 -19 10 -12 22l109 186c9 16 20 23 40 23z" />
    <glyph glyph-name="tildecomb" unicode="&#x303;" horiz-adv-x="0" 
d="M-633 596h-45c-14 0 -16 8 -16 27c0 117 32 151 121 151c74 0 117 -23 161 -61c24 -23 42 -38 88 -38c47 0 53 17 54 83c0 15 9 21 23 21h45c14 0 16 -8 16 -27c0 -117 -33 -151 -121 -151c-74 0 -117 23 -161 61c-24 23 -42 38 -89 38c-46 0 -52 -17 -53 -83
c0 -15 -9 -21 -23 -21z" />
    <glyph glyph-name="uni0304" unicode="&#x304;" horiz-adv-x="0" 
d="M-676 718h472c12 0 18 -6 18 -18v-49c0 -12 -6 -18 -18 -18h-472c-12 0 -18 6 -18 18v49c0 12 6 18 18 18z" />
    <glyph glyph-name="uni0306" unicode="&#x306;" horiz-adv-x="0" 
d="M-677 722v42c0 11 6 19 15 19c6 0 13 -3 21 -10c26 -21 101 -80 201 -80s175 59 201 80c8 7 16 10 21 10c10 0 15 -8 15 -19v-42c0 -14 -2 -24 -17 -36c-36 -29 -125 -73 -220 -73c-96 0 -185 44 -220 73c-15 12 -17 22 -17 36z" />
    <glyph glyph-name="uni0307" unicode="&#x307;" horiz-adv-x="0" 
d="M-479 740h80c12 0 18 -6 18 -18v-93c0 -13 -6 -19 -18 -19h-80c-12 0 -18 6 -18 19v93c0 12 6 18 18 18z" />
    <glyph glyph-name="uni0308" unicode="&#x308;" horiz-adv-x="0" 
d="M-344 740h80c12 0 18 -6 18 -18v-93c0 -13 -6 -19 -18 -19h-80c-12 0 -18 6 -18 19v93c0 12 6 18 18 18zM-617 740h80c12 0 18 -6 18 -18v-93c0 -13 -6 -19 -18 -19h-80c-12 0 -18 6 -18 19v93c0 12 6 18 18 18z" />
    <glyph glyph-name="hookabovecomb" unicode="&#x309;" horiz-adv-x="0" 
d="M-575 808h233c45 0 66 -22 66 -64v-29c0 -38 -9 -53 -35 -70l-84 -64c-9 -6 -16 -8 -26 -8h-58c-12 0 -12 15 -5 19l120 93c8 6 10 12 10 21v22c0 8 -4 13 -13 13h-208c-8 0 -12 3 -12 12v43c0 8 4 12 12 12z" />
    <glyph glyph-name="uni030A" unicode="&#x30a;" horiz-adv-x="0" 
d="M-495 808h111c74 0 102 -27 102 -97v-63c0 -70 -28 -97 -102 -97h-111c-74 0 -102 27 -102 97v63c0 70 28 97 102 97zM-535 701v-43c0 -38 12 -50 50 -50h91c38 0 50 12 50 50v43c0 39 -12 51 -50 51h-91c-38 0 -50 -12 -50 -51z" />
    <glyph glyph-name="uni030B" unicode="&#x30b;" horiz-adv-x="0" 
d="M-284 808h72c11 0 19 -6 12 -20l-104 -191c-7 -13 -13 -20 -26 -20h-61c-13 0 -19 8 -13 21l94 191c6 13 13 19 26 19zM-502 808h72c12 0 19 -6 13 -20l-105 -191c-7 -13 -13 -20 -26 -20h-61c-13 0 -19 8 -13 21l94 191c6 13 13 19 26 19z" />
    <glyph glyph-name="uni030C" unicode="&#x30c;" horiz-adv-x="0" 
d="M-613 808h62c14 0 20 -5 26 -18l70 -129c3 -6 6 -9 13 -9h4c7 0 10 3 13 9l70 129c6 13 12 18 26 18h62c12 0 19 -9 11 -21l-108 -186c-10 -16 -20 -24 -40 -24h-72c-20 0 -31 8 -40 24l-109 186c-7 12 0 21 12 21z" />
    <glyph glyph-name="uni0313" unicode="&#x313;" horiz-adv-x="0" 
d="M-436 808h45c14 0 21 -7 20 -20l-18 -191c-1 -13 -9 -20 -21 -20h-73c-14 0 -20 8 -16 22l41 190c4 13 10 19 22 19z" />
    <glyph glyph-name="uni031B" unicode="&#x31b;" horiz-adv-x="83" 
d="M16 635h63c13 0 19 -6 19 -18v-97c0 -119 -49 -171 -186 -171h-59c-11 0 -15 5 -15 15v52c0 10 4 15 15 15h59c63 0 86 25 86 89v97c0 12 6 18 18 18z" />
    <glyph glyph-name="dotbelowcomb" unicode="&#x323;" horiz-adv-x="0" 
d="M-479 -76h79c13 0 19 -5 19 -15v-93c0 -11 -6 -15 -19 -15h-79c-13 0 -19 4 -19 15v93c0 10 6 15 19 15z" />
    <glyph glyph-name="uni0326" unicode="&#x326;" horiz-adv-x="0" 
d="M-465 -41h73c14 0 20 -7 16 -22l-41 -190c-4 -13 -10 -19 -22 -19h-45c-14 0 -21 7 -20 20l19 192c1 12 8 19 20 19z" />
    <glyph glyph-name="uni0328" unicode="&#x328;" horiz-adv-x="0" 
d="M-518 -38l98 38h115l-135 -62c-49 -22 -56 -34 -56 -68c0 -42 12 -54 64 -54h95c10 0 15 -5 15 -15v-58c0 -10 -5 -15 -15 -15h-129c-101 0 -127 29 -127 119c0 64 13 92 75 115z" />
    <glyph glyph-name="uni032D" unicode="&#x32d;" horiz-adv-x="0" 
d="M-476 -58h72c20 0 31 -6 41 -20l108 -147c7 -10 1 -18 -11 -18h-62c-14 0 -21 5 -27 16l-69 100c-3 6 -7 8 -14 8h-4c-7 0 -11 -2 -14 -8l-69 -100c-6 -11 -13 -16 -26 -16h-62c-12 0 -19 8 -11 18l107 147c10 14 20 20 41 20z" />
    <glyph glyph-name="tonos" unicode="&#x384;" horiz-adv-x="328" 
d="M178 808h71c12 0 19 -6 12 -20l-95 -191c-7 -13 -13 -20 -26 -20h-61c-13 0 -18 8 -13 21l85 191c6 13 14 19 27 19z" />
    <glyph glyph-name="dieresistonos" unicode="&#x385;" horiz-adv-x="614" 
d="M331 808h71c12 0 19 -6 12 -20l-95 -191c-7 -13 -13 -20 -26 -20h-61c-13 0 -18 8 -13 21l85 191c6 13 14 19 27 19zM456 740h80c12 0 18 -6 18 -18v-93c0 -13 -6 -19 -18 -19h-80c-12 0 -18 6 -18 19v93c0 12 6 18 18 18zM83 740h80c12 0 18 -6 18 -18v-93
c0 -13 -6 -19 -18 -19h-80c-12 0 -18 6 -18 19v93c0 12 6 18 18 18z" />
    <glyph glyph-name="Alphatonos" unicode="&#x386;" horiz-adv-x="1053" 
d="M538 700h49c43 0 68 -13 96 -63l350 -617c7 -12 4 -20 -10 -20h-102c-10 0 -15 3 -20 11l-79 141h-507l-78 -141c-4 -8 -9 -11 -20 -11h-105c-13 0 -16 8 -10 20l348 617c28 50 53 63 88 63zM553 577l-185 -330h400l-185 330c-4 6 -7 7 -12 7h-6c-5 0 -8 -1 -12 -7z
M186 808h71c12 0 19 -6 12 -20l-95 -191c-7 -13 -13 -20 -26 -20h-61c-13 0 -18 8 -13 21l85 191c6 13 14 19 27 19z" />
    <glyph glyph-name="anoteleia" unicode="&#x387;" horiz-adv-x="246" 
d="M83 497h80c12 0 18 -6 18 -18v-94c0 -12 -6 -18 -18 -18h-80c-12 0 -18 6 -18 18v94c0 12 6 18 18 18z" />
    <glyph glyph-name="Epsilontonos" unicode="&#x388;" horiz-adv-x="1031" 
d="M522 700h439c12 0 18 -6 18 -18v-77c0 -13 -6 -19 -18 -19h-438c-119 0 -157 -38 -157 -159v-23h589c12 0 18 -5 18 -18v-64c0 -12 -6 -18 -18 -18h-589v-31c0 -121 38 -159 157 -159h438c12 0 18 -6 18 -19v-77c0 -12 -6 -18 -18 -18h-439c-201 0 -277 72 -277 264v172
c0 192 76 264 277 264zM178 808h71c12 0 19 -6 12 -20l-95 -191c-7 -13 -13 -20 -26 -20h-61c-13 0 -18 8 -13 21l85 191c6 13 14 19 27 19z" />
    <glyph glyph-name="Etatonos" unicode="&#x389;" horiz-adv-x="1157" 
d="M342 700h88c12 0 18 -6 18 -18v-276h516v276c0 12 6 18 18 18h88c13 0 19 -6 19 -18v-664c0 -12 -6 -18 -19 -18h-88c-12 0 -18 6 -18 18v282h-516v-282c0 -12 -6 -18 -18 -18h-88c-12 0 -18 6 -18 18v664c0 12 6 18 18 18zM178 808h71c12 0 19 -6 12 -20l-95 -191
c-7 -13 -13 -20 -26 -20h-61c-13 0 -18 8 -13 21l85 191c6 13 14 19 27 19z" />
    <glyph glyph-name="Iotatonos" unicode="&#x38a;" horiz-adv-x="597" 
d="M343 700h88c12 0 18 -6 18 -18v-664c0 -12 -6 -18 -18 -18h-88c-12 0 -18 6 -18 18v664c0 12 6 18 18 18zM178 808h71c12 0 19 -6 12 -20l-95 -191c-7 -13 -13 -20 -26 -20h-61c-13 0 -18 8 -13 21l85 191c6 13 14 19 27 19z" />
    <glyph glyph-name="Omicrontonos" unicode="&#x38c;" horiz-adv-x="1165" 
d="M522 700h305c201 0 277 -72 277 -264v-172c0 -192 -76 -264 -277 -264h-305c-201 0 -277 72 -277 264v172c0 192 76 264 277 264zM369 427v-154c0 -121 38 -159 157 -159h296c120 0 157 38 157 159v154c0 121 -37 159 -157 159h-296c-119 0 -157 -38 -157 -159zM178 808
h71c12 0 19 -6 12 -20l-95 -191c-7 -13 -13 -20 -26 -20h-61c-13 0 -18 8 -13 21l85 191c6 13 14 19 27 19z" />
    <glyph glyph-name="Upsilontonos" unicode="&#x38e;" horiz-adv-x="1186" 
d="M318 700h109c10 0 15 -3 20 -10l294 -381l295 381c6 7 11 10 21 10h106c9 0 13 -9 7 -17l-368 -465v-200c0 -12 -6 -18 -19 -18h-87c-13 0 -19 6 -19 18v200l-367 465c-5 8 -2 17 8 17zM178 808h71c12 0 19 -6 12 -20l-95 -191c-7 -13 -13 -20 -26 -20h-61
c-13 0 -18 8 -13 21l85 191c6 13 14 19 27 19z" />
    <glyph glyph-name="Omegatonos" unicode="&#x38f;" horiz-adv-x="1175" 
d="M488 700h392c167 0 234 -72 234 -219v-80c0 -86 -43 -140 -121 -182l-128 -71c-8 -4 -10 -7 -10 -14v-13c0 -5 4 -7 10 -7h225c12 0 18 -6 18 -19v-77c0 -12 -6 -18 -18 -18h-323c-27 0 -40 10 -40 37v75c0 37 9 51 38 67l157 86c44 25 67 52 67 105v95
c0 84 -33 121 -126 121h-358c-93 0 -126 -37 -126 -121v-95c0 -53 24 -80 68 -105l157 -86c29 -16 37 -30 37 -67v-75c0 -27 -13 -37 -40 -37h-322c-12 0 -18 6 -18 18v77c0 13 6 19 18 19h225c5 0 9 2 9 7v13c0 7 -2 10 -9 14l-129 71c-78 42 -120 96 -120 182v80
c0 147 66 219 233 219zM178 808h71c12 0 19 -6 12 -20l-95 -191c-7 -13 -13 -20 -26 -20h-61c-13 0 -18 8 -13 21l85 191c6 13 14 19 27 19z" />
    <glyph glyph-name="iotadieresistonos" unicode="&#x390;" horiz-adv-x="547" 
d="M174 541h80c12 0 18 -6 18 -18v-327c0 -69 22 -99 103 -99h79c10 0 15 -5 15 -15v-67c0 -10 -5 -15 -15 -15h-98c-158 0 -200 57 -200 196v327c0 12 6 18 18 18zM276 808h71c12 0 19 -6 12 -20l-95 -191c-7 -13 -13 -20 -26 -20h-61c-13 0 -18 8 -13 21l85 191
c6 13 14 19 27 19zM401 740h80c12 0 18 -6 18 -18v-93c0 -13 -6 -19 -18 -19h-80c-12 0 -18 6 -18 19v93c0 12 6 18 18 18zM28 740h80c12 0 18 -6 18 -18v-93c0 -13 -6 -19 -18 -19h-80c-12 0 -18 6 -18 19v93c0 12 6 18 18 18z" />
    <glyph glyph-name="Alpha" unicode="&#x391;" horiz-adv-x="970" 
d="M455 700h49c43 0 68 -13 96 -63l350 -617c7 -12 4 -20 -10 -20h-102c-10 0 -15 3 -20 11l-79 141h-507l-78 -141c-4 -8 -9 -11 -20 -11h-105c-13 0 -16 8 -10 20l348 617c28 50 53 63 88 63zM470 577l-185 -330h400l-185 330c-4 6 -7 7 -12 7h-6c-5 0 -8 -1 -12 -7z" />
    <glyph glyph-name="Beta" unicode="&#x392;" horiz-adv-x="915" 
d="M99 700h569c136 0 188 -54 188 -162v-49c0 -59 -23 -103 -71 -130c52 -26 76 -70 76 -131v-60c0 -104 -46 -168 -178 -168h-584c-20 0 -30 10 -30 30v640c0 20 10 30 30 30zM626 310h-433v-185c0 -9 4 -13 12 -13h440c66 0 93 24 93 77v43c0 50 -25 78 -112 78zM193 575
v-175h433c87 0 110 26 110 74v38c0 52 -26 76 -93 76h-438c-8 0 -12 -5 -12 -13z" />
    <glyph glyph-name="Gamma" unicode="&#x393;" horiz-adv-x="798" 
d="M344 700h409c13 0 19 -6 19 -18v-80c0 -12 -6 -18 -19 -18h-405c-119 0 -157 -39 -157 -160v-406c0 -12 -6 -18 -18 -18h-88c-12 0 -18 6 -18 18v418c0 192 76 264 277 264z" />
    <glyph glyph-name="Delta" unicode="&#x394;" horiz-adv-x="970" 
d="M460 700h44c43 0 69 -12 96 -63l350 -617c7 -12 4 -20 -10 -20h-911c-13 0 -16 8 -10 20l348 617c27 51 57 63 93 63zM470 577l-258 -448c-4 -7 0 -13 9 -13h529c9 0 12 6 8 14l-258 447c-4 6 -7 7 -12 7h-6c-5 0 -8 -1 -12 -7z" />
    <glyph glyph-name="Epsilon" unicode="&#x395;" horiz-adv-x="847" 
d="M338 700h439c12 0 18 -6 18 -18v-77c0 -13 -6 -19 -18 -19h-438c-119 0 -157 -38 -157 -159v-23h589c12 0 18 -5 18 -18v-64c0 -12 -6 -18 -18 -18h-589v-31c0 -121 38 -159 157 -159h438c12 0 18 -6 18 -19v-77c0 -12 -6 -18 -18 -18h-439c-201 0 -277 72 -277 264v172
c0 192 76 264 277 264z" />
    <glyph glyph-name="Zeta" unicode="&#x396;" horiz-adv-x="851" 
d="M75 700h653c47 0 69 -21 69 -66v-74c0 -42 -9 -54 -42 -74l-561 -339c-6 -4 -8 -9 -8 -16v-9c0 -6 3 -8 10 -8h577c12 0 18 -6 18 -19v-77c0 -12 -6 -18 -18 -18h-654c-47 0 -69 21 -69 66v74c0 42 7 53 40 73l559 340c7 4 9 9 9 16v9c0 5 -4 8 -10 8h-573
c-12 0 -18 6 -18 19v77c0 12 6 18 18 18z" />
    <glyph glyph-name="Eta" unicode="&#x397;" horiz-adv-x="902" 
d="M87 700h88c12 0 18 -6 18 -18v-276h516v276c0 12 6 18 18 18h88c13 0 19 -6 19 -18v-664c0 -12 -6 -18 -19 -18h-88c-12 0 -18 6 -18 18v282h-516v-282c0 -12 -6 -18 -18 -18h-88c-12 0 -18 6 -18 18v664c0 12 6 18 18 18z" />
    <glyph glyph-name="Theta" unicode="&#x398;" horiz-adv-x="981" 
d="M253 404h474c12 0 18 -5 18 -18v-64c0 -12 -6 -18 -18 -18h-474c-13 0 -18 6 -18 18v64c0 13 5 18 18 18zM338 700h305c201 0 277 -72 277 -264v-172c0 -192 -76 -264 -277 -264h-305c-201 0 -277 72 -277 264v172c0 192 76 264 277 264zM185 427v-154
c0 -121 38 -159 157 -159h296c120 0 157 38 157 159v154c0 121 -37 159 -157 159h-296c-119 0 -157 -38 -157 -159z" />
    <glyph glyph-name="Iota" unicode="&#x399;" horiz-adv-x="262" 
d="M87 700h88c12 0 18 -6 18 -18v-664c0 -12 -6 -18 -18 -18h-88c-12 0 -18 6 -18 18v664c0 12 6 18 18 18z" />
    <glyph glyph-name="Kappa" unicode="&#x39a;" horiz-adv-x="843" 
d="M87 700h88c12 0 18 -6 18 -18v-280h158c78 0 100 8 135 54l176 233c6 8 10 11 25 11h100c14 0 17 -13 11 -21l-195 -251c-26 -34 -46 -56 -70 -72c31 -16 56 -40 83 -73l209 -260c4 -7 5 -23 -12 -23h-101c-15 0 -19 3 -25 11l-190 241c-33 41 -61 55 -136 55h-168v-289
c0 -12 -6 -18 -18 -18h-88c-12 0 -18 6 -18 18v664c0 12 6 18 18 18z" />
    <glyph glyph-name="Lambda" unicode="&#x39b;" horiz-adv-x="970" 
d="M941 0h-102c-11 0 -16 3 -20 11l-319 566c-3 6 -6 7 -12 7h-5c-6 0 -9 -1 -12 -7l-317 -566c-4 -8 -9 -11 -20 -11h-104c-14 0 -16 9 -10 20l347 617c28 50 53 63 89 63h48c44 0 69 -13 97 -63l350 -617c6 -11 3 -20 -10 -20z" />
    <glyph glyph-name="Mu" unicode="&#x39c;" horiz-adv-x="1187" 
d="M144 700h90c51 0 65 -11 91 -64l250 -516c4 -7 8 -10 15 -10h10c8 0 12 3 16 10l249 516c25 53 40 64 91 64h87c59 0 76 -24 76 -88v-594c0 -12 -6 -18 -19 -18h-83c-12 0 -18 6 -18 18v553c0 7 -2 10 -8 10h-11c-7 0 -11 -2 -14 -8l-245 -492c-29 -59 -52 -81 -108 -81
h-39c-56 0 -79 22 -108 81l-245 492c-3 6 -6 8 -14 8h-10c-6 0 -9 -3 -9 -10v-553c0 -12 -6 -18 -18 -18h-83c-12 0 -18 6 -18 18v594c0 64 16 88 75 88z" />
    <glyph glyph-name="Nu" unicode="&#x39d;" horiz-adv-x="973" 
d="M145 700h73c53 0 65 -11 97 -49l435 -525c4 -5 8 -7 14 -7h10c6 0 9 3 9 10v553c0 12 5 18 18 18h85c12 0 18 -6 18 -18v-594c0 -68 -25 -88 -77 -88h-71c-50 0 -64 9 -97 49l-436 525c-4 5 -8 7 -14 7h-10c-6 0 -8 -3 -8 -10v-553c0 -12 -6 -18 -19 -18h-85
c-12 0 -18 6 -18 18v594c0 68 25 88 76 88z" />
    <glyph glyph-name="Xi" unicode="&#x39e;" horiz-adv-x="847" 
d="M70 700h707c12 0 18 -6 18 -18v-77c0 -13 -6 -19 -18 -19h-707c-12 0 -18 6 -18 19v77c0 12 6 18 18 18zM70 114h707c12 0 18 -6 18 -19v-77c0 -12 -6 -18 -18 -18h-707c-12 0 -18 6 -18 18v77c0 13 6 19 18 19zM76 404h695c12 0 18 -5 18 -18v-64c0 -12 -6 -18 -18 -18
h-695c-12 0 -18 6 -18 18v64c0 13 6 18 18 18z" />
    <glyph glyph-name="Omicron" unicode="&#x39f;" horiz-adv-x="981" 
d="M338 700h305c201 0 277 -72 277 -264v-172c0 -192 -76 -264 -277 -264h-305c-201 0 -277 72 -277 264v172c0 192 76 264 277 264zM185 427v-154c0 -121 38 -159 157 -159h296c120 0 157 38 157 159v154c0 121 -37 159 -157 159h-296c-119 0 -157 -38 -157 -159z" />
    <glyph glyph-name="Pi" unicode="&#x3a0;" horiz-adv-x="902" 
d="M152 700h597c60 0 85 -25 85 -79v-603c0 -12 -6 -18 -19 -18h-88c-13 0 -19 6 -19 18v541c0 17 -7 25 -23 25h-468c-17 0 -24 -8 -24 -25v-541c0 -12 -6 -18 -18 -18h-89c-12 0 -18 6 -18 18v603c0 54 24 79 84 79z" />
    <glyph glyph-name="Rho" unicode="&#x3a1;" horiz-adv-x="877" 
d="M99 700h531c151 0 212 -71 212 -204v-68c0 -134 -61 -205 -212 -205h-437v-205c0 -12 -6 -18 -18 -18h-88c-12 0 -18 6 -18 18v652c0 20 10 30 30 30zM193 576v-245h413c81 0 111 37 111 109v39c0 72 -30 109 -111 109h-401c-8 0 -12 -4 -12 -12z" />
    <glyph glyph-name="Sigma" unicode="&#x3a3;" horiz-adv-x="838" 
d="M123 700h653c12 0 18 -6 18 -18v-77c0 -13 -6 -19 -18 -19h-545c-6 0 -10 -3 -10 -8v-9c0 -8 2 -13 9 -15l335 -143c29 -9 37 -19 37 -47v-28c0 -28 -8 -38 -37 -47l-335 -143c-7 -2 -9 -7 -9 -15v-9c0 -6 4 -8 10 -8h545c12 0 18 -6 18 -19v-77c0 -12 -6 -18 -18 -18
h-653c-47 0 -69 21 -69 66v46c0 45 8 62 45 75l334 145c5 2 8 6 8 13v8c0 8 -3 11 -8 13l-334 147c-38 13 -45 32 -45 75v46c0 45 22 66 69 66z" />
    <glyph glyph-name="Tau" unicode="&#x3a4;" horiz-adv-x="869" 
d="M44 700h781c13 0 19 -6 19 -18v-80c0 -12 -6 -18 -19 -18h-328v-566c0 -12 -6 -18 -18 -18h-88c-13 0 -19 6 -19 18v566h-328c-12 0 -18 6 -18 18v80c0 12 6 18 18 18z" />
    <glyph glyph-name="Upsilon" unicode="&#x3a5;" horiz-adv-x="893" 
d="M24 700h109c10 0 15 -3 20 -10l294 -381l295 381c6 7 11 10 21 10h106c9 0 13 -9 7 -17l-368 -465v-200c0 -12 -6 -18 -19 -18h-87c-13 0 -19 6 -19 18v200l-367 465c-5 8 -2 17 8 17z" />
    <glyph glyph-name="Phi" unicode="&#x3a6;" horiz-adv-x="981" 
d="M449 700h82c12 0 18 -6 18 -18v-67h94c201 0 277 -69 277 -229v-62c0 -160 -76 -229 -277 -229h-94v-77c0 -12 -6 -18 -18 -18h-82c-13 0 -19 6 -19 18v77h-92c-201 0 -277 69 -277 229v62c0 160 76 229 277 229h92v67c0 12 6 18 19 18zM638 508h-89v-306h89
c120 0 157 37 157 127v51c0 91 -37 128 -157 128zM185 380v-51c0 -90 38 -127 157 -127h88v306h-88c-119 0 -157 -37 -157 -128z" />
    <glyph glyph-name="Chi" unicode="&#x3a7;" horiz-adv-x="888" 
d="M740 700h105c15 0 16 -14 8 -22l-326 -320l337 -336c8 -8 7 -22 -8 -22h-111c-14 0 -20 4 -27 12l-273 278l-280 -278c-8 -7 -14 -12 -27 -12h-106c-14 0 -15 14 -8 22l344 343l-312 313c-8 8 -7 22 8 22h111c13 0 20 -4 27 -12l248 -255l263 255c8 7 14 12 27 12z" />
    <glyph glyph-name="Psi" unicode="&#x3a8;" horiz-adv-x="965" 
d="M438 700h88c13 0 18 -6 18 -18v-403h76c119 0 157 39 157 160v243c0 12 6 18 18 18h88c12 0 18 -6 18 -18v-248c0 -192 -76 -264 -277 -264h-80v-152c0 -12 -5 -18 -18 -18h-88c-12 0 -18 6 -18 18v152h-80c-201 0 -277 72 -277 264v248c0 12 6 18 18 18h88
c12 0 18 -6 18 -18v-243c0 -121 38 -160 157 -160h76v403c0 12 6 18 18 18z" />
    <glyph glyph-name="Omega" unicode="&#x3a9;" horiz-adv-x="981" 
d="M294 700h392c167 0 234 -72 234 -219v-80c0 -86 -43 -140 -121 -182l-128 -71c-8 -4 -10 -7 -10 -14v-13c0 -5 4 -7 10 -7h225c12 0 18 -6 18 -19v-77c0 -12 -6 -18 -18 -18h-323c-27 0 -40 10 -40 37v75c0 37 9 51 38 67l157 86c44 25 67 52 67 105v95
c0 84 -33 121 -126 121h-358c-93 0 -126 -37 -126 -121v-95c0 -53 24 -80 68 -105l157 -86c29 -16 37 -30 37 -67v-75c0 -27 -13 -37 -40 -37h-322c-12 0 -18 6 -18 18v77c0 13 6 19 18 19h225c5 0 9 2 9 7v13c0 7 -2 10 -9 14l-129 71c-78 42 -120 96 -120 182v80
c0 147 66 219 233 219z" />
    <glyph glyph-name="Iotadieresis" unicode="&#x3aa;" horiz-adv-x="340" 
d="M126 700h88c12 0 18 -6 18 -18v-664c0 -12 -6 -18 -18 -18h-88c-12 0 -18 6 -18 18v664c0 12 6 18 18 18zM240 881h79c13 0 19 -5 19 -15v-93c0 -11 -6 -15 -19 -15h-79c-13 0 -19 4 -19 15v93c0 10 6 15 19 15zM21 881h79c13 0 19 -5 19 -15v-93c0 -11 -6 -15 -19 -15
h-79c-13 0 -19 4 -19 15v93c0 10 6 15 19 15z" />
    <glyph glyph-name="Upsilondieresis" unicode="&#x3ab;" horiz-adv-x="893" 
d="M24 700h109c10 0 15 -3 20 -10l294 -381l295 381c6 7 11 10 21 10h106c9 0 13 -9 7 -17l-368 -465v-200c0 -12 -6 -18 -19 -18h-87c-13 0 -19 6 -19 18v200l-367 465c-5 8 -2 17 8 17zM269 881h79c13 0 19 -5 19 -15v-93c0 -11 -6 -15 -19 -15h-79c-13 0 -19 4 -19 15v93
c0 10 6 15 19 15zM542 881h80c12 0 18 -5 18 -15v-93c0 -11 -6 -15 -18 -15h-80c-12 0 -18 4 -18 15v93c0 10 6 15 18 15z" />
    <glyph glyph-name="alphatonos" unicode="&#x3ac;" horiz-adv-x="911" 
d="M292 541h388c53 0 78 -23 78 -71v-272c0 -69 23 -101 103 -101h46c10 0 15 -5 15 -15v-67c0 -10 -5 -15 -15 -15h-65c-69 0 -117 22 -147 57c-35 -35 -92 -57 -172 -57h-231c-178 0 -235 57 -235 199v143c0 143 57 199 235 199zM173 322v-103c0 -92 29 -123 130 -123h214
c102 0 125 31 125 123v194c0 22 -7 32 -35 32h-304c-101 0 -130 -30 -130 -123zM472 808h71c12 0 19 -6 12 -20l-95 -191c-7 -13 -13 -20 -26 -20h-61c-13 0 -18 8 -13 21l85 191c6 13 14 19 27 19z" />
    <glyph glyph-name="epsilontonos" unicode="&#x3ad;" horiz-adv-x="722" 
d="M423 808h71c12 0 19 -6 12 -20l-95 -191c-7 -13 -13 -20 -26 -20h-61c-13 0 -18 8 -13 21l85 191c6 13 14 19 27 19zM207 541h463c12 0 17 -5 17 -17v-61c0 -11 -5 -17 -17 -17h-442c-52 0 -70 -18 -70 -54v-26c0 -34 17 -53 70 -53h417c12 0 17 -6 17 -18v-44
c0 -11 -5 -17 -17 -17h-417c-54 0 -72 -21 -72 -58v-27c0 -35 19 -55 71 -55h443c12 0 17 -6 17 -17v-60c0 -12 -5 -17 -17 -17h-477c-113 0 -151 50 -151 130v46c0 46 17 80 55 101c-34 22 -51 57 -51 101v37c0 84 44 126 161 126z" />
    <glyph glyph-name="etatonos" unicode="&#x3ae;" horiz-adv-x="959" 
d="M38 541h52c57 0 97 -21 123 -52c35 31 87 52 157 52h245c178 0 235 -57 235 -199v-545c0 -12 -6 -18 -18 -18h-80c-12 0 -18 6 -18 18v521c0 92 -23 123 -125 123h-233c-91 0 -114 -35 -114 -112v-311c0 -12 -6 -18 -18 -18h-80c-12 0 -18 6 -18 18v354
c0 48 -18 72 -75 72h-33c-10 0 -15 5 -15 15v67c0 10 5 15 15 15zM539 808h71c12 0 19 -6 12 -20l-95 -191c-7 -13 -13 -20 -26 -20h-61c-13 0 -18 8 -13 21l85 191c6 13 14 19 27 19z" />
    <glyph glyph-name="iotatonos" unicode="&#x3af;" horiz-adv-x="396" 
d="M81 541h80c12 0 18 -6 18 -18v-327c0 -69 22 -99 103 -99h79c10 0 15 -5 15 -15v-67c0 -10 -5 -15 -15 -15h-98c-158 0 -200 57 -200 196v327c0 12 6 18 18 18zM193 808h71c12 0 19 -6 12 -20l-95 -191c-7 -13 -13 -20 -26 -20h-61c-13 0 -18 8 -13 21l85 191
c6 13 14 19 27 19z" />
    <glyph glyph-name="upsilondieresistonos" unicode="&#x3b0;" horiz-adv-x="910" 
d="M494 808h71c12 0 19 -6 12 -20l-95 -191c-7 -13 -13 -20 -26 -20h-61c-13 0 -18 8 -13 21l85 191c6 13 14 19 27 19zM41 541h51c133 0 171 -51 171 -164v-151c0 -91 24 -122 126 -122h212c101 0 130 31 130 122v297c0 12 6 18 18 18h80c12 0 18 -6 18 -18v-324
c0 -142 -57 -199 -235 -199h-229c-179 0 -236 57 -236 199v178c0 43 -18 67 -74 67h-32c-10 0 -15 5 -15 15v67c0 10 5 15 15 15zM619 740h80c12 0 18 -6 18 -18v-93c0 -13 -6 -19 -18 -19h-80c-12 0 -18 6 -18 19v93c0 12 6 18 18 18zM246 740h80c12 0 18 -6 18 -18v-93
c0 -13 -6 -19 -18 -19h-80c-12 0 -18 6 -18 19v93c0 12 6 18 18 18z" />
    <glyph glyph-name="alpha" unicode="&#x3b1;" horiz-adv-x="945" 
d="M292 541h388c53 0 78 -23 78 -71v-272c0 -69 23 -101 103 -101h46c10 0 15 -5 15 -15v-67c0 -10 -5 -15 -15 -15h-65c-69 0 -117 22 -147 57c-35 -35 -92 -57 -172 -57h-231c-178 0 -235 57 -235 199v143c0 143 57 199 235 199zM173 322v-103c0 -92 29 -123 130 -123h214
c102 0 125 31 125 123v194c0 22 -7 32 -35 32h-304c-101 0 -130 -30 -130 -123z" />
    <glyph glyph-name="beta" unicode="&#x3b2;" horiz-adv-x="815" 
d="M260 750h312c132 0 182 -48 182 -144v-100c0 -53 -22 -94 -68 -118c50 -23 72 -63 72 -117v-122c0 -93 -44 -149 -172 -149h-404v-203c0 -12 -6 -18 -18 -18h-80c-12 0 -18 6 -18 18v782c0 118 46 171 194 171zM182 569v-475h370c66 0 92 23 92 73v104
c0 47 -25 73 -110 73h-232c-11 0 -17 6 -17 18v44c0 11 6 17 17 17h232c85 0 108 25 108 71v86c0 51 -26 73 -91 73h-271c-72 0 -98 -27 -98 -84z" />
    <glyph glyph-name="gamma" unicode="&#x3b3;" horiz-adv-x="855" 
d="M38 541h49c84 0 113 -18 157 -90l209 -343l263 422c4 7 9 11 20 11h92c10 0 19 -7 11 -21l-329 -515v-208c0 -12 -6 -18 -18 -18h-80c-12 0 -18 6 -18 18v208l-248 388c-26 40 -46 51 -86 51h-22c-10 0 -15 5 -15 15v67c0 10 5 15 15 15z" />
    <glyph glyph-name="delta" unicode="&#x3b4;" horiz-adv-x="865" 
d="M143 750h606c11 0 17 -5 17 -17v-63c0 -12 -6 -18 -17 -18h-516c-13 0 -17 -4 -17 -13v-12c0 -11 7 -17 17 -20l394 -121c139 -41 180 -92 180 -212v-66c0 -149 -57 -208 -235 -208h-280c-178 0 -235 59 -235 208v54c0 107 17 140 108 186l106 54l-126 41
c-43 14 -64 39 -64 90v58c0 37 17 59 62 59zM596 398l-230 74l-121 -68c-58 -32 -72 -56 -72 -126v-51c0 -98 29 -131 130 -131h258c102 0 130 33 130 131v51c0 71 -25 96 -95 120z" />
    <glyph glyph-name="epsilon" unicode="&#x3b5;" horiz-adv-x="722" 
d="M207 541h463c12 0 17 -5 17 -17v-61c0 -11 -5 -17 -17 -17h-442c-52 0 -70 -18 -70 -54v-26c0 -34 17 -53 70 -53h417c12 0 17 -6 17 -18v-44c0 -11 -5 -17 -17 -17h-417c-54 0 -72 -21 -72 -58v-27c0 -35 19 -55 71 -55h443c12 0 17 -6 17 -17v-60c0 -12 -5 -17 -17 -17
h-477c-113 0 -151 50 -151 130v46c0 46 17 80 55 101c-34 22 -51 57 -51 101v37c0 84 44 126 161 126z" />
    <glyph glyph-name="zeta" unicode="&#x3b6;" horiz-adv-x="750" 
d="M85 750h557c42 0 61 -18 61 -55v-62c0 -37 -9 -50 -42 -65l-401 -191c-66 -31 -79 -64 -79 -140v-16c0 -92 28 -122 130 -122h207c137 0 181 -48 181 -167v-135c0 -12 -6 -18 -18 -18h-80c-12 0 -18 6 -18 18v114c0 68 -15 89 -76 89h-207c-179 0 -235 57 -235 199v38
c0 105 40 166 157 218l351 166c7 3 9 6 9 16v8c0 6 -3 8 -9 8h-488c-10 0 -15 5 -15 15v67c0 10 5 15 15 15z" />
    <glyph glyph-name="eta" unicode="&#x3b7;" horiz-adv-x="913" 
d="M38 541h52c57 0 97 -21 123 -52c35 31 87 52 157 52h245c178 0 235 -57 235 -199v-545c0 -12 -6 -18 -18 -18h-80c-12 0 -18 6 -18 18v521c0 92 -23 123 -125 123h-233c-91 0 -114 -35 -114 -112v-311c0 -12 -6 -18 -18 -18h-80c-12 0 -18 6 -18 18v354
c0 48 -18 72 -75 72h-33c-10 0 -15 5 -15 15v67c0 10 5 15 15 15z" />
    <glyph glyph-name="theta" unicode="&#x3b8;" horiz-adv-x="876" 
d="M298 751h280c178 0 235 -58 235 -207v-336c0 -149 -57 -208 -235 -208h-280c-178 0 -235 59 -235 208v336c0 149 57 207 235 207zM567 96c102 0 130 33 130 131v108h-518v-108c0 -98 29 -131 130 -131h258zM179 524v-92h518v92c0 98 -28 131 -130 131h-258
c-101 0 -130 -33 -130 -131z" />
    <glyph glyph-name="iota" unicode="&#x3b9;" horiz-adv-x="396" 
d="M81 541h80c12 0 18 -6 18 -18v-327c0 -69 22 -99 103 -99h79c10 0 15 -5 15 -15v-67c0 -10 -5 -15 -15 -15h-98c-158 0 -200 57 -200 196v327c0 12 6 18 18 18z" />
    <glyph glyph-name="kappa" unicode="&#x3ba;" horiz-adv-x="737" 
d="M83 541h80c12 0 18 -6 18 -18v-204h149c73 0 94 6 126 51l113 157c7 10 13 14 26 14h90c13 0 17 -12 9 -23l-128 -173c-23 -32 -45 -53 -70 -69c31 -16 55 -38 78 -67l142 -187c7 -10 2 -22 -10 -22h-91c-14 0 -19 3 -25 12l-125 166c-30 40 -57 52 -127 52h-157v-212
c0 -12 -6 -18 -18 -18h-80c-12 0 -18 6 -18 18v505c0 12 6 18 18 18z" />
    <glyph glyph-name="lambda" unicode="&#x3bb;" horiz-adv-x="795" 
d="M173 750h66c80 0 116 -19 152 -85l386 -644c6 -11 1 -21 -11 -21h-90c-10 0 -17 3 -20 11l-253 419l-270 -418c-5 -9 -13 -13 -24 -13h-80c-14 0 -17 17 -8 29l324 497l-62 103c-11 18 -26 25 -54 25h-56c-10 0 -15 5 -15 15v67c0 10 5 15 15 15z" />
    <glyph glyph-name="mu" unicode="&#x3bc;" horiz-adv-x="939" 
d="M83 541h80c12 0 18 -6 18 -18v-300c0 -92 33 -123 130 -123h198c101 0 124 31 124 121v302c0 12 6 18 18 18h80c12 0 18 -6 18 -18v-327c0 -69 23 -99 104 -99h51c10 0 15 -5 15 -15v-67c0 -10 -5 -15 -15 -15h-70c-70 0 -118 21 -148 57c-36 -35 -92 -57 -171 -57h-186
c-64 0 -113 11 -148 31v-234c0 -12 -6 -18 -18 -18h-80c-12 0 -18 6 -18 18v726c0 12 6 18 18 18z" />
    <glyph glyph-name="nu" unicode="&#x3bd;" horiz-adv-x="835" 
d="M38 541h49c84 0 115 -17 154 -92l191 -350c3 -5 5 -6 10 -6h5c5 0 7 1 10 6l245 431c4 8 10 11 20 11h87c11 0 16 -10 10 -21l-272 -482c-15 -29 -33 -38 -71 -38h-66c-37 0 -56 10 -71 38l-197 348c-28 49 -50 58 -82 58h-22c-10 0 -15 5 -15 15v67c0 10 5 15 15 15z
" />
    <glyph glyph-name="xi" unicode="&#x3be;" horiz-adv-x="727" 
d="M85 750h557c42 0 61 -17 61 -49v-57c0 -35 -11 -45 -42 -55l-422 -135c-51 -16 -58 -35 -58 -74c0 -34 19 -53 72 -53h348c11 0 17 -5 17 -17v-44c0 -12 -6 -18 -17 -18h-348c-54 0 -72 -20 -72 -75c0 -50 16 -74 78 -74h259c137 0 181 -48 181 -167v-135
c0 -12 -6 -18 -18 -18h-80c-12 0 -18 6 -18 18v114c0 68 -15 89 -76 89h-275c-118 0 -167 50 -167 134v46c0 50 13 85 44 106c-31 20 -44 50 -44 86v24c0 45 15 86 99 112l376 119c8 2 9 6 9 14v8c0 6 -3 8 -9 8h-455c-10 0 -15 3 -15 11v67c0 9 5 15 15 15z" />
    <glyph glyph-name="omicron" unicode="&#x3bf;" horiz-adv-x="865" 
d="M292 541h280c178 0 235 -56 235 -199v-143c0 -142 -57 -199 -235 -199h-280c-178 0 -235 57 -235 199v143c0 143 57 199 235 199zM173 322v-103c0 -92 29 -123 130 -123h258c102 0 130 31 130 123v103c0 93 -28 123 -130 123h-258c-101 0 -130 -30 -130 -123z" />
    <glyph glyph-name="pi" unicode="&#x3c0;" horiz-adv-x="956" 
d="M35 541h868c10 0 15 -5 15 -15v-67c0 -10 -5 -15 -15 -15h-172v-248c0 -69 22 -99 102 -99h70c10 0 15 -5 15 -15v-67c0 -10 -5 -15 -15 -15h-88c-158 0 -201 57 -201 196v248h-339v-426c0 -12 -6 -18 -18 -18h-80c-12 0 -18 6 -18 18v426h-124c-10 0 -15 5 -15 15v67
c0 10 5 15 15 15z" />
    <glyph glyph-name="rho" unicode="&#x3c1;" horiz-adv-x="868" 
d="M298 541h277c178 0 235 -57 235 -199v-143c0 -143 -57 -199 -235 -199h-396v-203c0 -12 -6 -18 -18 -18h-80c-12 0 -18 6 -18 18v545c0 142 57 199 235 199zM179 320v-221h385c102 0 130 30 130 122v99c0 92 -28 122 -130 122h-255c-101 0 -130 -30 -130 -122z" />
    <glyph glyph-name="sigma1" unicode="&#x3c2;" horiz-adv-x="727" 
d="M277 541h390c10 0 15 -5 15 -15v-69c0 -10 -5 -15 -15 -15h-379c-102 0 -130 -30 -130 -122v-99c0 -92 28 -122 130 -122h207c137 0 181 -48 181 -167v-135c0 -12 -6 -18 -18 -18h-80c-12 0 -18 6 -18 18v114c0 68 -15 89 -76 89h-207c-179 0 -235 57 -235 199v143
c0 143 56 199 235 199z" />
    <glyph glyph-name="sigma" unicode="&#x3c3;" horiz-adv-x="953" 
d="M292 541h621c10 0 15 -5 15 -15v-67c0 -10 -5 -15 -15 -15h-144v-245c0 -142 -57 -199 -236 -199h-241c-178 0 -235 57 -235 199v143c0 143 57 199 235 199zM522 96c102 0 131 31 131 123v225h-350c-101 0 -130 -30 -130 -122v-103c0 -92 29 -123 130 -123h219z" />
    <glyph glyph-name="tau" unicode="&#x3c4;" horiz-adv-x="812" 
d="M41 541h730c10 0 15 -5 15 -15v-69c0 -10 -5 -15 -15 -15h-322v-246c0 -69 22 -99 103 -99h78c11 0 15 -5 15 -15v-67c0 -10 -4 -15 -15 -15h-97c-158 0 -200 57 -200 196v246h-292c-10 0 -15 5 -15 15v69c0 10 5 15 15 15z" />
    <glyph glyph-name="upsilon" unicode="&#x3c5;" horiz-adv-x="910" 
d="M41 541h51c133 0 171 -51 171 -164v-151c0 -91 24 -122 126 -122h212c101 0 130 31 130 122v297c0 12 6 18 18 18h80c12 0 18 -6 18 -18v-324c0 -142 -57 -199 -235 -199h-229c-179 0 -236 57 -236 199v178c0 43 -18 67 -74 67h-32c-10 0 -15 5 -15 15v67
c0 10 5 15 15 15z" />
    <glyph glyph-name="phi" unicode="&#x3c6;" horiz-adv-x="981" 
d="M450 750h80c12 0 18 -6 18 -18v-191h140c179 0 236 -56 236 -199v-143c0 -142 -57 -199 -236 -199h-140v-203c0 -12 -6 -18 -18 -18h-80c-12 0 -18 6 -18 18v203h-140c-178 0 -235 57 -235 199v143c0 143 57 199 235 199h140v191c0 12 6 18 18 18zM677 445h-129v-349h129
c102 0 131 31 131 123v103c0 93 -29 123 -131 123zM173 322v-103c0 -92 29 -123 130 -123h129v349h-129c-101 0 -130 -30 -130 -123z" />
    <glyph glyph-name="chi" unicode="&#x3c7;" horiz-adv-x="764" 
d="M646 541h81c14 0 17 -17 9 -29l-266 -341l274 -363c7 -12 5 -29 -9 -29h-88c-13 0 -19 4 -24 13l-231 304l-247 -304c-6 -9 -12 -13 -24 -13h-80c-14 0 -17 17 -9 29l296 373l-180 238c-14 19 -30 25 -54 25h-53c-10 0 -15 5 -15 15v67c0 10 5 15 15 15h72
c61 0 92 -14 120 -53l173 -231l217 271c5 9 11 13 23 13z" />
    <glyph glyph-name="psi" unicode="&#x3c8;" horiz-adv-x="1025" 
d="M522 750h80c12 0 18 -6 18 -18v-628h117c101 0 130 31 130 122v297c0 12 6 18 18 18h80c12 0 18 -6 18 -18v-324c0 -142 -57 -199 -235 -199h-128v-203c0 -12 -6 -18 -18 -18h-80c-12 0 -18 6 -18 18v203h-121c-179 0 -236 57 -236 199v178c0 43 -18 67 -74 67h-32
c-10 0 -15 5 -15 15v67c0 10 5 15 15 15h51c133 0 171 -51 171 -164v-151c0 -91 24 -122 126 -122h115v628c0 12 6 18 18 18z" />
    <glyph glyph-name="omega" unicode="&#x3c9;" horiz-adv-x="1175" 
d="M81 541h80c12 0 18 -6 18 -18v-297c0 -91 28 -122 110 -122h31c57 0 76 24 97 97l58 202c13 46 26 61 65 61h96c38 0 51 -15 64 -61l58 -202c21 -73 41 -97 97 -97h31c82 0 110 31 110 122v297c0 12 6 18 19 18h79c13 0 19 -6 19 -18v-324c0 -142 -58 -199 -216 -199h-56
c-101 0 -143 39 -180 166l-55 188c-3 12 -6 15 -13 15h-11c-7 0 -9 -3 -13 -15l-55 -188c-37 -127 -79 -166 -180 -166h-56c-158 0 -215 57 -215 199v324c0 12 6 18 18 18z" />
    <glyph glyph-name="iotadieresis" unicode="&#x3ca;" horiz-adv-x="442" 
d="M127 541h80c12 0 18 -6 18 -18v-327c0 -69 22 -99 103 -99h79c10 0 15 -5 15 -15v-67c0 -10 -5 -15 -15 -15h-98c-158 0 -200 57 -200 196v327c0 12 6 18 18 18zM222 740h80c12 0 18 -6 18 -18v-93c0 -13 -6 -19 -18 -19h-80c-12 0 -18 6 -18 19v93c0 12 6 18 18 18z
M36 740h80c12 0 18 -6 18 -18v-93c0 -13 -6 -19 -18 -19h-80c-12 0 -18 6 -18 19v93c0 12 6 18 18 18z" />
    <glyph glyph-name="upsilondieresis" unicode="&#x3cb;" horiz-adv-x="910" 
d="M41 541h51c133 0 171 -51 171 -164v-151c0 -91 24 -122 126 -122h212c101 0 130 31 130 122v297c0 12 6 18 18 18h80c12 0 18 -6 18 -18v-324c0 -142 -57 -199 -235 -199h-229c-179 0 -236 57 -236 199v178c0 43 -18 67 -74 67h-32c-10 0 -15 5 -15 15v67
c0 10 5 15 15 15zM584 740h80c12 0 18 -6 18 -18v-93c0 -13 -6 -19 -18 -19h-80c-12 0 -18 6 -18 19v93c0 12 6 18 18 18zM311 740h80c12 0 18 -6 18 -18v-93c0 -13 -6 -19 -18 -19h-80c-12 0 -18 6 -18 19v93c0 12 6 18 18 18z" />
    <glyph glyph-name="omicrontonos" unicode="&#x3cc;" horiz-adv-x="865" 
d="M292 541h280c178 0 235 -56 235 -199v-143c0 -142 -57 -199 -235 -199h-280c-178 0 -235 57 -235 199v143c0 143 57 199 235 199zM173 322v-103c0 -92 29 -123 130 -123h258c102 0 130 31 130 123v103c0 93 -28 123 -130 123h-258c-101 0 -130 -30 -130 -123zM470 808h71
c12 0 19 -6 12 -20l-95 -191c-7 -13 -13 -20 -26 -20h-61c-13 0 -18 8 -13 21l85 191c6 13 14 19 27 19z" />
    <glyph glyph-name="upsilontonos" unicode="&#x3cd;" horiz-adv-x="910" 
d="M533 808h71c12 0 19 -6 12 -20l-95 -191c-7 -13 -13 -20 -26 -20h-61c-13 0 -18 8 -13 21l85 191c6 13 14 19 27 19zM41 541h51c133 0 171 -51 171 -164v-151c0 -91 24 -122 126 -122h212c101 0 130 31 130 122v297c0 12 6 18 18 18h80c12 0 18 -6 18 -18v-324
c0 -142 -57 -199 -235 -199h-229c-179 0 -236 57 -236 199v178c0 43 -18 67 -74 67h-32c-10 0 -15 5 -15 15v67c0 10 5 15 15 15z" />
    <glyph glyph-name="omegatonos" unicode="&#x3ce;" horiz-adv-x="1175" 
d="M81 541h80c12 0 18 -6 18 -18v-297c0 -91 28 -122 110 -122h31c57 0 76 24 97 97l58 202c13 46 26 61 65 61h96c38 0 51 -15 64 -61l58 -202c21 -73 41 -97 97 -97h31c82 0 110 31 110 122v297c0 12 6 18 19 18h79c13 0 19 -6 19 -18v-324c0 -142 -58 -199 -216 -199h-56
c-101 0 -143 39 -180 166l-55 188c-3 12 -6 15 -13 15h-11c-7 0 -9 -3 -13 -15l-55 -188c-37 -127 -79 -166 -180 -166h-56c-158 0 -215 57 -215 199v324c0 12 6 18 18 18zM625 808h71c12 0 19 -6 12 -20l-95 -191c-7 -13 -13 -20 -26 -20h-61c-13 0 -18 8 -13 21l85 191
c6 13 14 19 27 19z" />
    <glyph glyph-name="uni0400" unicode="&#x400;" horiz-adv-x="855" 
d="M119 700h665c12 0 18 -6 18 -18v-77c0 -13 -6 -19 -18 -19h-581c-8 0 -12 -4 -12 -12v-170h588c12 0 18 -5 18 -18v-64c0 -12 -6 -18 -18 -18h-588v-177c0 -9 4 -13 12 -13h581c12 0 18 -6 18 -19v-77c0 -12 -6 -18 -18 -18h-665c-35 0 -50 13 -50 45v610
c0 26 15 45 50 45zM333 915h72c12 0 20 -5 26 -15l92 -153c7 -10 0 -17 -12 -17h-62c-13 0 -19 6 -26 16l-103 153c-7 11 1 16 13 16z" />
    <glyph glyph-name="uni0401" unicode="&#x401;" horiz-adv-x="855" 
d="M119 700h665c12 0 18 -6 18 -18v-77c0 -13 -6 -19 -18 -19h-581c-8 0 -12 -4 -12 -12v-170h588c12 0 18 -5 18 -18v-64c0 -12 -6 -18 -18 -18h-588v-177c0 -9 4 -13 12 -13h581c12 0 18 -6 18 -19v-77c0 -12 -6 -18 -18 -18h-665c-35 0 -50 13 -50 45v610
c0 26 15 45 50 45zM278 881h79c13 0 19 -5 19 -15v-93c0 -11 -6 -15 -19 -15h-79c-13 0 -19 4 -19 15v93c0 10 6 15 19 15zM551 881h80c12 0 18 -5 18 -15v-93c0 -11 -6 -15 -18 -15h-80c-12 0 -18 4 -18 15v93c0 10 6 15 18 15z" />
    <glyph glyph-name="uni0402" unicode="&#x402;" horiz-adv-x="1101" 
d="M44 700h693c12 0 18 -6 18 -18v-80c0 -12 -6 -18 -18 -18h-312v-162h351c191 0 259 -58 259 -225v-188c0 -166 -68 -230 -259 -230h-167c-12 0 -18 6 -18 18v80c0 12 6 18 18 18h163c110 0 139 30 139 126v171c0 96 -29 126 -139 126h-347v-300c0 -12 -6 -18 -18 -18h-88
c-12 0 -18 6 -18 18v566h-257c-12 0 -18 6 -18 18v80c0 12 6 18 18 18z" />
    <glyph glyph-name="uni0403" unicode="&#x403;" horiz-adv-x="798" 
d="M344 700h409c13 0 19 -6 19 -18v-80c0 -12 -6 -18 -19 -18h-405c-119 0 -157 -39 -157 -160v-406c0 -12 -6 -18 -18 -18h-88c-12 0 -18 6 -18 18v418c0 192 76 264 277 264zM479 915h72c12 0 20 -5 12 -16l-102 -153c-7 -10 -14 -16 -26 -16h-62c-12 0 -19 7 -12 17
l92 153c5 10 13 15 26 15z" />
    <glyph glyph-name="uni0404" unicode="&#x404;" horiz-adv-x="847" 
d="M338 700h439c12 0 18 -6 18 -18v-77c0 -13 -6 -19 -18 -19h-438c-119 0 -157 -38 -157 -159v-23h426c12 0 18 -5 18 -18v-64c0 -12 -6 -18 -18 -18h-426v-31c0 -121 38 -159 157 -159h438c12 0 18 -6 18 -19v-77c0 -12 -6 -18 -18 -18h-439c-201 0 -277 72 -277 264v172
c0 192 76 264 277 264z" />
    <glyph glyph-name="uni0405" unicode="&#x405;" horiz-adv-x="854" 
d="M224 700h535c12 0 18 -6 18 -18v-77c0 -13 -6 -19 -18 -19h-512c-48 0 -66 -27 -66 -70v-42c0 -46 20 -70 66 -70h390c110 0 166 -59 166 -164v-82c0 -94 -51 -158 -168 -158h-559c-12 0 -18 6 -18 18v77c0 13 6 19 18 19h536c48 0 66 27 66 70v50c0 46 -20 70 -65 70
h-390c-110 0 -166 59 -166 164v73c0 95 51 159 167 159z" />
    <glyph glyph-name="uni0406" unicode="&#x406;" horiz-adv-x="262" 
d="M87 700h88c12 0 18 -6 18 -18v-664c0 -12 -6 -18 -18 -18h-88c-12 0 -18 6 -18 18v664c0 12 6 18 18 18z" />
    <glyph glyph-name="uni0407" unicode="&#x407;" horiz-adv-x="340" 
d="M126 700h88c12 0 18 -6 18 -18v-664c0 -12 -6 -18 -18 -18h-88c-12 0 -18 6 -18 18v664c0 12 6 18 18 18zM240 881h79c13 0 19 -5 19 -15v-93c0 -11 -6 -15 -19 -15h-79c-13 0 -19 4 -19 15v93c0 10 6 15 19 15zM21 881h79c13 0 19 -5 19 -15v-93c0 -11 -6 -15 -19 -15
h-79c-13 0 -19 4 -19 15v93c0 10 6 15 19 15z" />
    <glyph glyph-name="uni0408" unicode="&#x408;" horiz-adv-x="778" 
d="M605 700h88c13 0 19 -6 19 -18v-418c0 -192 -77 -264 -277 -264h-391c-12 0 -18 6 -18 18v80c0 12 6 18 18 18h386c119 0 157 39 157 160v406c0 12 6 18 18 18z" />
    <glyph glyph-name="uni0409" unicode="&#x409;" horiz-adv-x="1494" 
d="M1223 364h-413v-240c0 -8 4 -12 12 -12h401c81 0 111 37 111 109v35c0 72 -30 108 -111 108zM810 621v-149h437c151 0 212 -71 212 -204v-64c0 -133 -61 -204 -212 -204h-532c-20 0 -30 10 -30 30v529c0 17 -7 25 -24 25h-268c-23 0 -27 -15 -30 -34
c-13 -125 -34 -310 -73 -428c-27 -81 -68 -122 -153 -122h-93c-12 0 -18 6 -18 19v79c0 12 6 18 18 18h72c35 0 64 18 86 84c27 85 43 203 67 419c5 50 21 81 80 81h377c60 0 84 -25 84 -79z" />
    <glyph glyph-name="uni040A" unicode="&#x40a;" horiz-adv-x="1516" 
d="M86 700h88c12 0 18 -6 18 -18v-210h516v210c0 12 6 18 18 18h88c12 0 18 -6 18 -18v-210h437c151 0 212 -71 212 -204v-64c0 -133 -61 -204 -212 -204h-531c-20 0 -30 10 -30 30v336h-516v-348c0 -12 -6 -18 -18 -18h-88c-12 0 -18 6 -18 18v664c0 12 6 18 18 18z
M1245 364h-413v-240c0 -8 4 -12 12 -12h401c81 0 111 37 111 109v35c0 72 -30 108 -111 108z" />
    <glyph glyph-name="uni040B" unicode="&#x40b;" horiz-adv-x="1101" 
d="M44 700h693c12 0 18 -6 18 -18v-80c0 -12 -6 -18 -18 -18h-312v-162h351c191 0 259 -58 259 -225v-179c0 -12 -6 -18 -18 -18h-88c-12 0 -18 6 -18 18v174c0 96 -29 126 -139 126h-347v-300c0 -12 -6 -18 -18 -18h-88c-12 0 -18 6 -18 18v566h-257c-12 0 -18 6 -18 18v80
c0 12 6 18 18 18z" />
    <glyph glyph-name="uni040C" unicode="&#x40c;" horiz-adv-x="788" 
d="M87 700h88c12 0 18 -6 18 -18v-280h103c77 0 100 8 135 54l176 233c6 8 10 11 25 11h99c15 0 17 -13 11 -21l-195 -251c-26 -34 -46 -56 -69 -72c31 -16 56 -40 83 -73l208 -260c5 -7 6 -23 -11 -23h-102c-14 0 -18 3 -24 11l-191 241c-33 41 -61 55 -136 55h-112v-289
c0 -12 -6 -18 -18 -18h-88c-12 0 -18 6 -18 18v664c0 12 6 18 18 18zM441 915h72c12 0 20 -5 12 -16l-102 -153c-7 -10 -14 -16 -26 -16h-62c-12 0 -19 7 -12 17l92 153c5 10 13 15 26 15z" />
    <glyph glyph-name="uni040D" unicode="&#x40d;" horiz-adv-x="902" 
d="M87 700h88c12 0 18 -6 18 -18v-553c0 -7 3 -10 9 -10h10c6 0 11 2 14 7l361 525c26 38 38 49 97 49h73c52 0 77 -20 77 -88v-593c0 -13 -6 -19 -19 -19h-88c-12 0 -18 6 -18 19v552c0 7 -2 10 -8 10h-10c-6 0 -11 -2 -15 -7l-362 -525c-26 -38 -38 -49 -97 -49h-71
c-52 0 -77 20 -77 88v594c0 12 6 18 18 18zM333 915h72c12 0 20 -5 26 -15l92 -153c7 -10 0 -17 -12 -17h-62c-13 0 -19 6 -26 16l-103 153c-7 11 1 16 13 16z" />
    <glyph glyph-name="uni040E" unicode="&#x40e;" horiz-adv-x="821" 
d="M25 700h97c14 0 21 -3 27 -12l264 -398l259 393c6 10 11 17 34 17h90c15 0 15 -13 9 -22l-400 -599c-41 -65 -97 -79 -159 -79h-96c-13 0 -19 6 -19 18v80c0 12 6 18 19 18h94c45 0 63 10 78 34l26 40l-333 489c-6 9 -5 21 10 21zM171 855v34c0 9 6 16 16 16
c6 0 13 -2 21 -8c26 -20 100 -72 201 -72c100 0 175 52 200 72c8 6 15 8 21 8c10 0 16 -7 16 -16v-34c0 -12 -2 -20 -17 -30c-36 -26 -125 -66 -220 -66c-96 0 -185 40 -220 66c-16 10 -18 18 -18 30z" />
    <glyph glyph-name="uni040F" unicode="&#x40f;" horiz-adv-x="902" 
d="M86 700h89c12 0 18 -6 18 -18v-541c0 -17 7 -25 24 -25h468c16 0 23 8 23 25v541c0 12 6 18 19 18h88c13 0 19 -6 19 -18v-603c0 -54 -25 -79 -85 -79h-242v-169c0 -12 -6 -18 -18 -18h-76c-12 0 -18 6 -18 18v169h-243c-60 0 -84 25 -84 79v603c0 12 6 18 18 18z" />
    <glyph glyph-name="uni0410" unicode="&#x410;" horiz-adv-x="970" 
d="M455 700h49c43 0 68 -13 96 -63l350 -617c7 -12 4 -20 -10 -20h-102c-10 0 -15 3 -20 11l-79 141h-507l-78 -141c-4 -8 -9 -11 -20 -11h-105c-13 0 -16 8 -10 20l348 617c28 50 53 63 88 63zM470 577l-185 -330h400l-185 330c-4 6 -7 7 -12 7h-6c-5 0 -8 -1 -12 -7z" />
    <glyph glyph-name="uni0411" unicode="&#x411;" horiz-adv-x="877" 
d="M218 700h421c12 0 18 -6 18 -18v-75c0 -12 -6 -18 -18 -18h-385c-47 0 -63 -17 -63 -62v-89h424c151 0 211 -70 211 -204v-30c0 -134 -60 -204 -211 -204h-518c-20 0 -30 10 -30 30v524c0 95 49 146 151 146zM591 349h-400v-236c0 -8 4 -12 12 -12h388
c81 0 111 36 111 109v31c0 72 -30 108 -111 108z" />
    <glyph glyph-name="uni0412" unicode="&#x412;" horiz-adv-x="915" 
d="M99 700h569c136 0 188 -54 188 -162v-49c0 -59 -23 -103 -71 -130c52 -26 76 -70 76 -131v-60c0 -104 -46 -168 -178 -168h-584c-20 0 -30 10 -30 30v640c0 20 10 30 30 30zM626 310h-433v-185c0 -9 4 -13 12 -13h440c66 0 93 24 93 77v43c0 50 -25 78 -112 78zM193 575
v-175h433c87 0 110 26 110 74v38c0 52 -26 76 -93 76h-438c-8 0 -12 -5 -12 -13z" />
    <glyph glyph-name="uni0413" unicode="&#x413;" horiz-adv-x="798" 
d="M344 700h409c13 0 19 -6 19 -18v-80c0 -12 -6 -18 -19 -18h-405c-119 0 -157 -39 -157 -160v-406c0 -12 -6 -18 -18 -18h-88c-12 0 -18 6 -18 18v418c0 192 76 264 277 264z" />
    <glyph glyph-name="uni0414" unicode="&#x414;" horiz-adv-x="1047" 
d="M403 700h377c60 0 84 -25 84 -79v-505h139c12 0 18 -6 18 -18v-267c0 -12 -6 -18 -18 -18h-76c-12 0 -18 6 -18 18v169h-771v-169c0 -12 -6 -18 -18 -18h-76c-12 0 -18 6 -18 18v267c0 12 6 18 18 18h131c32 0 60 21 81 84c27 85 43 203 67 419c5 50 21 81 80 81z
M342 116h397v443c0 17 -7 25 -24 25h-268c-23 0 -27 -15 -30 -34c-13 -127 -34 -315 -75 -434z" />
    <glyph glyph-name="uni0415" unicode="&#x415;" horiz-adv-x="855" 
d="M119 700h665c12 0 18 -6 18 -18v-77c0 -13 -6 -19 -18 -19h-581c-8 0 -12 -4 -12 -12v-170h588c12 0 18 -5 18 -18v-64c0 -12 -6 -18 -18 -18h-588v-177c0 -9 4 -13 12 -13h581c12 0 18 -6 18 -19v-77c0 -12 -6 -18 -18 -18h-665c-35 0 -50 13 -50 45v610
c0 26 15 45 50 45z" />
    <glyph glyph-name="uni0416" unicode="&#x416;" horiz-adv-x="1311" 
d="M698 0h-88c-12 0 -18 6 -18 18v289h-112c-75 0 -103 -14 -136 -55l-191 -241c-6 -8 -10 -11 -24 -11h-102c-17 0 -16 16 -11 23l208 260c27 33 52 57 83 73c-24 16 -43 39 -69 72l-195 251c-6 8 -4 21 11 21h99c15 0 19 -3 25 -11l176 -233c35 -46 58 -54 135 -54h103
v280c0 12 6 18 18 18h88c12 0 18 -6 18 -18v-280h103c77 0 100 8 135 54l176 233c6 8 10 11 25 11h99c15 0 17 -13 11 -21l-195 -251c-26 -34 -46 -56 -69 -72c31 -16 56 -40 83 -73l208 -260c5 -7 6 -23 -11 -23h-102c-14 0 -18 3 -24 11l-191 241c-33 41 -61 55 -136 55
h-112v-289c0 -12 -6 -18 -18 -18z" />
    <glyph glyph-name="uni0417" unicode="&#x417;" horiz-adv-x="834" 
d="M70 700h517c136 0 188 -54 188 -162v-49c0 -57 -21 -101 -65 -130c48 -28 69 -73 69 -131v-60c0 -104 -45 -168 -177 -168h-532c-12 0 -18 6 -18 18v77c0 12 6 19 18 19h494c66 0 92 23 92 76v36c0 50 -25 78 -111 78h-469c-12 0 -18 6 -18 18v64c0 13 6 18 18 18h469
c86 0 110 27 110 75v32c0 52 -27 75 -93 75h-492c-12 0 -18 7 -18 19v77c0 12 6 18 18 18z" />
    <glyph glyph-name="uni0418" unicode="&#x418;" horiz-adv-x="902" 
d="M87 700h88c12 0 18 -6 18 -18v-553c0 -7 3 -10 9 -10h10c6 0 11 2 14 7l361 525c26 38 38 49 97 49h73c52 0 77 -20 77 -88v-593c0 -13 -6 -19 -19 -19h-88c-12 0 -18 6 -18 19v552c0 7 -2 10 -8 10h-10c-6 0 -11 -2 -15 -7l-362 -525c-26 -38 -38 -49 -97 -49h-71
c-52 0 -77 20 -77 88v594c0 12 6 18 18 18z" />
    <glyph glyph-name="uni0419" unicode="&#x419;" horiz-adv-x="902" 
d="M87 700h88c12 0 18 -6 18 -18v-553c0 -7 3 -10 9 -10h10c6 0 11 2 14 7l361 525c26 38 38 49 97 49h73c52 0 77 -20 77 -88v-593c0 -13 -6 -19 -19 -19h-88c-12 0 -18 6 -18 19v552c0 7 -2 10 -8 10h-10c-6 0 -11 -2 -15 -7l-362 -525c-26 -38 -38 -49 -97 -49h-71
c-52 0 -77 20 -77 88v594c0 12 6 18 18 18zM211 855v34c0 9 6 16 16 16c6 0 13 -2 21 -8c26 -20 100 -72 201 -72c100 0 175 52 200 72c8 6 15 8 21 8c10 0 16 -7 16 -16v-34c0 -12 -2 -20 -17 -30c-36 -26 -125 -66 -220 -66c-96 0 -185 40 -220 66c-16 10 -18 18 -18 30z
" />
    <glyph glyph-name="uni041A" unicode="&#x41a;" horiz-adv-x="788" 
d="M87 700h88c12 0 18 -6 18 -18v-280h103c77 0 100 8 135 54l176 233c6 8 10 11 25 11h99c15 0 17 -13 11 -21l-195 -251c-26 -34 -46 -56 -69 -72c31 -16 56 -40 83 -73l208 -260c5 -7 6 -23 -11 -23h-102c-14 0 -18 3 -24 11l-191 241c-33 41 -61 55 -136 55h-112v-289
c0 -12 -6 -18 -18 -18h-88c-12 0 -18 6 -18 18v664c0 12 6 18 18 18z" />
    <glyph glyph-name="uni041B" unicode="&#x41b;" horiz-adv-x="879" 
d="M349 700h377c60 0 84 -25 84 -79v-603c0 -12 -6 -18 -18 -18h-88c-13 0 -19 6 -19 18v541c0 17 -7 25 -24 25h-268c-23 0 -27 -15 -30 -34c-13 -125 -34 -310 -73 -428c-27 -81 -68 -122 -153 -122h-93c-12 0 -18 6 -18 19v79c0 12 6 18 18 18h72c35 0 64 18 86 84
c27 85 43 203 67 419c5 50 21 81 80 81z" />
    <glyph glyph-name="uni041C" unicode="&#x41c;" horiz-adv-x="1187" 
d="M144 700h90c51 0 65 -11 91 -64l250 -516c4 -7 8 -10 15 -10h10c8 0 12 3 16 10l249 516c25 53 40 64 91 64h87c59 0 76 -24 76 -88v-594c0 -12 -6 -18 -19 -18h-83c-12 0 -18 6 -18 18v553c0 7 -2 10 -8 10h-11c-7 0 -11 -2 -14 -8l-245 -492c-29 -59 -52 -81 -108 -81
h-39c-56 0 -79 22 -108 81l-245 492c-3 6 -6 8 -14 8h-10c-6 0 -9 -3 -9 -10v-553c0 -12 -6 -18 -18 -18h-83c-12 0 -18 6 -18 18v594c0 64 16 88 75 88z" />
    <glyph glyph-name="uni041D" unicode="&#x41d;" horiz-adv-x="902" 
d="M87 700h88c12 0 18 -6 18 -18v-276h516v276c0 12 6 18 18 18h88c13 0 19 -6 19 -18v-664c0 -12 -6 -18 -19 -18h-88c-12 0 -18 6 -18 18v282h-516v-282c0 -12 -6 -18 -18 -18h-88c-12 0 -18 6 -18 18v664c0 12 6 18 18 18z" />
    <glyph glyph-name="uni041E" unicode="&#x41e;" horiz-adv-x="981" 
d="M338 700h305c201 0 277 -72 277 -264v-172c0 -192 -76 -264 -277 -264h-305c-201 0 -277 72 -277 264v172c0 192 76 264 277 264zM185 427v-154c0 -121 38 -159 157 -159h296c120 0 157 38 157 159v154c0 121 -37 159 -157 159h-296c-119 0 -157 -38 -157 -159z" />
    <glyph glyph-name="uni041F" unicode="&#x41f;" horiz-adv-x="902" 
d="M152 700h597c60 0 85 -25 85 -79v-603c0 -12 -6 -18 -19 -18h-88c-13 0 -19 6 -19 18v541c0 17 -7 25 -23 25h-468c-17 0 -24 -8 -24 -25v-541c0 -12 -6 -18 -18 -18h-89c-12 0 -18 6 -18 18v603c0 54 24 79 84 79z" />
    <glyph glyph-name="uni0420" unicode="&#x420;" horiz-adv-x="877" 
d="M99 700h531c151 0 212 -71 212 -204v-68c0 -134 -61 -205 -212 -205h-437v-205c0 -12 -6 -18 -18 -18h-88c-12 0 -18 6 -18 18v652c0 20 10 30 30 30zM193 576v-245h413c81 0 111 37 111 109v39c0 72 -30 109 -111 109h-401c-8 0 -12 -4 -12 -12z" />
    <glyph glyph-name="uni0421" unicode="&#x421;" horiz-adv-x="849" 
d="M338 700h449c12 0 18 -6 18 -18v-80c0 -12 -6 -18 -18 -18h-445c-119 0 -157 -39 -157 -160v-148c0 -121 38 -160 157 -160h445c12 0 18 -6 18 -18v-80c0 -12 -6 -18 -18 -18h-449c-201 0 -277 72 -277 264v172c0 192 76 264 277 264z" />
    <glyph glyph-name="uni0422" unicode="&#x422;" horiz-adv-x="869" 
d="M44 700h781c13 0 19 -6 19 -18v-80c0 -12 -6 -18 -19 -18h-328v-566c0 -12 -6 -18 -18 -18h-88c-13 0 -19 6 -19 18v566h-328c-12 0 -18 6 -18 18v80c0 12 6 18 18 18z" />
    <glyph glyph-name="uni0423" unicode="&#x423;" horiz-adv-x="821" 
d="M25 700h97c14 0 21 -3 27 -12l264 -398l259 393c6 10 11 17 34 17h90c15 0 15 -13 9 -22l-400 -599c-41 -65 -97 -79 -159 -79h-96c-13 0 -19 6 -19 18v80c0 12 6 18 19 18h94c45 0 63 10 78 34l26 40l-333 489c-6 9 -5 21 10 21z" />
    <glyph glyph-name="uni0424" unicode="&#x424;" horiz-adv-x="981" 
d="M449 700h82c12 0 18 -6 18 -18v-67h94c201 0 277 -69 277 -229v-62c0 -160 -76 -229 -277 -229h-94v-77c0 -12 -6 -18 -18 -18h-82c-13 0 -19 6 -19 18v77h-92c-201 0 -277 69 -277 229v62c0 160 76 229 277 229h92v67c0 12 6 18 19 18zM638 508h-89v-306h89
c120 0 157 37 157 127v51c0 91 -37 128 -157 128zM185 380v-51c0 -90 38 -127 157 -127h88v306h-88c-119 0 -157 -37 -157 -128z" />
    <glyph glyph-name="uni0425" unicode="&#x425;" horiz-adv-x="888" 
d="M740 700h105c15 0 16 -14 8 -22l-326 -320l337 -336c8 -8 7 -22 -8 -22h-111c-14 0 -20 4 -27 12l-273 278l-280 -278c-8 -7 -14 -12 -27 -12h-106c-14 0 -15 14 -8 22l344 343l-312 313c-8 8 -7 22 8 22h111c13 0 20 -4 27 -12l248 -255l263 255c8 7 14 12 27 12z" />
    <glyph glyph-name="uni0426" unicode="&#x426;" horiz-adv-x="1016" 
d="M86 700h89c12 0 18 -6 18 -18v-541c0 -17 7 -25 24 -25h491v566c0 12 6 18 19 18h88c13 0 19 -6 19 -18v-566h138c12 0 18 -6 18 -18v-267c0 -12 -6 -18 -18 -18h-76c-12 0 -18 6 -18 18v169h-726c-60 0 -84 25 -84 79v603c0 12 6 18 18 18z" />
    <glyph glyph-name="uni0427" unicode="&#x427;" horiz-adv-x="905" 
d="M84 700h88c12 0 18 -6 18 -18v-182c0 -121 38 -159 157 -159h365v341c0 12 6 18 18 18h88c13 0 19 -6 19 -18v-664c0 -12 -6 -18 -19 -18h-88c-12 0 -18 6 -18 18v213h-369c-201 0 -277 72 -277 264v187c0 12 6 18 18 18z" />
    <glyph glyph-name="uni0428" unicode="&#x428;" horiz-adv-x="1135" 
d="M86 700h89c12 0 18 -6 18 -18v-541c0 -17 7 -25 24 -25h288v566c0 12 6 18 18 18h88c12 0 18 -6 18 -18v-566h288c17 0 24 8 24 25v541c0 12 6 18 19 18h88c12 0 18 -6 18 -18v-603c0 -54 -24 -79 -84 -79h-830c-60 0 -84 25 -84 79v603c0 12 6 18 18 18z" />
    <glyph glyph-name="uni0429" unicode="&#x429;" horiz-adv-x="1249" 
d="M86 700h89c12 0 18 -6 18 -18v-541c0 -17 7 -25 24 -25h288v566c0 12 6 18 18 18h88c12 0 18 -6 18 -18v-566h312v566c0 12 6 18 19 18h88c12 0 18 -6 18 -18v-566h139c12 0 18 -6 18 -18v-267c0 -12 -6 -18 -18 -18h-76c-12 0 -18 6 -18 18v169h-959
c-60 0 -84 25 -84 79v603c0 12 6 18 18 18z" />
    <glyph glyph-name="uni042A" unicode="&#x42a;" horiz-adv-x="1060" 
d="M44 700h202c101 0 150 -51 150 -146v-82h417c152 0 212 -70 212 -204v-64c0 -134 -60 -204 -212 -204h-511c-20 0 -30 10 -30 30v497c0 45 -16 62 -63 62h-165c-12 0 -18 6 -18 18v75c0 12 6 18 18 18zM789 364h-393v-240c0 -8 4 -12 12 -12h381c81 0 111 36 111 109v35
c0 71 -30 108 -111 108z" />
    <glyph glyph-name="uni042B" unicode="&#x42b;" horiz-adv-x="1140" 
d="M965 700h88c12 0 18 -6 18 -18v-664c0 -12 -6 -18 -18 -18h-88c-12 0 -18 6 -18 18v664c0 12 6 18 18 18zM87 700h88c12 0 18 -6 18 -18v-210h437c151 0 212 -71 212 -204v-64c0 -133 -61 -204 -212 -204h-531c-20 0 -30 10 -30 30v652c0 12 6 18 18 18zM606 364h-413
v-240c0 -8 4 -12 12 -12h401c81 0 111 37 111 109v35c0 72 -30 108 -111 108z" />
    <glyph glyph-name="uni042C" unicode="&#x42c;" horiz-adv-x="877" 
d="M87 700h88c12 0 18 -6 18 -18v-210h437c151 0 212 -71 212 -204v-64c0 -133 -61 -204 -212 -204h-531c-20 0 -30 10 -30 30v652c0 12 6 18 18 18zM606 364h-413v-240c0 -8 4 -12 12 -12h401c81 0 111 37 111 109v35c0 72 -30 108 -111 108z" />
    <glyph glyph-name="uni042D" unicode="&#x42d;" horiz-adv-x="847" 
d="M509 0h-439c-12 0 -18 6 -18 18v77c0 13 6 19 18 19h438c119 0 157 38 157 159v23h-426c-12 0 -18 5 -18 18v64c0 12 6 18 18 18h426v31c0 121 -38 159 -157 159h-438c-12 0 -18 6 -18 19v77c0 12 6 18 18 18h439c201 0 277 -72 277 -264v-172c0 -192 -76 -264 -277 -264
z" />
    <glyph glyph-name="uni042E" unicode="&#x42e;" horiz-adv-x="1219" 
d="M626 700h255c201 0 277 -72 277 -264v-172c0 -192 -76 -264 -277 -264h-255c-201 0 -277 72 -277 264v40h-156v-286c0 -12 -6 -18 -18 -18h-88c-12 0 -18 6 -18 18v664c0 12 6 18 18 18h88c12 0 18 -6 18 -18v-278h156v32c0 192 76 264 277 264zM473 427v-154
c0 -121 38 -159 157 -159h246c120 0 157 38 157 159v154c0 121 -37 159 -157 159h-246c-119 0 -157 -38 -157 -159z" />
    <glyph glyph-name="uni042F" unicode="&#x42f;" horiz-adv-x="901" 
d="M271 700h532c20 0 30 -10 30 -30v-652c0 -12 -6 -18 -19 -18h-88c-12 0 -18 6 -18 18v211h-363l-171 -218c-5 -7 -10 -11 -24 -11h-104c-15 0 -16 15 -11 22l180 219c-110 16 -155 84 -155 200v55c0 133 60 204 211 204zM184 437c0 -72 30 -108 111 -108h413v247
c0 9 -4 12 -12 12h-401c-81 0 -111 -36 -111 -108v-43z" />
    <glyph glyph-name="uni0430" unicode="&#x430;" 
d="M75 541h429c178 0 236 -56 236 -199v-263c0 -64 -16 -79 -73 -79h-471c-117 0 -153 42 -153 140v45c0 82 36 128 153 128h427v24c0 76 -28 105 -130 105h-418c-10 0 -15 5 -15 15v69c0 10 5 15 15 15zM589 91c26 0 34 9 34 38v110h-395c-53 0 -71 -21 -71 -60v-23
c0 -45 18 -65 71 -65h361z" />
    <glyph glyph-name="uni0431" unicode="&#x431;" horiz-adv-x="868" 
d="M298 750h341c34 0 45 15 45 43v39c0 12 6 18 18 18h80c12 0 18 -6 18 -18v-40c0 -99 -31 -141 -142 -141h-349c-101 0 -130 -30 -130 -109v-34h396c178 0 235 -57 235 -200v-109c0 -142 -57 -199 -235 -199h-277c-178 0 -235 57 -235 199v351c0 143 57 200 235 200z
M564 422h-385v-201c0 -92 29 -122 130 -122h255c102 0 130 30 130 122v78c0 93 -28 123 -130 123z" />
    <glyph glyph-name="uni0432" unicode="&#x432;" horiz-adv-x="826" 
d="M94 541h518c116 0 159 -42 159 -126v-38c0 -44 -19 -78 -55 -98c40 -21 59 -56 59 -103v-45c0 -81 -38 -131 -150 -131h-531c-20 0 -29 10 -29 29v483c0 19 9 29 29 29zM590 238h-409v-133c0 -9 4 -13 12 -13h398c51 0 69 20 69 55v32c0 38 -17 59 -70 59zM181 436v-124
h410c51 0 68 20 68 55v25c0 39 -18 57 -69 57h-397c-8 0 -12 -4 -12 -13z" />
    <glyph glyph-name="uni0433" unicode="&#x433;" horiz-adv-x="613" 
d="M298 541h280c10 0 15 -5 15 -15v-69c0 -10 -5 -15 -15 -15h-269c-101 0 -130 -30 -130 -122v-302c0 -12 -6 -18 -18 -18h-80c-12 0 -18 6 -18 18v324c0 142 57 199 235 199z" />
    <glyph glyph-name="uni0434" unicode="&#x434;" horiz-adv-x="939" 
d="M340 541h347c56 0 78 -26 78 -74v-370h129c13 0 19 -6 19 -18v-248c0 -12 -6 -18 -19 -18h-66c-12 0 -18 6 -18 18v169h-681v-169c0 -12 -6 -18 -19 -18h-66c-12 0 -18 6 -18 18v248c0 12 6 18 18 18h87c28 0 52 14 73 62c25 59 42 169 62 320c5 39 21 62 74 62zM288 97
h361v321c0 13 -7 19 -22 19h-246c-21 0 -25 -9 -27 -22c-11 -82 -31 -231 -66 -318z" />
    <glyph glyph-name="uni0435" unicode="&#x435;" 
d="M279 541h290c135 0 171 -42 171 -161v-89c0 -42 -18 -56 -57 -56h-524v-31c0 -75 29 -105 131 -105h418c10 0 15 -5 15 -15v-69c0 -10 -5 -15 -15 -15h-429c-179 0 -236 57 -236 199v143c0 143 57 199 236 199zM159 344v-35h446c14 0 21 5 21 21v46c0 54 -18 74 -79 74
h-257c-102 0 -131 -30 -131 -106z" />
    <glyph glyph-name="uni0436" unicode="&#x436;" horiz-adv-x="1217" 
d="M649 0h-80c-12 0 -18 6 -18 18v212h-157c-70 0 -97 -12 -127 -52l-125 -166c-7 -9 -11 -12 -26 -12h-90c-12 0 -17 12 -10 22l142 187c22 29 47 51 78 67c-25 16 -47 38 -70 69l-128 173c-8 11 -4 23 9 23h90c13 0 19 -4 26 -14l113 -157c32 -45 53 -51 126 -51h149v204
c0 12 6 18 18 18h80c12 0 18 -6 18 -18v-204h149c73 0 94 6 126 51l113 157c7 10 13 14 26 14h90c13 0 17 -12 9 -23l-128 -173c-23 -32 -45 -53 -70 -69c31 -16 55 -38 78 -67l142 -187c7 -10 2 -22 -10 -22h-91c-14 0 -19 3 -25 12l-125 166c-30 40 -57 52 -127 52h-157
v-212c0 -12 -6 -18 -18 -18z" />
    <glyph glyph-name="uni0437" unicode="&#x437;" horiz-adv-x="722" 
d="M52 541h464c116 0 160 -42 160 -126v-37c0 -44 -18 -79 -52 -101c38 -21 56 -55 56 -101v-46c0 -80 -38 -130 -151 -130h-477c-12 0 -17 5 -17 17v60c0 11 5 17 17 17h443c52 0 71 20 71 55v27c0 37 -18 58 -72 58h-435c-12 0 -17 6 -17 17v44c0 12 5 18 17 18h435
c53 0 71 19 71 53v26c0 36 -19 54 -71 54h-442c-12 0 -17 6 -17 17v61c0 12 5 17 17 17z" />
    <glyph glyph-name="uni0438" unicode="&#x438;" horiz-adv-x="863" 
d="M84 541h79c12 0 18 -6 18 -18v-405c0 -7 3 -10 9 -10h10c6 0 10 2 14 7l357 378c32 34 47 48 103 48h47c52 0 77 -20 77 -88v-435c0 -12 -6 -18 -18 -18h-80c-12 0 -18 6 -18 18v405c0 7 -3 10 -9 10h-10c-6 0 -10 -2 -14 -7l-358 -378c-32 -34 -46 -48 -103 -48h-45
c-52 0 -77 20 -77 88v435c0 12 6 18 18 18z" />
    <glyph glyph-name="uni0439" unicode="&#x439;" horiz-adv-x="863" 
d="M194 722v42c0 11 6 19 15 19c6 0 13 -3 21 -10c26 -21 101 -80 201 -80s175 59 201 80c8 7 16 10 21 10c10 0 15 -8 15 -19v-42c0 -14 -2 -24 -17 -36c-36 -29 -125 -73 -220 -73c-96 0 -185 44 -220 73c-15 12 -17 22 -17 36zM84 541h79c12 0 18 -6 18 -18v-405
c0 -7 3 -10 9 -10h10c6 0 10 2 14 7l357 378c32 34 47 48 103 48h47c52 0 77 -20 77 -88v-435c0 -12 -6 -18 -18 -18h-80c-12 0 -18 6 -18 18v405c0 7 -3 10 -9 10h-10c-6 0 -10 -2 -14 -7l-358 -378c-32 -34 -46 -48 -103 -48h-45c-52 0 -77 20 -77 88v435c0 12 6 18 18 18
z" />
    <glyph glyph-name="uni043A" unicode="&#x43a;" horiz-adv-x="737" 
d="M83 541h80c12 0 18 -6 18 -18v-204h149c73 0 94 6 126 51l113 157c7 10 13 14 26 14h90c13 0 17 -12 9 -23l-128 -173c-23 -32 -45 -53 -70 -69c31 -16 55 -38 78 -67l142 -187c7 -10 2 -22 -10 -22h-91c-14 0 -19 3 -25 12l-125 166c-30 40 -57 52 -127 52h-157v-212
c0 -12 -6 -18 -18 -18h-80c-12 0 -18 6 -18 18v505c0 12 6 18 18 18z" />
    <glyph glyph-name="uni043B" unicode="&#x43b;" horiz-adv-x="814" 
d="M324 541h347c56 0 78 -26 78 -74v-448c0 -12 -5 -19 -16 -19h-83c-11 0 -17 7 -17 19v399c0 13 -7 19 -22 19h-246c-21 0 -25 -9 -27 -22c-10 -83 -31 -235 -67 -322c-26 -61 -61 -93 -143 -93h-85c-12 0 -17 6 -17 18v60c0 13 5 19 17 19h66c30 0 57 10 79 62
c25 59 42 169 62 320c5 39 21 62 74 62z" />
    <glyph glyph-name="uni043C" unicode="&#x43c;" horiz-adv-x="1082" 
d="M140 541h81c51 0 63 -13 92 -64l206 -357c4 -7 8 -10 16 -10h13c8 0 11 3 15 10l207 357c29 51 40 64 91 64h81c60 0 76 -24 76 -88v-435c0 -12 -6 -18 -19 -18h-79c-13 0 -19 6 -19 18v415c0 7 -2 10 -8 10h-10c-9 0 -11 -2 -14 -7l-205 -355c-34 -59 -51 -81 -105 -81
h-35c-54 0 -71 22 -105 81l-205 355c-3 5 -6 7 -15 7h-10c-6 0 -8 -3 -8 -10v-415c0 -12 -6 -18 -18 -18h-80c-12 0 -18 6 -18 18v435c0 64 16 88 75 88z" />
    <glyph glyph-name="uni043D" unicode="&#x43d;" horiz-adv-x="863" 
d="M83 541h80c12 0 18 -6 18 -18v-199h501v199c0 12 6 18 18 18h80c12 0 18 -6 18 -18v-505c0 -12 -6 -18 -18 -18h-80c-12 0 -18 6 -18 18v209h-501v-209c0 -12 -6 -18 -18 -18h-80c-12 0 -18 6 -18 18v505c0 12 6 18 18 18z" />
    <glyph glyph-name="uni043E" unicode="&#x43e;" horiz-adv-x="865" 
d="M292 541h280c178 0 235 -56 235 -199v-143c0 -142 -57 -199 -235 -199h-280c-178 0 -235 57 -235 199v143c0 143 57 199 235 199zM173 322v-103c0 -92 29 -123 130 -123h258c102 0 130 31 130 123v103c0 93 -28 123 -130 123h-258c-101 0 -130 -30 -130 -123z" />
    </font>
</defs>
</svg>
