<?xml version="1.0" standalone="no"?>
<!DOCTYPE svg PUBLIC "-//W3C//DTD SVG 1.1//EN" "http://www.w3.org/Graphics/SVG/1.1/DTD/svg11.dtd" >
<svg xmlns="http://www.w3.org/2000/svg" xmlns:xlink="http://www.w3.org/1999/xlink" version="1.1">
<metadata>
Created by FontForge 20201107 at Fri Sep 15 19:43:29 2017
 By Unknown
\(c\) 2016 Typodermic Fonts Inc.
</metadata>
<defs>
<font id="ConthraxSb-Regular" horiz-adv-x="789" >
  <font-face 
    font-family="Conthrax Sb"
    font-weight="600"
    font-stretch="normal"
    units-per-em="1000"
    panose-1="2 11 7 7 2 2 1 8 2 4"
    ascent="800"
    descent="-200"
    x-height="549"
    cap-height="700"
    bbox="-698 -272 1732 1116"
    underline-thickness="50"
    underline-position="-150"
    stemh="142"
    stemv="153"
    unicode-range="U+0017-25CF"
  />
<missing-glyph horiz-adv-x="928" 
d="M331 832h266c201 0 277 -72 277 -264v-494c0 -192 -76 -264 -277 -264h-266c-201 0 -277 72 -277 264v494c0 192 76 264 277 264zM330 71v-100c0 -20 10 -30 29 -30h131c19 0 29 10 29 30v100c0 20 -10 30 -29 30h-131c-19 0 -29 -10 -29 -30zM201 646v-111
c0 -20 10 -30 29 -30h325c13 0 16 -4 16 -24c0 -18 -2 -27 -12 -33l-168 -96c-30 -18 -37 -38 -37 -89c0 -64 11 -82 42 -82h56c29 0 37 7 40 34c3 28 5 40 18 47l162 82c63 32 92 67 92 172c0 96 -24 160 -138 160h-396c-19 0 -29 -10 -29 -30z" />
    <glyph glyph-name=".notdef" horiz-adv-x="928" 
d="M331 832h266c201 0 277 -72 277 -264v-494c0 -192 -76 -264 -277 -264h-266c-201 0 -277 72 -277 264v494c0 192 76 264 277 264zM330 71v-100c0 -20 10 -30 29 -30h131c19 0 29 10 29 30v100c0 20 -10 30 -29 30h-131c-19 0 -29 -10 -29 -30zM201 646v-111
c0 -20 10 -30 29 -30h325c13 0 16 -4 16 -24c0 -18 -2 -27 -12 -33l-168 -96c-30 -18 -37 -38 -37 -89c0 -64 11 -82 42 -82h56c29 0 37 7 40 34c3 28 5 40 18 47l162 82c63 32 92 67 92 172c0 96 -24 160 -138 160h-396c-19 0 -29 -10 -29 -30z" />
    <glyph glyph-name="uni0017" horiz-adv-x="335" 
 />
    <glyph glyph-name="space" unicode=" " horiz-adv-x="335" 
 />
    <glyph glyph-name="exclam" unicode="!" horiz-adv-x="266" 
d="M77 735h112c15 0 23 -8 23 -23l-28 -450c-1 -15 -7 -22 -22 -22h-58c-15 0 -21 7 -22 22l-28 450c0 15 8 23 23 23zM84 140h98c15 0 22 -7 22 -22v-96c0 -15 -7 -22 -22 -22h-98c-15 0 -23 7 -23 22v96c0 15 8 22 23 22z" />
    <glyph glyph-name="quotedbl" unicode="&#x22;" horiz-adv-x="491" 
d="M302 750h107c14 0 21 -9 19 -27l-23 -264c-1 -16 -8 -21 -22 -21h-55c-14 0 -21 5 -22 21l-23 264c-2 18 5 27 19 27zM82 750h107c14 0 21 -9 19 -27l-23 -264c-1 -16 -8 -21 -22 -21h-55c-14 0 -21 5 -22 21l-23 264c-2 18 5 27 19 27z" />
    <glyph glyph-name="numbersign" unicode="#" horiz-adv-x="853" 
d="M77 538h136v144c0 12 6 18 18 18h59c12 0 18 -6 18 -18v-144h238v144c0 12 6 18 18 18h59c13 0 18 -6 18 -18v-144h135c12 0 18 -6 18 -18v-60c0 -12 -6 -18 -18 -18h-135v-184h135c12 0 18 -6 18 -18v-60c0 -12 -6 -18 -18 -18h-135v-144c0 -12 -5 -18 -18 -18h-59
c-12 0 -18 6 -18 18v144h-238v-144c0 -12 -6 -18 -18 -18h-59c-12 0 -18 6 -18 18v144h-136c-12 0 -18 6 -18 18v60c0 12 6 18 18 18h136v184h-136c-12 0 -18 6 -18 18v60c0 12 6 18 18 18zM308 442v-184h238v184h-238z" />
    <glyph glyph-name="dollar" unicode="$" horiz-adv-x="816" 
d="M390 760h46c12 0 18 -6 18 -18v-75h270c12 0 18 -7 18 -20v-83c0 -13 -6 -20 -18 -20h-270v-132h157c109 0 155 -53 155 -155v-62c0 -93 -39 -157 -156 -157h-156v-80c0 -12 -6 -18 -18 -18h-46c-12 0 -18 6 -18 18v80h-292c-12 0 -19 7 -19 20v83c0 13 7 20 19 20h292
v148h-155c-108 0 -156 52 -156 153v49c0 92 40 156 156 156h155v75c0 12 6 18 18 18zM571 309h-117v-148h117c38 0 53 21 53 55v39c0 35 -16 54 -53 54zM204 463c0 -34 16 -51 53 -51h115v132h-115c-39 0 -53 -21 -53 -54v-27z" />
    <glyph glyph-name="percent" unicode="%" horiz-adv-x="1141" 
d="M820 700h62c11 0 13 -10 7 -18l-540 -672c-6 -7 -12 -10 -27 -10h-61c-11 0 -14 10 -8 18l540 672c6 7 12 10 27 10zM801 385h127c111 0 154 -40 154 -145v-95c0 -105 -43 -145 -154 -145h-127c-111 0 -153 40 -153 145v95c0 105 42 145 153 145zM736 232v-79
c0 -57 15 -73 70 -73h118c54 0 70 16 70 73v79c0 57 -16 73 -70 73h-118c-55 0 -70 -16 -70 -73zM212 700h127c111 0 154 -40 154 -145v-95c0 -105 -43 -145 -154 -145h-127c-111 0 -153 40 -153 145v95c0 105 42 145 153 145zM147 547v-79c0 -57 15 -73 70 -73h118
c54 0 70 16 70 73v79c0 57 -16 73 -70 73h-118c-55 0 -70 -16 -70 -73z" />
    <glyph glyph-name="ampersand" unicode="&#x26;" horiz-adv-x="874" 
d="M237 769h247c73 0 106 -45 106 -103v-80c0 -77 -14 -110 -77 -145l-77 -42l120 -107l129 151c6 7 12 11 28 11h98c19 0 25 -16 13 -29l-178 -213l208 -185c9 -9 4 -27 -11 -27h-126c-14 0 -21 4 -29 12l-119 108l-36 -43c-52 -63 -82 -77 -173 -77h-188
c-81 0 -131 44 -131 143v59c0 73 25 118 92 155l112 61l-55 50c-42 39 -53 64 -53 118v61c0 74 29 122 100 122zM355 119c44 0 58 7 83 36l41 48l-151 138l-98 -53c-32 -15 -46 -43 -46 -81v-28c0 -44 20 -60 53 -60h118zM276 575c0 -26 4 -36 24 -54l51 -46l76 42
c29 14 34 28 34 58v38c0 24 -13 39 -38 39h-113c-23 0 -34 -16 -34 -45v-32z" />
    <glyph glyph-name="quotesingle" unicode="'" horiz-adv-x="271" 
d="M82 750h107c14 0 21 -9 19 -27l-23 -264c-1 -16 -8 -21 -22 -21h-55c-14 0 -21 5 -22 21l-23 264c-2 18 5 27 19 27z" />
    <glyph glyph-name="parenleft" unicode="(" horiz-adv-x="453" 
d="M376 896h24c8 0 12 -5 12 -14v-68c0 -9 -4 -14 -12 -14h-24c-93 0 -147 -64 -147 -292v-340c0 -228 54 -293 147 -293h24c8 0 12 -4 12 -14v-68c0 -9 -4 -13 -12 -13h-24c-165 0 -243 105 -243 388v340c0 283 78 388 243 388z" />
    <glyph glyph-name="parenright" unicode=")" horiz-adv-x="453" 
d="M77 -220h-24c-8 0 -12 5 -12 14v68c0 9 4 14 12 14h24c93 0 147 64 147 292v340c0 228 -54 293 -147 293h-24c-8 0 -12 4 -12 14v68c0 9 4 13 12 13h24c165 0 243 -105 243 -388v-340c0 -283 -78 -388 -243 -388z" />
    <glyph glyph-name="asterisk" unicode="*" horiz-adv-x="582" 
d="M59 598l200 -79l-13 215c-1 10 3 16 11 16h68c9 0 12 -6 12 -16l-13 -214l199 78c11 4 17 2 20 -7l20 -63c3 -8 0 -14 -11 -17l-207 -54l136 -166c7 -8 7 -15 0 -20l-54 -38c-8 -7 -14 -5 -20 5l-115 180l-116 -180c-6 -9 -13 -11 -20 -7l-53 40c-8 5 -8 12 -1 20
l136 165l-208 54c-10 3 -14 9 -11 18l21 63c2 9 9 11 19 7z" />
    <glyph glyph-name="plus" unicode="+" horiz-adv-x="613" 
d="M276 614h60c12 0 18 -6 18 -18v-198h199c12 0 18 -6 18 -18v-60c0 -12 -6 -18 -18 -18h-199v-199c0 -12 -6 -18 -18 -18h-60c-12 0 -18 6 -18 18v199h-198c-12 0 -18 6 -18 18v60c0 12 6 18 18 18h198v198c0 12 6 18 18 18z" />
    <glyph glyph-name="comma" unicode="," horiz-adv-x="267" 
d="M85 140h98c15 0 22 -7 22 -22v-85c0 -17 -1 -26 -7 -47l-37 -136c-5 -17 -11 -22 -27 -22h-40c-17 0 -22 8 -19 22l27 149h-17c-15 0 -23 7 -23 22v97c0 15 8 22 23 22z" />
    <glyph glyph-name="hyphen" unicode="-" horiz-adv-x="382" 
d="M40 398h301c12 0 18 -6 18 -18v-72c0 -12 -6 -18 -18 -18h-301c-12 0 -18 6 -18 18v72c0 12 6 18 18 18z" />
    <glyph glyph-name="period" unicode="." horiz-adv-x="267" 
d="M85 140h98c15 0 22 -7 22 -22v-96c0 -15 -7 -22 -22 -22h-98c-15 0 -23 7 -23 22v96c0 15 8 22 23 22z" />
    <glyph glyph-name="slash" unicode="/" horiz-adv-x="414" 
d="M325 815h70c11 0 16 -7 12 -18l-300 -928c-4 -11 -6 -16 -19 -16h-70c-11 0 -16 6 -12 18l300 927c4 12 6 17 19 17z" />
    <glyph glyph-name="zero" unicode="0" horiz-adv-x="907" 
d="M338 700h231c202 0 280 -72 280 -264v-172c0 -192 -78 -264 -280 -264h-231c-202 0 -280 72 -280 264v172c0 192 78 264 280 264zM206 430v-160c0 -106 29 -137 132 -137h231c103 0 132 31 132 137v160c0 106 -29 137 -132 137h-231c-103 0 -132 -31 -132 -137z" />
    <glyph glyph-name="one" unicode="1" horiz-adv-x="338" 
d="M46 700h133c66 0 92 -27 92 -85v-593c0 -15 -7 -22 -22 -22h-103c-15 0 -22 7 -22 22v524c0 14 -6 21 -21 21h-57c-15 0 -23 7 -23 22v89c0 15 8 22 23 22z" />
    <glyph glyph-name="two" unicode="2" horiz-adv-x="863" 
d="M103 700h530c121 0 177 -66 177 -163v-70c0 -109 -60 -171 -175 -171h-380c-36 0 -52 -19 -52 -57v-85c0 -14 6 -21 20 -21h563c15 0 23 -7 23 -22v-89c0 -15 -8 -22 -23 -22h-638c-67 0 -93 27 -93 85v154c0 110 60 172 175 172h380c36 0 52 19 52 56v43
c0 35 -15 57 -53 57h-506c-15 0 -22 7 -22 22v89c0 15 7 22 22 22z" />
    <glyph glyph-name="three" unicode="3" horiz-adv-x="843" 
d="M72 700h518c138 0 190 -54 190 -165v-48c0 -55 -20 -98 -59 -127c44 -28 64 -72 64 -129v-58c0 -106 -45 -173 -177 -173h-536c-15 0 -22 7 -22 22v89c0 15 7 22 22 22h491c52 0 74 19 74 62v37c0 41 -21 64 -87 64h-472c-15 0 -23 7 -23 22v71c0 15 8 22 23 22h472
c66 0 86 21 86 60v35c0 42 -22 61 -75 61h-489c-15 0 -22 7 -22 22v89c0 15 7 22 22 22z" />
    <glyph glyph-name="four" unicode="4" horiz-adv-x="905" 
d="M75 361l453 309c33 22 55 30 100 30h59c58 0 87 -21 87 -102v-329h82c15 0 22 -8 22 -23v-81c0 -15 -7 -22 -22 -22h-82v-121c0 -15 -7 -22 -22 -22h-103c-15 0 -23 7 -23 22v121h-526c-43 0 -64 25 -64 61v76c0 37 8 60 39 81zM201 276c0 -4 3 -7 8 -7h417v287
c0 8 -3 11 -8 11h-6c-8 0 -13 -2 -22 -8l-383 -263c-4 -3 -6 -7 -6 -14v-6z" />
    <glyph glyph-name="five" unicode="5" horiz-adv-x="863" 
d="M148 700h614c15 0 22 -7 22 -22v-89c0 -15 -7 -22 -22 -22h-539c-14 0 -20 -7 -20 -21v-114c0 -14 6 -21 20 -21h412c115 0 175 -62 175 -171v-77c0 -97 -56 -163 -177 -163h-554c-15 0 -23 7 -23 22v89c0 15 8 22 23 22h530c38 0 53 22 53 57v50c0 37 -16 56 -52 56
h-462c-67 0 -93 26 -93 85v234c0 58 26 85 93 85z" />
    <glyph glyph-name="six" unicode="6" horiz-adv-x="868" 
d="M338 700h425c15 0 22 -7 22 -22v-89c0 -15 -7 -22 -22 -22h-425c-103 0 -132 -31 -132 -137v-19h431c129 0 175 -62 175 -169v-73c0 -106 -50 -169 -182 -169h-292c-202 0 -280 72 -280 264v172c0 192 78 264 280 264zM607 301h-401v-36c0 -105 29 -136 132 -136h268
c42 0 59 19 59 60v53c0 41 -16 59 -58 59z" />
    <glyph glyph-name="seven" unicode="7" horiz-adv-x="829" 
d="M46 700h684c43 0 64 -25 64 -61v-69c0 -43 -10 -61 -39 -93l-426 -458c-13 -14 -22 -19 -43 -19h-140c-16 0 -20 17 -11 27l492 518c5 6 8 10 8 17v5c0 4 -4 7 -9 7h-580c-15 0 -23 8 -23 22v82c0 15 8 22 23 22z" />
    <glyph glyph-name="eight" unicode="8" horiz-adv-x="904" 
d="M253 700h398c138 0 190 -54 190 -165v-48c0 -57 -21 -101 -62 -129c46 -26 67 -68 67 -127v-58c0 -106 -45 -173 -177 -173h-434c-132 0 -177 67 -177 173v58c0 59 21 101 67 127c-41 28 -62 72 -62 129v48c0 111 52 165 190 165zM207 237v-44c0 -42 21 -61 74 -61h342
c53 0 75 19 75 61v44c0 41 -21 63 -87 63h-318c-66 0 -86 -22 -86 -63zM208 504v-37c0 -39 19 -60 85 -60h318c66 0 85 21 85 60v37c0 41 -21 64 -74 64h-340c-53 0 -74 -23 -74 -64z" />
    <glyph glyph-name="nine" unicode="9" horiz-adv-x="868" 
d="M246 700h284c202 0 280 -72 280 -264v-172c0 -192 -78 -264 -280 -264h-429c-15 0 -22 7 -22 22v89c0 15 7 22 22 22h429c103 0 132 31 132 137v22h-423c-124 0 -184 54 -184 162v66c0 121 61 180 191 180zM201 466c0 -41 16 -64 58 -64h403v33c0 105 -29 136 -132 136
h-271c-41 0 -58 -19 -58 -60v-45z" />
    <glyph glyph-name="colon" unicode=":" horiz-adv-x="267" 
d="M85 220h98c15 0 22 -7 22 -22v-96c0 -15 -7 -22 -22 -22h-98c-15 0 -23 7 -23 22v96c0 15 8 22 23 22zM85 519h98c15 0 22 -7 22 -22v-96c0 -15 -7 -22 -22 -22h-98c-15 0 -23 7 -23 22v96c0 15 8 22 23 22z" />
    <glyph glyph-name="semicolon" unicode=";" horiz-adv-x="267" 
d="M85 220h98c15 0 22 -7 22 -22v-85c0 -17 -1 -26 -7 -47l-37 -136c-5 -17 -11 -22 -27 -22h-40c-17 0 -22 8 -19 22l27 149h-17c-15 0 -23 7 -23 22v97c0 15 8 22 23 22zM85 519h98c15 0 22 -7 22 -22v-96c0 -15 -7 -22 -22 -22h-98c-15 0 -23 7 -23 22v96
c0 15 8 22 23 22z" />
    <glyph glyph-name="less" unicode="&#x3c;" horiz-adv-x="613" 
d="M86 438l460 170c13 5 25 -2 25 -17v-60c0 -13 -4 -18 -14 -21l-396 -145c-6 -2 -8 -5 -8 -11v-6c0 -6 2 -9 8 -11l396 -145c10 -3 14 -8 14 -21v-60c0 -15 -12 -21 -25 -17l-460 170c-32 12 -44 26 -44 57v60c0 31 12 45 44 57z" />
    <glyph glyph-name="equal" unicode="=" horiz-adv-x="613" 
d="M60 278h493c12 0 18 -6 18 -18v-59c0 -12 -6 -18 -18 -18h-493c-12 0 -18 6 -18 18v59c0 12 6 18 18 18zM60 518h493c12 0 18 -6 18 -18v-60c0 -12 -6 -18 -18 -18h-493c-12 0 -18 6 -18 18v60c0 12 6 18 18 18z" />
    <glyph glyph-name="greater" unicode="&#x3e;" horiz-adv-x="613" 
d="M526 264l-460 -170c-13 -5 -25 2 -25 17v60c0 13 4 18 14 21l396 145c6 2 8 5 8 11v6c0 6 -2 9 -8 11l-396 145c-10 3 -14 8 -14 21v60c0 15 12 21 25 17l460 -170c32 -12 44 -26 44 -57v-60c0 -31 -12 -45 -44 -57z" />
    <glyph glyph-name="question" unicode="?" horiz-adv-x="631" 
d="M210 140h98c15 0 23 -7 23 -22v-96c0 -15 -8 -22 -23 -22h-98c-15 0 -22 7 -22 22v96c0 15 7 22 22 22zM51 735h411c94 0 136 -47 136 -135v-42c0 -81 -23 -115 -92 -148l-165 -79c-20 -9 -25 -23 -27 -41l-3 -25c-2 -20 -8 -25 -30 -25h-44c-21 0 -28 8 -28 25l-1 49
c0 35 6 66 44 86l170 88c22 11 31 26 31 53v26c0 28 -13 42 -43 42h-359c-15 0 -22 8 -22 22v82c0 15 7 22 22 22z" />
    <glyph glyph-name="at" unicode="@" horiz-adv-x="875" 
d="M242 626h371c136 0 203 -66 203 -197v-224c0 -127 -48 -177 -158 -177h-179c-100 0 -150 47 -150 140v91c0 93 49 139 147 139h231v27c0 66 -34 99 -102 99h-339c-58 0 -87 -32 -87 -96v-387c0 -98 46 -147 139 -147h477c11 0 16 -5 16 -15v-83c0 -11 -5 -16 -16 -16
h-476c-173 0 -261 87 -261 261v397c0 125 61 188 184 188zM625 120c56 0 82 27 82 89v103h-204c-43 0 -65 -23 -65 -68v-57c0 -44 21 -67 65 -67h122z" />
    <glyph glyph-name="A" unicode="A" horiz-adv-x="975" 
d="M451 700h59c51 0 82 -16 115 -76l331 -601c7 -13 4 -23 -12 -23h-127c-13 0 -18 3 -23 13l-71 129h-470l-69 -129c-5 -10 -11 -13 -23 -13h-130c-17 0 -20 10 -13 23l328 601c33 60 63 76 105 76zM473 551l-157 -293h344l-159 293c-3 5 -6 7 -11 7h-6c-5 0 -8 -2 -11 -7z
" />
    <glyph glyph-name="B" unicode="B" horiz-adv-x="919" 
d="M96 700h576c138 0 190 -54 190 -165v-48c0 -57 -22 -99 -64 -127c47 -27 69 -70 69 -129v-58c0 -106 -44 -173 -177 -173h-594c-20 0 -30 10 -30 30v640c0 20 10 30 30 30zM629 300h-410v-149c0 -9 4 -13 13 -13h410c53 0 74 19 74 61v38c0 41 -21 63 -87 63zM219 549
v-140h410c66 0 86 20 86 59v34c0 41 -22 60 -74 60h-409c-9 0 -13 -4 -13 -13z" />
    <glyph glyph-name="C" unicode="C" horiz-adv-x="852" 
d="M338 700h451c15 0 22 -7 22 -22v-98c0 -15 -7 -23 -22 -23h-445c-103 0 -133 -30 -133 -136v-142c0 -106 30 -137 133 -137h445c15 0 22 -7 22 -22v-98c0 -15 -7 -22 -22 -22h-451c-202 0 -280 72 -280 264v172c0 192 78 264 280 264z" />
    <glyph glyph-name="D" unicode="D" horiz-adv-x="929" 
d="M96 700h468c217 0 306 -87 306 -282v-136c0 -195 -89 -282 -306 -282h-468c-20 0 -30 10 -30 30v640c0 20 10 30 30 30zM219 547v-395c0 -9 4 -13 13 -13h328c118 0 157 38 157 156v110c0 118 -39 156 -157 156h-328c-9 0 -13 -4 -13 -14z" />
    <glyph glyph-name="E" unicode="E" horiz-adv-x="850" 
d="M338 700h440c15 0 23 -7 23 -22v-95c0 -15 -8 -22 -23 -22h-437c-104 0 -133 -31 -133 -136v-10h565c15 0 22 -7 22 -22v-79c0 -15 -7 -22 -22 -22h-565v-17c0 -105 29 -136 133 -136h437c15 0 23 -7 23 -22v-95c0 -15 -8 -22 -23 -22h-440c-202 0 -280 72 -280 264v172
c0 192 78 264 280 264z" />
    <glyph glyph-name="F" unicode="F" horiz-adv-x="834" 
d="M338 700h440c15 0 23 -7 23 -22v-95c0 -15 -8 -22 -23 -22h-434c-103 0 -133 -31 -133 -136v-20h562c15 0 22 -7 22 -22v-79c0 -15 -7 -22 -22 -22h-562v-260c0 -15 -7 -22 -22 -22h-108c-15 0 -23 7 -23 22v414c0 192 78 264 280 264z" />
    <glyph glyph-name="G" unicode="G" horiz-adv-x="926" 
d="M338 700h507c15 0 22 -7 22 -22v-98c0 -15 -7 -23 -22 -23h-501c-103 0 -133 -30 -133 -136v-144c0 -106 30 -137 133 -137h330c35 0 50 16 50 61v81c0 9 -3 13 -12 13h-293c-14 0 -22 8 -22 23v75c0 15 8 23 22 23h417c20 0 30 -10 30 -30v-233
c0 -112 -44 -153 -124 -153h-404c-202 0 -280 72 -280 264v172c0 192 78 264 280 264z" />
    <glyph glyph-name="H" unicode="H" horiz-adv-x="906" 
d="M89 700h108c15 0 22 -7 22 -22v-260h468v260c0 15 7 22 22 22h108c15 0 23 -7 23 -22v-656c0 -15 -8 -22 -23 -22h-108c-15 0 -22 7 -22 22v266h-468v-266c0 -15 -7 -22 -22 -22h-108c-15 0 -23 7 -23 22v656c0 15 8 22 23 22z" />
    <glyph glyph-name="I" unicode="I" horiz-adv-x="286" 
d="M89 700h108c15 0 22 -7 22 -22v-656c0 -15 -7 -22 -22 -22h-108c-15 0 -23 7 -23 22v656c0 15 8 22 23 22z" />
    <glyph glyph-name="J" unicode="J" horiz-adv-x="781" 
d="M586 700h108c15 0 22 -7 22 -22v-414c0 -192 -77 -264 -280 -264h-390c-15 0 -23 7 -23 22v98c0 15 8 22 23 22h385c103 0 132 31 132 137v399c0 15 8 22 23 22z" />
    <glyph glyph-name="K" unicode="K" horiz-adv-x="854" 
d="M89 700h108c15 0 22 -7 22 -22v-266h141c63 0 82 7 111 45l172 230c7 9 11 13 29 13h124c17 0 20 -15 13 -24l-194 -251c-23 -30 -41 -51 -60 -67c27 -17 51 -40 76 -72l205 -260c5 -7 7 -26 -13 -26h-128c-17 0 -21 4 -28 13l-184 238c-27 35 -50 45 -112 45h-152v-274
c0 -15 -7 -22 -22 -22h-108c-15 0 -23 7 -23 22v656c0 15 8 22 23 22z" />
    <glyph glyph-name="L" unicode="L" horiz-adv-x="801" 
d="M87 700h108c15 0 22 -7 22 -22v-399c0 -106 30 -137 133 -137h405c15 0 22 -7 22 -22v-98c0 -15 -7 -22 -22 -22h-411c-202 0 -280 72 -280 264v414c0 15 8 22 23 22z" />
    <glyph glyph-name="M" unicode="M" horiz-adv-x="1194" 
d="M155 700h109c60 0 80 -13 107 -76l208 -480c3 -7 7 -9 14 -9h12c7 0 11 2 14 9l208 480c27 63 47 76 106 76h107c70 0 88 -28 88 -104v-574c0 -15 -8 -22 -23 -22h-102c-15 0 -22 7 -22 22v522c0 7 -2 10 -8 10h-9c-7 0 -11 -2 -13 -8l-202 -448
c-33 -72 -61 -98 -128 -98h-48c-67 0 -95 26 -128 98l-202 448c-2 6 -6 8 -13 8h-9c-6 0 -8 -3 -8 -10v-522c0 -15 -7 -22 -22 -22h-102c-15 0 -23 7 -23 22v574c0 76 18 104 89 104z" />
    <glyph glyph-name="N" unicode="N" horiz-adv-x="978" 
d="M156 700h88c64 0 78 -8 116 -59l372 -488c3 -5 7 -7 13 -7h9c5 0 8 3 8 10v522c0 15 7 22 22 22h105c15 0 22 -7 22 -22v-574c0 -81 -29 -104 -90 -104h-86c-61 0 -76 6 -116 59l-373 488c-4 5 -7 7 -13 7h-9c-6 0 -8 -3 -8 -10v-522c0 -15 -7 -22 -22 -22h-105
c-15 0 -23 7 -23 22v574c0 81 29 104 90 104z" />
    <glyph glyph-name="O" unicode="O" horiz-adv-x="985" 
d="M338 700h309c203 0 280 -72 280 -264v-172c0 -192 -77 -264 -280 -264h-309c-202 0 -280 72 -280 264v172c0 192 78 264 280 264zM211 425v-150c0 -105 30 -136 133 -136h297c103 0 133 31 133 136v150c0 105 -30 136 -133 136h-297c-103 0 -133 -31 -133 -136z" />
    <glyph glyph-name="P" unicode="P" horiz-adv-x="881" 
d="M96 700h537c153 0 215 -71 215 -206v-74c0 -135 -62 -206 -215 -206h-414v-192c0 -15 -7 -22 -22 -22h-108c-15 0 -23 7 -23 22v648c0 20 10 30 30 30zM219 550v-204h383c68 0 93 29 93 89v38c0 60 -25 89 -93 89h-370c-9 0 -13 -3 -13 -12z" />
    <glyph glyph-name="Q" unicode="Q" horiz-adv-x="985" 
d="M338 700h309c203 0 280 -72 280 -264v-155c0 -163 -56 -240 -197 -259l115 -159c5 -7 6 -25 -13 -25h-128c-17 0 -22 4 -28 12l-115 167h-223c-202 0 -280 72 -280 264v155c0 192 78 264 280 264zM211 425v-133c0 -105 30 -136 133 -136h297c103 0 133 31 133 136v133
c0 105 -30 136 -133 136h-297c-103 0 -133 -31 -133 -136z" />
    <glyph glyph-name="R" unicode="R" horiz-adv-x="905" 
d="M96 700h537c153 0 215 -71 215 -206v-57c0 -114 -44 -181 -149 -200l171 -212c6 -7 5 -25 -13 -25h-129c-17 0 -22 4 -28 13l-158 208h-323v-199c0 -15 -7 -22 -22 -22h-108c-15 0 -23 7 -23 22v648c0 20 10 30 30 30zM219 551v-208h383c68 0 93 29 93 89v42
c0 60 -25 89 -93 89h-370c-9 0 -13 -4 -13 -12z" />
    <glyph glyph-name="S" unicode="S" horiz-adv-x="857" 
d="M231 700h530c15 0 22 -7 22 -22v-95c0 -15 -7 -22 -22 -22h-501c-38 0 -53 -21 -53 -56v-34c0 -37 17 -56 52 -56h375c115 0 175 -62 175 -172v-80c0 -97 -56 -163 -177 -163h-554c-15 0 -23 7 -23 22v95c0 15 8 22 23 22h525c38 0 53 21 53 56v41c0 37 -17 56 -52 56
h-375c-115 0 -175 62 -175 172v73c0 97 56 163 177 163z" />
    <glyph glyph-name="T" unicode="T" horiz-adv-x="873" 
d="M46 700h781c15 0 23 -7 23 -22v-98c0 -15 -8 -23 -23 -23h-314v-535c0 -15 -7 -22 -22 -22h-109c-15 0 -22 7 -22 22v535h-314c-15 0 -23 8 -23 23v98c0 15 8 22 23 22z" />
    <glyph glyph-name="U" unicode="U" horiz-adv-x="977" 
d="M87 700h108c15 0 22 -7 22 -22v-399c0 -106 30 -137 133 -137h277c103 0 132 31 132 137v399c0 15 7 22 22 22h109c15 0 22 -7 22 -22v-414c0 -192 -77 -264 -280 -264h-288c-202 0 -280 72 -280 264v414c0 15 8 22 23 22z" />
    <glyph glyph-name="V" unicode="V" horiz-adv-x="975" 
d="M31 700h126c13 0 18 -4 23 -13l293 -538c3 -6 6 -7 12 -7h5c5 0 8 1 11 7l289 538c5 10 11 13 23 13h131c16 0 19 -10 12 -23l-328 -601c-33 -61 -63 -76 -105 -76h-58c-52 0 -81 15 -115 76l-332 601c-7 13 -4 23 13 23z" />
    <glyph glyph-name="W" unicode="W" horiz-adv-x="1303" 
d="M30 700h134c7 0 11 -3 14 -13l162 -538c1 -6 4 -7 8 -7h5c4 0 6 1 8 7l162 493c15 45 38 58 74 58h99c44 0 65 -16 79 -58l166 -493c2 -6 4 -7 8 -7h6c4 0 6 1 8 7l158 538c3 11 9 13 16 13h135c11 0 12 -11 8 -23l-192 -601c-19 -60 -39 -76 -77 -76h-117
c-39 0 -57 17 -77 76l-157 475c-1 5 -3 7 -8 7h-4c-4 0 -7 -2 -8 -7l-159 -475c-20 -59 -38 -76 -77 -76h-114c-45 0 -65 14 -84 76l-184 601c-4 13 -3 23 8 23z" />
    <glyph glyph-name="X" unicode="X" horiz-adv-x="891" 
d="M715 700h130c18 0 19 -17 10 -26l-307 -311l321 -337c9 -9 8 -26 -10 -26h-137c-16 0 -24 4 -32 14l-247 259l-248 -259c-9 -10 -16 -14 -33 -14h-130c-17 0 -18 17 -9 26l329 342l-297 306c-8 9 -8 26 10 26h137c16 0 24 -5 32 -14l218 -232l231 232c8 9 16 14 32 14z
" />
    <glyph glyph-name="Y" unicode="Y" horiz-adv-x="896" 
d="M24 700h134c12 0 18 -3 24 -12l267 -361l269 361c6 9 12 12 24 12h131c11 0 16 -11 9 -20l-359 -466v-192c0 -15 -7 -22 -22 -22h-108c-15 0 -23 7 -23 22v192l-355 466c-7 9 -3 20 9 20z" />
    <glyph glyph-name="Z" unicode="Z" horiz-adv-x="854" 
d="M77 700h647c54 0 79 -24 79 -76v-91c0 -49 -11 -63 -50 -84l-529 -279c-7 -4 -9 -8 -9 -15v-7c0 -6 3 -9 10 -9h549c15 0 23 -7 23 -22v-95c0 -15 -8 -22 -23 -22h-647c-55 0 -79 24 -79 75v91c0 49 8 63 47 84l527 280c7 4 9 8 9 15v7c0 6 -4 9 -10 9h-544
c-15 0 -23 7 -23 22v95c0 15 8 22 23 22z" />
    <glyph glyph-name="bracketleft" unicode="[" horiz-adv-x="453" 
d="M219 896h181c8 0 12 -5 12 -14v-68c0 -9 -4 -14 -12 -14h-143c-16 0 -24 -9 -24 -27v-871c0 -18 8 -27 24 -27h143c8 0 12 -5 12 -14v-68c0 -10 -4 -14 -12 -14h-181c-56 0 -81 29 -81 91v935c0 62 25 91 81 91z" />
    <glyph glyph-name="backslash" unicode="\" horiz-adv-x="414" 
d="M18 815h70c13 0 15 -5 19 -17l300 -927c4 -12 -1 -18 -12 -18h-70c-13 0 -15 5 -19 16l-300 928c-4 11 1 18 12 18z" />
    <glyph glyph-name="bracketright" unicode="]" horiz-adv-x="453" 
d="M234 -221h-181c-8 0 -12 5 -12 14v68c0 9 4 14 12 14h143c16 0 24 9 24 27v871c0 18 -8 27 -24 27h-143c-8 0 -12 5 -12 14v68c0 10 4 14 12 14h181c56 0 81 -29 81 -91v-935c0 -62 -25 -91 -81 -91z" />
    <glyph glyph-name="asciicircum" unicode="^" horiz-adv-x="613" 
d="M276 700h60c29 0 45 -11 57 -45l170 -470c5 -14 -2 -25 -17 -25h-59c-13 0 -19 4 -22 13l-145 408c-2 6 -5 7 -11 7h-6c-6 0 -9 -1 -11 -7l-145 -408c-3 -9 -8 -13 -21 -13h-60c-14 0 -22 11 -17 25l170 470c12 34 29 45 57 45z" />
    <glyph glyph-name="underscore" unicode="_" horiz-adv-x="642" 
d="M24 -72h595c12 0 18 -6 18 -18v-60c0 -12 -6 -18 -18 -18h-595c-12 0 -18 6 -18 18v60c0 12 6 18 18 18z" />
    <glyph glyph-name="grave" unicode="`" horiz-adv-x="393" 
d="M100 816h88c15 0 24 -8 31 -23l91 -185c7 -14 0 -23 -16 -23h-75c-16 0 -23 8 -31 23l-103 185c-8 15 1 23 15 23z" />
    <glyph glyph-name="a" unicode="a" 
d="M75 549h432c180 0 238 -58 238 -203v-266c0 -65 -16 -80 -74 -80h-476c-118 0 -154 43 -154 142v48c0 84 36 131 154 131h407v19c0 64 -22 89 -109 89h-418c-12 0 -18 5 -18 18v84c0 12 6 18 18 18zM573 110c21 0 29 9 29 34v88h-366c-41 0 -56 -17 -56 -49v-21
c0 -36 15 -52 56 -52h337z" />
    <glyph glyph-name="b" unicode="b" horiz-adv-x="871" 
d="M83 750h98c15 0 22 -7 22 -22v-179h375c180 0 238 -58 238 -203v-144c0 -145 -58 -202 -238 -202h-280c-180 0 -238 57 -238 202v526c0 15 8 22 23 22zM564 429h-361v-199c0 -84 23 -110 109 -110h252c87 0 110 26 110 110v89c0 84 -23 110 -110 110z" />
    <glyph glyph-name="c" unicode="c" horiz-adv-x="729" 
d="M277 549h402c12 0 18 -6 18 -18v-84c0 -13 -6 -18 -18 -18h-388c-87 0 -109 -26 -109 -110v-89c0 -84 22 -110 109 -110h388c12 0 18 -6 18 -18v-84c0 -12 -6 -18 -18 -18h-402c-180 0 -238 57 -238 202v144c0 145 58 203 238 203z" />
    <glyph glyph-name="d" unicode="d" horiz-adv-x="871" 
d="M292 549h376v179c0 15 7 22 22 22h98c15 0 22 -7 22 -22v-526c0 -145 -58 -202 -238 -202h-280c-180 0 -238 57 -238 202v144c0 145 58 203 238 203zM558 120c87 0 110 26 110 110v199h-362c-86 0 -109 -26 -109 -110v-89c0 -84 23 -110 109 -110h252z" />
    <glyph glyph-name="e" unicode="e" 
d="M279 549h293c137 0 173 -43 173 -164v-95c0 -43 -18 -57 -57 -57h-505v-24c0 -63 23 -89 110 -89h417c12 0 18 -6 18 -18v-84c0 -12 -6 -18 -18 -18h-431c-180 0 -238 57 -238 202v144c0 145 58 203 238 203zM183 349v-27h405c12 0 17 4 17 17v42c0 41 -15 57 -61 57
h-251c-87 0 -110 -25 -110 -89z" />
    <glyph glyph-name="f" unicode="f" horiz-adv-x="490" 
d="M35 549h96v21c0 141 42 199 202 199h121c13 0 18 -6 18 -18v-82c0 -12 -5 -18 -18 -18h-97c-65 0 -84 -26 -84 -81v-21h175c13 0 18 -6 18 -18v-82c0 -12 -5 -18 -18 -18h-175v-409c0 -15 -7 -22 -22 -22h-98c-15 0 -22 7 -22 22v409h-96c-12 0 -18 6 -18 18v82
c0 12 6 18 18 18z" />
    <glyph glyph-name="g" unicode="g" horiz-adv-x="871" 
d="M292 549h280c181 0 238 -58 238 -202v-364c0 -146 -57 -204 -238 -204h-471c-12 0 -18 6 -18 18v84c0 12 6 18 18 18h457c87 0 110 26 110 111v26h-376c-180 0 -238 58 -238 204v105c0 146 58 204 238 204zM197 241c0 -68 23 -94 109 -94h362v187c0 71 -23 97 -110 97
h-252c-86 0 -109 -26 -109 -94v-96z" />
    <glyph glyph-name="h" unicode="h" horiz-adv-x="879" 
d="M86 750h98c15 0 22 -7 22 -22v-179h374c180 0 238 -58 238 -203v-324c0 -15 -7 -22 -22 -22h-98c-15 0 -22 7 -22 22v290c0 84 -17 110 -103 110h-367v-400c0 -15 -7 -22 -22 -22h-98c-15 0 -22 7 -22 22v706c0 15 7 22 22 22z" />
    <glyph glyph-name="i" unicode="i" horiz-adv-x="270" 
d="M86 549h98c15 0 22 -8 22 -23v-504c0 -15 -7 -22 -22 -22h-98c-15 0 -22 7 -22 22v504c0 15 7 23 22 23zM86 752h98c15 0 22 -7 22 -22v-95c0 -15 -7 -23 -22 -23h-98c-15 0 -23 8 -23 23v95c0 15 8 22 23 22z" />
    <glyph glyph-name="j" unicode="j" horiz-adv-x="282" 
d="M100 549h98c15 0 22 -8 22 -23v-546c0 -144 -54 -201 -228 -201h-79c-13 0 -18 6 -18 18v84c0 12 5 18 18 18h65c80 0 99 26 99 109v518c0 15 8 23 23 23zM100 752h98c15 0 22 -7 22 -22v-95c0 -15 -7 -23 -22 -23h-98c-15 0 -23 8 -23 23v95c0 15 8 22 23 22z" />
    <glyph glyph-name="k" unicode="k" horiz-adv-x="794" 
d="M85 750h98c15 0 22 -7 22 -22v-396h184c57 0 73 5 99 42l112 158c8 12 15 17 30 17h113c15 0 19 -14 10 -27l-129 -177c-20 -27 -40 -48 -62 -64c28 -16 51 -37 71 -64l142 -192c8 -11 3 -25 -12 -25h-112c-17 0 -23 3 -31 14l-122 168c-24 32 -45 42 -100 42h-193v-202
c0 -15 -7 -22 -22 -22h-98c-15 0 -23 7 -23 22v706c0 15 8 22 23 22z" />
    <glyph glyph-name="l" unicode="l" horiz-adv-x="270" 
d="M86 750h98c15 0 22 -7 22 -22v-706c0 -15 -7 -22 -22 -22h-98c-15 0 -22 7 -22 22v706c0 15 7 22 22 22z" />
    <glyph glyph-name="m" unicode="m" horiz-adv-x="1107" 
d="M298 549h511c180 0 237 -58 237 -203v-324c0 -15 -7 -22 -22 -22h-98c-15 0 -22 7 -22 22v290c0 84 -16 110 -103 110h-176v-400c0 -15 -8 -22 -23 -22h-98c-15 0 -22 7 -22 22v400h-170c-86 0 -109 -26 -109 -110v-290c0 -15 -7 -22 -22 -22h-98c-15 0 -23 7 -23 22v324
c0 145 58 203 238 203z" />
    <glyph glyph-name="n" unicode="n" horiz-adv-x="884" 
d="M298 549h287c180 0 238 -58 238 -203v-324c0 -15 -7 -22 -22 -22h-98c-15 0 -22 7 -22 22v290c0 84 -17 110 -103 110h-266c-86 0 -109 -26 -109 -110v-290c0 -15 -7 -22 -22 -22h-98c-15 0 -23 7 -23 22v324c0 145 58 203 238 203z" />
    <glyph glyph-name="o" unicode="o" horiz-adv-x="868" 
d="M292 549h283c180 0 238 -58 238 -203v-144c0 -145 -58 -202 -238 -202h-283c-180 0 -238 57 -238 202v144c0 145 58 203 238 203zM197 322v-95c0 -84 23 -110 109 -110h255c87 0 110 26 110 110v95c0 84 -23 109 -110 109h-255c-86 0 -109 -25 -109 -109z" />
    <glyph glyph-name="p" unicode="p" horiz-adv-x="871" 
d="M298 549h280c180 0 238 -58 238 -203v-144c0 -145 -58 -202 -238 -202h-375v-199c0 -15 -7 -22 -22 -22h-98c-15 0 -23 7 -23 22v545c0 145 58 203 238 203zM203 319v-199h361c87 0 110 25 110 110v89c0 84 -23 110 -110 110h-252c-86 0 -109 -26 -109 -110z" />
    <glyph glyph-name="q" unicode="q" horiz-adv-x="871" 
d="M292 549h280c180 0 238 -58 238 -203v-545c0 -15 -7 -22 -22 -22h-98c-15 0 -22 7 -22 22v199h-376c-180 0 -238 57 -238 202v144c0 145 58 203 238 203zM197 230c0 -85 23 -110 109 -110h362v199c0 84 -23 110 -110 110h-252c-86 0 -109 -26 -109 -110v-89z" />
    <glyph glyph-name="r" unicode="r" horiz-adv-x="613" 
d="M298 549h280c12 0 18 -6 18 -18v-84c0 -13 -6 -18 -18 -18h-266c-86 0 -109 -26 -109 -110v-297c0 -15 -7 -22 -22 -22h-98c-15 0 -23 7 -23 22v324c0 145 58 203 238 203z" />
    <glyph glyph-name="s" unicode="s" horiz-adv-x="783" 
d="M208 549h488c12 0 18 -6 18 -18v-80c0 -12 -6 -18 -18 -18h-451c-41 0 -55 -16 -55 -45v-15c0 -27 14 -43 55 -43h337c112 0 156 -48 156 -134v-56c0 -88 -39 -140 -157 -140h-512c-12 0 -18 6 -18 18v80c0 12 6 18 18 18h474c41 0 56 14 56 48v27c0 26 -15 42 -56 42
h-336c-112 0 -156 47 -156 135v44c0 83 39 137 157 137z" />
    <glyph glyph-name="t" unicode="t" horiz-adv-x="490" 
d="M35 549h95v132c0 15 8 22 22 22h99c14 0 22 -7 22 -22v-132h175c13 0 18 -6 18 -18v-82c0 -12 -5 -18 -18 -18h-175v-232c0 -55 18 -81 84 -81h97c13 0 18 -6 18 -18v-82c0 -12 -5 -18 -18 -18h-121c-160 0 -203 57 -203 199v232h-95c-12 0 -18 6 -18 18v82
c0 12 6 18 18 18z" />
    <glyph glyph-name="u" unicode="u" horiz-adv-x="876" 
d="M83 549h98c15 0 22 -8 22 -23v-289c0 -84 16 -110 103 -110h257c87 0 110 26 110 110v289c0 15 7 23 22 23h98c15 0 22 -8 22 -23v-324c0 -145 -58 -202 -238 -202h-279c-180 0 -238 57 -238 202v324c0 15 8 23 23 23z" />
    <glyph glyph-name="v" unicode="v" horiz-adv-x="830" 
d="M30 549h115c12 0 19 -4 24 -14l235 -413c3 -5 6 -6 11 -6h4c5 0 8 1 11 6l236 413c5 9 11 14 24 14h111c14 0 20 -12 13 -25l-274 -479c-19 -33 -39 -45 -84 -45h-82c-44 0 -64 12 -83 45l-274 479c-7 13 -1 25 13 25z" />
    <glyph glyph-name="w" unicode="w" horiz-adv-x="1165" 
d="M35 549h113c13 0 20 -6 23 -16l129 -411c2 -5 5 -7 10 -7h4c6 0 9 2 10 7l135 379c13 36 28 48 64 48h119c36 0 51 -12 64 -48l134 -379c1 -5 4 -7 10 -7h4c5 0 8 2 10 7l130 411c2 10 9 16 23 16h113c17 0 21 -10 17 -24l-152 -463c-16 -50 -35 -62 -77 -62h-126
c-35 0 -50 15 -67 62l-132 365c-1 4 -4 6 -9 6h-6c-5 0 -8 -2 -9 -6l-131 -365c-17 -47 -32 -62 -67 -62h-126c-42 0 -61 12 -77 62l-150 463c-4 14 -1 24 17 24z" />
    <glyph glyph-name="x" unicode="x" horiz-adv-x="791" 
d="M55 549h127c14 0 21 -4 29 -12l197 -180l202 180c7 8 14 12 28 12h113c19 0 21 -17 11 -27l-267 -245l275 -251c9 -10 7 -26 -11 -26h-127c-15 0 -22 4 -29 11l-212 194l-218 -194c-7 -7 -14 -11 -28 -11h-113c-19 0 -21 16 -11 26l282 259l-258 237c-10 10 -8 27 10 27z
" />
    <glyph glyph-name="y" unicode="y" horiz-adv-x="808" 
d="M674 549h112c14 0 20 -12 13 -25l-384 -677c-26 -46 -72 -68 -158 -68h-70c-12 0 -18 6 -18 18v82c0 12 6 18 18 18h59c27 0 42 7 51 23l54 95c-33 3 -48 15 -64 43l-270 466c-7 13 -1 25 13 25h115c12 0 19 -4 24 -14l222 -385c11 -18 15 -23 24 -23l235 408
c5 10 12 14 24 14z" />
    <glyph glyph-name="z" unicode="z" horiz-adv-x="733" 
d="M67 549h553c48 0 69 -20 69 -63v-74c0 -42 -9 -55 -45 -71l-444 -195c-7 -3 -8 -7 -8 -14v-7c0 -5 3 -7 9 -7h465c12 0 18 -6 18 -18v-82c0 -12 -6 -18 -18 -18h-553c-48 0 -69 20 -69 62v74c0 42 9 56 45 72l444 195c6 2 8 6 8 13v7c0 5 -3 8 -9 8h-465
c-12 0 -18 6 -18 18v82c0 12 6 18 18 18z" />
    <glyph glyph-name="braceleft" unicode="{" horiz-adv-x="453" 
d="M333 896h67c8 0 12 -5 12 -14v-68c0 -9 -4 -14 -12 -14h-63c-55 0 -75 -23 -75 -85v-273c0 -45 -18 -82 -46 -106c28 -24 46 -60 46 -105v-271c0 -62 20 -85 75 -85h63c8 0 12 -5 12 -14v-68c0 -10 -4 -14 -12 -14h-67c-116 0 -166 53 -166 181v273c0 35 -11 55 -51 55
h-45c-12 0 -18 6 -18 18v61c0 12 6 18 18 18h45c40 0 51 20 51 54v276c0 128 50 181 166 181z" />
    <glyph glyph-name="bar" unicode="|" horiz-adv-x="423" 
d="M181 815h60c12 0 18 -6 18 -18v-925c0 -12 -6 -18 -18 -18h-60c-12 0 -18 6 -18 18v925c0 12 6 18 18 18z" />
    <glyph glyph-name="braceright" unicode="}" horiz-adv-x="453" 
d="M120 -221h-67c-8 0 -12 5 -12 14v68c0 9 4 14 12 14h63c55 0 75 23 75 85v273c0 45 18 82 46 106c-28 24 -46 60 -46 105v271c0 62 -20 85 -75 85h-63c-8 0 -12 5 -12 14v68c0 10 4 14 12 14h67c116 0 166 -53 166 -181v-273c0 -35 11 -55 51 -55h45c12 0 18 -6 18 -18
v-61c0 -12 -6 -18 -18 -18h-45c-40 0 -51 -20 -51 -54v-276c0 -128 -50 -181 -166 -181z" />
    <glyph glyph-name="asciitilde" unicode="~" horiz-adv-x="613" 
d="M42 323v59c0 16 7 25 17 34c24 20 69 35 113 35c63 0 110 -24 149 -46c30 -17 66 -31 111 -31c31 0 54 8 86 36c14 12 21 18 34 18c12 0 19 -5 19 -18v-58c0 -17 -7 -26 -18 -35c-24 -19 -69 -34 -113 -34c-62 0 -109 23 -148 45c-31 17 -66 31 -111 31
c-31 0 -54 -7 -87 -36c-14 -12 -20 -18 -33 -18s-19 6 -19 18z" />
    <glyph glyph-name="nbspace" unicode="&#xa0;" horiz-adv-x="335" 
 />
    <glyph glyph-name="exclamdown" unicode="&#xa1;" horiz-adv-x="266" 
d="M189 -220h-112c-15 0 -23 8 -23 23l28 450c1 15 7 22 22 22h58c15 0 21 -7 22 -22l28 -450c0 -15 -8 -23 -23 -23zM182 375h-98c-15 0 -22 7 -22 22v96c0 15 7 22 22 22h98c15 0 23 -7 23 -22v-96c0 -15 -8 -22 -23 -22z" />
    <glyph glyph-name="cent" unicode="&#xa2;" horiz-adv-x="816" 
d="M418 760h45c13 0 18 -6 18 -18v-75h225c12 0 18 -7 18 -20v-93c0 -14 -6 -20 -18 -20h-225v-363h225c12 0 18 -6 18 -20v-93c0 -13 -6 -20 -18 -20h-225v-80c0 -12 -5 -18 -18 -18h-45c-12 0 -18 6 -18 18v80h-108c-184 0 -242 62 -242 219v191c0 157 58 219 242 219h108
v75c0 12 6 18 18 18zM196 287c0 -89 22 -116 111 -116h93v363h-93c-89 0 -111 -27 -111 -116v-131z" />
    <glyph glyph-name="sterling" unicode="&#xa3;" horiz-adv-x="664" 
d="M46 396h97v101c0 146 51 203 192 203h264c15 0 22 -7 22 -22v-89c0 -15 -7 -22 -22 -22h-233c-58 0 -76 -22 -76 -83v-88h219c12 0 18 -6 18 -18v-46c0 -12 -6 -18 -18 -18h-219v-181h321c15 0 22 -7 22 -22v-89c0 -15 -7 -22 -22 -22h-565c-15 0 -23 7 -23 22v89
c0 15 8 22 23 22h97v181h-97c-12 0 -18 6 -18 18v46c0 12 6 18 18 18z" />
    <glyph glyph-name="currency" unicode="&#xa4;" horiz-adv-x="744" 
d="M76 604l42 41c9 9 17 9 26 0l55 -56c16 4 36 6 59 6h226c23 0 43 -2 60 -6l56 56c9 9 17 9 26 0l42 -41c8 -9 8 -18 0 -26l-56 -56c3 -12 4 -26 4 -41v-264c0 -15 -1 -29 -4 -41l56 -55c8 -8 8 -16 0 -25l-42 -42c-9 -8 -17 -8 -25 0l-56 55c-17 -4 -37 -6 -61 -6h-226
c-24 0 -43 1 -60 5l-54 -54c-9 -8 -17 -8 -26 0l-42 42c-8 9 -8 17 0 25l54 55c-2 12 -3 25 -3 41v264c0 16 1 30 3 42l-54 55c-8 8 -8 17 0 26zM220 452v-205c0 -46 10 -58 54 -58h195c43 0 54 12 54 58v205c0 44 -11 57 -54 57h-195c-44 0 -54 -13 -54 -57z" />
    <glyph glyph-name="yen" unicode="&#xa5;" horiz-adv-x="771" 
d="M110 381h150l-219 299c-6 9 -2 20 8 20h126c10 0 16 -3 22 -12l188 -262l190 262c6 9 11 12 22 12h122c10 0 15 -10 8 -20l-220 -299h153c12 0 18 -6 18 -18v-46c0 -12 -6 -18 -18 -18h-203v-101h203c12 0 18 -6 18 -18v-45c0 -12 -6 -18 -18 -18h-203v-95
c0 -15 -7 -22 -21 -22h-106c-13 0 -20 7 -20 22v95h-200c-12 0 -18 6 -18 18v45c0 12 6 18 18 18h200v101h-200c-12 0 -18 6 -18 18v46c0 12 6 18 18 18z" />
    <glyph glyph-name="brokenbar" unicode="&#xa6;" horiz-adv-x="423" 
d="M181 815h60c12 0 18 -6 18 -18v-385c0 -12 -6 -18 -18 -18h-60c-12 0 -18 6 -18 18v385c0 12 6 18 18 18zM181 275h60c12 0 18 -6 18 -18v-385c0 -12 -6 -18 -18 -18h-60c-12 0 -18 6 -18 18v385c0 12 6 18 18 18z" />
    <glyph glyph-name="section" unicode="&#xa7;" horiz-adv-x="733" 
d="M113 751h553c12 0 18 -6 18 -18v-82c0 -12 -6 -18 -18 -18h-466c-5 0 -8 -3 -8 -8v-7c0 -7 1 -11 8 -13l444 -193c37 -13 45 -30 45 -72v-74c0 -42 -22 -62 -70 -62h-417c-6 0 -9 -2 -9 -7v-7c0 -7 2 -12 8 -14l444 -189c37 -13 45 -30 45 -72v-74c0 -42 -21 -62 -69 -62
h-553c-12 0 -18 6 -18 18v82c0 12 6 18 18 18h465c6 0 9 2 9 7v7c0 7 -2 11 -8 14l-444 189c-37 13 -45 30 -45 72v74c0 42 21 62 69 62h418c6 0 9 2 9 7v7c0 7 -2 11 -8 14l-445 193c-36 13 -44 29 -44 71v74c0 43 21 63 69 63z" />
    <glyph glyph-name="dieresis" unicode="&#xa8;" horiz-adv-x="547" 
d="M364 752h98c15 0 22 -7 22 -22v-95c0 -15 -7 -23 -22 -23h-98c-15 0 -22 8 -22 23v95c0 15 7 22 22 22zM85 752h98c15 0 22 -7 22 -22v-95c0 -15 -7 -23 -22 -23h-98c-15 0 -23 8 -23 23v95c0 15 8 22 23 22z" />
    <glyph glyph-name="copyright" unicode="&#xa9;" horiz-adv-x="985" 
d="M338 700h309c203 0 280 -72 280 -264v-172c0 -192 -77 -264 -280 -264h-309c-202 0 -280 72 -280 264v172c0 192 78 264 280 264zM133 436v-172c0 -137 57 -190 205 -190h309c148 0 205 53 205 190v172c0 137 -57 189 -205 189h-309c-148 0 -205 -52 -205 -189zM427 536
h233c8 0 11 -3 11 -11v-50c0 -8 -3 -12 -11 -12h-230c-53 0 -68 -16 -68 -70v-73c0 -55 15 -71 68 -71h230c8 0 11 -3 11 -11v-51c0 -7 -3 -11 -11 -11h-233c-104 0 -144 37 -144 136v88c0 99 40 136 144 136z" />
    <glyph glyph-name="ordfeminine" unicode="&#xaa;" horiz-adv-x="468" 
d="M59 700h237c99 0 131 -32 131 -114v-231c0 -37 -9 -45 -40 -45h-262c-66 0 -85 24 -85 80v76c0 47 19 73 85 73h214v29c0 36 -12 50 -57 50h-223c-6 0 -10 3 -10 10v62c0 7 4 10 10 10zM325 387c10 0 14 4 14 17v70h-185c-21 0 -27 -9 -27 -26v-33c0 -19 6 -28 27 -28
h171z" />
    <glyph glyph-name="guillemotleft" unicode="&#xab;" horiz-adv-x="535" 
d="M409 549h76c15 0 21 -10 15 -21l-111 -227c-4 -8 -6 -15 -6 -23v-7c0 -9 2 -16 6 -23l111 -227c6 -11 0 -21 -15 -21h-76c-13 0 -22 6 -27 17l-99 205c-9 19 -12 28 -12 49v7c0 20 3 30 12 49l99 205c5 11 14 17 27 17zM170 549h76c15 0 21 -10 15 -21l-111 -227
c-4 -8 -6 -15 -6 -23v-7c0 -9 2 -16 6 -23l111 -227c6 -11 0 -21 -15 -21h-76c-13 0 -22 6 -27 17l-99 205c-9 19 -12 28 -12 49v7c0 20 3 30 12 49l99 205c5 11 14 17 27 17z" />
    <glyph glyph-name="logicalnot" unicode="&#xac;" horiz-adv-x="613" 
d="M60 550h490c14 0 21 -7 21 -21v-511c0 -12 -6 -18 -18 -18h-60c-12 0 -18 6 -18 18v437h-415c-12 0 -18 5 -18 18v59c0 12 6 18 18 18z" />
    <glyph glyph-name="uni00AD" unicode="&#xad;" horiz-adv-x="382" 
d="M40 398h301c12 0 18 -6 18 -18v-72c0 -12 -6 -18 -18 -18h-301c-12 0 -18 6 -18 18v72c0 12 6 18 18 18z" />
    <glyph glyph-name="registered" unicode="&#xae;" horiz-adv-x="985" 
d="M338 700h309c203 0 280 -72 280 -264v-172c0 -192 -77 -264 -280 -264h-309c-202 0 -280 72 -280 264v172c0 192 78 264 280 264zM133 436v-172c0 -137 57 -190 205 -190h309c148 0 205 53 205 190v172c0 137 -57 189 -205 189h-309c-148 0 -205 -52 -205 -189zM308 536
h277c79 0 111 -36 111 -106v-29c0 -59 -23 -93 -77 -103l88 -109c3 -4 3 -13 -6 -13h-67c-9 0 -11 2 -14 7l-82 107h-166v-103c0 -7 -4 -11 -11 -11h-56c-8 0 -12 4 -12 11v334c0 10 5 15 15 15zM372 460v-107h197c35 0 48 15 48 45v22c0 31 -13 46 -48 46h-190
c-5 0 -7 -2 -7 -6z" />
    <glyph glyph-name="macron" unicode="&#xaf;" horiz-adv-x="639" 
d="M85 734h469c15 0 22 -7 22 -22v-58c0 -15 -7 -22 -22 -22h-469c-15 0 -23 7 -23 22v58c0 15 8 22 23 22z" />
    <glyph glyph-name="degree" unicode="&#xb0;" horiz-adv-x="519" 
d="M198 700h121c106 0 146 -38 146 -138v-89c0 -100 -40 -138 -146 -138h-121c-105 0 -145 38 -145 138v89c0 100 40 138 145 138zM146 545v-55c0 -53 15 -69 66 -69h93c52 0 66 16 66 69v55c0 53 -14 68 -66 68h-93c-51 0 -66 -15 -66 -68z" />
    <glyph glyph-name="plusminus" unicode="&#xb1;" horiz-adv-x="613" 
d="M276 670h60c12 0 18 -6 18 -18v-198h199c12 0 18 -6 18 -18v-60c0 -12 -6 -18 -18 -18h-199v-199c0 -12 -6 -18 -18 -18h-60c-12 0 -18 6 -18 18v199h-198c-12 0 -18 6 -18 18v60c0 12 6 18 18 18h198v198c0 12 6 18 18 18zM60 96h493c12 0 18 -6 18 -18v-60
c0 -12 -6 -18 -18 -18h-493c-12 0 -18 6 -18 18v60c0 12 6 18 18 18z" />
    <glyph glyph-name="twosuperior" unicode="&#xb2;" horiz-adv-x="510" 
d="M75 700h290c67 0 98 -36 98 -90v-41c0 -60 -34 -95 -97 -95h-204c-19 0 -26 -11 -26 -30v-40c0 -6 2 -9 9 -9h304c9 0 13 -4 13 -12v-56c0 -8 -4 -12 -13 -12h-351c-36 0 -50 14 -50 46v87c0 61 33 96 96 96h205c18 0 25 10 25 30v17c0 18 -7 29 -26 29h-273
c-9 0 -13 4 -13 12v56c0 8 4 12 13 12z" />
    <glyph glyph-name="threesuperior" unicode="&#xb3;" horiz-adv-x="499" 
d="M57 700h289c73 0 100 -29 100 -91v-26c0 -29 -11 -53 -30 -69c22 -17 33 -41 33 -72v-32c0 -59 -23 -95 -92 -95h-300c-8 0 -12 4 -12 12v56c0 8 4 12 12 12h270c27 0 33 10 33 31v14c0 23 -6 35 -33 35h-266c-9 0 -13 3 -13 12v46c0 8 4 12 13 12h266c26 0 33 11 33 31
v13c0 21 -7 31 -33 31h-270c-8 0 -12 4 -12 12v56c0 8 4 12 12 12z" />
    <glyph glyph-name="acute" unicode="&#xb4;" horiz-adv-x="393" 
d="M204 816h88c14 0 23 -8 15 -23l-103 -185c-8 -15 -15 -23 -30 -23h-76c-15 0 -23 9 -16 23l91 185c7 15 16 23 31 23z" />
    <glyph glyph-name="paragraph" unicode="&#xb6;" horiz-adv-x="803" 
d="M259 750h162c59 0 89 -28 89 -85v-867c0 -13 -7 -19 -20 -19h-83c-12 0 -18 6 -18 19v481h-130c-150 0 -199 49 -199 174v124c0 125 49 173 199 173zM639 750h82c13 0 19 -6 19 -19v-933c0 -13 -6 -19 -19 -19h-82c-13 0 -19 6 -19 19v933c0 13 6 19 19 19zM181 475
c0 -73 18 -95 90 -95h118v232c0 25 -11 37 -34 37h-84c-72 0 -90 -22 -90 -95v-79z" />
    <glyph glyph-name="periodcentered" unicode="&#xb7;" horiz-adv-x="267" 
d="M85 421h98c15 0 22 -7 22 -22v-96c0 -15 -7 -22 -22 -22h-98c-15 0 -23 7 -23 22v96c0 15 8 22 23 22z" />
    <glyph glyph-name="cedilla" unicode="&#xb8;" horiz-adv-x="316" 
d="M141 -41h90c16 0 23 -9 19 -26l-44 -182c-4 -15 -11 -23 -25 -23h-57c-16 0 -24 9 -23 23l16 185c1 15 10 23 24 23z" />
    <glyph glyph-name="onesuperior" unicode="&#xb9;" horiz-adv-x="243" 
d="M42 700h85c42 0 59 -17 59 -54v-319c0 -8 -5 -12 -14 -12h-62c-9 0 -12 4 -12 12v276c0 12 -6 17 -17 17h-39c-8 0 -12 4 -12 12v56c0 8 4 12 12 12z" />
    <glyph glyph-name="ordmasculine" unicode="&#xba;" horiz-adv-x="512" 
d="M178 700h156c98 0 131 -32 131 -114v-162c0 -82 -33 -114 -131 -114h-156c-99 0 -130 32 -130 114v162c0 82 31 114 130 114zM136 559v-107c0 -47 11 -61 57 -61h126c45 0 57 14 57 61v107c0 46 -12 60 -57 60h-126c-46 0 -57 -14 -57 -60z" />
    <glyph glyph-name="guillemotright" unicode="&#xbb;" horiz-adv-x="535" 
d="M289 549h76c13 0 21 -6 27 -17l99 -205c9 -19 12 -29 12 -49v-7c0 -21 -3 -30 -12 -49l-99 -205c-6 -11 -14 -17 -27 -17h-76c-15 0 -21 10 -15 21l111 227c4 7 5 14 5 23v7c0 8 -1 15 -5 23l-111 227c-6 11 0 21 15 21zM50 549h76c13 0 21 -6 27 -17l99 -205
c9 -19 12 -29 12 -49v-7c0 -21 -3 -30 -12 -49l-99 -205c-6 -11 -14 -17 -27 -17h-76c-15 0 -21 10 -15 21l111 227c4 7 5 14 5 23v7c0 8 -1 15 -5 23l-111 227c-6 11 0 21 15 21z" />
    <glyph glyph-name="onequarter" unicode="&#xbc;" horiz-adv-x="940" 
d="M642 700h62c11 0 13 -10 7 -18l-540 -672c-6 -7 -12 -10 -27 -10h-61c-11 0 -14 10 -8 18l540 672c6 7 12 10 27 10zM104 700h85c42 0 59 -17 59 -54v-319c0 -8 -5 -12 -14 -12h-62c-9 0 -12 4 -12 12v276c0 12 -6 17 -17 17h-39c-8 0 -12 4 -12 12v56c0 8 4 12 12 12z
M442 201l236 166c20 14 33 18 60 18h36c34 0 51 -12 51 -59v-181h44c8 0 12 -4 12 -12v-51c0 -8 -4 -13 -12 -13h-44v-57c0 -8 -5 -12 -14 -12h-62c-9 0 -12 4 -12 12v57h-280c-27 0 -39 16 -39 36v46c0 18 3 36 24 50zM515 150c0 -3 2 -5 5 -5h217v154c0 5 -3 7 -6 7h-4
c-5 0 -9 -1 -15 -5l-192 -136c-4 -2 -5 -5 -5 -10v-5z" />
    <glyph glyph-name="onehalf" unicode="&#xbd;" horiz-adv-x="1000" 
d="M642 700h62c11 0 13 -10 7 -18l-540 -672c-6 -7 -12 -10 -27 -10h-61c-11 0 -14 10 -8 18l540 672c6 7 12 10 27 10zM104 700h85c42 0 59 -17 59 -54v-319c0 -8 -5 -12 -14 -12h-62c-9 0 -12 4 -12 12v276c0 12 -6 17 -17 17h-39c-8 0 -12 4 -12 12v56c0 8 4 12 12 12z
M554 385h290c67 0 98 -36 98 -90v-41c0 -60 -34 -95 -97 -95h-204c-19 0 -26 -11 -26 -30v-40c0 -6 2 -9 9 -9h304c9 0 13 -4 13 -12v-56c0 -8 -4 -12 -13 -12h-351c-36 0 -50 14 -50 46v87c0 61 33 96 96 96h205c18 0 25 10 25 30v17c0 18 -7 29 -26 29h-273
c-9 0 -13 4 -13 12v56c0 8 4 12 13 12z" />
    <glyph glyph-name="threequarters" unicode="&#xbe;" horiz-adv-x="1147" 
d="M849 700h62c11 0 13 -10 7 -18l-540 -672c-6 -7 -12 -10 -27 -10h-61c-11 0 -14 10 -8 18l540 672c6 7 12 10 27 10zM649 201l236 166c20 14 33 18 60 18h36c34 0 51 -12 51 -59v-181h44c8 0 12 -4 12 -12v-51c0 -8 -4 -13 -12 -13h-44v-57c0 -8 -5 -12 -14 -12h-62
c-9 0 -12 4 -12 12v57h-280c-27 0 -39 16 -39 36v46c0 18 3 36 24 50zM722 150c0 -3 2 -5 5 -5h217v154c0 5 -3 7 -6 7h-4c-5 0 -9 -1 -15 -5l-192 -136c-4 -2 -5 -5 -5 -10v-5zM71 700h289c73 0 100 -29 100 -91v-26c0 -29 -11 -53 -30 -69c22 -17 33 -41 33 -72v-32
c0 -59 -23 -95 -92 -95h-300c-8 0 -12 4 -12 12v56c0 8 4 12 12 12h270c27 0 33 10 33 31v14c0 23 -6 35 -33 35h-266c-9 0 -13 3 -13 12v46c0 8 4 12 13 12h266c26 0 33 11 33 31v13c0 21 -7 31 -33 31h-270c-8 0 -12 4 -12 12v56c0 8 4 12 12 12z" />
    <glyph glyph-name="questiondown" unicode="&#xbf;" horiz-adv-x="631" 
d="M419 375h-98c-15 0 -23 7 -23 22v96c0 15 8 22 23 22h98c15 0 22 -7 22 -22v-96c0 -15 -7 -22 -22 -22zM578 -220h-411c-94 0 -136 47 -136 135v42c0 81 23 115 92 148l165 79c20 9 25 23 27 41l3 25c2 20 8 25 30 25h44c21 0 28 -8 28 -25l1 -49c0 -35 -6 -66 -44 -86
l-170 -88c-22 -11 -31 -26 -31 -53v-26c0 -28 13 -42 43 -42h359c15 0 22 -8 22 -22v-82c0 -15 -7 -22 -22 -22z" />
    <glyph glyph-name="Agrave" unicode="&#xc0;" horiz-adv-x="975" 
d="M451 700h59c51 0 82 -16 115 -76l331 -601c7 -13 4 -23 -12 -23h-127c-13 0 -18 3 -23 13l-71 129h-470l-69 -129c-5 -10 -11 -13 -23 -13h-130c-17 0 -20 10 -13 23l328 601c33 60 63 76 105 76zM473 551l-157 -293h344l-159 293c-3 5 -6 7 -11 7h-6c-5 0 -8 -2 -11 -7z
M360 916h89c15 0 24 -7 31 -19l90 -147c7 -12 0 -19 -16 -19h-76c-15 0 -22 6 -30 19l-102 147c-9 12 1 19 14 19z" />
    <glyph glyph-name="Aacute" unicode="&#xc1;" horiz-adv-x="975" 
d="M451 700h59c51 0 82 -16 115 -76l331 -601c7 -13 4 -23 -12 -23h-127c-13 0 -18 3 -23 13l-71 129h-470l-69 -129c-5 -10 -11 -13 -23 -13h-130c-17 0 -20 10 -13 23l328 601c33 60 63 76 105 76zM473 551l-157 -293h344l-159 293c-3 5 -6 7 -11 7h-6c-5 0 -8 -2 -11 -7z
M525 916h89c14 0 23 -7 14 -19l-102 -147c-8 -13 -15 -19 -30 -19h-76c-15 0 -23 7 -15 19l89 147c7 12 16 19 31 19z" />
    <glyph glyph-name="Acircumflex" unicode="&#xc2;" horiz-adv-x="975" 
d="M451 700h59c51 0 82 -16 115 -76l331 -601c7 -13 4 -23 -12 -23h-127c-13 0 -18 3 -23 13l-71 129h-470l-69 -129c-5 -10 -11 -13 -23 -13h-130c-17 0 -20 10 -13 23l328 601c33 60 63 76 105 76zM473 551l-157 -293h344l-159 293c-3 5 -6 7 -11 7h-6c-5 0 -8 -2 -11 -7z
M443 916h89c22 0 33 -7 44 -22l105 -142c9 -12 1 -21 -12 -21h-78c-15 0 -23 5 -31 18l-57 86c-3 6 -7 8 -13 8h-4c-7 0 -10 -2 -13 -8l-58 -86c-7 -13 -15 -18 -31 -18h-77c-14 0 -22 9 -13 21l106 142c10 15 21 22 43 22z" />
    <glyph glyph-name="Atilde" unicode="&#xc3;" horiz-adv-x="975" 
d="M451 700h59c51 0 82 -16 115 -76l331 -601c7 -13 4 -23 -12 -23h-127c-13 0 -18 3 -23 13l-71 129h-470l-69 -129c-5 -10 -11 -13 -23 -13h-130c-17 0 -20 10 -13 23l328 601c33 60 63 76 105 76zM473 551l-157 -293h344l-159 293c-3 5 -6 7 -11 7h-6c-5 0 -8 -2 -11 -7z
M304 743h-56c-16 0 -18 8 -18 29c0 109 36 140 125 140c72 0 120 -20 165 -56c22 -19 38 -31 76 -31c40 0 45 15 46 69c1 16 11 22 27 22h57c15 0 18 -8 18 -29c0 -109 -37 -140 -126 -140c-71 0 -119 20 -164 56c-23 19 -38 31 -77 31s-45 -15 -45 -69
c-1 -16 -11 -22 -28 -22z" />
    <glyph glyph-name="Adieresis" unicode="&#xc4;" horiz-adv-x="975" 
d="M451 700h59c51 0 82 -16 115 -76l331 -601c7 -13 4 -23 -12 -23h-127c-13 0 -18 3 -23 13l-71 129h-470l-69 -129c-5 -10 -11 -13 -23 -13h-130c-17 0 -20 10 -13 23l328 601c33 60 63 76 105 76zM473 551l-157 -293h344l-159 293c-3 5 -6 7 -11 7h-6c-5 0 -8 -2 -11 -7z
M299 885h98c15 0 22 -6 22 -18v-95c0 -12 -7 -18 -22 -18h-98c-15 0 -22 6 -22 18v95c0 12 7 18 22 18zM578 885h98c15 0 23 -6 23 -18v-95c0 -12 -8 -18 -23 -18h-98c-15 0 -22 6 -22 18v95c0 12 7 18 22 18z" />
    <glyph glyph-name="Aring" unicode="&#xc5;" horiz-adv-x="975" 
d="M451 700h59c51 0 82 -16 115 -76l331 -601c7 -13 4 -23 -12 -23h-127c-13 0 -18 3 -23 13l-71 129h-470l-69 -129c-5 -10 -11 -13 -23 -13h-130c-17 0 -20 10 -13 23l328 601c33 60 63 76 105 76zM473 551l-157 -293h344l-159 293c-3 5 -6 7 -11 7h-6c-5 0 -8 -2 -11 -7z
M438 916h97c75 0 103 -22 103 -78v-50c0 -56 -28 -78 -103 -78h-97c-74 0 -102 22 -102 78v50c0 56 28 78 102 78zM409 827v-29c0 -26 9 -34 43 -34h70c34 0 43 8 43 34v29c0 27 -9 35 -43 35h-70c-34 0 -43 -8 -43 -35z" />
    <glyph glyph-name="AE" unicode="&#xc6;" horiz-adv-x="1350" 
d="M451 700h827c14 0 22 -7 22 -22v-95c0 -15 -8 -22 -22 -22h-523v-147h517c15 0 22 -7 22 -22v-78c0 -15 -7 -23 -22 -23h-517v-16c0 -105 30 -136 133 -136h390c14 0 22 -7 22 -22v-95c0 -15 -8 -22 -22 -22h-392c-153 0 -234 40 -265 142h-368l-69 -129
c-5 -10 -11 -13 -23 -13h-130c-17 0 -20 10 -13 23l328 601c32 61 63 76 105 76zM474 554l-159 -296h291v303h-120c-5 0 -8 -2 -12 -7z" />
    <glyph glyph-name="Ccedilla" unicode="&#xc7;" horiz-adv-x="852" 
d="M338 700h451c15 0 22 -7 22 -22v-98c0 -15 -7 -23 -22 -23h-445c-103 0 -133 -30 -133 -136v-142c0 -106 30 -137 133 -137h445c15 0 22 -7 22 -22v-98c0 -15 -7 -22 -22 -22h-451c-202 0 -280 72 -280 264v172c0 192 78 264 280 264zM423 -41h90c16 0 23 -9 19 -26
l-44 -182c-4 -15 -11 -23 -25 -23h-57c-16 0 -24 9 -23 23l16 185c1 15 10 23 24 23z" />
    <glyph glyph-name="Egrave" unicode="&#xc8;" horiz-adv-x="850" 
d="M338 700h440c15 0 23 -7 23 -22v-95c0 -15 -8 -22 -23 -22h-437c-104 0 -133 -31 -133 -136v-10h565c15 0 22 -7 22 -22v-79c0 -15 -7 -22 -22 -22h-565v-17c0 -105 29 -136 133 -136h437c15 0 23 -7 23 -22v-95c0 -15 -8 -22 -23 -22h-440c-202 0 -280 72 -280 264v172
c0 192 78 264 280 264zM339 916h89c15 0 24 -7 31 -19l90 -147c7 -12 0 -19 -16 -19h-76c-15 0 -22 6 -30 19l-102 147c-9 12 1 19 14 19z" />
    <glyph glyph-name="Eacute" unicode="&#xc9;" horiz-adv-x="850" 
d="M338 700h440c15 0 23 -7 23 -22v-95c0 -15 -8 -22 -23 -22h-437c-104 0 -133 -31 -133 -136v-10h565c15 0 22 -7 22 -22v-79c0 -15 -7 -22 -22 -22h-565v-17c0 -105 29 -136 133 -136h437c15 0 23 -7 23 -22v-95c0 -15 -8 -22 -23 -22h-440c-202 0 -280 72 -280 264v172
c0 192 78 264 280 264zM504 916h89c14 0 23 -7 14 -19l-102 -147c-8 -13 -15 -19 -30 -19h-76c-15 0 -23 7 -15 19l89 147c7 12 16 19 31 19z" />
    <glyph glyph-name="Ecircumflex" unicode="&#xca;" horiz-adv-x="850" 
d="M338 700h440c15 0 23 -7 23 -22v-95c0 -15 -8 -22 -23 -22h-437c-104 0 -133 -31 -133 -136v-10h565c15 0 22 -7 22 -22v-79c0 -15 -7 -22 -22 -22h-565v-17c0 -105 29 -136 133 -136h437c15 0 23 -7 23 -22v-95c0 -15 -8 -22 -23 -22h-440c-202 0 -280 72 -280 264v172
c0 192 78 264 280 264zM421 916h89c22 0 33 -7 44 -22l105 -142c9 -12 1 -21 -12 -21h-78c-15 0 -23 5 -31 18l-57 86c-3 6 -7 8 -13 8h-4c-7 0 -10 -2 -13 -8l-58 -86c-7 -13 -15 -18 -31 -18h-77c-14 0 -22 9 -13 21l106 142c10 15 21 22 43 22z" />
    <glyph glyph-name="Edieresis" unicode="&#xcb;" horiz-adv-x="850" 
d="M338 700h440c15 0 23 -7 23 -22v-95c0 -15 -8 -22 -23 -22h-437c-104 0 -133 -31 -133 -136v-10h565c15 0 22 -7 22 -22v-79c0 -15 -7 -22 -22 -22h-565v-17c0 -105 29 -136 133 -136h437c15 0 23 -7 23 -22v-95c0 -15 -8 -22 -23 -22h-440c-202 0 -280 72 -280 264v172
c0 192 78 264 280 264zM276 885h98c15 0 22 -6 22 -18v-95c0 -12 -7 -18 -22 -18h-98c-15 0 -22 6 -22 18v95c0 12 7 18 22 18zM555 885h98c15 0 23 -6 23 -18v-95c0 -12 -8 -18 -23 -18h-98c-15 0 -22 6 -22 18v95c0 12 7 18 22 18z" />
    <glyph glyph-name="Igrave" unicode="&#xcc;" horiz-adv-x="289" 
d="M91 700h108c15 0 22 -7 22 -22v-656c0 -15 -7 -22 -22 -22h-108c-15 0 -23 7 -23 22v656c0 15 8 22 23 22zM18 916h89c15 0 24 -7 31 -19l90 -147c7 -12 0 -19 -16 -19h-76c-15 0 -22 6 -30 19l-102 147c-9 12 1 19 14 19z" />
    <glyph glyph-name="Iacute" unicode="&#xcd;" horiz-adv-x="289" 
d="M89 700h108c15 0 22 -7 22 -22v-656c0 -15 -7 -22 -22 -22h-108c-15 0 -23 7 -23 22v656c0 15 8 22 23 22zM181 916h89c14 0 23 -7 14 -19l-102 -147c-8 -13 -15 -19 -30 -19h-76c-15 0 -23 7 -15 19l89 147c7 12 16 19 31 19z" />
    <glyph glyph-name="Icircumflex" unicode="&#xce;" horiz-adv-x="372" 
d="M132 700h108c15 0 22 -7 22 -22v-656c0 -15 -7 -22 -22 -22h-108c-15 0 -23 7 -23 22v656c0 15 8 22 23 22zM141 916h89c22 0 33 -7 44 -22l105 -142c9 -12 1 -21 -12 -21h-78c-15 0 -23 5 -31 18l-57 86c-3 6 -7 8 -13 8h-4c-7 0 -10 -2 -13 -8l-58 -86
c-7 -13 -15 -18 -31 -18h-77c-14 0 -22 9 -13 21l106 142c10 15 21 22 43 22z" />
    <glyph glyph-name="Idieresis" unicode="&#xcf;" horiz-adv-x="381" 
d="M136 700h108c15 0 22 -7 22 -22v-656c0 -15 -7 -22 -22 -22h-108c-15 0 -23 7 -23 22v656c0 15 8 22 23 22zM259 885h98c15 0 22 -6 22 -18v-95c0 -12 -7 -18 -22 -18h-98c-15 0 -22 6 -22 18v95c0 12 7 18 22 18zM24 885h98c15 0 22 -6 22 -18v-95c0 -12 -7 -18 -22 -18
h-98c-15 0 -22 6 -22 18v95c0 12 7 18 22 18z" />
    <glyph glyph-name="Eth" unicode="&#xd0;" horiz-adv-x="983" 
d="M151 700h468c217 0 306 -87 306 -282v-136c0 -195 -89 -282 -306 -282h-468c-20 0 -30 10 -30 30v262h-86c-15 0 -22 7 -22 22v79c0 15 7 22 22 22h86v255c0 20 10 30 30 30zM274 547v-132h340c15 0 22 -7 22 -22v-79c0 -15 -7 -22 -22 -22h-340v-140c0 -9 4 -13 13 -13
h328c118 0 157 38 157 156v110c0 118 -39 156 -157 156h-328c-9 0 -13 -4 -13 -14z" />
    <glyph glyph-name="Ntilde" unicode="&#xd1;" horiz-adv-x="978" 
d="M156 700h88c64 0 78 -8 116 -59l372 -488c3 -5 7 -7 13 -7h9c5 0 8 3 8 10v522c0 15 7 22 22 22h105c15 0 22 -7 22 -22v-574c0 -81 -29 -104 -90 -104h-86c-61 0 -76 6 -116 59l-373 488c-4 5 -7 7 -13 7h-9c-6 0 -8 -3 -8 -10v-522c0 -15 -7 -22 -22 -22h-105
c-15 0 -23 7 -23 22v574c0 81 29 104 90 104zM307 743h-56c-16 0 -18 8 -18 29c0 109 36 140 125 140c72 0 120 -20 165 -56c22 -19 38 -31 76 -31c40 0 45 15 46 69c1 16 11 22 27 22h57c15 0 18 -8 18 -29c0 -109 -37 -140 -126 -140c-71 0 -119 20 -164 56
c-23 19 -38 31 -77 31s-45 -15 -45 -69c-1 -16 -11 -22 -28 -22z" />
    <glyph glyph-name="Ograve" unicode="&#xd2;" horiz-adv-x="985" 
d="M338 700h309c203 0 280 -72 280 -264v-172c0 -192 -77 -264 -280 -264h-309c-202 0 -280 72 -280 264v172c0 192 78 264 280 264zM211 425v-150c0 -105 30 -136 133 -136h297c103 0 133 31 133 136v150c0 105 -30 136 -133 136h-297c-103 0 -133 -31 -133 -136zM361 916
h89c15 0 24 -7 31 -19l90 -147c7 -12 0 -19 -16 -19h-76c-15 0 -22 6 -30 19l-102 147c-9 12 1 19 14 19z" />
    <glyph glyph-name="Oacute" unicode="&#xd3;" horiz-adv-x="985" 
d="M338 700h309c203 0 280 -72 280 -264v-172c0 -192 -77 -264 -280 -264h-309c-202 0 -280 72 -280 264v172c0 192 78 264 280 264zM211 425v-150c0 -105 30 -136 133 -136h297c103 0 133 31 133 136v150c0 105 -30 136 -133 136h-297c-103 0 -133 -31 -133 -136zM529 916
h89c14 0 23 -7 14 -19l-102 -147c-8 -13 -15 -19 -30 -19h-76c-15 0 -23 7 -15 19l89 147c7 12 16 19 31 19z" />
    <glyph glyph-name="Ocircumflex" unicode="&#xd4;" horiz-adv-x="985" 
d="M338 700h309c203 0 280 -72 280 -264v-172c0 -192 -77 -264 -280 -264h-309c-202 0 -280 72 -280 264v172c0 192 78 264 280 264zM211 425v-150c0 -105 30 -136 133 -136h297c103 0 133 31 133 136v150c0 105 -30 136 -133 136h-297c-103 0 -133 -31 -133 -136zM447 916
h89c22 0 33 -7 44 -22l105 -142c9 -12 1 -21 -12 -21h-78c-15 0 -23 5 -31 18l-57 86c-3 6 -7 8 -13 8h-4c-7 0 -10 -2 -13 -8l-58 -86c-7 -13 -15 -18 -31 -18h-77c-14 0 -22 9 -13 21l106 142c10 15 21 22 43 22z" />
    <glyph glyph-name="Otilde" unicode="&#xd5;" horiz-adv-x="985" 
d="M338 700h309c203 0 280 -72 280 -264v-172c0 -192 -77 -264 -280 -264h-309c-202 0 -280 72 -280 264v172c0 192 78 264 280 264zM211 425v-150c0 -105 30 -136 133 -136h297c103 0 133 31 133 136v150c0 105 -30 136 -133 136h-297c-103 0 -133 -31 -133 -136zM310 743
h-56c-16 0 -18 8 -18 29c0 109 36 140 125 140c72 0 120 -20 165 -56c22 -19 38 -31 76 -31c40 0 45 15 46 69c1 16 11 22 27 22h57c15 0 18 -8 18 -29c0 -109 -37 -140 -126 -140c-71 0 -119 20 -164 56c-23 19 -38 31 -77 31s-45 -15 -45 -69c-1 -16 -11 -22 -28 -22z" />
    <glyph glyph-name="Odieresis" unicode="&#xd6;" horiz-adv-x="985" 
d="M338 700h309c203 0 280 -72 280 -264v-172c0 -192 -77 -264 -280 -264h-309c-202 0 -280 72 -280 264v172c0 192 78 264 280 264zM211 425v-150c0 -105 30 -136 133 -136h297c103 0 133 31 133 136v150c0 105 -30 136 -133 136h-297c-103 0 -133 -31 -133 -136zM304 885
h98c15 0 22 -6 22 -18v-95c0 -12 -7 -18 -22 -18h-98c-15 0 -22 6 -22 18v95c0 12 7 18 22 18zM583 885h98c15 0 23 -6 23 -18v-95c0 -12 -8 -18 -23 -18h-98c-15 0 -22 6 -22 18v95c0 12 7 18 22 18z" />
    <glyph glyph-name="multiply" unicode="&#xd7;" horiz-adv-x="613" 
d="M63 551l42 43c8 8 17 8 26 0l175 -176l176 176c8 8 17 8 25 0l43 -43c8 -8 8 -17 0 -25l-176 -176l176 -176c9 -8 9 -17 0 -26l-42 -42c-9 -8 -18 -8 -26 0l-176 176l-176 -176c-8 -8 -17 -8 -25 0l-43 42c-8 9 -8 18 0 26l176 176l-175 176c-9 8 -9 17 0 25z" />
    <glyph glyph-name="Oslash" unicode="&#xd8;" horiz-adv-x="985" 
d="M338 700h309c19 0 37 -1 54 -2l65 86c11 14 20 16 32 16h60c11 0 17 -9 8 -19l-75 -100c96 -32 136 -108 136 -245v-172c0 -192 -77 -264 -280 -264h-309c-20 0 -38 0 -56 2l-64 -86c-11 -14 -20 -16 -32 -16h-60c-11 0 -17 8 -8 19l75 100c-96 32 -135 108 -135 245v172
c0 192 78 264 280 264zM774 425c0 82 -19 119 -77 131l-312 -417h256c103 0 133 31 133 136v150zM211 425v-150c0 -82 18 -120 75 -132l313 418h-255c-103 0 -133 -31 -133 -136z" />
    <glyph glyph-name="Ugrave" unicode="&#xd9;" horiz-adv-x="977" 
d="M87 700h108c15 0 22 -7 22 -22v-399c0 -106 30 -137 133 -137h277c103 0 132 31 132 137v399c0 15 7 22 22 22h109c15 0 22 -7 22 -22v-414c0 -192 -77 -264 -280 -264h-288c-202 0 -280 72 -280 264v414c0 15 8 22 23 22zM361 916h89c15 0 24 -7 31 -19l90 -147
c7 -12 0 -19 -16 -19h-76c-15 0 -22 6 -30 19l-102 147c-9 12 1 19 14 19z" />
    <glyph glyph-name="Uacute" unicode="&#xda;" horiz-adv-x="977" 
d="M87 700h108c15 0 22 -7 22 -22v-399c0 -106 30 -137 133 -137h277c103 0 132 31 132 137v399c0 15 7 22 22 22h109c15 0 22 -7 22 -22v-414c0 -192 -77 -264 -280 -264h-288c-202 0 -280 72 -280 264v414c0 15 8 22 23 22zM525 916h89c14 0 23 -7 14 -19l-102 -147
c-8 -13 -15 -19 -30 -19h-76c-15 0 -23 7 -15 19l89 147c7 12 16 19 31 19z" />
    <glyph glyph-name="Ucircumflex" unicode="&#xdb;" horiz-adv-x="977" 
d="M87 700h108c15 0 22 -7 22 -22v-399c0 -106 30 -137 133 -137h277c103 0 132 31 132 137v399c0 15 7 22 22 22h109c15 0 22 -7 22 -22v-414c0 -192 -77 -264 -280 -264h-288c-202 0 -280 72 -280 264v414c0 15 8 22 23 22zM443 916h89c22 0 33 -7 44 -22l105 -142
c9 -12 1 -21 -12 -21h-78c-15 0 -23 5 -31 18l-57 86c-3 6 -7 8 -13 8h-4c-7 0 -10 -2 -13 -8l-58 -86c-7 -13 -15 -18 -31 -18h-77c-14 0 -22 9 -13 21l106 142c10 15 21 22 43 22z" />
    <glyph glyph-name="Udieresis" unicode="&#xdc;" horiz-adv-x="977" 
d="M87 700h108c15 0 22 -7 22 -22v-399c0 -106 30 -137 133 -137h277c103 0 132 31 132 137v399c0 15 7 22 22 22h109c15 0 22 -7 22 -22v-414c0 -192 -77 -264 -280 -264h-288c-202 0 -280 72 -280 264v414c0 15 8 22 23 22zM299 885h98c15 0 22 -6 22 -18v-95
c0 -12 -7 -18 -22 -18h-98c-15 0 -22 6 -22 18v95c0 12 7 18 22 18zM578 885h98c15 0 23 -6 23 -18v-95c0 -12 -8 -18 -23 -18h-98c-15 0 -22 6 -22 18v95c0 12 7 18 22 18z" />
    <glyph glyph-name="Yacute" unicode="&#xdd;" horiz-adv-x="896" 
d="M24 700h134c12 0 18 -3 24 -12l267 -361l269 361c6 9 12 12 24 12h131c11 0 16 -11 9 -20l-359 -466v-192c0 -15 -7 -22 -22 -22h-108c-15 0 -23 7 -23 22v192l-355 466c-7 9 -3 20 9 20zM486 916h89c14 0 23 -7 14 -19l-102 -147c-8 -13 -15 -19 -30 -19h-76
c-15 0 -23 7 -15 19l89 147c7 12 16 19 31 19z" />
    <glyph glyph-name="Thorn" unicode="&#xde;" horiz-adv-x="888" 
d="M89 700h108c15 0 22 -7 22 -22v-107h418c151 0 211 -69 211 -200v-58c0 -131 -60 -200 -211 -200h-418v-91c0 -15 -7 -22 -22 -22h-108c-15 0 -23 7 -23 22v656c0 15 8 22 23 22zM219 439v-194h388c65 0 88 27 88 84v26c0 57 -23 84 -88 84h-388z" />
    <glyph glyph-name="germandbls" unicode="&#xdf;" horiz-adv-x="916" 
d="M265 769h111c154 0 195 -58 196 -199v-98c0 -30 12 -46 46 -46h87c110 0 156 -46 156 -156v-108c0 -105 -40 -162 -157 -162h-376c-12 0 -18 6 -18 18v82c0 12 6 18 18 18h327c46 0 64 22 64 65v64c0 44 -21 63 -65 63h-77c-107 0 -148 46 -148 134v126
c0 55 -17 81 -78 81h-62c-65 0 -83 -26 -83 -81v-548c0 -15 -7 -22 -22 -22h-98c-15 0 -23 7 -23 22v548c0 141 43 199 202 199z" />
    <glyph glyph-name="agrave" unicode="&#xe0;" 
d="M75 549h432c180 0 238 -58 238 -203v-266c0 -65 -16 -80 -74 -80h-476c-118 0 -154 43 -154 142v48c0 84 36 131 154 131h407v19c0 64 -22 89 -109 89h-418c-12 0 -18 5 -18 18v84c0 12 6 18 18 18zM573 110c21 0 29 9 29 34v88h-366c-41 0 -56 -17 -56 -49v-21
c0 -36 15 -52 56 -52h337zM271 816h88c15 0 24 -8 31 -23l91 -185c7 -14 0 -23 -16 -23h-75c-16 0 -23 8 -31 23l-103 185c-8 15 1 23 15 23z" />
    <glyph glyph-name="aacute" unicode="&#xe1;" 
d="M75 549h432c180 0 238 -58 238 -203v-266c0 -65 -16 -80 -74 -80h-476c-118 0 -154 43 -154 142v48c0 84 36 131 154 131h407v19c0 64 -22 89 -109 89h-418c-12 0 -18 5 -18 18v84c0 12 6 18 18 18zM573 110c21 0 29 9 29 34v88h-366c-41 0 -56 -17 -56 -49v-21
c0 -36 15 -52 56 -52h337zM434 816h88c14 0 23 -8 15 -23l-103 -185c-8 -15 -15 -23 -30 -23h-76c-15 0 -23 9 -16 23l91 185c7 15 16 23 31 23z" />
    <glyph glyph-name="acircumflex" unicode="&#xe2;" 
d="M75 549h432c180 0 238 -58 238 -203v-266c0 -65 -16 -80 -74 -80h-476c-118 0 -154 43 -154 142v48c0 84 36 131 154 131h407v19c0 64 -22 89 -109 89h-418c-12 0 -18 5 -18 18v84c0 12 6 18 18 18zM573 110c21 0 29 9 29 34v88h-366c-41 0 -56 -17 -56 -49v-21
c0 -36 15 -52 56 -52h337zM349 816h89c22 0 33 -8 43 -25l106 -181c9 -14 1 -25 -13 -25h-77c-16 0 -24 7 -31 22l-58 111c-3 6 -6 9 -12 9h-4c-7 0 -10 -3 -13 -9l-58 -111c-7 -15 -15 -22 -31 -22h-77c-14 0 -22 11 -13 25l106 181c10 17 21 25 43 25z" />
    <glyph glyph-name="atilde" unicode="&#xe3;" 
d="M75 549h432c180 0 238 -58 238 -203v-266c0 -65 -16 -80 -74 -80h-476c-118 0 -154 43 -154 142v48c0 84 36 131 154 131h407v19c0 64 -22 89 -109 89h-418c-12 0 -18 5 -18 18v84c0 12 6 18 18 18zM573 110c21 0 29 9 29 34v88h-366c-41 0 -56 -17 -56 -49v-21
c0 -36 15 -52 56 -52h337zM212 602h-56c-16 0 -19 8 -19 31c0 118 37 152 125 152c73 0 120 -22 166 -60c21 -19 37 -32 76 -32c40 0 45 15 45 71c1 18 11 24 28 24h56c16 0 18 -8 18 -31c0 -118 -36 -152 -124 -152c-73 0 -120 22 -166 60c-21 19 -38 32 -76 32
c-40 0 -45 -15 -46 -71c0 -18 -10 -24 -27 -24z" />
    <glyph glyph-name="adieresis" unicode="&#xe4;" 
d="M75 549h432c180 0 238 -58 238 -203v-266c0 -65 -16 -80 -74 -80h-476c-118 0 -154 43 -154 142v48c0 84 36 131 154 131h407v19c0 64 -22 89 -109 89h-418c-12 0 -18 5 -18 18v84c0 12 6 18 18 18zM573 110c21 0 29 9 29 34v88h-366c-41 0 -56 -17 -56 -49v-21
c0 -36 15 -52 56 -52h337zM485 752h98c15 0 22 -7 22 -22v-95c0 -15 -7 -23 -22 -23h-98c-15 0 -22 8 -22 23v95c0 15 7 22 22 22zM206 752h98c15 0 22 -7 22 -22v-95c0 -15 -7 -23 -22 -23h-98c-15 0 -23 8 -23 23v95c0 15 8 22 23 22z" />
    <glyph glyph-name="aring" unicode="&#xe5;" 
d="M75 549h432c180 0 238 -58 238 -203v-266c0 -65 -16 -80 -74 -80h-476c-118 0 -154 43 -154 142v48c0 84 36 131 154 131h407v19c0 64 -22 89 -109 89h-418c-12 0 -18 5 -18 18v84c0 12 6 18 18 18zM573 110c21 0 29 9 29 34v88h-366c-41 0 -56 -17 -56 -49v-21
c0 -36 15 -52 56 -52h337zM339 816h113c74 0 103 -27 103 -97v-63c0 -70 -29 -97 -103 -97h-113c-74 0 -103 27 -103 97v63c0 70 29 97 103 97zM310 706v-37c0 -34 9 -44 43 -44h86c33 0 42 10 42 44v37c0 34 -9 44 -42 44h-86c-34 0 -43 -10 -43 -44z" />
    <glyph glyph-name="ae" unicode="&#xe6;" horiz-adv-x="1354" 
d="M845 549h293c137 0 173 -43 173 -164v-95c0 -43 -18 -57 -57 -57h-505v-24c0 -63 23 -89 110 -89h417c12 0 18 -6 18 -18v-84c0 -12 -6 -18 -18 -18h-437c-48 0 -87 4 -119 12c-12 -9 -29 -12 -55 -12h-470c-118 0 -154 43 -154 142v48c0 84 36 131 154 131h407v19
c0 64 -22 89 -109 89h-418c-12 0 -18 5 -18 18v84c0 12 6 18 18 18h432c77 0 131 -11 169 -34c37 23 92 34 169 34zM573 110c21 0 29 9 29 34v88h-366c-41 0 -56 -17 -56 -49v-21c0 -36 15 -52 56 -52h337zM749 349v-27h405c12 0 17 4 17 17v42c0 41 -15 57 -61 57h-251
c-87 0 -110 -25 -110 -89z" />
    <glyph glyph-name="ccedilla" unicode="&#xe7;" horiz-adv-x="729" 
d="M277 549h402c12 0 18 -6 18 -18v-84c0 -13 -6 -18 -18 -18h-388c-87 0 -109 -26 -109 -110v-89c0 -84 22 -110 109 -110h388c12 0 18 -6 18 -18v-84c0 -12 -6 -18 -18 -18h-402c-180 0 -238 57 -238 202v144c0 145 58 203 238 203zM348 -41h90c16 0 23 -9 19 -26
l-44 -182c-4 -15 -11 -23 -25 -23h-57c-16 0 -24 9 -23 23l16 185c1 15 10 23 24 23z" />
    <glyph glyph-name="egrave" unicode="&#xe8;" 
d="M279 549h293c137 0 173 -43 173 -164v-95c0 -43 -18 -57 -57 -57h-505v-24c0 -63 23 -89 110 -89h417c12 0 18 -6 18 -18v-84c0 -12 -6 -18 -18 -18h-431c-180 0 -238 57 -238 202v144c0 145 58 203 238 203zM183 349v-27h405c12 0 17 4 17 17v42c0 41 -15 57 -61 57
h-251c-87 0 -110 -25 -110 -89zM268 816h88c15 0 24 -8 31 -23l91 -185c7 -14 0 -23 -16 -23h-75c-16 0 -23 8 -31 23l-103 185c-8 15 1 23 15 23z" />
    <glyph glyph-name="eacute" unicode="&#xe9;" 
d="M279 549h293c137 0 173 -43 173 -164v-95c0 -43 -18 -57 -57 -57h-505v-24c0 -63 23 -89 110 -89h417c12 0 18 -6 18 -18v-84c0 -12 -6 -18 -18 -18h-431c-180 0 -238 57 -238 202v144c0 145 58 203 238 203zM183 349v-27h405c12 0 17 4 17 17v42c0 41 -15 57 -61 57
h-251c-87 0 -110 -25 -110 -89zM433 816h88c14 0 23 -8 15 -23l-103 -185c-8 -15 -15 -23 -30 -23h-76c-15 0 -23 9 -16 23l91 185c7 15 16 23 31 23z" />
    <glyph glyph-name="ecircumflex" unicode="&#xea;" 
d="M279 549h293c137 0 173 -43 173 -164v-95c0 -43 -18 -57 -57 -57h-505v-24c0 -63 23 -89 110 -89h417c12 0 18 -6 18 -18v-84c0 -12 -6 -18 -18 -18h-431c-180 0 -238 57 -238 202v144c0 145 58 203 238 203zM183 349v-27h405c12 0 17 4 17 17v42c0 41 -15 57 -61 57
h-251c-87 0 -110 -25 -110 -89zM349 816h89c22 0 33 -8 43 -25l106 -181c9 -14 1 -25 -13 -25h-77c-16 0 -24 7 -31 22l-58 111c-3 6 -6 9 -12 9h-4c-7 0 -10 -3 -13 -9l-58 -111c-7 -15 -15 -22 -31 -22h-77c-14 0 -22 11 -13 25l106 181c10 17 21 25 43 25z" />
    <glyph glyph-name="edieresis" unicode="&#xeb;" 
d="M279 549h293c137 0 173 -43 173 -164v-95c0 -43 -18 -57 -57 -57h-505v-24c0 -63 23 -89 110 -89h417c12 0 18 -6 18 -18v-84c0 -12 -6 -18 -18 -18h-431c-180 0 -238 57 -238 202v144c0 145 58 203 238 203zM183 349v-27h405c12 0 17 4 17 17v42c0 41 -15 57 -61 57
h-251c-87 0 -110 -25 -110 -89zM485 752h98c15 0 22 -7 22 -22v-95c0 -15 -7 -23 -22 -23h-98c-15 0 -22 8 -22 23v95c0 15 7 22 22 22zM206 752h98c15 0 22 -7 22 -22v-95c0 -15 -7 -23 -22 -23h-98c-15 0 -23 8 -23 23v95c0 15 8 22 23 22z" />
    <glyph glyph-name="igrave" unicode="&#xec;" horiz-adv-x="280" 
d="M18 816h88c15 0 24 -8 31 -23l91 -185c7 -14 0 -23 -16 -23h-75c-16 0 -23 8 -31 23l-103 185c-8 15 1 23 15 23zM96 549h98c15 0 22 -8 22 -23v-504c0 -15 -7 -22 -22 -22h-98c-15 0 -22 7 -22 22v504c0 15 7 23 22 23z" />
    <glyph glyph-name="iacute" unicode="&#xed;" horiz-adv-x="281" 
d="M174 816h88c14 0 23 -8 15 -23l-103 -185c-8 -15 -15 -23 -30 -23h-76c-15 0 -23 9 -16 23l91 185c7 15 16 23 31 23zM86 549h98c15 0 22 -8 22 -23v-504c0 -15 -7 -22 -22 -22h-98c-15 0 -22 7 -22 22v504c0 15 7 23 22 23z" />
    <glyph glyph-name="icircumflex" unicode="&#xee;" horiz-adv-x="365" 
d="M133 549h98c15 0 22 -8 22 -23v-504c0 -15 -7 -22 -22 -22h-98c-15 0 -22 7 -22 22v504c0 15 7 23 22 23zM138 816h89c22 0 33 -8 43 -25l106 -181c9 -14 1 -25 -13 -25h-77c-16 0 -24 7 -31 22l-58 111c-3 6 -6 9 -12 9h-4c-7 0 -10 -3 -13 -9l-58 -111
c-7 -15 -15 -22 -31 -22h-77c-14 0 -22 11 -13 25l106 181c10 17 21 25 43 25z" />
    <glyph glyph-name="idieresis" unicode="&#xef;" horiz-adv-x="384" 
d="M143 549h98c15 0 22 -8 22 -23v-504c0 -15 -7 -22 -22 -22h-98c-15 0 -22 7 -22 22v504c0 15 7 23 22 23zM259 752h98c15 0 22 -7 22 -22v-95c0 -15 -7 -23 -22 -23h-98c-15 0 -23 8 -23 23v95c0 15 8 22 23 22zM26 752h98c15 0 22 -7 22 -22v-95c0 -15 -7 -23 -22 -23
h-98c-15 0 -23 8 -23 23v95c0 15 8 22 23 22z" />
    <glyph glyph-name="eth" unicode="&#xf0;" horiz-adv-x="871" 
d="M410 864h68c11 0 16 -7 12 -18l-32 -69h114c181 0 238 -59 238 -205v-367c0 -147 -57 -205 -238 -205h-280c-180 0 -238 58 -238 205v76c0 146 58 204 238 204h376v73c0 69 -24 98 -109 98h-157l-46 -100c-4 -11 -7 -16 -20 -16h-68c-11 0 -17 7 -12 19l45 97h-87
c-12 0 -18 6 -18 18v85c0 12 6 18 18 18h143l33 71c4 12 7 16 20 16zM558 120c88 0 110 26 110 113v148h-362c-88 0 -109 -26 -109 -112v-37c0 -85 23 -112 115 -112h246z" />
    <glyph glyph-name="ntilde" unicode="&#xf1;" horiz-adv-x="884" 
d="M298 549h287c180 0 238 -58 238 -203v-324c0 -15 -7 -22 -22 -22h-98c-15 0 -22 7 -22 22v290c0 84 -17 110 -103 110h-266c-86 0 -109 -26 -109 -110v-290c0 -15 -7 -22 -22 -22h-98c-15 0 -23 7 -23 22v324c0 145 58 203 238 203zM259 602h-56c-16 0 -19 8 -19 31
c0 118 37 152 125 152c73 0 120 -22 166 -60c21 -19 37 -32 76 -32c40 0 45 15 45 71c1 18 11 24 28 24h56c16 0 18 -8 18 -31c0 -118 -36 -152 -124 -152c-73 0 -120 22 -166 60c-21 19 -38 32 -76 32c-40 0 -45 -15 -46 -71c0 -18 -10 -24 -27 -24z" />
    <glyph glyph-name="ograve" unicode="&#xf2;" horiz-adv-x="868" 
d="M292 549h283c180 0 238 -58 238 -203v-144c0 -145 -58 -202 -238 -202h-283c-180 0 -238 57 -238 202v144c0 145 58 203 238 203zM197 322v-95c0 -84 23 -110 109 -110h255c87 0 110 26 110 110v95c0 84 -23 109 -110 109h-255c-86 0 -109 -25 -109 -109zM308 816h88
c15 0 24 -8 31 -23l91 -185c7 -14 0 -23 -16 -23h-75c-16 0 -23 8 -31 23l-103 185c-8 15 1 23 15 23z" />
    <glyph glyph-name="oacute" unicode="&#xf3;" horiz-adv-x="868" 
d="M292 549h283c180 0 238 -58 238 -203v-144c0 -145 -58 -202 -238 -202h-283c-180 0 -238 57 -238 202v144c0 145 58 203 238 203zM197 322v-95c0 -84 23 -110 109 -110h255c87 0 110 26 110 110v95c0 84 -23 109 -110 109h-255c-86 0 -109 -25 -109 -109zM470 816h88
c14 0 23 -8 15 -23l-103 -185c-8 -15 -15 -23 -30 -23h-76c-15 0 -23 9 -16 23l91 185c7 15 16 23 31 23z" />
    <glyph glyph-name="ocircumflex" unicode="&#xf4;" horiz-adv-x="868" 
d="M292 549h283c180 0 238 -58 238 -203v-144c0 -145 -58 -202 -238 -202h-283c-180 0 -238 57 -238 202v144c0 145 58 203 238 203zM197 322v-95c0 -84 23 -110 109 -110h255c87 0 110 26 110 110v95c0 84 -23 109 -110 109h-255c-86 0 -109 -25 -109 -109zM388 816h89
c22 0 33 -8 43 -25l106 -181c9 -14 1 -25 -13 -25h-77c-16 0 -24 7 -31 22l-58 111c-3 6 -6 9 -12 9h-4c-7 0 -10 -3 -13 -9l-58 -111c-7 -15 -15 -22 -31 -22h-77c-14 0 -22 11 -13 25l106 181c10 17 21 25 43 25z" />
    <glyph glyph-name="otilde" unicode="&#xf5;" horiz-adv-x="868" 
d="M292 549h283c180 0 238 -58 238 -203v-144c0 -145 -58 -202 -238 -202h-283c-180 0 -238 57 -238 202v144c0 145 58 203 238 203zM197 322v-95c0 -84 23 -110 109 -110h255c87 0 110 26 110 110v95c0 84 -23 109 -110 109h-255c-86 0 -109 -25 -109 -109zM252 602h-56
c-16 0 -19 8 -19 31c0 118 37 152 125 152c73 0 120 -22 166 -60c21 -19 37 -32 76 -32c40 0 45 15 45 71c1 18 11 24 28 24h56c16 0 18 -8 18 -31c0 -118 -36 -152 -124 -152c-73 0 -120 22 -166 60c-21 19 -38 32 -76 32c-40 0 -45 -15 -46 -71c0 -18 -10 -24 -27 -24z
" />
    <glyph glyph-name="odieresis" unicode="&#xf6;" horiz-adv-x="868" 
d="M292 549h283c180 0 238 -58 238 -203v-144c0 -145 -58 -202 -238 -202h-283c-180 0 -238 57 -238 202v144c0 145 58 203 238 203zM197 322v-95c0 -84 23 -110 109 -110h255c87 0 110 26 110 110v95c0 84 -23 109 -110 109h-255c-86 0 -109 -25 -109 -109zM524 752h98
c15 0 22 -7 22 -22v-95c0 -15 -7 -23 -22 -23h-98c-15 0 -22 8 -22 23v95c0 15 7 22 22 22zM245 752h98c15 0 22 -7 22 -22v-95c0 -15 -7 -23 -22 -23h-98c-15 0 -23 8 -23 23v95c0 15 8 22 23 22z" />
    <glyph glyph-name="divide" unicode="&#xf7;" horiz-adv-x="613" 
d="M60 398h493c12 0 18 -6 18 -18v-60c0 -12 -6 -18 -18 -18h-493c-12 0 -18 6 -18 18v60c0 12 6 18 18 18zM258 193h98c15 0 22 -7 22 -22v-96c0 -15 -7 -22 -22 -22h-98c-15 0 -23 7 -23 22v96c0 15 8 22 23 22zM258 647h98c15 0 22 -7 22 -22v-96c0 -15 -7 -22 -22 -22
h-98c-15 0 -23 7 -23 22v96c0 15 8 22 23 22z" />
    <glyph glyph-name="oslash" unicode="&#xf8;" horiz-adv-x="868" 
d="M292 549h283c20 0 39 -1 57 -3l73 80c11 13 16 17 32 17h60c13 0 17 -11 9 -20l-88 -95c69 -28 95 -86 95 -182v-144c0 -145 -58 -202 -238 -202h-283c-20 0 -38 0 -55 2l-73 -80c-10 -12 -16 -16 -32 -16h-60c-12 0 -16 11 -9 19l87 95c-71 27 -96 85 -96 182v144
c0 145 58 203 238 203zM197 322v-95c0 -60 11 -90 48 -103l281 307h-220c-86 0 -109 -25 -109 -109zM671 322c0 59 -12 89 -48 101l-281 -306h219c87 0 110 26 110 110v95z" />
    <glyph glyph-name="ugrave" unicode="&#xf9;" horiz-adv-x="876" 
d="M83 549h98c15 0 22 -8 22 -23v-289c0 -84 16 -110 103 -110h257c87 0 110 26 110 110v289c0 15 7 23 22 23h98c15 0 22 -8 22 -23v-324c0 -145 -58 -202 -238 -202h-279c-180 0 -238 57 -238 202v324c0 15 8 23 23 23zM312 816h88c15 0 24 -8 31 -23l91 -185
c7 -14 0 -23 -16 -23h-75c-16 0 -23 8 -31 23l-103 185c-8 15 1 23 15 23z" />
    <glyph glyph-name="uacute" unicode="&#xfa;" horiz-adv-x="876" 
d="M83 549h98c15 0 22 -8 22 -23v-289c0 -84 16 -110 103 -110h257c87 0 110 26 110 110v289c0 15 7 23 22 23h98c15 0 22 -8 22 -23v-324c0 -145 -58 -202 -238 -202h-279c-180 0 -238 57 -238 202v324c0 15 8 23 23 23zM476 816h88c14 0 23 -8 15 -23l-103 -185
c-8 -15 -15 -23 -30 -23h-76c-15 0 -23 9 -16 23l91 185c7 15 16 23 31 23z" />
    <glyph glyph-name="ucircumflex" unicode="&#xfb;" horiz-adv-x="876" 
d="M83 549h98c15 0 22 -8 22 -23v-289c0 -84 16 -110 103 -110h257c87 0 110 26 110 110v289c0 15 7 23 22 23h98c15 0 22 -8 22 -23v-324c0 -145 -58 -202 -238 -202h-279c-180 0 -238 57 -238 202v324c0 15 8 23 23 23zM392 816h89c22 0 33 -8 43 -25l106 -181
c9 -14 1 -25 -13 -25h-77c-16 0 -24 7 -31 22l-58 111c-3 6 -6 9 -12 9h-4c-7 0 -10 -3 -13 -9l-58 -111c-7 -15 -15 -22 -31 -22h-77c-14 0 -22 11 -13 25l106 181c10 17 21 25 43 25z" />
    <glyph glyph-name="udieresis" unicode="&#xfc;" horiz-adv-x="876" 
d="M83 549h98c15 0 22 -8 22 -23v-289c0 -84 16 -110 103 -110h257c87 0 110 26 110 110v289c0 15 7 23 22 23h98c15 0 22 -8 22 -23v-324c0 -145 -58 -202 -238 -202h-279c-180 0 -238 57 -238 202v324c0 15 8 23 23 23zM529 752h98c15 0 22 -7 22 -22v-95
c0 -15 -7 -23 -22 -23h-98c-15 0 -22 8 -22 23v95c0 15 7 22 22 22zM250 752h98c15 0 22 -7 22 -22v-95c0 -15 -7 -23 -22 -23h-98c-15 0 -23 8 -23 23v95c0 15 8 22 23 22z" />
    <glyph glyph-name="yacute" unicode="&#xfd;" horiz-adv-x="830" 
d="M674 549h112c14 0 20 -12 13 -25l-384 -677c-26 -46 -72 -68 -158 -68h-70c-12 0 -18 6 -18 18v82c0 12 6 18 18 18h59c27 0 42 7 51 23l54 95c-33 3 -48 15 -64 43l-270 466c-7 13 -1 25 13 25h115c12 0 19 -4 24 -14l222 -385c11 -18 15 -23 24 -23l235 408
c5 10 12 14 24 14zM455 816h88c14 0 23 -8 15 -23l-103 -185c-8 -15 -15 -23 -30 -23h-76c-15 0 -23 9 -16 23l91 185c7 15 16 23 31 23z" />
    <glyph glyph-name="thorn" unicode="&#xfe;" horiz-adv-x="871" 
d="M83 750h98c15 0 22 -7 22 -22v-179h375c180 0 238 -58 238 -203v-144c0 -145 -58 -202 -238 -202h-375v-199c0 -15 -7 -22 -22 -22h-98c-15 0 -23 7 -23 22v927c0 15 8 22 23 22zM203 429v-309h361c87 0 110 26 110 110v89c0 84 -23 110 -110 110h-361z" />
    <glyph glyph-name="ydieresis" unicode="&#xff;" horiz-adv-x="830" 
d="M674 549h112c14 0 20 -12 13 -25l-384 -677c-26 -46 -72 -68 -158 -68h-70c-12 0 -18 6 -18 18v82c0 12 6 18 18 18h59c27 0 42 7 51 23l54 95c-33 3 -48 15 -64 43l-270 466c-7 13 -1 25 13 25h115c12 0 19 -4 24 -14l222 -385c11 -18 15 -23 24 -23l235 408
c5 10 12 14 24 14zM506 752h98c15 0 22 -7 22 -22v-95c0 -15 -7 -23 -22 -23h-98c-15 0 -22 8 -22 23v95c0 15 7 22 22 22zM227 752h98c15 0 22 -7 22 -22v-95c0 -15 -7 -23 -22 -23h-98c-15 0 -23 8 -23 23v95c0 15 8 22 23 22z" />
    <glyph glyph-name="Amacron" unicode="&#x100;" horiz-adv-x="975" 
d="M451 700h59c51 0 82 -16 115 -76l331 -601c7 -13 4 -23 -12 -23h-127c-13 0 -18 3 -23 13l-71 129h-470l-69 -129c-5 -10 -11 -13 -23 -13h-130c-17 0 -20 10 -13 23l328 601c33 60 63 76 105 76zM473 551l-157 -293h344l-159 293c-3 5 -6 7 -11 7h-6c-5 0 -8 -2 -11 -7z
M253 870h470c15 0 22 -6 22 -18v-62c0 -12 -7 -18 -22 -18h-470c-15 0 -22 6 -22 18v62c0 12 7 18 22 18z" />
    <glyph glyph-name="amacron" unicode="&#x101;" 
d="M75 549h432c180 0 238 -58 238 -203v-266c0 -65 -16 -80 -74 -80h-476c-118 0 -154 43 -154 142v48c0 84 36 131 154 131h407v19c0 64 -22 89 -109 89h-418c-12 0 -18 5 -18 18v84c0 12 6 18 18 18zM573 110c21 0 29 9 29 34v88h-366c-41 0 -56 -17 -56 -49v-21
c0 -36 15 -52 56 -52h337zM160 734h469c15 0 22 -7 22 -22v-58c0 -15 -7 -22 -22 -22h-469c-15 0 -23 7 -23 22v58c0 15 8 22 23 22z" />
    <glyph glyph-name="Abreve" unicode="&#x102;" horiz-adv-x="975" 
d="M451 700h59c51 0 82 -16 115 -76l331 -601c7 -13 4 -23 -12 -23h-127c-13 0 -18 3 -23 13l-71 129h-470l-69 -129c-5 -10 -11 -13 -23 -13h-130c-17 0 -20 10 -13 23l328 601c33 60 63 76 105 76zM473 551l-157 -293h344l-159 293c-3 5 -6 7 -11 7h-6c-5 0 -8 -2 -11 -7z
M248 849v41c0 11 7 19 18 19c7 0 15 -3 25 -10c22 -16 94 -67 196 -67c103 0 175 51 197 67c10 7 18 10 25 10c11 0 18 -8 18 -19v-41c0 -13 -2 -22 -19 -34c-37 -26 -124 -62 -221 -62c-96 0 -183 36 -220 62c-17 12 -19 21 -19 34z" />
    <glyph glyph-name="abreve" unicode="&#x103;" 
d="M75 549h432c180 0 238 -58 238 -203v-266c0 -65 -16 -80 -74 -80h-476c-118 0 -154 43 -154 142v48c0 84 36 131 154 131h407v19c0 64 -22 89 -109 89h-418c-12 0 -18 5 -18 18v84c0 12 6 18 18 18zM573 110c21 0 29 9 29 34v88h-366c-41 0 -56 -17 -56 -49v-21
c0 -36 15 -52 56 -52h337zM154 723v52c0 12 7 23 19 23c7 0 15 -3 25 -11c22 -19 93 -78 196 -78s174 59 197 78c9 8 18 11 24 11c12 0 19 -11 19 -23v-52c0 -15 -2 -27 -19 -41c-36 -30 -126 -70 -221 -70c-96 0 -184 40 -220 70c-18 15 -20 26 -20 41z" />
    <glyph glyph-name="Aogonek" unicode="&#x104;" horiz-adv-x="975" 
d="M730 -32l73 29l-80 145h-470l-69 -129c-5 -10 -11 -13 -23 -13h-130c-17 0 -20 10 -13 23l328 601c33 60 63 76 105 76h59c51 0 82 -16 115 -76l331 -601c5 -11 4 -17 -5 -22l-125 -60c-43 -20 -50 -32 -50 -60c0 -36 12 -46 54 -46h84c13 0 18 -6 18 -18v-71
c0 -12 -5 -18 -18 -18h-127c-100 0 -129 29 -129 122c0 65 14 97 72 118zM473 551l-157 -293h344l-159 293c-3 5 -6 7 -11 7h-6c-5 0 -8 -2 -11 -7z" />
    <glyph glyph-name="aogonek" unicode="&#x105;" 
d="M486 -32l83 32h-374c-118 0 -154 43 -154 142v48c0 84 36 131 154 131h407v19c0 64 -22 89 -109 89h-418c-12 0 -18 5 -18 18v84c0 12 6 18 18 18h432c180 0 238 -58 238 -203v-266c0 -39 -5 -61 -30 -73l-133 -66c-43 -21 -50 -32 -50 -60c0 -36 12 -46 54 -46h84
c13 0 18 -6 18 -18v-71c0 -12 -5 -18 -18 -18h-127c-100 0 -129 29 -129 122c0 65 14 97 72 118zM573 110c21 0 29 9 29 34v88h-366c-41 0 -56 -17 -56 -49v-21c0 -36 15 -52 56 -52h337z" />
    <glyph glyph-name="Cacute" unicode="&#x106;" horiz-adv-x="852" 
d="M338 700h451c15 0 22 -7 22 -22v-98c0 -15 -7 -23 -22 -23h-445c-103 0 -133 -30 -133 -136v-142c0 -106 30 -137 133 -137h445c15 0 22 -7 22 -22v-98c0 -15 -7 -22 -22 -22h-451c-202 0 -280 72 -280 264v172c0 192 78 264 280 264zM504 916h89c14 0 23 -7 14 -19
l-102 -147c-8 -13 -15 -19 -30 -19h-76c-15 0 -23 7 -15 19l89 147c7 12 16 19 31 19z" />
    <glyph glyph-name="cacute" unicode="&#x107;" horiz-adv-x="729" 
d="M277 549h402c12 0 18 -6 18 -18v-84c0 -13 -6 -18 -18 -18h-388c-87 0 -109 -26 -109 -110v-89c0 -84 22 -110 109 -110h388c12 0 18 -6 18 -18v-84c0 -12 -6 -18 -18 -18h-402c-180 0 -238 57 -238 202v144c0 145 58 203 238 203zM436 816h88c14 0 23 -8 15 -23
l-103 -185c-8 -15 -15 -23 -30 -23h-76c-15 0 -23 9 -16 23l91 185c7 15 16 23 31 23z" />
    <glyph glyph-name="Cdotaccent" unicode="&#x10a;" horiz-adv-x="852" 
d="M338 700h451c15 0 22 -7 22 -22v-98c0 -15 -7 -23 -22 -23h-445c-103 0 -133 -30 -133 -136v-142c0 -106 30 -137 133 -137h445c15 0 22 -7 22 -22v-98c0 -15 -7 -22 -22 -22h-451c-202 0 -280 72 -280 264v172c0 192 78 264 280 264zM417 885h98c15 0 22 -6 22 -18v-95
c0 -12 -7 -18 -22 -18h-98c-15 0 -22 6 -22 18v95c0 12 7 18 22 18z" />
    <glyph glyph-name="cdotaccent" unicode="&#x10b;" horiz-adv-x="729" 
d="M277 549h402c12 0 18 -6 18 -18v-84c0 -13 -6 -18 -18 -18h-388c-87 0 -109 -26 -109 -110v-89c0 -84 22 -110 109 -110h388c12 0 18 -6 18 -18v-84c0 -12 -6 -18 -18 -18h-402c-180 0 -238 57 -238 202v144c0 145 58 203 238 203zM345 752h98c15 0 22 -7 22 -22v-95
c0 -15 -7 -23 -22 -23h-98c-15 0 -23 8 -23 23v95c0 15 8 22 23 22z" />
    <glyph glyph-name="Ccaron" unicode="&#x10c;" horiz-adv-x="852" 
d="M338 700h451c15 0 22 -7 22 -22v-98c0 -15 -7 -23 -22 -23h-445c-103 0 -133 -30 -133 -136v-142c0 -106 30 -137 133 -137h445c15 0 22 -7 22 -22v-98c0 -15 -7 -22 -22 -22h-451c-202 0 -280 72 -280 264v172c0 192 78 264 280 264zM285 916h77c16 0 24 -6 31 -18
l58 -87c3 -5 6 -8 13 -8h4c6 0 10 3 13 8l57 87c8 12 16 18 31 18h78c13 0 21 -9 12 -21l-105 -143c-11 -14 -22 -21 -44 -21h-89c-22 0 -33 7 -43 21l-106 143c-9 12 -1 21 13 21z" />
    <glyph glyph-name="ccaron" unicode="&#x10d;" horiz-adv-x="729" 
d="M277 549h402c12 0 18 -6 18 -18v-84c0 -13 -6 -18 -18 -18h-388c-87 0 -109 -26 -109 -110v-89c0 -84 22 -110 109 -110h388c12 0 18 -6 18 -18v-84c0 -12 -6 -18 -18 -18h-402c-180 0 -238 57 -238 202v144c0 145 58 203 238 203zM213 816h77c16 0 24 -7 31 -23l58 -110
c3 -6 6 -9 13 -9h4c6 0 9 3 12 9l58 110c7 16 15 23 31 23h77c14 0 22 -11 13 -25l-106 -181c-10 -17 -21 -25 -43 -25h-89c-22 0 -33 8 -43 25l-106 181c-9 14 -1 25 13 25z" />
    <glyph glyph-name="Dcaron" unicode="&#x10e;" horiz-adv-x="929" 
d="M96 700h468c217 0 306 -87 306 -282v-136c0 -195 -89 -282 -306 -282h-468c-20 0 -30 10 -30 30v640c0 20 10 30 30 30zM219 547v-395c0 -9 4 -13 13 -13h328c118 0 157 38 157 156v110c0 118 -39 156 -157 156h-328c-9 0 -13 -4 -13 -14zM253 916h77c16 0 24 -6 31 -18
l58 -87c3 -5 6 -8 13 -8h4c6 0 10 3 13 8l57 87c8 12 16 18 31 18h78c13 0 21 -9 12 -21l-105 -143c-11 -14 -22 -21 -44 -21h-89c-22 0 -33 7 -43 21l-106 143c-9 12 -1 21 13 21z" />
    <glyph glyph-name="dcaron" unicode="&#x10f;" horiz-adv-x="982" 
d="M292 549h376v179c0 15 7 22 22 22h98c15 0 22 -7 22 -22v-526c0 -145 -58 -202 -238 -202h-280c-180 0 -238 57 -238 202v144c0 145 58 203 238 203zM558 120c87 0 110 26 110 110v199h-362c-86 0 -109 -26 -109 -110v-89c0 -84 23 -110 109 -110h252zM896 746h90
c16 0 23 -9 19 -26l-44 -182c-4 -15 -11 -23 -25 -23h-57c-16 0 -24 9 -23 23l16 185c1 15 10 23 24 23z" />
    <glyph glyph-name="Dcroat" unicode="&#x110;" horiz-adv-x="983" 
d="M151 700h468c217 0 306 -87 306 -282v-136c0 -195 -89 -282 -306 -282h-468c-20 0 -30 10 -30 30v262h-86c-15 0 -22 7 -22 22v79c0 15 7 22 22 22h86v255c0 20 10 30 30 30zM274 547v-132h340c15 0 22 -7 22 -22v-79c0 -15 -7 -22 -22 -22h-340v-140c0 -9 4 -13 13 -13
h328c118 0 157 38 157 156v110c0 118 -39 156 -157 156h-328c-9 0 -13 -4 -13 -14z" />
    <glyph glyph-name="dmacron" unicode="&#x111;" horiz-adv-x="871" 
d="M374 734h294c2 11 9 16 22 16h98c13 0 19 -5 21 -16h34c15 0 22 -7 22 -22v-58c0 -15 -7 -22 -22 -22h-33v-430c0 -145 -58 -202 -238 -202h-280c-180 0 -238 57 -238 202v144c0 145 58 203 238 203h376v83h-294c-15 0 -23 7 -23 22v58c0 15 8 22 23 22zM558 120
c87 0 110 26 110 110v199h-362c-86 0 -109 -26 -109 -110v-89c0 -84 23 -110 109 -110h252z" />
    <glyph glyph-name="Emacron" unicode="&#x112;" horiz-adv-x="850" 
d="M338 700h440c15 0 23 -7 23 -22v-95c0 -15 -8 -22 -23 -22h-437c-104 0 -133 -31 -133 -136v-10h565c15 0 22 -7 22 -22v-79c0 -15 -7 -22 -22 -22h-565v-17c0 -105 29 -136 133 -136h437c15 0 23 -7 23 -22v-95c0 -15 -8 -22 -23 -22h-440c-202 0 -280 72 -280 264v172
c0 192 78 264 280 264zM230 870h470c15 0 22 -6 22 -18v-62c0 -12 -7 -18 -22 -18h-470c-15 0 -22 6 -22 18v62c0 12 7 18 22 18z" />
    <glyph glyph-name="emacron" unicode="&#x113;" 
d="M279 549h293c137 0 173 -43 173 -164v-95c0 -43 -18 -57 -57 -57h-505v-24c0 -63 23 -89 110 -89h417c12 0 18 -6 18 -18v-84c0 -12 -6 -18 -18 -18h-431c-180 0 -238 57 -238 202v144c0 145 58 203 238 203zM183 349v-27h405c12 0 17 4 17 17v42c0 41 -15 57 -61 57
h-251c-87 0 -110 -25 -110 -89zM159 734h469c15 0 22 -7 22 -22v-58c0 -15 -7 -22 -22 -22h-469c-15 0 -23 7 -23 22v58c0 15 8 22 23 22z" />
    <glyph glyph-name="Ebreve" unicode="&#x114;" horiz-adv-x="850" 
d="M338 700h440c15 0 23 -7 23 -22v-95c0 -15 -8 -22 -23 -22h-437c-104 0 -133 -31 -133 -136v-10h565c15 0 22 -7 22 -22v-79c0 -15 -7 -22 -22 -22h-565v-17c0 -105 29 -136 133 -136h437c15 0 23 -7 23 -22v-95c0 -15 -8 -22 -23 -22h-440c-202 0 -280 72 -280 264v172
c0 192 78 264 280 264zM226 849v41c0 11 7 19 18 19c7 0 15 -3 25 -10c22 -16 94 -67 196 -67c103 0 175 51 197 67c10 7 18 10 25 10c11 0 18 -8 18 -19v-41c0 -13 -2 -22 -19 -34c-37 -26 -124 -62 -221 -62c-96 0 -183 36 -220 62c-17 12 -19 21 -19 34z" />
    <glyph glyph-name="ebreve" unicode="&#x115;" 
d="M279 549h293c137 0 173 -43 173 -164v-95c0 -43 -18 -57 -57 -57h-505v-24c0 -63 23 -89 110 -89h417c12 0 18 -6 18 -18v-84c0 -12 -6 -18 -18 -18h-431c-180 0 -238 57 -238 202v144c0 145 58 203 238 203zM183 349v-27h405c12 0 17 4 17 17v42c0 41 -15 57 -61 57
h-251c-87 0 -110 -25 -110 -89zM154 723v52c0 12 7 23 19 23c7 0 15 -3 25 -11c22 -19 93 -78 196 -78s174 59 197 78c9 8 18 11 24 11c12 0 19 -11 19 -23v-52c0 -15 -2 -27 -19 -41c-36 -30 -126 -70 -221 -70c-96 0 -184 40 -220 70c-18 15 -20 26 -20 41z" />
    <glyph glyph-name="Edotaccent" unicode="&#x116;" horiz-adv-x="850" 
d="M338 700h440c15 0 23 -7 23 -22v-95c0 -15 -8 -22 -23 -22h-437c-104 0 -133 -31 -133 -136v-10h565c15 0 22 -7 22 -22v-79c0 -15 -7 -22 -22 -22h-565v-17c0 -105 29 -136 133 -136h437c15 0 23 -7 23 -22v-95c0 -15 -8 -22 -23 -22h-440c-202 0 -280 72 -280 264v172
c0 192 78 264 280 264zM417 885h98c15 0 22 -6 22 -18v-95c0 -12 -7 -18 -22 -18h-98c-15 0 -22 6 -22 18v95c0 12 7 18 22 18z" />
    <glyph glyph-name="edotaccent" unicode="&#x117;" 
d="M279 549h293c137 0 173 -43 173 -164v-95c0 -43 -18 -57 -57 -57h-505v-24c0 -63 23 -89 110 -89h417c12 0 18 -6 18 -18v-84c0 -12 -6 -18 -18 -18h-431c-180 0 -238 57 -238 202v144c0 145 58 203 238 203zM183 349v-27h405c12 0 17 4 17 17v42c0 41 -15 57 -61 57
h-251c-87 0 -110 -25 -110 -89zM345 752h98c15 0 22 -7 22 -22v-95c0 -15 -7 -23 -22 -23h-98c-15 0 -23 8 -23 23v95c0 15 8 22 23 22z" />
    <glyph glyph-name="Eogonek" unicode="&#x118;" horiz-adv-x="850" 
d="M566 -32l83 32h-311c-202 0 -280 72 -280 264v172c0 192 78 264 280 264h440c15 0 23 -7 23 -22v-95c0 -15 -8 -22 -23 -22h-437c-104 0 -133 -31 -133 -136v-10h565c15 0 22 -7 22 -22v-79c0 -15 -7 -22 -22 -22h-565v-17c0 -105 29 -136 133 -136h437
c15 0 23 -7 23 -22v-95c0 -11 -4 -17 -13 -21l-126 -60c-43 -20 -50 -32 -50 -60c0 -36 12 -46 54 -46h84c13 0 18 -6 18 -18v-71c0 -12 -5 -18 -18 -18h-127c-100 0 -129 29 -129 122c0 65 14 97 72 118z" />
    <glyph glyph-name="eogonek" unicode="&#x119;" 
d="M496 -32l83 32h-300c-180 0 -238 57 -238 202v144c0 145 58 203 238 203h293c137 0 173 -43 173 -164v-95c0 -43 -18 -57 -57 -57h-505v-24c0 -63 23 -89 110 -89h417c12 0 18 -6 18 -18v-84c0 -8 -3 -14 -8 -16l-128 -61c-43 -20 -50 -32 -50 -60c0 -36 12 -46 54 -46
h84c13 0 18 -6 18 -18v-71c0 -12 -5 -18 -18 -18h-127c-100 0 -129 29 -129 122c0 65 14 97 72 118zM183 349v-27h405c12 0 17 4 17 17v42c0 41 -15 57 -61 57h-251c-87 0 -110 -25 -110 -89z" />
    <glyph glyph-name="Ecaron" unicode="&#x11a;" horiz-adv-x="850" 
d="M338 700h440c15 0 23 -7 23 -22v-95c0 -15 -8 -22 -23 -22h-437c-104 0 -133 -31 -133 -136v-10h565c15 0 22 -7 22 -22v-79c0 -15 -7 -22 -22 -22h-565v-17c0 -105 29 -136 133 -136h437c15 0 23 -7 23 -22v-95c0 -15 -8 -22 -23 -22h-440c-202 0 -280 72 -280 264v172
c0 192 78 264 280 264zM284 916h77c16 0 24 -6 31 -18l58 -87c3 -5 6 -8 13 -8h4c6 0 10 3 13 8l57 87c8 12 16 18 31 18h78c13 0 21 -9 12 -21l-105 -143c-11 -14 -22 -21 -44 -21h-89c-22 0 -33 7 -43 21l-106 143c-9 12 -1 21 13 21z" />
    <glyph glyph-name="ecaron" unicode="&#x11b;" 
d="M279 549h293c137 0 173 -43 173 -164v-95c0 -43 -18 -57 -57 -57h-505v-24c0 -63 23 -89 110 -89h417c12 0 18 -6 18 -18v-84c0 -12 -6 -18 -18 -18h-431c-180 0 -238 57 -238 202v144c0 145 58 203 238 203zM183 349v-27h405c12 0 17 4 17 17v42c0 41 -15 57 -61 57
h-251c-87 0 -110 -25 -110 -89zM214 816h77c16 0 24 -7 31 -23l58 -110c3 -6 6 -9 13 -9h4c6 0 9 3 12 9l58 110c7 16 15 23 31 23h77c14 0 22 -11 13 -25l-106 -181c-10 -17 -21 -25 -43 -25h-89c-22 0 -33 8 -43 25l-106 181c-9 14 -1 25 13 25z" />
    <glyph glyph-name="Gbreve" unicode="&#x11e;" horiz-adv-x="926" 
d="M338 700h507c15 0 22 -7 22 -22v-98c0 -15 -7 -23 -22 -23h-501c-103 0 -133 -30 -133 -136v-144c0 -106 30 -137 133 -137h330c35 0 50 16 50 61v81c0 9 -3 13 -12 13h-293c-14 0 -22 8 -22 23v75c0 15 8 23 22 23h417c20 0 30 -10 30 -30v-233
c0 -112 -44 -153 -124 -153h-404c-202 0 -280 72 -280 264v172c0 192 78 264 280 264zM242 849v41c0 11 7 19 18 19c7 0 15 -3 25 -10c22 -16 94 -67 196 -67c103 0 175 51 197 67c10 7 18 10 25 10c11 0 18 -8 18 -19v-41c0 -13 -2 -22 -19 -34c-37 -26 -124 -62 -221 -62
c-96 0 -183 36 -220 62c-17 12 -19 21 -19 34z" />
    <glyph glyph-name="gbreve" unicode="&#x11f;" horiz-adv-x="871" 
d="M292 549h280c181 0 238 -58 238 -202v-364c0 -146 -57 -204 -238 -204h-471c-12 0 -18 6 -18 18v84c0 12 6 18 18 18h457c87 0 110 26 110 111v26h-376c-180 0 -238 58 -238 204v105c0 146 58 204 238 204zM197 241c0 -68 23 -94 109 -94h362v187c0 71 -23 97 -110 97
h-252c-86 0 -109 -26 -109 -94v-96zM195 723v52c0 12 7 23 19 23c7 0 15 -3 25 -11c22 -19 93 -78 196 -78s174 59 197 78c9 8 18 11 24 11c12 0 19 -11 19 -23v-52c0 -15 -2 -27 -19 -41c-36 -30 -126 -70 -221 -70c-96 0 -184 40 -220 70c-18 15 -20 26 -20 41z" />
    <glyph glyph-name="Gdotaccent" unicode="&#x120;" horiz-adv-x="926" 
d="M338 700h507c15 0 22 -7 22 -22v-98c0 -15 -7 -23 -22 -23h-501c-103 0 -133 -30 -133 -136v-144c0 -106 30 -137 133 -137h330c35 0 50 16 50 61v81c0 9 -3 13 -12 13h-293c-14 0 -22 8 -22 23v75c0 15 8 23 22 23h417c20 0 30 -10 30 -30v-233
c0 -112 -44 -153 -124 -153h-404c-202 0 -280 72 -280 264v172c0 192 78 264 280 264zM441 885h98c15 0 22 -6 22 -18v-95c0 -12 -7 -18 -22 -18h-98c-15 0 -22 6 -22 18v95c0 12 7 18 22 18z" />
    <glyph glyph-name="gdotaccent" unicode="&#x121;" horiz-adv-x="871" 
d="M292 549h280c181 0 238 -58 238 -202v-364c0 -146 -57 -204 -238 -204h-471c-12 0 -18 6 -18 18v84c0 12 6 18 18 18h457c87 0 110 26 110 111v26h-376c-180 0 -238 58 -238 204v105c0 146 58 204 238 204zM197 241c0 -68 23 -94 109 -94h362v187c0 71 -23 97 -110 97
h-252c-86 0 -109 -26 -109 -94v-96zM383 752h98c15 0 22 -7 22 -22v-95c0 -15 -7 -23 -22 -23h-98c-15 0 -23 8 -23 23v95c0 15 8 22 23 22z" />
    <glyph glyph-name="Gcommaaccent" unicode="&#x122;" horiz-adv-x="926" 
d="M338 700h507c15 0 22 -7 22 -22v-98c0 -15 -7 -23 -22 -23h-501c-103 0 -133 -30 -133 -136v-144c0 -106 30 -137 133 -137h330c35 0 50 16 50 61v81c0 9 -3 13 -12 13h-293c-14 0 -22 8 -22 23v75c0 15 8 23 22 23h417c20 0 30 -10 30 -30v-233
c0 -112 -44 -153 -124 -153h-404c-202 0 -280 72 -280 264v172c0 192 78 264 280 264zM424 -41h90c16 0 23 -9 19 -26l-44 -182c-4 -15 -11 -23 -25 -23h-57c-16 0 -24 9 -23 23l16 185c1 15 10 23 24 23z" />
    <glyph glyph-name="gcommaaccent" unicode="&#x123;" horiz-adv-x="871" 
d="M292 549h280c181 0 238 -58 238 -202v-364c0 -146 -57 -204 -238 -204h-471c-12 0 -18 6 -18 18v84c0 12 6 18 18 18h457c87 0 110 26 110 111v26h-376c-180 0 -238 58 -238 204v105c0 146 58 204 238 204zM197 241c0 -68 23 -94 109 -94h362v187c0 71 -23 97 -110 97
h-252c-86 0 -109 -26 -109 -94v-96zM416 816h57c17 0 24 -9 23 -23l-16 -185c-1 -15 -10 -23 -23 -23h-91c-16 0 -23 9 -18 25l43 183c4 15 11 23 25 23z" />
    <glyph glyph-name="Hbar" unicode="&#x126;" horiz-adv-x="906" 
d="M28 615h38v63c0 15 8 22 23 22h108c15 0 22 -7 22 -22v-63h468v63c0 15 7 22 22 22h108c15 0 23 -7 23 -22v-63h38c15 0 22 -7 22 -22v-58c0 -15 -7 -22 -22 -22h-38v-491c0 -15 -8 -22 -23 -22h-108c-15 0 -22 7 -22 22v266h-468v-266c0 -15 -7 -22 -22 -22h-108
c-15 0 -23 7 -23 22v491h-38c-15 0 -23 7 -23 22v58c0 15 8 22 23 22zM219 418h468v95h-468v-95z" />
    <glyph glyph-name="hbar" unicode="&#x127;" horiz-adv-x="879" 
d="M28 734h36c2 11 9 16 22 16h98c13 0 19 -5 21 -16h292c15 0 22 -7 22 -22v-58c0 -15 -7 -22 -22 -22h-291v-83h374c180 0 238 -58 238 -203v-324c0 -15 -7 -22 -22 -22h-98c-15 0 -22 7 -22 22v290c0 84 -17 110 -103 110h-367v-400c0 -15 -7 -22 -22 -22h-98
c-15 0 -22 7 -22 22v610h-36c-15 0 -23 7 -23 22v58c0 15 8 22 23 22z" />
    <glyph glyph-name="Itilde" unicode="&#x128;" horiz-adv-x="485" 
d="M189 700h108c15 0 22 -7 22 -22v-656c0 -15 -7 -22 -22 -22h-108c-15 0 -23 7 -23 22v656c0 15 8 22 23 22zM60 743h-56c-16 0 -18 8 -18 29c0 109 36 140 125 140c72 0 120 -20 165 -56c22 -19 38 -31 76 -31c40 0 45 15 46 69c1 16 11 22 27 22h57c15 0 18 -8 18 -29
c0 -109 -37 -140 -126 -140c-71 0 -119 20 -164 56c-23 19 -38 31 -77 31s-45 -15 -45 -69c-1 -16 -11 -22 -28 -22z" />
    <glyph glyph-name="itilde" unicode="&#x129;" horiz-adv-x="514" 
d="M74 602h-56c-16 0 -19 8 -19 31c0 118 37 152 125 152c73 0 120 -22 166 -60c21 -19 37 -32 76 -32c40 0 45 15 45 71c1 18 11 24 28 24h56c16 0 18 -8 18 -31c0 -118 -36 -152 -124 -152c-73 0 -120 22 -166 60c-21 19 -38 32 -76 32c-40 0 -45 -15 -46 -71
c0 -18 -10 -24 -27 -24zM208 549h98c15 0 22 -8 22 -23v-504c0 -15 -7 -22 -22 -22h-98c-15 0 -22 7 -22 22v504c0 15 7 23 22 23z" />
    <glyph glyph-name="Imacron" unicode="&#x12a;" horiz-adv-x="458" 
d="M175 700h108c15 0 22 -7 22 -22v-656c0 -15 -7 -22 -22 -22h-108c-15 0 -23 7 -23 22v656c0 15 8 22 23 22zM-6 870h470c15 0 22 -6 22 -18v-62c0 -12 -7 -18 -22 -18h-470c-15 0 -22 6 -22 18v62c0 12 7 18 22 18z" />
    <glyph glyph-name="imacron" unicode="&#x12b;" horiz-adv-x="496" 
d="M14 734h469c15 0 22 -7 22 -22v-58c0 -15 -7 -22 -22 -22h-469c-15 0 -23 7 -23 22v58c0 15 8 22 23 22zM199 549h98c15 0 22 -8 22 -23v-504c0 -15 -7 -22 -22 -22h-98c-15 0 -22 7 -22 22v504c0 15 7 23 22 23z" />
    <glyph glyph-name="Ibreve" unicode="&#x12c;" horiz-adv-x="437" 
d="M165 700h108c15 0 22 -7 22 -22v-656c0 -15 -7 -22 -22 -22h-108c-15 0 -23 7 -23 22v656c0 15 8 22 23 22zM-20 849v41c0 11 7 19 18 19c7 0 15 -3 25 -10c22 -16 94 -67 196 -67c103 0 175 51 197 67c10 7 18 10 25 10c11 0 18 -8 18 -19v-41c0 -13 -2 -22 -19 -34
c-37 -26 -124 -62 -221 -62c-96 0 -183 36 -220 62c-17 12 -19 21 -19 34z" />
    <glyph glyph-name="ibreve" unicode="&#x12d;" horiz-adv-x="469" 
d="M-6 723v52c0 12 7 23 19 23c7 0 15 -3 25 -11c22 -19 93 -78 196 -78s174 59 197 78c9 8 18 11 24 11c12 0 19 -11 19 -23v-52c0 -15 -2 -27 -19 -41c-36 -30 -126 -70 -221 -70c-96 0 -184 40 -220 70c-18 15 -20 26 -20 41zM185 549h98c15 0 22 -8 22 -23v-504
c0 -15 -7 -22 -22 -22h-98c-15 0 -22 7 -22 22v504c0 15 7 23 22 23z" />
    <glyph glyph-name="Iogonek" unicode="&#x12e;" horiz-adv-x="336" 
d="M36 -32l80 31v679c0 15 8 22 23 22h108c15 0 22 -7 22 -22v-656c0 -10 -3 -16 -9 -19l-128 -62c-43 -21 -50 -32 -50 -60c0 -36 12 -46 54 -46h84c13 0 18 -6 18 -18v-71c0 -12 -5 -18 -18 -18h-127c-100 0 -129 29 -129 122c0 65 14 97 72 118z" />
    <glyph glyph-name="iogonek" unicode="&#x12f;" horiz-adv-x="324" 
d="M140 549h98c15 0 22 -8 22 -23v-504c0 -10 -3 -17 -11 -21l-124 -60c-43 -21 -50 -32 -50 -60c0 -36 12 -46 54 -46h84c13 0 18 -6 18 -18v-71c0 -12 -5 -18 -18 -18h-127c-100 0 -129 29 -129 122c0 65 14 96 72 118l89 34v524c0 15 7 23 22 23zM141 752h98
c15 0 22 -7 22 -22v-95c0 -15 -7 -23 -22 -23h-98c-15 0 -23 8 -23 23v95c0 15 8 22 23 22z" />
    <glyph glyph-name="Idotaccent" unicode="&#x130;" horiz-adv-x="286" 
d="M89 700h108c15 0 22 -7 22 -22v-656c0 -15 -7 -22 -22 -22h-108c-15 0 -23 7 -23 22v656c0 15 8 22 23 22zM93 885h98c15 0 22 -6 22 -18v-95c0 -12 -7 -18 -22 -18h-98c-15 0 -22 6 -22 18v95c0 12 7 18 22 18z" />
    <glyph glyph-name="dotlessi" unicode="&#x131;" horiz-adv-x="270" 
d="M86 549h98c15 0 22 -8 22 -23v-504c0 -15 -7 -22 -22 -22h-98c-15 0 -22 7 -22 22v504c0 15 7 23 22 23z" />
    <glyph glyph-name="IJ" unicode="&#x132;" horiz-adv-x="1067" 
d="M89 700h108c15 0 22 -7 22 -22v-656c0 -15 -7 -22 -22 -22h-108c-15 0 -23 7 -23 22v656c0 15 8 22 23 22zM872 700h108c15 0 22 -7 22 -22v-414c0 -192 -77 -264 -280 -264h-390c-15 0 -23 7 -23 22v98c0 15 8 22 23 22h385c103 0 132 31 132 137v399c0 15 8 22 23 22z
" />
    <glyph glyph-name="ij" unicode="&#x133;" horiz-adv-x="552" 
d="M86 549h98c15 0 22 -8 22 -23v-504c0 -15 -7 -22 -22 -22h-98c-15 0 -22 7 -22 22v504c0 15 7 23 22 23zM370 549h98c15 0 22 -8 22 -23v-546c0 -144 -54 -201 -228 -201h-79c-13 0 -18 6 -18 18v84c0 12 5 18 18 18h65c80 0 99 26 99 109v518c0 15 8 23 23 23zM370 752
h98c15 0 22 -7 22 -22v-95c0 -15 -7 -23 -22 -23h-98c-15 0 -23 8 -23 23v95c0 15 8 22 23 22zM86 752h98c15 0 22 -7 22 -22v-95c0 -15 -7 -23 -22 -23h-98c-15 0 -23 8 -23 23v95c0 15 8 22 23 22z" />
    <glyph glyph-name="Kcommaaccent" unicode="&#x136;" horiz-adv-x="854" 
d="M89 700h108c15 0 22 -7 22 -22v-266h141c63 0 82 7 111 45l172 230c7 9 11 13 29 13h124c17 0 20 -15 13 -24l-194 -251c-23 -30 -41 -51 -60 -67c27 -17 51 -40 76 -72l205 -260c5 -7 7 -26 -13 -26h-128c-17 0 -21 4 -28 13l-184 238c-27 35 -50 45 -112 45h-152v-274
c0 -15 -7 -22 -22 -22h-108c-15 0 -23 7 -23 22v656c0 15 8 22 23 22zM374 -41h90c16 0 23 -9 19 -26l-44 -182c-4 -15 -11 -23 -25 -23h-57c-16 0 -24 9 -23 23l16 185c1 15 10 23 24 23z" />
    <glyph glyph-name="kcommaaccent" unicode="&#x137;" horiz-adv-x="794" 
d="M85 750h98c15 0 22 -7 22 -22v-396h184c57 0 73 5 99 42l112 158c8 12 15 17 30 17h113c15 0 19 -14 10 -27l-129 -177c-20 -27 -40 -48 -62 -64c28 -16 51 -37 71 -64l142 -192c8 -11 3 -25 -12 -25h-112c-17 0 -23 3 -31 14l-122 168c-24 32 -45 42 -100 42h-193v-202
c0 -15 -7 -22 -22 -22h-98c-15 0 -23 7 -23 22v706c0 15 8 22 23 22zM350 -41h90c16 0 23 -9 19 -26l-44 -182c-4 -15 -11 -23 -25 -23h-57c-16 0 -24 9 -23 23l16 185c1 15 10 23 24 23z" />
    <glyph glyph-name="Lacute" unicode="&#x139;" horiz-adv-x="801" 
d="M87 700h108c15 0 22 -7 22 -22v-399c0 -106 30 -137 133 -137h405c15 0 22 -7 22 -22v-98c0 -15 -7 -22 -22 -22h-411c-202 0 -280 72 -280 264v414c0 15 8 22 23 22zM221 916h89c14 0 23 -7 14 -19l-102 -147c-8 -13 -15 -19 -30 -19h-76c-15 0 -23 7 -15 19l89 147
c7 12 16 19 31 19z" />
    <glyph glyph-name="lacute" unicode="&#x13a;" horiz-adv-x="283" 
d="M206 916h89c14 0 23 -7 14 -19l-107 -155c2 -3 4 -8 4 -14v-706c0 -15 -7 -22 -22 -22h-98c-15 0 -22 7 -22 22v706c0 15 7 22 22 22l89 147c7 12 16 19 31 19z" />
    <glyph glyph-name="Lcommaaccent" unicode="&#x13b;" horiz-adv-x="801" 
d="M87 700h108c15 0 22 -7 22 -22v-399c0 -106 30 -137 133 -137h405c15 0 22 -7 22 -22v-98c0 -15 -7 -22 -22 -22h-411c-202 0 -280 72 -280 264v414c0 15 8 22 23 22zM391 -41h90c16 0 23 -9 19 -26l-44 -182c-4 -15 -11 -23 -25 -23h-57c-16 0 -24 9 -23 23l16 185
c1 15 10 23 24 23z" />
    <glyph glyph-name="lcommaaccent" unicode="&#x13c;" horiz-adv-x="270" 
d="M86 750h98c15 0 22 -7 22 -22v-706c0 -15 -7 -22 -22 -22h-98c-15 0 -22 7 -22 22v706c0 15 7 22 22 22zM87 -41h90c16 0 23 -9 19 -26l-44 -182c-4 -15 -11 -23 -25 -23h-57c-16 0 -24 9 -23 23l16 185c1 15 10 23 24 23z" />
    <glyph glyph-name="Lcaron" unicode="&#x13d;" horiz-adv-x="801" 
d="M87 700h108c15 0 22 -7 22 -22v-399c0 -106 30 -137 133 -137h405c15 0 22 -7 22 -22v-98c0 -15 -7 -22 -22 -22h-411c-202 0 -280 72 -280 264v414c0 15 8 22 23 22zM456 746h90c16 0 23 -9 19 -26l-44 -182c-4 -15 -11 -23 -25 -23h-57c-16 0 -24 9 -23 23l16 185
c1 15 10 23 24 23z" />
    <glyph glyph-name="lcaron" unicode="&#x13e;" horiz-adv-x="375" 
d="M86 750h98c15 0 22 -7 22 -22v-706c0 -15 -7 -22 -22 -22h-98c-15 0 -22 7 -22 22v706c0 15 7 22 22 22zM289 746h90c16 0 23 -9 19 -26l-44 -182c-4 -15 -11 -23 -25 -23h-57c-16 0 -24 9 -23 23l16 185c1 15 10 23 24 23z" />
    <glyph glyph-name="Lslash" unicode="&#x141;" horiz-adv-x="822" 
d="M108 700h108c15 0 22 -7 22 -22v-165l169 57c12 4 18 0 18 -11v-70c0 -12 -5 -15 -16 -19l-171 -58v-133c0 -106 30 -137 133 -137h405c15 0 22 -7 22 -22v-98c0 -15 -7 -22 -22 -22h-411c-202 0 -280 72 -280 264v96l-61 -21c-11 -4 -18 1 -18 12v70c0 12 5 15 17 19
l62 21v217c0 15 8 22 23 22z" />
    <glyph glyph-name="lslash" unicode="&#x142;" horiz-adv-x="428" 
d="M165 750h98c15 0 22 -7 22 -22v-135l120 41c12 4 18 0 18 -11v-70c0 -12 -5 -15 -16 -19l-122 -42v-470c0 -15 -7 -22 -22 -22h-98c-15 0 -22 7 -22 22v422l-121 -41c-11 -4 -18 1 -18 12v70c0 12 5 15 17 19l122 41v183c0 15 7 22 22 22z" />
    <glyph glyph-name="Nacute" unicode="&#x143;" horiz-adv-x="978" 
d="M156 700h88c64 0 78 -8 116 -59l372 -488c3 -5 7 -7 13 -7h9c5 0 8 3 8 10v522c0 15 7 22 22 22h105c15 0 22 -7 22 -22v-574c0 -81 -29 -104 -90 -104h-86c-61 0 -76 6 -116 59l-373 488c-4 5 -7 7 -13 7h-9c-6 0 -8 -3 -8 -10v-522c0 -15 -7 -22 -22 -22h-105
c-15 0 -23 7 -23 22v574c0 81 29 104 90 104zM529 916h89c14 0 23 -7 14 -19l-102 -147c-8 -13 -15 -19 -30 -19h-76c-15 0 -23 7 -15 19l89 147c7 12 16 19 31 19z" />
    <glyph glyph-name="nacute" unicode="&#x144;" horiz-adv-x="884" 
d="M298 549h287c180 0 238 -58 238 -203v-324c0 -15 -7 -22 -22 -22h-98c-15 0 -22 7 -22 22v290c0 84 -17 110 -103 110h-266c-86 0 -109 -26 -109 -110v-290c0 -15 -7 -22 -22 -22h-98c-15 0 -23 7 -23 22v324c0 145 58 203 238 203zM478 816h88c14 0 23 -8 15 -23
l-103 -185c-8 -15 -15 -23 -30 -23h-76c-15 0 -23 9 -16 23l91 185c7 15 16 23 31 23z" />
    <glyph glyph-name="Ncommaaccent" unicode="&#x145;" horiz-adv-x="978" 
d="M156 700h88c64 0 78 -8 116 -59l372 -488c3 -5 7 -7 13 -7h9c5 0 8 3 8 10v522c0 15 7 22 22 22h105c15 0 22 -7 22 -22v-574c0 -81 -29 -104 -90 -104h-86c-61 0 -76 6 -116 59l-373 488c-4 5 -7 7 -13 7h-9c-6 0 -8 -3 -8 -10v-522c0 -15 -7 -22 -22 -22h-105
c-15 0 -23 7 -23 22v574c0 81 29 104 90 104zM421 -41h90c16 0 23 -9 19 -26l-44 -182c-4 -15 -11 -23 -25 -23h-57c-16 0 -24 9 -23 23l16 185c1 15 10 23 24 23z" />
    <glyph glyph-name="ncommaaccent" unicode="&#x146;" horiz-adv-x="884" 
d="M298 549h287c180 0 238 -58 238 -203v-324c0 -15 -7 -22 -22 -22h-98c-15 0 -22 7 -22 22v290c0 84 -17 110 -103 110h-266c-86 0 -109 -26 -109 -110v-290c0 -15 -7 -22 -22 -22h-98c-15 0 -23 7 -23 22v324c0 145 58 203 238 203zM403 -41h90c16 0 23 -9 19 -26
l-44 -182c-4 -15 -11 -23 -25 -23h-57c-16 0 -24 9 -23 23l16 185c1 15 10 23 24 23z" />
    <glyph glyph-name="Ncaron" unicode="&#x147;" horiz-adv-x="978" 
d="M156 700h88c64 0 78 -8 116 -59l372 -488c3 -5 7 -7 13 -7h9c5 0 8 3 8 10v522c0 15 7 22 22 22h105c15 0 22 -7 22 -22v-574c0 -81 -29 -104 -90 -104h-86c-61 0 -76 6 -116 59l-373 488c-4 5 -7 7 -13 7h-9c-6 0 -8 -3 -8 -10v-522c0 -15 -7 -22 -22 -22h-105
c-15 0 -23 7 -23 22v574c0 81 29 104 90 104zM309 916h77c16 0 24 -6 31 -18l58 -87c3 -5 6 -8 13 -8h4c6 0 10 3 13 8l57 87c8 12 16 18 31 18h78c13 0 21 -9 12 -21l-105 -143c-11 -14 -22 -21 -44 -21h-89c-22 0 -33 7 -43 21l-106 143c-9 12 -1 21 13 21z" />
    <glyph glyph-name="ncaron" unicode="&#x148;" horiz-adv-x="884" 
d="M298 549h287c180 0 238 -58 238 -203v-324c0 -15 -7 -22 -22 -22h-98c-15 0 -22 7 -22 22v290c0 84 -17 110 -103 110h-266c-86 0 -109 -26 -109 -110v-290c0 -15 -7 -22 -22 -22h-98c-15 0 -23 7 -23 22v324c0 145 58 203 238 203zM261 816h77c16 0 24 -7 31 -23
l58 -110c3 -6 6 -9 13 -9h4c6 0 9 3 12 9l58 110c7 16 15 23 31 23h77c14 0 22 -11 13 -25l-106 -181c-10 -17 -21 -25 -43 -25h-89c-22 0 -33 8 -43 25l-106 181c-9 14 -1 25 13 25z" />
    <glyph glyph-name="Eng" unicode="&#x14a;" horiz-adv-x="977" 
d="M759 8v413c0 106 -29 136 -132 136h-277c-103 0 -133 -30 -133 -136v-399c0 -15 -7 -22 -22 -22h-108c-15 0 -23 7 -23 22v414c0 192 78 264 280 264h288c203 0 280 -72 280 -264v-456c0 -144 -64 -201 -238 -201h-79c-13 0 -18 6 -18 18v84c0 12 5 18 18 18h65
c80 0 99 26 99 109z" />
    <glyph glyph-name="eng" unicode="&#x14b;" horiz-adv-x="884" 
d="M823 346v-366c0 -144 -53 -201 -227 -201h-79c-13 0 -18 6 -18 18v84c0 12 5 18 18 18h65c80 0 99 26 99 109v304c0 84 -17 110 -103 110h-266c-86 0 -109 -26 -109 -110v-290c0 -15 -7 -22 -22 -22h-98c-15 0 -23 7 -23 22v324c0 145 58 203 238 203h287
c180 0 238 -58 238 -203z" />
    <glyph glyph-name="Omacron" unicode="&#x14c;" horiz-adv-x="985" 
d="M338 700h309c203 0 280 -72 280 -264v-172c0 -192 -77 -264 -280 -264h-309c-202 0 -280 72 -280 264v172c0 192 78 264 280 264zM211 425v-150c0 -105 30 -136 133 -136h297c103 0 133 31 133 136v150c0 105 -30 136 -133 136h-297c-103 0 -133 -31 -133 -136zM257 870
h470c15 0 22 -6 22 -18v-62c0 -12 -7 -18 -22 -18h-470c-15 0 -22 6 -22 18v62c0 12 7 18 22 18z" />
    <glyph glyph-name="omacron" unicode="&#x14d;" horiz-adv-x="868" 
d="M292 549h283c180 0 238 -58 238 -203v-144c0 -145 -58 -202 -238 -202h-283c-180 0 -238 57 -238 202v144c0 145 58 203 238 203zM197 322v-95c0 -84 23 -110 109 -110h255c87 0 110 26 110 110v95c0 84 -23 109 -110 109h-255c-86 0 -109 -25 -109 -109zM200 734h469
c15 0 22 -7 22 -22v-58c0 -15 -7 -22 -22 -22h-469c-15 0 -23 7 -23 22v58c0 15 8 22 23 22z" />
    <glyph glyph-name="Obreve" unicode="&#x14e;" horiz-adv-x="985" 
d="M338 700h309c203 0 280 -72 280 -264v-172c0 -192 -77 -264 -280 -264h-309c-202 0 -280 72 -280 264v172c0 192 78 264 280 264zM211 425v-150c0 -105 30 -136 133 -136h297c103 0 133 31 133 136v150c0 105 -30 136 -133 136h-297c-103 0 -133 -31 -133 -136zM252 849
v41c0 11 7 19 18 19c7 0 15 -3 25 -10c22 -16 94 -67 196 -67c103 0 175 51 197 67c10 7 18 10 25 10c11 0 18 -8 18 -19v-41c0 -13 -2 -22 -19 -34c-37 -26 -124 -62 -221 -62c-96 0 -183 36 -220 62c-17 12 -19 21 -19 34z" />
    <glyph glyph-name="obreve" unicode="&#x14f;" horiz-adv-x="868" 
d="M292 549h283c180 0 238 -58 238 -203v-144c0 -145 -58 -202 -238 -202h-283c-180 0 -238 57 -238 202v144c0 145 58 203 238 203zM197 322v-95c0 -84 23 -110 109 -110h255c87 0 110 26 110 110v95c0 84 -23 109 -110 109h-255c-86 0 -109 -25 -109 -109zM193 723v52
c0 12 7 23 19 23c7 0 15 -3 25 -11c22 -19 93 -78 196 -78s174 59 197 78c9 8 18 11 24 11c12 0 19 -11 19 -23v-52c0 -15 -2 -27 -19 -41c-36 -30 -126 -70 -221 -70c-96 0 -184 40 -220 70c-18 15 -20 26 -20 41z" />
    <glyph glyph-name="Ohungarumlaut" unicode="&#x150;" horiz-adv-x="985" 
d="M338 700h309c203 0 280 -72 280 -264v-172c0 -192 -77 -264 -280 -264h-309c-202 0 -280 72 -280 264v172c0 192 78 264 280 264zM211 425v-150c0 -105 30 -136 133 -136h297c103 0 133 31 133 136v150c0 105 -30 136 -133 136h-297c-103 0 -133 -31 -133 -136zM416 916
h88c14 0 23 -7 15 -19l-102 -147c-8 -13 -16 -19 -31 -19h-76c-15 0 -22 7 -15 19l90 147c6 12 16 19 31 19zM644 916h89c13 0 23 -7 14 -19l-102 -147c-8 -13 -15 -19 -30 -19h-76c-16 0 -23 7 -16 19l90 147c7 12 16 19 31 19z" />
    <glyph glyph-name="ohungarumlaut" unicode="&#x151;" horiz-adv-x="868" 
d="M292 549h283c180 0 238 -58 238 -203v-144c0 -145 -58 -202 -238 -202h-283c-180 0 -238 57 -238 202v144c0 145 58 203 238 203zM197 322v-95c0 -84 23 -110 109 -110h255c87 0 110 26 110 110v95c0 84 -23 109 -110 109h-255c-86 0 -109 -25 -109 -109zM584 816h88
c14 0 23 -8 15 -23l-103 -185c-8 -15 -15 -23 -30 -23h-76c-16 0 -23 9 -16 23l91 185c7 15 16 23 31 23zM356 816h88c14 0 23 -8 15 -23l-103 -185c-9 -15 -16 -23 -31 -23h-76c-15 0 -22 9 -15 23l90 185c7 15 16 23 32 23z" />
    <glyph glyph-name="OE" unicode="&#x152;" horiz-adv-x="1571" 
d="M338 700h309c94 0 161 -16 206 -52c45 36 112 52 206 52h440c15 0 23 -7 23 -22v-95c0 -15 -8 -22 -23 -22h-437c-104 0 -133 -31 -133 -136v-10h565c15 0 22 -7 22 -22v-79c0 -15 -7 -22 -22 -22h-565v-17c0 -105 29 -136 133 -136h437c15 0 23 -7 23 -22v-95
c0 -15 -8 -22 -23 -22h-440c-94 0 -161 15 -206 51c-45 -36 -112 -51 -206 -51h-309c-202 0 -280 72 -280 264v172c0 192 78 264 280 264zM211 425v-150c0 -105 30 -136 133 -136h297c103 0 133 31 133 136v150c0 105 -30 136 -133 136h-297c-103 0 -133 -31 -133 -136z" />
    <glyph glyph-name="oe" unicode="&#x153;" horiz-adv-x="1423" 
d="M292 549h283c77 0 131 -11 169 -34c37 23 92 34 169 34h293c137 0 173 -43 173 -164v-95c0 -43 -18 -57 -57 -57h-505v-24c0 -63 23 -89 110 -89h417c12 0 18 -6 18 -18v-84c0 -12 -6 -18 -18 -18h-431c-77 0 -132 11 -169 34c-38 -23 -92 -34 -169 -34h-283
c-180 0 -238 57 -238 202v144c0 145 58 203 238 203zM197 322v-95c0 -84 23 -110 109 -110h255c87 0 110 26 110 110v95c0 84 -23 109 -110 109h-255c-86 0 -109 -25 -109 -109zM817 349v-27h405c12 0 17 4 17 17v42c0 41 -15 57 -61 57h-251c-87 0 -110 -25 -110 -89z" />
    <glyph glyph-name="Racute" unicode="&#x154;" horiz-adv-x="905" 
d="M96 700h537c153 0 215 -71 215 -206v-57c0 -114 -44 -181 -149 -200l171 -212c6 -7 5 -25 -13 -25h-129c-17 0 -22 4 -28 13l-158 208h-323v-199c0 -15 -7 -22 -22 -22h-108c-15 0 -23 7 -23 22v648c0 20 10 30 30 30zM219 551v-208h383c68 0 93 29 93 89v42
c0 60 -25 89 -93 89h-370c-9 0 -13 -4 -13 -12zM465 916h89c14 0 23 -7 14 -19l-102 -147c-8 -13 -15 -19 -30 -19h-76c-15 0 -23 7 -15 19l89 147c7 12 16 19 31 19z" />
    <glyph glyph-name="racute" unicode="&#x155;" horiz-adv-x="613" 
d="M298 549h280c12 0 18 -6 18 -18v-84c0 -13 -6 -18 -18 -18h-266c-86 0 -109 -26 -109 -110v-297c0 -15 -7 -22 -22 -22h-98c-15 0 -23 7 -23 22v324c0 145 58 203 238 203zM385 816h88c14 0 23 -8 15 -23l-103 -185c-8 -15 -15 -23 -30 -23h-76c-15 0 -23 9 -16 23
l91 185c7 15 16 23 31 23z" />
    <glyph glyph-name="Rcommaaccent" unicode="&#x156;" horiz-adv-x="905" 
d="M96 700h537c153 0 215 -71 215 -206v-57c0 -114 -44 -181 -149 -200l171 -212c6 -7 5 -25 -13 -25h-129c-17 0 -22 4 -28 13l-158 208h-323v-199c0 -15 -7 -22 -22 -22h-108c-15 0 -23 7 -23 22v648c0 20 10 30 30 30zM219 551v-208h383c68 0 93 29 93 89v42
c0 60 -25 89 -93 89h-370c-9 0 -13 -4 -13 -12zM395 -41h90c16 0 23 -9 19 -26l-44 -182c-4 -15 -11 -23 -25 -23h-57c-16 0 -24 9 -23 23l16 185c1 15 10 23 24 23z" />
    <glyph glyph-name="rcommaaccent" unicode="&#x157;" horiz-adv-x="613" 
d="M298 549h280c12 0 18 -6 18 -18v-84c0 -13 -6 -18 -18 -18h-266c-86 0 -109 -26 -109 -110v-297c0 -15 -7 -22 -22 -22h-98c-15 0 -23 7 -23 22v324c0 145 58 203 238 203zM88 -41h90c16 0 23 -9 19 -26l-44 -182c-4 -15 -11 -23 -25 -23h-57c-16 0 -24 9 -23 23l16 185
c1 15 10 23 24 23z" />
    <glyph glyph-name="Rcaron" unicode="&#x158;" horiz-adv-x="905" 
d="M96 700h537c153 0 215 -71 215 -206v-57c0 -114 -44 -181 -149 -200l171 -212c6 -7 5 -25 -13 -25h-129c-17 0 -22 4 -28 13l-158 208h-323v-199c0 -15 -7 -22 -22 -22h-108c-15 0 -23 7 -23 22v648c0 20 10 30 30 30zM219 551v-208h383c68 0 93 29 93 89v42
c0 60 -25 89 -93 89h-370c-9 0 -13 -4 -13 -12zM242 916h77c16 0 24 -6 31 -18l58 -87c3 -5 6 -8 13 -8h4c6 0 10 3 13 8l57 87c8 12 16 18 31 18h78c13 0 21 -9 12 -21l-105 -143c-11 -14 -22 -21 -44 -21h-89c-22 0 -33 7 -43 21l-106 143c-9 12 -1 21 13 21z" />
    <glyph glyph-name="rcaron" unicode="&#x159;" horiz-adv-x="613" 
d="M298 549h280c12 0 18 -6 18 -18v-84c0 -13 -6 -18 -18 -18h-266c-86 0 -109 -26 -109 -110v-297c0 -15 -7 -22 -22 -22h-98c-15 0 -23 7 -23 22v324c0 145 58 203 238 203zM155 816h77c16 0 24 -7 31 -23l58 -110c3 -6 6 -9 13 -9h4c6 0 9 3 12 9l58 110
c7 16 15 23 31 23h77c14 0 22 -11 13 -25l-106 -181c-10 -17 -21 -25 -43 -25h-89c-22 0 -33 8 -43 25l-106 181c-9 14 -1 25 13 25z" />
    <glyph glyph-name="Sacute" unicode="&#x15a;" horiz-adv-x="857" 
d="M231 700h530c15 0 22 -7 22 -22v-95c0 -15 -7 -22 -22 -22h-501c-38 0 -53 -21 -53 -56v-34c0 -37 17 -56 52 -56h375c115 0 175 -62 175 -172v-80c0 -97 -56 -163 -177 -163h-554c-15 0 -23 7 -23 22v95c0 15 8 22 23 22h525c38 0 53 21 53 56v41c0 37 -17 56 -52 56
h-375c-115 0 -175 62 -175 172v73c0 97 56 163 177 163zM465 916h89c14 0 23 -7 14 -19l-102 -147c-8 -13 -15 -19 -30 -19h-76c-15 0 -23 7 -15 19l89 147c7 12 16 19 31 19z" />
    <glyph glyph-name="sacute" unicode="&#x15b;" horiz-adv-x="783" 
d="M208 549h488c12 0 18 -6 18 -18v-80c0 -12 -6 -18 -18 -18h-451c-41 0 -55 -16 -55 -45v-15c0 -27 14 -43 55 -43h337c112 0 156 -48 156 -134v-56c0 -88 -39 -140 -157 -140h-512c-12 0 -18 6 -18 18v80c0 12 6 18 18 18h474c41 0 56 14 56 48v27c0 26 -15 42 -56 42
h-336c-112 0 -156 47 -156 135v44c0 83 39 137 157 137zM430 816h88c14 0 23 -8 15 -23l-103 -185c-8 -15 -15 -23 -30 -23h-76c-15 0 -23 9 -16 23l91 185c7 15 16 23 31 23z" />
    <glyph glyph-name="Scedilla" unicode="&#x15e;" horiz-adv-x="857" 
d="M231 700h530c15 0 22 -7 22 -22v-95c0 -15 -7 -22 -22 -22h-501c-38 0 -53 -21 -53 -56v-34c0 -37 17 -56 52 -56h375c115 0 175 -62 175 -172v-80c0 -97 -56 -163 -177 -163h-554c-15 0 -23 7 -23 22v95c0 15 8 22 23 22h525c38 0 53 21 53 56v41c0 37 -17 56 -52 56
h-375c-115 0 -175 62 -175 172v73c0 97 56 163 177 163zM390 -41h90c16 0 23 -9 19 -26l-44 -182c-4 -15 -11 -23 -25 -23h-57c-16 0 -24 9 -23 23l16 185c1 15 10 23 24 23z" />
    <glyph glyph-name="scedilla" unicode="&#x15f;" horiz-adv-x="783" 
d="M208 549h488c12 0 18 -6 18 -18v-80c0 -12 -6 -18 -18 -18h-451c-41 0 -55 -16 -55 -45v-15c0 -27 14 -43 55 -43h337c112 0 156 -48 156 -134v-56c0 -88 -39 -140 -157 -140h-512c-12 0 -18 6 -18 18v80c0 12 6 18 18 18h474c41 0 56 14 56 48v27c0 26 -15 42 -56 42
h-336c-112 0 -156 47 -156 135v44c0 83 39 137 157 137zM352 -41h90c16 0 23 -9 19 -26l-44 -182c-4 -15 -11 -23 -25 -23h-57c-16 0 -24 9 -23 23l16 185c1 15 10 23 24 23z" />
    <glyph glyph-name="Scaron" unicode="&#x160;" horiz-adv-x="857" 
d="M231 700h530c15 0 22 -7 22 -22v-95c0 -15 -7 -22 -22 -22h-501c-38 0 -53 -21 -53 -56v-34c0 -37 17 -56 52 -56h375c115 0 175 -62 175 -172v-80c0 -97 -56 -163 -177 -163h-554c-15 0 -23 7 -23 22v95c0 15 8 22 23 22h525c38 0 53 21 53 56v41c0 37 -17 56 -52 56
h-375c-115 0 -175 62 -175 172v73c0 97 56 163 177 163zM250 916h77c16 0 24 -6 31 -18l58 -87c3 -5 6 -8 13 -8h4c6 0 10 3 13 8l57 87c8 12 16 18 31 18h78c13 0 21 -9 12 -21l-105 -143c-11 -14 -22 -21 -44 -21h-89c-22 0 -33 7 -43 21l-106 143c-9 12 -1 21 13 21z" />
    <glyph glyph-name="scaron" unicode="&#x161;" horiz-adv-x="783" 
d="M208 549h488c12 0 18 -6 18 -18v-80c0 -12 -6 -18 -18 -18h-451c-41 0 -55 -16 -55 -45v-15c0 -27 14 -43 55 -43h337c112 0 156 -48 156 -134v-56c0 -88 -39 -140 -157 -140h-512c-12 0 -18 6 -18 18v80c0 12 6 18 18 18h474c41 0 56 14 56 48v27c0 26 -15 42 -56 42
h-336c-112 0 -156 47 -156 135v44c0 83 39 137 157 137zM212 816h77c16 0 24 -7 31 -23l58 -110c3 -6 6 -9 13 -9h4c6 0 9 3 12 9l58 110c7 16 15 23 31 23h77c14 0 22 -11 13 -25l-106 -181c-10 -17 -21 -25 -43 -25h-89c-22 0 -33 8 -43 25l-106 181c-9 14 -1 25 13 25z
" />
    <glyph glyph-name="Tcedilla" unicode="&#x162;" horiz-adv-x="873" 
d="M46 700h781c15 0 23 -7 23 -22v-98c0 -15 -8 -23 -23 -23h-314v-535c0 -15 -7 -22 -22 -22h-109c-15 0 -22 7 -22 22v535h-314c-15 0 -23 8 -23 23v98c0 15 8 22 23 22zM387 -41h90c16 0 23 -9 19 -26l-44 -182c-4 -15 -11 -23 -25 -23h-57c-16 0 -24 9 -23 23l16 185
c1 15 10 23 24 23z" />
    <glyph glyph-name="tcedilla" unicode="&#x163;" horiz-adv-x="505" 
d="M35 549h95v132c0 15 8 22 22 22h99c14 0 22 -7 22 -22v-132h175c13 0 18 -6 18 -18v-82c0 -12 -5 -18 -18 -18h-175v-232c0 -55 18 -81 84 -81h97c13 0 18 -6 18 -18v-82c0 -12 -5 -18 -18 -18h-121c-160 0 -203 57 -203 199v232h-95c-12 0 -18 6 -18 18v82
c0 12 6 18 18 18zM243 -41h90c16 0 23 -9 19 -26l-44 -182c-4 -15 -11 -23 -25 -23h-57c-16 0 -24 9 -23 23l16 185c1 15 10 23 24 23z" />
    <glyph glyph-name="Tcaron" unicode="&#x164;" horiz-adv-x="873" 
d="M46 700h781c15 0 23 -7 23 -22v-98c0 -15 -8 -23 -23 -23h-314v-535c0 -15 -7 -22 -22 -22h-109c-15 0 -22 7 -22 22v535h-314c-15 0 -23 8 -23 23v98c0 15 8 22 23 22zM256 916h77c16 0 24 -6 31 -18l58 -87c3 -5 6 -8 13 -8h4c6 0 10 3 13 8l57 87c8 12 16 18 31 18h78
c13 0 21 -9 12 -21l-105 -143c-11 -14 -22 -21 -44 -21h-89c-22 0 -33 7 -43 21l-106 143c-9 12 -1 21 13 21z" />
    <glyph glyph-name="tcaron" unicode="&#x165;" horiz-adv-x="619" 
d="M35 549h95v132c0 15 8 22 22 22h99c14 0 22 -7 22 -22v-132h175c13 0 18 -6 18 -18v-82c0 -12 -5 -18 -18 -18h-175v-232c0 -55 18 -81 84 -81h97c13 0 18 -6 18 -18v-82c0 -12 -5 -18 -18 -18h-121c-160 0 -203 57 -203 199v232h-95c-12 0 -18 6 -18 18v82
c0 12 6 18 18 18zM533 746h90c16 0 23 -9 19 -26l-44 -182c-4 -15 -11 -23 -25 -23h-57c-16 0 -24 9 -23 23l16 185c1 15 10 23 24 23z" />
    <glyph glyph-name="Tbar" unicode="&#x166;" horiz-adv-x="873" 
d="M202 349h158v208h-314c-15 0 -23 8 -23 23v98c0 15 8 22 23 22h781c15 0 23 -7 23 -22v-98c0 -15 -8 -23 -23 -23h-314v-208h158c15 0 22 -7 22 -22v-58c0 -15 -7 -22 -22 -22h-158v-225c0 -15 -7 -22 -22 -22h-109c-15 0 -22 7 -22 22v225h-158c-15 0 -23 7 -23 22v58
c0 15 8 22 23 22z" />
    <glyph glyph-name="tbar" unicode="&#x167;" horiz-adv-x="537" 
d="M35 337h110v94h-95c-12 0 -18 6 -18 18v82c0 12 6 18 18 18h95v132c0 15 8 22 22 22h99c14 0 22 -7 22 -22v-132h175c13 0 18 -6 18 -18v-82c0 -12 -5 -18 -18 -18h-175v-94h216c15 0 22 -7 22 -22v-58c0 -15 -7 -22 -22 -22h-216v-36c0 -55 18 -81 84 -81h97
c13 0 18 -6 18 -18v-82c0 -12 -5 -18 -18 -18h-121c-160 0 -203 57 -203 199v36h-110c-15 0 -23 7 -23 22v58c0 15 8 22 23 22z" />
    <glyph glyph-name="Utilde" unicode="&#x168;" horiz-adv-x="977" 
d="M87 700h108c15 0 22 -7 22 -22v-399c0 -106 30 -137 133 -137h277c103 0 132 31 132 137v399c0 15 7 22 22 22h109c15 0 22 -7 22 -22v-414c0 -192 -77 -264 -280 -264h-288c-202 0 -280 72 -280 264v414c0 15 8 22 23 22zM305 743h-56c-16 0 -18 8 -18 29
c0 109 36 140 125 140c72 0 120 -20 165 -56c22 -19 38 -31 76 -31c40 0 45 15 46 69c1 16 11 22 27 22h57c15 0 18 -8 18 -29c0 -109 -37 -140 -126 -140c-71 0 -119 20 -164 56c-23 19 -38 31 -77 31s-45 -15 -45 -69c-1 -16 -11 -22 -28 -22z" />
    <glyph glyph-name="utilde" unicode="&#x169;" horiz-adv-x="876" 
d="M83 549h98c15 0 22 -8 22 -23v-289c0 -84 16 -110 103 -110h257c87 0 110 26 110 110v289c0 15 7 23 22 23h98c15 0 22 -8 22 -23v-324c0 -145 -58 -202 -238 -202h-279c-180 0 -238 57 -238 202v324c0 15 8 23 23 23zM256 602h-56c-16 0 -19 8 -19 31
c0 118 37 152 125 152c73 0 120 -22 166 -60c21 -19 37 -32 76 -32c40 0 45 15 45 71c1 18 11 24 28 24h56c16 0 18 -8 18 -31c0 -118 -36 -152 -124 -152c-73 0 -120 22 -166 60c-21 19 -38 32 -76 32c-40 0 -45 -15 -46 -71c0 -18 -10 -24 -27 -24z" />
    <glyph glyph-name="Umacron" unicode="&#x16a;" horiz-adv-x="977" 
d="M87 700h108c15 0 22 -7 22 -22v-399c0 -106 30 -137 133 -137h277c103 0 132 31 132 137v399c0 15 7 22 22 22h109c15 0 22 -7 22 -22v-414c0 -192 -77 -264 -280 -264h-288c-202 0 -280 72 -280 264v414c0 15 8 22 23 22zM253 870h470c15 0 22 -6 22 -18v-62
c0 -12 -7 -18 -22 -18h-470c-15 0 -22 6 -22 18v62c0 12 7 18 22 18z" />
    <glyph glyph-name="umacron" unicode="&#x16b;" horiz-adv-x="876" 
d="M83 549h98c15 0 22 -8 22 -23v-289c0 -84 16 -110 103 -110h257c87 0 110 26 110 110v289c0 15 7 23 22 23h98c15 0 22 -8 22 -23v-324c0 -145 -58 -202 -238 -202h-279c-180 0 -238 57 -238 202v324c0 15 8 23 23 23zM204 734h469c15 0 22 -7 22 -22v-58
c0 -15 -7 -22 -22 -22h-469c-15 0 -23 7 -23 22v58c0 15 8 22 23 22z" />
    <glyph glyph-name="Uring" unicode="&#x16e;" horiz-adv-x="977" 
d="M87 700h108c15 0 22 -7 22 -22v-399c0 -106 30 -137 133 -137h277c103 0 132 31 132 137v399c0 15 7 22 22 22h109c15 0 22 -7 22 -22v-414c0 -192 -77 -264 -280 -264h-288c-202 0 -280 72 -280 264v414c0 15 8 22 23 22zM439 916h97c75 0 103 -22 103 -78v-50
c0 -56 -28 -78 -103 -78h-97c-74 0 -102 22 -102 78v50c0 56 28 78 102 78zM410 827v-29c0 -26 9 -34 43 -34h70c34 0 43 8 43 34v29c0 27 -9 35 -43 35h-70c-34 0 -43 -8 -43 -35z" />
    <glyph glyph-name="uring" unicode="&#x16f;" horiz-adv-x="876" 
d="M83 549h98c15 0 22 -8 22 -23v-289c0 -84 16 -110 103 -110h257c87 0 110 26 110 110v289c0 15 7 23 22 23h98c15 0 22 -8 22 -23v-324c0 -145 -58 -202 -238 -202h-279c-180 0 -238 57 -238 202v324c0 15 8 23 23 23zM381 816h113c74 0 103 -27 103 -97v-63
c0 -70 -29 -97 -103 -97h-113c-74 0 -103 27 -103 97v63c0 70 29 97 103 97zM352 706v-37c0 -34 9 -44 43 -44h86c33 0 42 10 42 44v37c0 34 -9 44 -42 44h-86c-34 0 -43 -10 -43 -44z" />
    <glyph glyph-name="Uhungarumlaut" unicode="&#x170;" horiz-adv-x="977" 
d="M87 700h108c15 0 22 -7 22 -22v-399c0 -106 30 -137 133 -137h277c103 0 132 31 132 137v399c0 15 7 22 22 22h109c15 0 22 -7 22 -22v-414c0 -192 -77 -264 -280 -264h-288c-202 0 -280 72 -280 264v414c0 15 8 22 23 22zM412 916h88c14 0 23 -7 15 -19l-102 -147
c-8 -13 -16 -19 -31 -19h-76c-15 0 -22 7 -15 19l90 147c6 12 16 19 31 19zM640 916h89c13 0 23 -7 14 -19l-102 -147c-8 -13 -15 -19 -30 -19h-76c-16 0 -23 7 -16 19l90 147c7 12 16 19 31 19z" />
    <glyph glyph-name="uhungarumlaut" unicode="&#x171;" horiz-adv-x="876" 
d="M83 549h98c15 0 22 -8 22 -23v-289c0 -84 16 -110 103 -110h257c87 0 110 26 110 110v289c0 15 7 23 22 23h98c15 0 22 -8 22 -23v-324c0 -145 -58 -202 -238 -202h-279c-180 0 -238 57 -238 202v324c0 15 8 23 23 23zM588 816h88c14 0 23 -8 15 -23l-103 -185
c-8 -15 -15 -23 -30 -23h-76c-16 0 -23 9 -16 23l91 185c7 15 16 23 31 23zM360 816h88c14 0 23 -8 15 -23l-103 -185c-9 -15 -16 -23 -31 -23h-76c-15 0 -22 9 -15 23l90 185c7 15 16 23 32 23z" />
    <glyph glyph-name="Uogonek" unicode="&#x172;" horiz-adv-x="977" 
d="M414 -32l83 32h-153c-202 0 -280 72 -280 264v414c0 15 8 22 23 22h108c15 0 22 -7 22 -22v-399c0 -106 30 -137 133 -137h277c103 0 132 31 132 137v399c0 15 7 22 22 22h109c15 0 22 -7 22 -22v-414c0 -192 -77 -264 -278 -264l-124 -59c-43 -20 -50 -32 -50 -60
c0 -36 12 -46 54 -46h84c13 0 18 -6 18 -18v-71c0 -12 -5 -18 -18 -18h-127c-100 0 -129 29 -129 122c0 65 14 97 72 118z" />
    <glyph glyph-name="uogonek" unicode="&#x173;" horiz-adv-x="876" 
d="M411 -32l83 32h-196c-180 0 -238 57 -238 202v324c0 15 8 23 23 23h98c15 0 22 -8 22 -23v-289c0 -84 16 -110 103 -110h257c87 0 110 26 110 110v289c0 15 7 23 22 23h98c15 0 22 -8 22 -23v-324c0 -129 -46 -188 -181 -200l-127 -61c-43 -20 -50 -32 -50 -60
c0 -36 12 -46 54 -46h84c13 0 18 -6 18 -18v-71c0 -12 -5 -18 -18 -18h-127c-100 0 -129 29 -129 122c0 65 14 97 72 118z" />
    <glyph glyph-name="Wcircumflex" unicode="&#x174;" horiz-adv-x="1303" 
d="M30 700h134c7 0 11 -3 14 -13l162 -538c1 -6 4 -7 8 -7h5c4 0 6 1 8 7l162 493c15 45 38 58 74 58h99c44 0 65 -16 79 -58l166 -493c2 -6 4 -7 8 -7h6c4 0 6 1 8 7l158 538c3 11 9 13 16 13h135c11 0 12 -11 8 -23l-192 -601c-19 -60 -39 -76 -77 -76h-117
c-39 0 -57 17 -77 76l-157 475c-1 5 -3 7 -8 7h-4c-4 0 -7 -2 -8 -7l-159 -475c-20 -59 -38 -76 -77 -76h-114c-45 0 -65 14 -84 76l-184 601c-4 13 -3 23 8 23zM606 916h89c22 0 33 -7 44 -22l105 -142c9 -12 1 -21 -12 -21h-78c-15 0 -23 5 -31 18l-57 86c-3 6 -7 8 -13 8
h-4c-7 0 -10 -2 -13 -8l-58 -86c-7 -13 -15 -18 -31 -18h-77c-14 0 -22 9 -13 21l106 142c10 15 21 22 43 22z" />
    <glyph glyph-name="wcircumflex" unicode="&#x175;" horiz-adv-x="1165" 
d="M35 549h113c13 0 20 -6 23 -16l129 -411c2 -5 5 -7 10 -7h4c6 0 9 2 10 7l135 379c13 36 28 48 64 48h119c36 0 51 -12 64 -48l134 -379c1 -5 4 -7 10 -7h4c5 0 8 2 10 7l130 411c2 10 9 16 23 16h113c17 0 21 -10 17 -24l-152 -463c-16 -50 -35 -62 -77 -62h-126
c-35 0 -50 15 -67 62l-132 365c-1 4 -4 6 -9 6h-6c-5 0 -8 -2 -9 -6l-131 -365c-17 -47 -32 -62 -67 -62h-126c-42 0 -61 12 -77 62l-150 463c-4 14 -1 24 17 24zM537 816h89c22 0 33 -8 43 -25l106 -181c9 -14 1 -25 -13 -25h-77c-16 0 -24 7 -31 22l-58 111
c-3 6 -6 9 -12 9h-4c-7 0 -10 -3 -13 -9l-58 -111c-7 -15 -15 -22 -31 -22h-77c-14 0 -22 11 -13 25l106 181c10 17 21 25 43 25z" />
    <glyph glyph-name="Ycircumflex" unicode="&#x176;" horiz-adv-x="896" 
d="M24 700h134c12 0 18 -3 24 -12l267 -361l269 361c6 9 12 12 24 12h131c11 0 16 -11 9 -20l-359 -466v-192c0 -15 -7 -22 -22 -22h-108c-15 0 -23 7 -23 22v192l-355 466c-7 9 -3 20 9 20zM404 916h89c22 0 33 -7 44 -22l105 -142c9 -12 1 -21 -12 -21h-78
c-15 0 -23 5 -31 18l-57 86c-3 6 -7 8 -13 8h-4c-7 0 -10 -2 -13 -8l-58 -86c-7 -13 -15 -18 -31 -18h-77c-14 0 -22 9 -13 21l106 142c10 15 21 22 43 22z" />
    <glyph glyph-name="ycircumflex" unicode="&#x177;" horiz-adv-x="830" 
d="M674 549h112c14 0 20 -12 13 -25l-384 -677c-26 -46 -72 -68 -158 -68h-70c-12 0 -18 6 -18 18v82c0 12 6 18 18 18h59c27 0 42 7 51 23l54 95c-33 3 -48 15 -64 43l-270 466c-7 13 -1 25 13 25h115c12 0 19 -4 24 -14l222 -385c11 -18 15 -23 24 -23l235 408
c5 10 12 14 24 14zM371 816h89c22 0 33 -8 43 -25l106 -181c9 -14 1 -25 -13 -25h-77c-16 0 -24 7 -31 22l-58 111c-3 6 -6 9 -12 9h-4c-7 0 -10 -3 -13 -9l-58 -111c-7 -15 -15 -22 -31 -22h-77c-14 0 -22 11 -13 25l106 181c10 17 21 25 43 25z" />
    <glyph glyph-name="Ydieresis" unicode="&#x178;" horiz-adv-x="896" 
d="M24 700h134c12 0 18 -3 24 -12l267 -361l269 361c6 9 12 12 24 12h131c11 0 16 -11 9 -20l-359 -466v-192c0 -15 -7 -22 -22 -22h-108c-15 0 -23 7 -23 22v192l-355 466c-7 9 -3 20 9 20zM259 885h98c15 0 22 -6 22 -18v-95c0 -12 -7 -18 -22 -18h-98c-15 0 -22 6 -22 18
v95c0 12 7 18 22 18zM538 885h98c15 0 23 -6 23 -18v-95c0 -12 -8 -18 -23 -18h-98c-15 0 -22 6 -22 18v95c0 12 7 18 22 18z" />
    <glyph glyph-name="Zacute" unicode="&#x179;" horiz-adv-x="854" 
d="M77 700h647c54 0 79 -24 79 -76v-91c0 -49 -11 -63 -50 -84l-529 -279c-7 -4 -9 -8 -9 -15v-7c0 -6 3 -9 10 -9h549c15 0 23 -7 23 -22v-95c0 -15 -8 -22 -23 -22h-647c-55 0 -79 24 -79 75v91c0 49 8 63 47 84l527 280c7 4 9 8 9 15v7c0 6 -4 9 -10 9h-544
c-15 0 -23 7 -23 22v95c0 15 8 22 23 22zM464 916h89c14 0 23 -7 14 -19l-102 -147c-8 -13 -15 -19 -30 -19h-76c-15 0 -23 7 -15 19l89 147c7 12 16 19 31 19z" />
    <glyph glyph-name="zacute" unicode="&#x17a;" horiz-adv-x="733" 
d="M67 549h553c48 0 69 -20 69 -63v-74c0 -42 -9 -55 -45 -71l-444 -195c-7 -3 -8 -7 -8 -14v-7c0 -5 3 -7 9 -7h465c12 0 18 -6 18 -18v-82c0 -12 -6 -18 -18 -18h-553c-48 0 -69 20 -69 62v74c0 42 9 56 45 72l444 195c6 2 8 6 8 13v7c0 5 -3 8 -9 8h-465
c-12 0 -18 6 -18 18v82c0 12 6 18 18 18zM404 816h88c14 0 23 -8 15 -23l-103 -185c-8 -15 -15 -23 -30 -23h-76c-15 0 -23 9 -16 23l91 185c7 15 16 23 31 23z" />
    <glyph glyph-name="Zdotaccent" unicode="&#x17b;" horiz-adv-x="854" 
d="M77 700h647c54 0 79 -24 79 -76v-91c0 -49 -11 -63 -50 -84l-529 -279c-7 -4 -9 -8 -9 -15v-7c0 -6 3 -9 10 -9h549c15 0 23 -7 23 -22v-95c0 -15 -8 -22 -23 -22h-647c-55 0 -79 24 -79 75v91c0 49 8 63 47 84l527 280c7 4 9 8 9 15v7c0 6 -4 9 -10 9h-544
c-15 0 -23 7 -23 22v95c0 15 8 22 23 22zM377 885h98c15 0 22 -6 22 -18v-95c0 -12 -7 -18 -22 -18h-98c-15 0 -22 6 -22 18v95c0 12 7 18 22 18z" />
    <glyph glyph-name="zdotaccent" unicode="&#x17c;" horiz-adv-x="733" 
d="M67 549h553c48 0 69 -20 69 -63v-74c0 -42 -9 -55 -45 -71l-444 -195c-7 -3 -8 -7 -8 -14v-7c0 -5 3 -7 9 -7h465c12 0 18 -6 18 -18v-82c0 -12 -6 -18 -18 -18h-553c-48 0 -69 20 -69 62v74c0 42 9 56 45 72l444 195c6 2 8 6 8 13v7c0 5 -3 8 -9 8h-465
c-12 0 -18 6 -18 18v82c0 12 6 18 18 18zM319 752h98c15 0 22 -7 22 -22v-95c0 -15 -7 -23 -22 -23h-98c-15 0 -23 8 -23 23v95c0 15 8 22 23 22z" />
    <glyph glyph-name="Zcaron" unicode="&#x17d;" horiz-adv-x="854" 
d="M77 700h647c54 0 79 -24 79 -76v-91c0 -49 -11 -63 -50 -84l-529 -279c-7 -4 -9 -8 -9 -15v-7c0 -6 3 -9 10 -9h549c15 0 23 -7 23 -22v-95c0 -15 -8 -22 -23 -22h-647c-55 0 -79 24 -79 75v91c0 49 8 63 47 84l527 280c7 4 9 8 9 15v7c0 6 -4 9 -10 9h-544
c-15 0 -23 7 -23 22v95c0 15 8 22 23 22zM245 916h77c16 0 24 -6 31 -18l58 -87c3 -5 6 -8 13 -8h4c6 0 10 3 13 8l57 87c8 12 16 18 31 18h78c13 0 21 -9 12 -21l-105 -143c-11 -14 -22 -21 -44 -21h-89c-22 0 -33 7 -43 21l-106 143c-9 12 -1 21 13 21z" />
    <glyph glyph-name="zcaron" unicode="&#x17e;" horiz-adv-x="733" 
d="M67 549h553c48 0 69 -20 69 -63v-74c0 -42 -9 -55 -45 -71l-444 -195c-7 -3 -8 -7 -8 -14v-7c0 -5 3 -7 9 -7h465c12 0 18 -6 18 -18v-82c0 -12 -6 -18 -18 -18h-553c-48 0 -69 20 -69 62v74c0 42 9 56 45 72l444 195c6 2 8 6 8 13v7c0 5 -3 8 -9 8h-465
c-12 0 -18 6 -18 18v82c0 12 6 18 18 18zM185 816h77c16 0 24 -7 31 -23l58 -110c3 -6 6 -9 13 -9h4c6 0 9 3 12 9l58 110c7 16 15 23 31 23h77c14 0 22 -11 13 -25l-106 -181c-10 -17 -21 -25 -43 -25h-89c-22 0 -33 8 -43 25l-106 181c-9 14 -1 25 13 25z" />
    <glyph glyph-name="uni0180" unicode="&#x180;" horiz-adv-x="871" 
d="M28 734h32c2 11 10 16 23 16h98c13 0 19 -5 21 -16h295c15 0 22 -7 22 -22v-58c0 -15 -7 -22 -22 -22h-294v-83h375c180 0 238 -58 238 -203v-144c0 -145 -58 -202 -238 -202h-280c-180 0 -238 57 -238 202v430h-32c-15 0 -23 7 -23 22v58c0 15 8 22 23 22zM564 429h-361
v-199c0 -84 23 -110 109 -110h252c87 0 110 26 110 110v89c0 84 -23 110 -110 110z" />
    <glyph glyph-name="uni0181" unicode="&#x181;" horiz-adv-x="1178" 
d="M931 700c138 0 190 -54 190 -165v-48c0 -57 -22 -99 -64 -127c47 -27 69 -70 69 -129v-58c0 -106 -44 -173 -177 -173h-594c-20 0 -30 10 -30 30v552h-100c-46 0 -64 -22 -64 -64v-133c0 -15 -7 -22 -22 -22h-98c-15 0 -23 7 -23 22v133c0 128 43 182 182 182h731z
M888 300h-410v-149c0 -9 4 -13 13 -13h410c53 0 74 19 74 61v38c0 41 -21 63 -87 63zM478 549v-140h410c66 0 86 20 86 59v34c0 41 -22 60 -74 60h-409c-9 0 -13 -4 -13 -13z" />
    <glyph glyph-name="uni0187" unicode="&#x187;" horiz-adv-x="995" 
d="M338 700h335c23 53 73 77 166 77h138c12 0 18 -6 18 -18v-82c0 -12 -6 -18 -18 -18h-114c-46 0 -64 -22 -64 -64v-108c0 -15 -7 -22 -22 -22h-98c-15 0 -22 7 -22 22v70h-313c-103 0 -133 -30 -133 -136v-142c0 -106 30 -137 133 -137h445c15 0 22 -7 22 -22v-98
c0 -15 -7 -22 -22 -22h-451c-202 0 -280 72 -280 264v172c0 192 78 264 280 264z" />
    <glyph glyph-name="uni0188" unicode="&#x188;" horiz-adv-x="893" 
d="M277 549h282c15 82 64 118 178 118h138c12 0 18 -6 18 -18v-82c0 -12 -6 -18 -18 -18h-114c-46 0 -64 -22 -64 -64v-98c0 -15 -7 -22 -22 -22h-98c-15 0 -22 7 -22 22v42h-264c-87 0 -109 -26 -109 -110v-89c0 -84 22 -110 109 -110h388c12 0 18 -6 18 -18v-84
c0 -12 -6 -18 -18 -18h-402c-180 0 -238 57 -238 202v144c0 145 58 203 238 203z" />
    <glyph glyph-name="uni018A" unicode="&#x18a;" horiz-adv-x="1188" 
d="M823 700c217 0 306 -87 306 -282v-136c0 -195 -89 -282 -306 -282h-468c-20 0 -30 10 -30 30v552h-100c-46 0 -64 -22 -64 -64v-133c0 -15 -7 -22 -22 -22h-98c-15 0 -23 7 -23 22v133c0 128 43 182 182 182h623zM478 547v-395c0 -9 4 -13 13 -13h328
c118 0 157 38 157 156v110c0 118 -39 156 -157 156h-328c-9 0 -13 -4 -13 -14z" />
    <glyph glyph-name="uni018E" unicode="&#x18e;" horiz-adv-x="850" 
d="M511 0h-440c-15 0 -23 7 -23 22v95c0 15 8 22 23 22h437c104 0 133 31 133 136v10h-565c-15 0 -22 7 -22 22v79c0 15 7 22 22 22h565v17c0 105 -29 136 -133 136h-437c-15 0 -23 7 -23 22v95c0 15 8 22 23 22h440c202 0 280 -72 280 -264v-172c0 -192 -78 -264 -280 -264
z" />
    <glyph glyph-name="uni018F" unicode="&#x18f;" horiz-adv-x="957" 
d="M104 700h514c203 0 280 -72 280 -264v-172c0 -192 -77 -264 -280 -264h-373c-137 0 -191 69 -191 176v73c0 108 49 176 181 176h510c-1 102 -31 132 -132 132h-509c-15 0 -22 8 -22 23v98c0 15 7 22 22 22zM613 139c103 0 132 31 132 136v40h-474c-46 0 -64 -24 -64 -66
v-44c0 -41 20 -66 67 -66h339z" />
    <glyph glyph-name="florin" unicode="&#x192;" horiz-adv-x="664" 
d="M438 700h161c12 0 18 -6 18 -18v-82c0 -12 -6 -18 -18 -18h-132c-65 0 -84 -26 -84 -81v-106h225c12 0 18 -6 18 -18v-45c0 -12 -6 -18 -18 -18h-225v-336c0 -142 -42 -199 -201 -199h-122c-12 0 -18 6 -18 18v82c0 12 6 18 18 18h92c65 0 84 26 84 81v336h-179
c-12 0 -18 6 -18 18v45c0 12 6 18 18 18h179v106c0 141 42 199 202 199z" />
    <glyph glyph-name="uni0194" unicode="&#x194;" horiz-adv-x="975" 
d="M30 700h135c16 0 21 -6 26 -12l296 -413l297 413c5 6 10 12 26 12h135c16 0 17 -14 11 -23l-388 -515l99 -137c31 -41 39 -61 39 -116v-96c0 -61 -51 -85 -112 -85h-213c-61 0 -112 24 -112 85v96c0 55 7 75 38 116l99 138l-387 514c-6 9 -5 23 11 23zM562 -43l-75 98
l-74 -98c-15 -20 -18 -33 -18 -58v-27c0 -30 8 -36 37 -36h111c29 0 37 6 37 36v27c0 25 -3 38 -18 58z" />
    <glyph glyph-name="uni0198" unicode="&#x198;" horiz-adv-x="973" 
d="M700 534l-85 -109c-23 -30 -41 -51 -60 -67c27 -17 51 -40 76 -72l205 -260c5 -7 7 -26 -13 -26h-128c-17 0 -21 4 -28 13l-184 238c-27 35 -50 45 -112 45h-152v-274c0 -15 -7 -22 -22 -22h-108c-15 0 -23 7 -23 22v656c0 15 8 22 23 22h108c15 0 22 -7 22 -22v-266h141
c63 0 82 7 111 45l107 143c113 151 153 169 344 169h33c12 0 18 -6 18 -18v-82c0 -12 -6 -18 -18 -18h-33c-119 0 -141 -13 -222 -117z" />
    <glyph glyph-name="uni0199" unicode="&#x199;" horiz-adv-x="794" 
d="M62 22v565c0 128 43 182 183 182h138c12 0 18 -6 18 -18v-82c0 -12 -6 -18 -18 -18h-114c-46 0 -64 -22 -64 -64v-255h184c57 0 73 5 99 42l112 158c8 12 15 17 30 17h113c15 0 19 -14 10 -27l-129 -177c-20 -27 -40 -48 -62 -64c28 -16 51 -37 71 -64l142 -192
c8 -11 3 -25 -12 -25h-112c-17 0 -23 3 -31 14l-122 168c-24 32 -45 42 -100 42h-193v-202c0 -15 -7 -22 -22 -22h-98c-15 0 -23 7 -23 22z" />
    <glyph glyph-name="uni019D" unicode="&#x19d;" horiz-adv-x="977" 
d="M64 8v428c0 192 78 264 280 264h288c203 0 280 -72 280 -264v-414c0 -15 -7 -22 -22 -22h-109c-15 0 -22 7 -22 22v399c0 106 -29 136 -132 136h-277c-103 0 -133 -30 -133 -136v-441c0 -144 -64 -201 -238 -201h-79c-13 0 -18 6 -18 18v84c0 12 5 18 18 18h65
c80 0 99 26 99 109z" />
    <glyph glyph-name="uni01A0" unicode="&#x1a0;" horiz-adv-x="1026" 
d="M961 801h77c15 0 22 -7 22 -22v-88c0 -109 -37 -165 -138 -180c3 -23 5 -48 5 -75v-172c0 -192 -77 -264 -280 -264h-309c-202 0 -280 72 -280 264v172c0 192 78 264 280 264h309c124 0 201 -27 242 -92c36 8 49 32 49 83v88c0 15 8 22 23 22zM211 425v-150
c0 -105 30 -136 133 -136h297c103 0 133 31 133 136v150c0 105 -30 136 -133 136h-297c-103 0 -133 -31 -133 -136z" />
    <glyph glyph-name="uni01A1" unicode="&#x1a1;" horiz-adv-x="937" 
d="M871 650h77c15 0 22 -7 22 -22v-88c0 -113 -39 -170 -157 -182v-156c0 -145 -58 -202 -238 -202h-283c-180 0 -238 57 -238 202v144c0 145 58 203 238 203h283c123 0 190 -27 219 -92c41 8 54 32 54 83v88c0 15 8 22 23 22zM197 322v-95c0 -84 23 -110 109 -110h255
c87 0 110 26 110 110v95c0 84 -23 109 -110 109h-255c-86 0 -109 -25 -109 -109z" />
    <glyph glyph-name="uni01AF" unicode="&#x1af;" horiz-adv-x="1105" 
d="M1039 801h77c15 0 22 -7 22 -22v-88c0 -129 -50 -184 -202 -184h-24v-243c0 -192 -77 -264 -280 -264h-288c-202 0 -280 72 -280 264v414c0 15 8 22 23 22h108c15 0 22 -7 22 -22v-399c0 -106 30 -137 133 -137h277c103 0 132 31 132 137v399c0 15 7 22 22 22h109
c15 0 22 -7 22 -22v-72h25c60 0 80 22 80 85v88c0 15 7 22 22 22z" />
    <glyph glyph-name="uni01B0" unicode="&#x1b0;" horiz-adv-x="984" 
d="M918 650h78c14 0 22 -7 22 -22v-88c0 -129 -51 -184 -203 -184v-154c0 -145 -58 -202 -238 -202h-279c-180 0 -238 57 -238 202v324c0 15 8 23 23 23h98c15 0 22 -8 22 -23v-289c0 -84 16 -110 103 -110h257c87 0 110 26 110 110v289c0 15 7 23 22 23h98
c15 0 22 -8 22 -23v-71c62 0 81 22 81 85v88c0 15 8 22 22 22z" />
    <glyph glyph-name="uni01B3" unicode="&#x1b3;" horiz-adv-x="1055" 
d="M725 479l-202 -265v-192c0 -15 -7 -22 -22 -22h-108c-15 0 -23 7 -23 22v192l-355 466c-7 9 -3 20 9 20h134c12 0 18 -3 24 -12l267 -361l179 241c143 193 193 209 394 209h15c12 0 18 -6 18 -18v-82c0 -12 -6 -18 -18 -18h-15c-124 0 -163 -6 -297 -180z" />
    <glyph glyph-name="uni01B4" unicode="&#x1b4;" horiz-adv-x="1041" 
d="M727 396l-312 -549c-26 -46 -72 -68 -158 -68h-70c-12 0 -18 6 -18 18v82c0 12 6 18 18 18h59c27 0 42 7 51 23l54 95c-33 3 -48 15 -64 43l-270 466c-7 13 -1 25 13 25h115c12 0 19 -4 24 -14l222 -385c11 -18 15 -23 24 -23l183 319c151 262 202 281 407 281h18
c12 0 18 -6 18 -18v-82c0 -12 -6 -18 -18 -18h-18c-122 0 -159 -3 -278 -213z" />
    <glyph glyph-name="uni01C4" unicode="&#x1c4;" horiz-adv-x="1783" 
d="M96 700h468c217 0 306 -87 306 -282v-136c0 -195 -89 -282 -306 -282h-468c-20 0 -30 10 -30 30v640c0 20 10 30 30 30zM219 547v-395c0 -9 4 -13 13 -13h328c118 0 157 38 157 156v110c0 118 -39 156 -157 156h-328c-9 0 -13 -4 -13 -14zM1006 700h647
c54 0 79 -24 79 -76v-91c0 -49 -11 -63 -50 -84l-529 -279c-7 -4 -9 -8 -9 -15v-7c0 -6 3 -9 10 -9h549c15 0 23 -7 23 -22v-95c0 -15 -8 -22 -23 -22h-647c-55 0 -79 24 -79 75v91c0 49 8 63 47 84l527 280c7 4 9 8 9 15v7c0 6 -4 9 -10 9h-544c-15 0 -23 7 -23 22v95
c0 15 8 22 23 22zM1174 916h77c16 0 24 -6 31 -18l58 -87c3 -5 6 -8 13 -8h4c6 0 10 3 13 8l57 87c8 12 16 18 31 18h78c13 0 21 -9 12 -21l-105 -143c-11 -14 -22 -21 -44 -21h-89c-22 0 -33 7 -43 21l-106 143c-9 12 -1 21 13 21z" />
    <glyph glyph-name="uni01C5" unicode="&#x1c5;" horiz-adv-x="1662" 
d="M96 700h468c217 0 306 -87 306 -282v-136c0 -195 -89 -282 -306 -282h-468c-20 0 -30 10 -30 30v640c0 20 10 30 30 30zM219 547v-395c0 -9 4 -13 13 -13h328c118 0 157 38 157 156v110c0 118 -39 156 -157 156h-328c-9 0 -13 -4 -13 -14zM996 549h553
c48 0 69 -20 69 -63v-74c0 -42 -9 -55 -45 -71l-444 -195c-7 -3 -8 -7 -8 -14v-7c0 -5 3 -7 9 -7h465c12 0 18 -6 18 -18v-82c0 -12 -6 -18 -18 -18h-553c-48 0 -69 20 -69 62v74c0 42 9 56 45 72l444 195c6 2 8 6 8 13v7c0 5 -3 8 -9 8h-465c-12 0 -18 6 -18 18v82
c0 12 6 18 18 18zM1114 816h77c16 0 24 -7 31 -23l58 -110c3 -6 6 -9 13 -9h4c6 0 9 3 12 9l58 110c7 16 15 23 31 23h77c14 0 22 -11 13 -25l-106 -181c-10 -17 -21 -25 -43 -25h-89c-22 0 -33 8 -43 25l-106 181c-9 14 -1 25 13 25z" />
    <glyph glyph-name="uni01C6" unicode="&#x1c6;" horiz-adv-x="1604" 
d="M292 549h376v179c0 15 7 22 22 22h98c15 0 22 -7 22 -22v-526c0 -145 -58 -202 -238 -202h-280c-180 0 -238 57 -238 202v144c0 145 58 203 238 203zM558 120c87 0 110 26 110 110v199h-362c-86 0 -109 -26 -109 -110v-89c0 -84 23 -110 109 -110h252zM938 549h553
c48 0 69 -20 69 -63v-74c0 -42 -9 -55 -45 -71l-444 -195c-7 -3 -8 -7 -8 -14v-7c0 -5 3 -7 9 -7h465c12 0 18 -6 18 -18v-82c0 -12 -6 -18 -18 -18h-553c-48 0 -69 20 -69 62v74c0 42 9 56 45 72l444 195c6 2 8 6 8 13v7c0 5 -3 8 -9 8h-465c-12 0 -18 6 -18 18v82
c0 12 6 18 18 18zM1056 816h77c16 0 24 -7 31 -23l58 -110c3 -6 6 -9 13 -9h4c6 0 9 3 12 9l58 110c7 16 15 23 31 23h77c14 0 22 -11 13 -25l-106 -181c-10 -17 -21 -25 -43 -25h-89c-22 0 -33 8 -43 25l-106 181c-9 14 -1 25 13 25z" />
    <glyph glyph-name="uni01DD" unicode="&#x1dd;" 
d="M510 0h-293c-137 0 -173 43 -173 164v95c0 43 18 57 57 57h505v24c0 63 -23 89 -110 89h-417c-12 0 -18 6 -18 18v84c0 12 6 18 18 18h431c180 0 238 -57 238 -202v-144c0 -145 -58 -203 -238 -203zM606 200v27h-405c-12 0 -17 -4 -17 -17v-42c0 -41 15 -57 61 -57h251
c87 0 110 25 110 89z" />
    <glyph glyph-name="uni01E6" unicode="&#x1e6;" horiz-adv-x="926" 
d="M338 700h507c15 0 22 -7 22 -22v-98c0 -15 -7 -23 -22 -23h-501c-103 0 -133 -30 -133 -136v-144c0 -106 30 -137 133 -137h330c35 0 50 16 50 61v81c0 9 -3 13 -12 13h-293c-14 0 -22 8 -22 23v75c0 15 8 23 22 23h417c20 0 30 -10 30 -30v-233
c0 -112 -44 -153 -124 -153h-404c-202 0 -280 72 -280 264v172c0 192 78 264 280 264zM301 916h77c16 0 24 -6 31 -18l58 -87c3 -5 6 -8 13 -8h4c6 0 10 3 13 8l57 87c8 12 16 18 31 18h78c13 0 21 -9 12 -21l-105 -143c-11 -14 -22 -21 -44 -21h-89c-22 0 -33 7 -43 21
l-106 143c-9 12 -1 21 13 21z" />
    <glyph glyph-name="uni01E7" unicode="&#x1e7;" horiz-adv-x="871" 
d="M292 549h280c181 0 238 -58 238 -202v-364c0 -146 -57 -204 -238 -204h-471c-12 0 -18 6 -18 18v84c0 12 6 18 18 18h457c87 0 110 26 110 111v26h-376c-180 0 -238 58 -238 204v105c0 146 58 204 238 204zM197 241c0 -68 23 -94 109 -94h362v187c0 71 -23 97 -110 97
h-252c-86 0 -109 -26 -109 -94v-96zM255 816h77c16 0 24 -7 31 -23l58 -110c3 -6 6 -9 13 -9h4c6 0 9 3 12 9l58 110c7 16 15 23 31 23h77c14 0 22 -11 13 -25l-106 -181c-10 -17 -21 -25 -43 -25h-89c-22 0 -33 8 -43 25l-106 181c-9 14 -1 25 13 25z" />
    <glyph glyph-name="uni01F0" unicode="&#x1f0;" horiz-adv-x="383" 
d="M5 816h77c16 0 24 -7 31 -23l58 -110c3 -6 6 -9 13 -9h4c6 0 9 3 12 9l58 110c7 16 15 23 31 23h77c14 0 22 -11 13 -25l-106 -181c-10 -17 -21 -25 -43 -25h-89c-22 0 -33 8 -43 25l-106 181c-9 14 -1 25 13 25zM140 549h98c15 0 22 -8 22 -23v-546
c0 -144 -54 -201 -228 -201h-79c-13 0 -18 6 -18 18v84c0 12 5 18 18 18h65c80 0 99 26 99 109v518c0 15 8 23 23 23z" />
    <glyph glyph-name="uni01F1" unicode="&#x1f1;" horiz-adv-x="1783" 
d="M96 700h468c217 0 306 -87 306 -282v-136c0 -195 -89 -282 -306 -282h-468c-20 0 -30 10 -30 30v640c0 20 10 30 30 30zM219 547v-395c0 -9 4 -13 13 -13h328c118 0 157 38 157 156v110c0 118 -39 156 -157 156h-328c-9 0 -13 -4 -13 -14zM1006 700h647
c54 0 79 -24 79 -76v-91c0 -49 -11 -63 -50 -84l-529 -279c-7 -4 -9 -8 -9 -15v-7c0 -6 3 -9 10 -9h549c15 0 23 -7 23 -22v-95c0 -15 -8 -22 -23 -22h-647c-55 0 -79 24 -79 75v91c0 49 8 63 47 84l527 280c7 4 9 8 9 15v7c0 6 -4 9 -10 9h-544c-15 0 -23 7 -23 22v95
c0 15 8 22 23 22z" />
    <glyph glyph-name="uni01F2" unicode="&#x1f2;" horiz-adv-x="1662" 
d="M96 700h468c217 0 306 -87 306 -282v-136c0 -195 -89 -282 -306 -282h-468c-20 0 -30 10 -30 30v640c0 20 10 30 30 30zM219 547v-395c0 -9 4 -13 13 -13h328c118 0 157 38 157 156v110c0 118 -39 156 -157 156h-328c-9 0 -13 -4 -13 -14zM996 549h553
c48 0 69 -20 69 -63v-74c0 -42 -9 -55 -45 -71l-444 -195c-7 -3 -8 -7 -8 -14v-7c0 -5 3 -7 9 -7h465c12 0 18 -6 18 -18v-82c0 -12 -6 -18 -18 -18h-553c-48 0 -69 20 -69 62v74c0 42 9 56 45 72l444 195c6 2 8 6 8 13v7c0 5 -3 8 -9 8h-465c-12 0 -18 6 -18 18v82
c0 12 6 18 18 18z" />
    <glyph glyph-name="uni01F3" unicode="&#x1f3;" horiz-adv-x="1604" 
d="M292 549h376v179c0 15 7 22 22 22h98c15 0 22 -7 22 -22v-526c0 -145 -58 -202 -238 -202h-280c-180 0 -238 57 -238 202v144c0 145 58 203 238 203zM558 120c87 0 110 26 110 110v199h-362c-86 0 -109 -26 -109 -110v-89c0 -84 23 -110 109 -110h252zM938 549h553
c48 0 69 -20 69 -63v-74c0 -42 -9 -55 -45 -71l-444 -195c-7 -3 -8 -7 -8 -14v-7c0 -5 3 -7 9 -7h465c12 0 18 -6 18 -18v-82c0 -12 -6 -18 -18 -18h-553c-48 0 -69 20 -69 62v74c0 42 9 56 45 72l444 195c6 2 8 6 8 13v7c0 5 -3 8 -9 8h-465c-12 0 -18 6 -18 18v82
c0 12 6 18 18 18z" />
    <glyph glyph-name="uni01F4" unicode="&#x1f4;" horiz-adv-x="926" 
d="M338 700h507c15 0 22 -7 22 -22v-98c0 -15 -7 -23 -22 -23h-501c-103 0 -133 -30 -133 -136v-144c0 -106 30 -137 133 -137h330c35 0 50 16 50 61v81c0 9 -3 13 -12 13h-293c-14 0 -22 8 -22 23v75c0 15 8 23 22 23h417c20 0 30 -10 30 -30v-233
c0 -112 -44 -153 -124 -153h-404c-202 0 -280 72 -280 264v172c0 192 78 264 280 264zM526 916h89c14 0 23 -7 14 -19l-102 -147c-8 -13 -15 -19 -30 -19h-76c-15 0 -23 7 -15 19l89 147c7 12 16 19 31 19z" />
    <glyph glyph-name="uni01F5" unicode="&#x1f5;" horiz-adv-x="871" 
d="M292 549h280c181 0 238 -58 238 -202v-364c0 -146 -57 -204 -238 -204h-471c-12 0 -18 6 -18 18v84c0 12 6 18 18 18h457c87 0 110 26 110 111v26h-376c-180 0 -238 58 -238 204v105c0 146 58 204 238 204zM197 241c0 -68 23 -94 109 -94h362v187c0 71 -23 97 -110 97
h-252c-86 0 -109 -26 -109 -94v-96zM476 816h88c14 0 23 -8 15 -23l-103 -185c-8 -15 -15 -23 -30 -23h-76c-15 0 -23 9 -16 23l91 185c7 15 16 23 31 23z" />
    <glyph glyph-name="uni01F8" unicode="&#x1f8;" horiz-adv-x="978" 
d="M156 700h88c64 0 78 -8 116 -59l372 -488c3 -5 7 -7 13 -7h9c5 0 8 3 8 10v522c0 15 7 22 22 22h105c15 0 22 -7 22 -22v-574c0 -81 -29 -104 -90 -104h-86c-61 0 -76 6 -116 59l-373 488c-4 5 -7 7 -13 7h-9c-6 0 -8 -3 -8 -10v-522c0 -15 -7 -22 -22 -22h-105
c-15 0 -23 7 -23 22v574c0 81 29 104 90 104zM362 916h89c15 0 24 -7 31 -19l90 -147c7 -12 0 -19 -16 -19h-76c-15 0 -22 6 -30 19l-102 147c-9 12 1 19 14 19z" />
    <glyph glyph-name="uni01F9" unicode="&#x1f9;" horiz-adv-x="884" 
d="M298 549h287c180 0 238 -58 238 -203v-324c0 -15 -7 -22 -22 -22h-98c-15 0 -22 7 -22 22v290c0 84 -17 110 -103 110h-266c-86 0 -109 -26 -109 -110v-290c0 -15 -7 -22 -22 -22h-98c-15 0 -23 7 -23 22v324c0 145 58 203 238 203zM315 816h88c15 0 24 -8 31 -23
l91 -185c7 -14 0 -23 -16 -23h-75c-16 0 -23 8 -31 23l-103 185c-8 15 1 23 15 23z" />
    <glyph glyph-name="Scommaaccent" unicode="&#x218;" horiz-adv-x="857" 
d="M231 700h530c15 0 22 -7 22 -22v-95c0 -15 -7 -22 -22 -22h-501c-38 0 -53 -21 -53 -56v-34c0 -37 17 -56 52 -56h375c115 0 175 -62 175 -172v-80c0 -97 -56 -163 -177 -163h-554c-15 0 -23 7 -23 22v95c0 15 8 22 23 22h525c38 0 53 21 53 56v41c0 37 -17 56 -52 56
h-375c-115 0 -175 62 -175 172v73c0 97 56 163 177 163zM390 -41h90c16 0 23 -9 19 -26l-44 -182c-4 -15 -11 -23 -25 -23h-57c-16 0 -24 9 -23 23l16 185c1 15 10 23 24 23z" />
    <glyph glyph-name="scommaaccent" unicode="&#x219;" horiz-adv-x="783" 
d="M208 549h488c12 0 18 -6 18 -18v-80c0 -12 -6 -18 -18 -18h-451c-41 0 -55 -16 -55 -45v-15c0 -27 14 -43 55 -43h337c112 0 156 -48 156 -134v-56c0 -88 -39 -140 -157 -140h-512c-12 0 -18 6 -18 18v80c0 12 6 18 18 18h474c41 0 56 14 56 48v27c0 26 -15 42 -56 42
h-336c-112 0 -156 47 -156 135v44c0 83 39 137 157 137zM352 -41h90c16 0 23 -9 19 -26l-44 -182c-4 -15 -11 -23 -25 -23h-57c-16 0 -24 9 -23 23l16 185c1 15 10 23 24 23z" />
    <glyph glyph-name="uni021A" unicode="&#x21a;" horiz-adv-x="873" 
d="M46 700h781c15 0 23 -7 23 -22v-98c0 -15 -8 -23 -23 -23h-314v-535c0 -15 -7 -22 -22 -22h-109c-15 0 -22 7 -22 22v535h-314c-15 0 -23 8 -23 23v98c0 15 8 22 23 22zM386 -41h90c16 0 23 -9 19 -26l-44 -182c-4 -15 -11 -23 -25 -23h-57c-16 0 -24 9 -23 23l16 185
c1 15 10 23 24 23z" />
    <glyph glyph-name="uni021B" unicode="&#x21b;" horiz-adv-x="505" 
d="M35 549h95v132c0 15 8 22 22 22h99c14 0 22 -7 22 -22v-132h175c13 0 18 -6 18 -18v-82c0 -12 -5 -18 -18 -18h-175v-232c0 -55 18 -81 84 -81h97c13 0 18 -6 18 -18v-82c0 -12 -5 -18 -18 -18h-121c-160 0 -203 57 -203 199v232h-95c-12 0 -18 6 -18 18v82
c0 12 6 18 18 18zM243 -41h90c16 0 23 -9 19 -26l-44 -182c-4 -15 -11 -23 -25 -23h-57c-16 0 -24 9 -23 23l16 185c1 15 10 23 24 23z" />
    <glyph glyph-name="dotlessj" unicode="&#x237;" horiz-adv-x="282" 
d="M100 549h98c15 0 22 -8 22 -23v-546c0 -144 -54 -201 -228 -201h-79c-13 0 -18 6 -18 18v84c0 12 5 18 18 18h65c80 0 99 26 99 109v518c0 15 8 23 23 23z" />
    <glyph glyph-name="uni0241" unicode="&#x241;" horiz-adv-x="551" 
d="M40 700h341c95 0 139 -48 139 -138v-43c0 -85 -27 -111 -94 -148l-89 -50c-22 -11 -30 -25 -30 -56v-243c0 -15 -7 -22 -22 -22h-98c-15 0 -23 7 -23 22v255c0 59 12 82 48 101l130 71c21 12 32 23 32 53v27c0 29 -13 45 -45 45h-289c-15 0 -23 8 -23 22v82
c0 15 8 22 23 22z" />
    <glyph glyph-name="uni0242" unicode="&#x242;" horiz-adv-x="551" 
d="M40 549h341c95 0 139 -47 139 -134v-41c0 -82 -27 -108 -94 -144l-89 -47c-22 -11 -30 -24 -30 -52v-109c0 -15 -7 -22 -22 -22h-98c-15 0 -23 7 -23 22v121c0 56 12 78 48 96l130 70c21 11 32 20 32 48v26c0 26 -13 40 -45 40h-289c-15 0 -23 7 -23 22v81
c0 15 8 23 23 23z" />
    <glyph glyph-name="uni024C" unicode="&#x24c;" horiz-adv-x="952" 
d="M29 343h84v327c0 20 10 30 30 30h537c153 0 215 -71 215 -206v-57c0 -114 -44 -181 -149 -200l171 -212c6 -7 5 -25 -13 -25h-129c-17 0 -22 4 -28 13l-158 208h-323v-199c0 -15 -7 -22 -22 -22h-108c-15 0 -23 7 -23 22v199h-84c-17 0 -26 8 -26 25v72c0 17 9 25 26 25z
M266 551v-208h383c68 0 93 29 93 89v42c0 60 -25 89 -93 89h-370c-9 0 -13 -4 -13 -12z" />
    <glyph glyph-name="uni024D" unicode="&#x24d;" horiz-adv-x="668" 
d="M40 279h75v67c0 145 58 203 238 203h280c12 0 18 -6 18 -18v-84c0 -13 -6 -18 -18 -18h-266c-86 0 -109 -26 -109 -110v-40h251c15 0 22 -7 22 -22v-58c0 -15 -7 -22 -22 -22h-251v-155c0 -15 -7 -22 -22 -22h-98c-15 0 -23 7 -23 22v155h-75c-15 0 -23 7 -23 22v58
c0 15 8 22 23 22z" />
    <glyph glyph-name="uni0253" unicode="&#x253;" horiz-adv-x="871" 
d="M243 769h138c12 0 18 -6 18 -18v-82c0 -12 -6 -18 -18 -18h-114c-46 0 -64 -22 -64 -64v-38h375c180 0 238 -58 238 -203v-144c0 -145 -58 -202 -238 -202h-280c-180 0 -238 57 -238 202v385c0 128 43 182 183 182zM564 429h-361v-199c0 -84 23 -110 109 -110h252
c87 0 110 26 110 110v89c0 84 -23 110 -110 110z" />
    <glyph glyph-name="uni0257" unicode="&#x257;" horiz-adv-x="1024" 
d="M292 549h376v38c0 128 42 182 182 182h138c12 0 18 -6 18 -18v-82c0 -12 -6 -18 -18 -18h-114c-46 0 -64 -22 -64 -64v-385c0 -145 -58 -202 -238 -202h-280c-180 0 -238 57 -238 202v144c0 145 58 203 238 203zM558 120c87 0 110 26 110 110v199h-362
c-86 0 -109 -26 -109 -110v-89c0 -84 23 -110 109 -110h252z" />
    <glyph glyph-name="uni0263" unicode="&#x263;" horiz-adv-x="830" 
d="M27 549h129c11 0 17 -4 23 -11l235 -318l237 318c5 7 12 11 23 11h129c13 0 14 -13 9 -20l-321 -414l79 -105c27 -36 36 -55 36 -103v-103c0 -54 -43 -76 -98 -76h-189c-54 0 -98 22 -98 76v103c0 48 10 67 37 103l78 105l-319 414c-5 7 -4 20 10 20zM480 -70l-66 85
l-66 -85c-14 -18 -16 -30 -16 -52v-23c0 -25 6 -33 33 -33h97c27 0 33 8 33 33v23c0 22 -2 34 -15 52z" />
    <glyph glyph-name="uni0272" unicode="&#x272;" horiz-adv-x="951" 
d="M365 549h287c180 0 238 -58 238 -203v-324c0 -15 -7 -22 -22 -22h-98c-15 0 -22 7 -22 22v290c0 84 -17 110 -103 110h-266c-86 0 -109 -26 -109 -110v-332c0 -144 -54 -201 -228 -201h-79c-13 0 -18 6 -18 18v84c0 12 5 18 18 18h65c80 0 99 26 99 109v338
c0 145 58 203 238 203z" />
    <glyph glyph-name="circumflex" unicode="&#x2c6;" horiz-adv-x="481" 
d="M196 816h89c22 0 33 -8 43 -25l106 -181c9 -14 1 -25 -13 -25h-77c-16 0 -24 7 -31 22l-58 111c-3 6 -6 9 -12 9h-4c-7 0 -10 -3 -13 -9l-58 -111c-7 -15 -15 -22 -31 -22h-77c-14 0 -22 11 -13 25l106 181c10 17 21 25 43 25z" />
    <glyph glyph-name="caron" unicode="&#x2c7;" horiz-adv-x="481" 
d="M60 816h77c16 0 24 -7 31 -23l58 -110c3 -6 6 -9 13 -9h4c6 0 9 3 12 9l58 110c7 16 15 23 31 23h77c14 0 22 -11 13 -25l-106 -181c-10 -17 -21 -25 -43 -25h-89c-22 0 -33 8 -43 25l-106 181c-9 14 -1 25 13 25z" />
    <glyph glyph-name="breve" unicode="&#x2d8;" horiz-adv-x="605" 
d="M62 723v52c0 12 7 23 19 23c7 0 15 -3 25 -11c22 -19 93 -78 196 -78s174 59 197 78c9 8 18 11 24 11c12 0 19 -11 19 -23v-52c0 -15 -2 -27 -19 -41c-36 -30 -126 -70 -221 -70c-96 0 -184 40 -220 70c-18 15 -20 26 -20 41z" />
    <glyph glyph-name="dotaccent" unicode="&#x2d9;" horiz-adv-x="267" 
d="M85 752h98c15 0 22 -7 22 -22v-95c0 -15 -7 -23 -22 -23h-98c-15 0 -23 8 -23 23v95c0 15 8 22 23 22z" />
    <glyph glyph-name="ring" unicode="&#x2da;" horiz-adv-x="443" 
d="M165 816h113c74 0 103 -27 103 -97v-63c0 -70 -29 -97 -103 -97h-113c-74 0 -103 27 -103 97v63c0 70 29 97 103 97zM136 706v-37c0 -34 9 -44 43 -44h86c33 0 42 10 42 44v37c0 34 -9 44 -42 44h-86c-34 0 -43 -10 -43 -44z" />
    <glyph glyph-name="ogonek" unicode="&#x2db;" horiz-adv-x="417" 
d="M134 -32l83 32h137l-124 -59c-43 -20 -50 -32 -50 -60c0 -36 12 -46 54 -46h84c13 0 18 -6 18 -18v-71c0 -12 -5 -18 -18 -18h-127c-100 0 -129 29 -129 122c0 65 14 97 72 118z" />
    <glyph glyph-name="tilde" unicode="&#x2dc;" horiz-adv-x="639" 
d="M137 602h-56c-16 0 -19 8 -19 31c0 118 37 152 125 152c73 0 120 -22 166 -60c21 -19 37 -32 76 -32c40 0 45 15 45 71c1 18 11 24 28 24h56c16 0 18 -8 18 -31c0 -118 -36 -152 -124 -152c-73 0 -120 22 -166 60c-21 19 -38 32 -76 32c-40 0 -45 -15 -46 -71
c0 -18 -10 -24 -27 -24z" />
    <glyph glyph-name="hungarumlaut" unicode="&#x2dd;" horiz-adv-x="622" 
d="M440 816h88c14 0 23 -8 15 -23l-103 -185c-8 -15 -15 -23 -30 -23h-76c-16 0 -23 9 -16 23l91 185c7 15 16 23 31 23zM212 816h88c14 0 23 -8 15 -23l-103 -185c-9 -15 -16 -23 -31 -23h-76c-15 0 -22 9 -15 23l90 185c7 15 16 23 32 23z" />
    <glyph glyph-name="gravecomb" unicode="&#x300;" horiz-adv-x="0" 
d="M-567 816h88c15 0 24 -8 31 -23l91 -185c7 -14 0 -23 -16 -23h-75c-16 0 -23 8 -31 23l-103 185c-8 15 1 23 15 23z" />
    <glyph glyph-name="acutecomb" unicode="&#x301;" horiz-adv-x="0" 
d="M-402 816h88c14 0 23 -8 15 -23l-103 -185c-8 -15 -15 -23 -30 -23h-76c-15 0 -23 9 -16 23l91 185c7 15 16 23 31 23z" />
    <glyph glyph-name="uni0302" unicode="&#x302;" horiz-adv-x="0" 
d="M-485 816h89c22 0 33 -8 43 -25l106 -181c9 -14 1 -25 -13 -25h-77c-16 0 -24 7 -31 22l-58 111c-3 6 -6 9 -12 9h-4c-7 0 -10 -3 -13 -9l-58 -111c-7 -15 -15 -22 -31 -22h-77c-14 0 -22 11 -13 25l106 181c10 17 21 25 43 25z" />
    <glyph glyph-name="tildecomb" unicode="&#x303;" horiz-adv-x="0" 
d="M-623 602h-56c-16 0 -19 8 -19 31c0 118 37 152 125 152c73 0 120 -22 166 -60c21 -19 37 -32 76 -32c40 0 45 15 45 71c1 18 11 24 28 24h56c16 0 18 -8 18 -31c0 -118 -36 -152 -124 -152c-73 0 -120 22 -166 60c-21 19 -38 32 -76 32c-40 0 -45 -15 -46 -71
c0 -18 -10 -24 -27 -24z" />
    <glyph glyph-name="uni0304" unicode="&#x304;" horiz-adv-x="0" 
d="M-675 734h469c15 0 22 -7 22 -22v-58c0 -15 -7 -22 -22 -22h-469c-15 0 -23 7 -23 22v58c0 15 8 22 23 22z" />
    <glyph glyph-name="uni0306" unicode="&#x306;" horiz-adv-x="0" 
d="M-681 723v52c0 12 7 23 19 23c7 0 15 -3 25 -11c22 -19 93 -78 196 -78s174 59 197 78c9 8 18 11 24 11c12 0 19 -11 19 -23v-52c0 -15 -2 -27 -19 -41c-36 -30 -126 -70 -221 -70c-96 0 -184 40 -220 70c-18 15 -20 26 -20 41z" />
    <glyph glyph-name="uni0307" unicode="&#x307;" horiz-adv-x="0" 
d="M-489 752h98c15 0 22 -7 22 -22v-95c0 -15 -7 -23 -22 -23h-98c-15 0 -23 8 -23 23v95c0 15 8 22 23 22z" />
    <glyph glyph-name="uni0308" unicode="&#x308;" horiz-adv-x="0" 
d="M-350 752h98c15 0 22 -7 22 -22v-95c0 -15 -7 -23 -22 -23h-98c-15 0 -22 8 -22 23v95c0 15 7 22 22 22zM-629 752h98c15 0 22 -7 22 -22v-95c0 -15 -7 -23 -22 -23h-98c-15 0 -23 8 -23 23v95c0 15 8 22 23 22z" />
    <glyph glyph-name="hookabovecomb" unicode="&#x309;" horiz-adv-x="0" 
d="M-577 816h226c50 0 74 -25 74 -72v-29c0 -42 -11 -59 -40 -76l-72 -51c-10 -5 -17 -7 -29 -7h-72c-14 0 -14 17 -6 22l116 83c7 5 9 10 9 19v18c0 8 -4 12 -13 12h-193c-10 0 -15 4 -15 15v51c0 10 5 15 15 15z" />
    <glyph glyph-name="uni030A" unicode="&#x30a;" horiz-adv-x="0" 
d="M-496 816h112c74 0 103 -27 103 -97v-63c0 -70 -29 -97 -103 -97h-112c-75 0 -103 27 -103 97v63c0 70 28 97 103 97zM-526 706v-37c0 -34 9 -44 43 -44h86c34 0 43 10 43 44v37c0 34 -9 44 -43 44h-86c-34 0 -43 -10 -43 -44z" />
    <glyph glyph-name="uni030B" unicode="&#x30b;" horiz-adv-x="0" 
d="M-288 816h88c14 0 23 -8 15 -23l-103 -185c-8 -15 -15 -23 -30 -23h-76c-16 0 -23 9 -16 23l91 185c7 15 16 23 31 23zM-516 816h88c14 0 23 -8 15 -23l-103 -185c-9 -15 -16 -23 -31 -23h-76c-15 0 -22 9 -15 23l90 185c7 15 16 23 32 23z" />
    <glyph glyph-name="uni030C" unicode="&#x30c;" horiz-adv-x="0" 
d="M-621 816h77c16 0 24 -7 31 -23l58 -110c3 -6 6 -9 13 -9h4c6 0 9 3 12 9l58 110c7 16 15 23 31 23h77c14 0 22 -11 13 -25l-106 -181c-10 -17 -21 -25 -43 -25h-89c-22 0 -33 8 -43 25l-106 181c-9 14 -1 25 13 25z" />
    <glyph glyph-name="uni0313" unicode="&#x313;" horiz-adv-x="0" 
d="M-440 816h57c17 0 24 -9 23 -23l-16 -185c-1 -15 -10 -23 -23 -23h-91c-16 0 -23 9 -18 25l43 183c4 15 11 23 25 23z" />
    <glyph glyph-name="uni031B" unicode="&#x31b;" horiz-adv-x="78" 
d="M-2 650h77c14 0 22 -7 22 -22v-88c0 -129 -51 -184 -203 -184h-59c-12 0 -18 6 -18 18v63c0 12 6 18 18 18h60c61 0 80 22 80 85v88c0 15 8 22 23 22z" />
    <glyph glyph-name="dotbelowcomb" unicode="&#x323;" horiz-adv-x="0" 
d="M-490 -72h98c15 0 22 -6 22 -18v-95c0 -12 -7 -18 -22 -18h-98c-15 0 -22 6 -22 18v95c0 12 7 18 22 18z" />
    <glyph glyph-name="uni0326" unicode="&#x326;" horiz-adv-x="0" 
d="M-475 -41h90c16 0 23 -9 19 -26l-44 -182c-4 -15 -11 -23 -25 -23h-57c-16 0 -24 9 -23 23l16 185c1 15 10 23 24 23z" />
    <glyph glyph-name="uni0328" unicode="&#x328;" horiz-adv-x="0" 
d="M-521 -32l83 32h137l-124 -59c-43 -20 -50 -32 -50 -60c0 -36 12 -46 54 -46h84c13 0 18 -6 18 -18v-71c0 -12 -5 -18 -18 -18h-127c-100 0 -129 29 -129 122c0 65 14 97 72 118z" />
    <glyph glyph-name="uni032D" unicode="&#x32d;" horiz-adv-x="0" 
d="M-486 -57h89c22 0 33 -7 44 -22l105 -142c9 -12 1 -21 -12 -21h-78c-15 0 -23 5 -31 18l-57 86c-3 6 -7 8 -13 8h-4c-7 0 -10 -2 -13 -8l-58 -86c-7 -13 -15 -18 -31 -18h-77c-14 0 -22 9 -13 21l106 142c10 15 21 22 43 22z" />
    <glyph glyph-name="tonos" unicode="&#x384;" horiz-adv-x="349" 
d="M181 816h88c13 0 22 -8 14 -23l-97 -185c-8 -15 -15 -23 -31 -23h-75c-15 0 -22 9 -15 23l85 185c6 15 16 23 31 23z" />
    <glyph glyph-name="dieresistonos" unicode="&#x385;" horiz-adv-x="677" 
d="M355 816h88c13 0 22 -8 14 -23l-97 -185c-8 -15 -15 -23 -31 -23h-75c-15 0 -22 9 -15 23l85 185c6 15 16 23 31 23zM498 752h98c15 0 22 -7 22 -22v-95c0 -15 -7 -23 -22 -23h-98c-15 0 -23 8 -23 23v95c0 15 8 22 23 22zM85 752h98c15 0 22 -7 22 -22v-95
c0 -15 -7 -23 -22 -23h-98c-15 0 -23 8 -23 23v95c0 15 8 22 23 22z" />
    <glyph glyph-name="Alphatonos" unicode="&#x386;" horiz-adv-x="1067" 
d="M543 700h59c51 0 82 -16 115 -76l331 -601c7 -13 4 -23 -12 -23h-127c-13 0 -18 3 -23 13l-71 129h-470l-69 -129c-5 -10 -11 -13 -23 -13h-130c-17 0 -20 10 -13 23l328 601c33 60 63 76 105 76zM565 551l-157 -293h344l-159 293c-3 5 -6 7 -11 7h-6c-5 0 -8 -2 -11 -7z
M186 816h88c13 0 22 -8 14 -23l-97 -185c-8 -15 -15 -23 -31 -23h-75c-15 0 -22 9 -15 23l85 185c6 15 16 23 31 23z" />
    <glyph glyph-name="anoteleia" unicode="&#x387;" horiz-adv-x="267" 
d="M85 498h98c15 0 22 -7 22 -22v-96c0 -15 -7 -22 -22 -22h-98c-15 0 -23 7 -23 22v96c0 15 8 22 23 22z" />
    <glyph glyph-name="Epsilontonos" unicode="&#x388;" horiz-adv-x="1047" 
d="M535 700h440c15 0 23 -7 23 -22v-95c0 -15 -8 -22 -23 -22h-437c-104 0 -133 -31 -133 -136v-10h565c15 0 22 -7 22 -22v-79c0 -15 -7 -22 -22 -22h-565v-17c0 -105 29 -136 133 -136h437c15 0 23 -7 23 -22v-95c0 -15 -8 -22 -23 -22h-440c-202 0 -280 72 -280 264v172
c0 192 78 264 280 264zM181 816h88c13 0 22 -8 14 -23l-97 -185c-8 -15 -15 -23 -31 -23h-75c-15 0 -22 9 -15 23l85 185c6 15 16 23 31 23z" />
    <glyph glyph-name="Etatonos" unicode="&#x389;" horiz-adv-x="1174" 
d="M357 700h108c15 0 22 -7 22 -22v-260h468v260c0 15 7 22 22 22h108c15 0 23 -7 23 -22v-656c0 -15 -8 -22 -23 -22h-108c-15 0 -22 7 -22 22v266h-468v-266c0 -15 -7 -22 -22 -22h-108c-15 0 -23 7 -23 22v656c0 15 8 22 23 22zM181 816h88c13 0 22 -8 14 -23l-97 -185
c-8 -15 -15 -23 -31 -23h-75c-15 0 -22 9 -15 23l85 185c6 15 16 23 31 23z" />
    <glyph glyph-name="Iotatonos" unicode="&#x38a;" horiz-adv-x="608" 
d="M358 700h108c15 0 22 -7 22 -22v-656c0 -15 -7 -22 -22 -22h-108c-15 0 -23 7 -23 22v656c0 15 8 22 23 22zM181 816h88c13 0 22 -8 14 -23l-97 -185c-8 -15 -15 -23 -31 -23h-75c-15 0 -22 9 -15 23l85 185c6 15 16 23 31 23z" />
    <glyph glyph-name="Omicrontonos" unicode="&#x38c;" horiz-adv-x="1182" 
d="M535 700h309c203 0 280 -72 280 -264v-172c0 -192 -77 -264 -280 -264h-309c-202 0 -280 72 -280 264v172c0 192 78 264 280 264zM408 425v-150c0 -105 30 -136 133 -136h297c103 0 133 31 133 136v150c0 105 -30 136 -133 136h-297c-103 0 -133 -31 -133 -136zM181 816
h88c13 0 22 -8 14 -23l-97 -185c-8 -15 -15 -23 -31 -23h-75c-15 0 -22 9 -15 23l85 185c6 15 16 23 31 23z" />
    <glyph glyph-name="Upsilontonos" unicode="&#x38e;" horiz-adv-x="1204" 
d="M332 700h134c12 0 18 -3 24 -12l267 -361l269 361c6 9 12 12 24 12h131c11 0 16 -11 9 -20l-359 -466v-192c0 -15 -7 -22 -22 -22h-108c-15 0 -23 7 -23 22v192l-355 466c-7 9 -3 20 9 20zM181 816h88c13 0 22 -8 14 -23l-97 -185c-8 -15 -15 -23 -31 -23h-75
c-15 0 -22 9 -15 23l85 185c6 15 16 23 31 23z" />
    <glyph glyph-name="Omegatonos" unicode="&#x38f;" horiz-adv-x="1192" 
d="M501 700h397c168 0 236 -72 236 -219v-72c0 -86 -43 -140 -122 -182l-103 -56c-8 -4 -10 -7 -10 -14v-10c0 -5 4 -8 10 -8h197c15 0 22 -7 22 -22v-95c0 -15 -7 -22 -22 -22h-321c-30 0 -43 10 -43 40v88c0 44 10 59 42 77l140 77c37 20 57 42 57 88v91
c0 70 -27 100 -105 100h-353c-78 0 -105 -30 -105 -100v-91c0 -46 21 -68 57 -88l140 -77c33 -18 42 -33 42 -77v-88c0 -30 -13 -40 -43 -40h-320c-15 0 -23 7 -23 22v95c0 15 8 22 23 22h196c6 0 10 3 10 8v10c0 7 -2 10 -10 14l-103 56c-78 42 -122 96 -122 182v72
c0 147 68 219 236 219zM181 816h88c13 0 22 -8 14 -23l-97 -185c-8 -15 -15 -23 -31 -23h-75c-15 0 -22 9 -15 23l85 185c6 15 16 23 31 23z" />
    <glyph glyph-name="iotadieresistonos" unicode="&#x390;" horiz-adv-x="594" 
d="M194 549h98c15 0 22 -8 22 -23v-327c0 -55 18 -81 84 -81h86c12 0 18 -6 18 -18v-82c0 -12 -6 -18 -18 -18h-110c-160 0 -203 57 -203 199v327c0 15 8 23 23 23zM299 816h88c13 0 22 -8 14 -23l-97 -185c-8 -15 -15 -23 -31 -23h-75c-15 0 -22 9 -15 23l85 185
c6 15 16 23 31 23zM442 752h98c15 0 22 -7 22 -22v-95c0 -15 -7 -23 -22 -23h-98c-15 0 -23 8 -23 23v95c0 15 8 22 23 22zM29 752h98c15 0 22 -7 22 -22v-95c0 -15 -7 -23 -22 -23h-98c-15 0 -23 8 -23 23v95c0 15 8 22 23 22z" />
    <glyph glyph-name="Alpha" unicode="&#x391;" horiz-adv-x="975" 
d="M451 700h59c51 0 82 -16 115 -76l331 -601c7 -13 4 -23 -12 -23h-127c-13 0 -18 3 -23 13l-71 129h-470l-69 -129c-5 -10 -11 -13 -23 -13h-130c-17 0 -20 10 -13 23l328 601c33 60 63 76 105 76zM473 551l-157 -293h344l-159 293c-3 5 -6 7 -11 7h-6c-5 0 -8 -2 -11 -7z
" />
    <glyph glyph-name="Beta" unicode="&#x392;" horiz-adv-x="919" 
d="M96 700h576c138 0 190 -54 190 -165v-48c0 -57 -22 -99 -64 -127c47 -27 69 -70 69 -129v-58c0 -106 -44 -173 -177 -173h-594c-20 0 -30 10 -30 30v640c0 20 10 30 30 30zM629 300h-410v-149c0 -9 4 -13 13 -13h410c53 0 74 19 74 61v38c0 41 -21 63 -87 63zM219 549
v-140h410c66 0 86 20 86 59v34c0 41 -22 60 -74 60h-409c-9 0 -13 -4 -13 -13z" />
    <glyph glyph-name="Gamma" unicode="&#x393;" horiz-adv-x="801" 
d="M344 700h411c15 0 22 -7 22 -22v-98c0 -15 -7 -23 -22 -23h-405c-103 0 -133 -30 -133 -136v-399c0 -15 -7 -22 -22 -22h-108c-15 0 -23 7 -23 22v414c0 192 78 264 280 264z" />
    <glyph glyph-name="Delta" unicode="&#x394;" horiz-adv-x="975" 
d="M457 700h53c51 0 83 -15 115 -76l331 -601c7 -13 4 -23 -12 -23h-913c-17 0 -20 10 -13 23l328 601c32 61 68 76 111 76zM473 551l-219 -394c-4 -8 1 -15 11 -15h447c10 0 13 7 9 16l-220 393c-3 5 -6 7 -11 7h-6c-5 0 -8 -2 -11 -7z" />
    <glyph glyph-name="Epsilon" unicode="&#x395;" horiz-adv-x="850" 
d="M338 700h440c15 0 23 -7 23 -22v-95c0 -15 -8 -22 -23 -22h-437c-104 0 -133 -31 -133 -136v-10h565c15 0 22 -7 22 -22v-79c0 -15 -7 -22 -22 -22h-565v-17c0 -105 29 -136 133 -136h437c15 0 23 -7 23 -22v-95c0 -15 -8 -22 -23 -22h-440c-202 0 -280 72 -280 264v172
c0 192 78 264 280 264z" />
    <glyph glyph-name="Zeta" unicode="&#x396;" horiz-adv-x="854" 
d="M77 700h647c54 0 79 -24 79 -76v-91c0 -49 -11 -63 -50 -84l-529 -279c-7 -4 -9 -8 -9 -15v-7c0 -6 3 -9 10 -9h549c15 0 23 -7 23 -22v-95c0 -15 -8 -22 -23 -22h-647c-55 0 -79 24 -79 75v91c0 49 8 63 47 84l527 280c7 4 9 8 9 15v7c0 6 -4 9 -10 9h-544
c-15 0 -23 7 -23 22v95c0 15 8 22 23 22z" />
    <glyph glyph-name="Eta" unicode="&#x397;" horiz-adv-x="906" 
d="M89 700h108c15 0 22 -7 22 -22v-260h468v260c0 15 7 22 22 22h108c15 0 23 -7 23 -22v-656c0 -15 -8 -22 -23 -22h-108c-15 0 -22 7 -22 22v266h-468v-266c0 -15 -7 -22 -22 -22h-108c-15 0 -23 7 -23 22v656c0 15 8 22 23 22z" />
    <glyph glyph-name="Theta" unicode="&#x398;" horiz-adv-x="985" 
d="M283 415h419c15 0 22 -7 22 -22v-79c0 -15 -7 -22 -22 -22h-419c-15 0 -22 7 -22 22v79c0 15 7 22 22 22zM338 700h309c203 0 280 -72 280 -264v-172c0 -192 -77 -264 -280 -264h-309c-202 0 -280 72 -280 264v172c0 192 78 264 280 264zM211 425v-150
c0 -105 30 -136 133 -136h297c103 0 133 31 133 136v150c0 105 -30 136 -133 136h-297c-103 0 -133 -31 -133 -136z" />
    <glyph glyph-name="Iota" unicode="&#x399;" horiz-adv-x="286" 
d="M89 700h108c15 0 22 -7 22 -22v-656c0 -15 -7 -22 -22 -22h-108c-15 0 -23 7 -23 22v656c0 15 8 22 23 22z" />
    <glyph glyph-name="Kappa" unicode="&#x39a;" horiz-adv-x="854" 
d="M89 700h108c15 0 22 -7 22 -22v-266h141c63 0 82 7 111 45l172 230c7 9 11 13 29 13h124c17 0 20 -15 13 -24l-194 -251c-23 -30 -41 -51 -60 -67c27 -17 51 -40 76 -72l205 -260c5 -7 7 -26 -13 -26h-128c-17 0 -21 4 -28 13l-184 238c-27 35 -50 45 -112 45h-152v-274
c0 -15 -7 -22 -22 -22h-108c-15 0 -23 7 -23 22v656c0 15 8 22 23 22z" />
    <glyph glyph-name="Lambda" unicode="&#x39b;" horiz-adv-x="975" 
d="M944 0h-126c-13 0 -18 4 -23 13l-293 538c-3 6 -6 7 -12 7h-5c-5 0 -8 -1 -11 -7l-289 -538c-5 -10 -11 -13 -23 -13h-131c-16 0 -19 10 -12 23l328 601c33 61 63 76 105 76h58c52 0 81 -15 115 -76l332 -601c7 -13 4 -23 -13 -23z" />
    <glyph glyph-name="Mu" unicode="&#x39c;" horiz-adv-x="1194" 
d="M155 700h109c60 0 80 -13 107 -76l208 -480c3 -7 7 -9 14 -9h12c7 0 11 2 14 9l208 480c27 63 47 76 106 76h107c70 0 88 -28 88 -104v-574c0 -15 -8 -22 -23 -22h-102c-15 0 -22 7 -22 22v522c0 7 -2 10 -8 10h-9c-7 0 -11 -2 -13 -8l-202 -448
c-33 -72 -61 -98 -128 -98h-48c-67 0 -95 26 -128 98l-202 448c-2 6 -6 8 -13 8h-9c-6 0 -8 -3 -8 -10v-522c0 -15 -7 -22 -22 -22h-102c-15 0 -23 7 -23 22v574c0 76 18 104 89 104z" />
    <glyph glyph-name="Nu" unicode="&#x39d;" horiz-adv-x="978" 
d="M156 700h88c64 0 78 -8 116 -59l372 -488c3 -5 7 -7 13 -7h9c5 0 8 3 8 10v522c0 15 7 22 22 22h105c15 0 22 -7 22 -22v-574c0 -81 -29 -104 -90 -104h-86c-61 0 -76 6 -116 59l-373 488c-4 5 -7 7 -13 7h-9c-6 0 -8 -3 -8 -10v-522c0 -15 -7 -22 -22 -22h-105
c-15 0 -23 7 -23 22v574c0 81 29 104 90 104z" />
    <glyph glyph-name="Xi" unicode="&#x39e;" horiz-adv-x="850" 
d="M72 700h706c15 0 23 -7 23 -22v-95c0 -15 -8 -22 -23 -22h-706c-15 0 -22 7 -22 22v95c0 15 7 22 22 22zM72 139h706c15 0 23 -7 23 -22v-95c0 -15 -8 -22 -23 -22h-706c-15 0 -22 7 -22 22v95c0 15 7 22 22 22zM78 415h695c15 0 22 -7 22 -22v-79c0 -15 -7 -22 -22 -22
h-695c-15 0 -23 7 -23 22v79c0 15 8 22 23 22z" />
    <glyph glyph-name="Omicron" unicode="&#x39f;" horiz-adv-x="985" 
d="M338 700h309c203 0 280 -72 280 -264v-172c0 -192 -77 -264 -280 -264h-309c-202 0 -280 72 -280 264v172c0 192 78 264 280 264zM211 425v-150c0 -105 30 -136 133 -136h297c103 0 133 31 133 136v150c0 105 -30 136 -133 136h-297c-103 0 -133 -31 -133 -136z" />
    <glyph glyph-name="Pi" unicode="&#x3a0;" horiz-adv-x="906" 
d="M158 700h589c67 0 93 -27 93 -85v-593c0 -15 -8 -22 -23 -22h-109c-15 0 -22 7 -22 22v515c0 14 -6 20 -21 20h-425c-14 0 -21 -6 -21 -20v-515c0 -15 -7 -22 -22 -22h-109c-15 0 -23 7 -23 22v593c0 58 26 85 93 85z" />
    <glyph glyph-name="Rho" unicode="&#x3a1;" horiz-adv-x="881" 
d="M96 700h537c153 0 215 -71 215 -206v-74c0 -135 -62 -206 -215 -206h-414v-192c0 -15 -7 -22 -22 -22h-108c-15 0 -23 7 -23 22v648c0 20 10 30 30 30zM219 550v-204h383c68 0 93 29 93 89v38c0 60 -25 89 -93 89h-370c-9 0 -13 -3 -13 -12z" />
    <glyph glyph-name="Sigma" unicode="&#x3a3;" horiz-adv-x="841" 
d="M131 700h646c15 0 23 -7 23 -22v-95c0 -15 -8 -22 -23 -22h-508c-7 0 -10 -3 -10 -9v-7c0 -8 2 -13 9 -15l295 -113c33 -10 43 -20 43 -50v-34c0 -30 -10 -40 -43 -50l-295 -114c-7 -2 -9 -7 -9 -14v-7c0 -6 3 -9 10 -9h508c15 0 23 -7 23 -22v-95c0 -15 -8 -22 -23 -22
h-646c-55 0 -79 24 -79 75v56c0 51 9 70 51 86l296 116c4 2 7 5 7 12v7c0 7 -3 11 -7 13l-296 119c-43 14 -51 36 -51 85v55c0 52 24 76 79 76z" />
    <glyph glyph-name="Tau" unicode="&#x3a4;" horiz-adv-x="873" 
d="M46 700h781c15 0 23 -7 23 -22v-98c0 -15 -8 -23 -23 -23h-314v-535c0 -15 -7 -22 -22 -22h-109c-15 0 -22 7 -22 22v535h-314c-15 0 -23 8 -23 23v98c0 15 8 22 23 22z" />
    <glyph glyph-name="Upsilon" unicode="&#x3a5;" horiz-adv-x="896" 
d="M24 700h134c12 0 18 -3 24 -12l267 -361l269 361c6 9 12 12 24 12h131c11 0 16 -11 9 -20l-359 -466v-192c0 -15 -7 -22 -22 -22h-108c-15 0 -23 7 -23 22v192l-355 466c-7 9 -3 20 9 20z" />
    <glyph glyph-name="Phi" unicode="&#x3a6;" horiz-adv-x="985" 
d="M441 700h102c15 0 22 -7 22 -22v-63h82c203 0 280 -69 280 -229v-62c0 -160 -77 -229 -280 -229h-82v-73c0 -15 -7 -22 -22 -22h-102c-15 0 -22 7 -22 22v73h-81c-202 0 -280 69 -280 229v62c0 160 78 229 280 229h81v63c0 15 7 22 22 22zM641 484h-76v-258h76
c103 0 133 30 133 105v48c0 75 -30 105 -133 105zM211 379v-48c0 -75 30 -105 133 -105h75v258h-75c-103 0 -133 -30 -133 -105z" />
    <glyph glyph-name="Chi" unicode="&#x3a7;" horiz-adv-x="891" 
d="M715 700h130c18 0 19 -17 10 -26l-307 -311l321 -337c9 -9 8 -26 -10 -26h-137c-16 0 -24 4 -32 14l-247 259l-248 -259c-9 -10 -16 -14 -33 -14h-130c-17 0 -18 17 -9 26l329 342l-297 306c-8 9 -8 26 10 26h137c16 0 24 -5 32 -14l218 -232l231 232c8 9 16 14 32 14z
" />
    <glyph glyph-name="Psi" unicode="&#x3a8;" horiz-adv-x="970" 
d="M430 700h109c15 0 22 -7 22 -22v-384h62c103 0 132 30 132 136v248c0 15 7 22 22 22h109c15 0 22 -7 22 -22v-254c0 -192 -77 -264 -280 -264h-67v-138c0 -15 -7 -22 -22 -22h-109c-15 0 -22 7 -22 22v138h-68c-202 0 -280 72 -280 264v254c0 15 8 22 23 22h108
c15 0 22 -7 22 -22v-248c0 -106 30 -136 133 -136h62v384c0 15 7 22 22 22z" />
    <glyph glyph-name="Omega" unicode="&#x3a9;" horiz-adv-x="985" 
d="M294 700h397c168 0 236 -72 236 -219v-72c0 -86 -43 -140 -122 -182l-103 -56c-8 -4 -10 -7 -10 -14v-10c0 -5 4 -8 10 -8h197c15 0 22 -7 22 -22v-95c0 -15 -7 -22 -22 -22h-321c-30 0 -43 10 -43 40v88c0 44 10 59 42 77l140 77c37 20 57 42 57 88v91
c0 70 -27 100 -105 100h-353c-78 0 -105 -30 -105 -100v-91c0 -46 21 -68 57 -88l140 -77c33 -18 42 -33 42 -77v-88c0 -30 -13 -40 -43 -40h-320c-15 0 -23 7 -23 22v95c0 15 8 22 23 22h196c6 0 10 3 10 8v10c0 7 -2 10 -10 14l-103 56c-78 42 -122 96 -122 182v72
c0 147 68 219 236 219z" />
    <glyph glyph-name="Iotadieresis" unicode="&#x3aa;" horiz-adv-x="381" 
d="M136 700h108c15 0 22 -7 22 -22v-656c0 -15 -7 -22 -22 -22h-108c-15 0 -23 7 -23 22v656c0 15 8 22 23 22zM259 885h98c15 0 22 -6 22 -18v-95c0 -12 -7 -18 -22 -18h-98c-15 0 -22 6 -22 18v95c0 12 7 18 22 18zM24 885h98c15 0 22 -6 22 -18v-95c0 -12 -7 -18 -22 -18
h-98c-15 0 -22 6 -22 18v95c0 12 7 18 22 18z" />
    <glyph glyph-name="Upsilondieresis" unicode="&#x3ab;" horiz-adv-x="896" 
d="M24 700h134c12 0 18 -3 24 -12l267 -361l269 361c6 9 12 12 24 12h131c11 0 16 -11 9 -20l-359 -466v-192c0 -15 -7 -22 -22 -22h-108c-15 0 -23 7 -23 22v192l-355 466c-7 9 -3 20 9 20zM259 885h98c15 0 22 -6 22 -18v-95c0 -12 -7 -18 -22 -18h-98c-15 0 -22 6 -22 18
v95c0 12 7 18 22 18zM538 885h98c15 0 23 -6 23 -18v-95c0 -12 -8 -18 -23 -18h-98c-15 0 -22 6 -22 18v95c0 12 7 18 22 18z" />
    <glyph glyph-name="alphatonos" unicode="&#x3ac;" horiz-adv-x="915" 
d="M292 549h393c54 0 82 -25 82 -74v-275c0 -56 19 -82 84 -82h47c12 0 18 -6 18 -18v-82c0 -12 -6 -18 -18 -18h-71c-62 0 -107 20 -137 52c-37 -32 -90 -52 -161 -52h-237c-180 0 -238 57 -238 202v144c0 145 58 203 238 203zM197 322v-95c0 -84 23 -110 109 -110h216
c86 0 103 26 103 110v174c0 21 -8 30 -34 30h-285c-86 0 -109 -25 -109 -109zM472 816h88c13 0 22 -8 14 -23l-97 -185c-8 -15 -15 -23 -31 -23h-75c-15 0 -22 9 -15 23l85 185c6 15 16 23 31 23z" />
    <glyph glyph-name="epsilontonos" unicode="&#x3ad;" horiz-adv-x="724" 
d="M417 816h88c13 0 22 -8 14 -23l-97 -185c-8 -15 -15 -23 -31 -23h-75c-15 0 -22 9 -15 23l85 185c6 15 16 23 31 23zM211 549h460c14 0 21 -7 21 -21v-74c0 -14 -7 -21 -21 -21h-432c-43 0 -59 -14 -59 -44v-22c0 -28 16 -44 59 -44h407c14 0 21 -6 21 -20v-53
c0 -14 -7 -22 -21 -22h-407c-44 0 -60 -16 -60 -48v-21c0 -29 17 -45 59 -45h433c14 0 21 -6 21 -21v-72c0 -14 -7 -21 -21 -21h-476c-118 0 -156 53 -156 135v46c0 46 17 79 54 101c-33 23 -50 57 -50 100v37c0 87 47 130 168 130z" />
    <glyph glyph-name="etatonos" unicode="&#x3ae;" horiz-adv-x="964" 
d="M40 549h62c53 0 94 -20 121 -48c36 28 86 48 151 48h261c180 0 238 -58 238 -203v-545c0 -15 -8 -22 -23 -22h-98c-15 0 -22 7 -22 22v516c0 84 -16 109 -103 109h-246c-80 0 -95 -28 -95 -102v-302c0 -15 -8 -22 -23 -22h-98c-15 0 -22 7 -22 22v346c0 41 -15 63 -65 63
h-38c-13 0 -18 6 -18 18v82c0 12 5 18 18 18zM539 816h88c13 0 22 -8 14 -23l-97 -185c-8 -15 -15 -23 -31 -23h-75c-15 0 -22 9 -15 23l85 185c6 15 16 23 31 23z" />
    <glyph glyph-name="iotatonos" unicode="&#x3af;" horiz-adv-x="408" 
d="M83 549h98c15 0 22 -8 22 -23v-327c0 -55 18 -81 84 -81h86c12 0 18 -6 18 -18v-82c0 -12 -6 -18 -18 -18h-110c-160 0 -203 57 -203 199v327c0 15 8 23 23 23zM198 816h88c13 0 22 -8 14 -23l-97 -185c-8 -15 -15 -23 -31 -23h-75c-15 0 -22 9 -15 23l85 185
c6 15 16 23 31 23z" />
    <glyph glyph-name="upsilondieresistonos" unicode="&#x3b0;" horiz-adv-x="914" 
d="M483 816h88c13 0 22 -8 14 -23l-97 -185c-8 -15 -15 -23 -31 -23h-75c-15 0 -22 9 -15 23l85 185c6 15 16 23 31 23zM41 549h61c144 0 184 -54 184 -178v-134c0 -84 16 -110 103 -110h212c87 0 110 26 110 110v289c0 15 7 23 22 23h98c15 0 22 -8 22 -23v-324
c0 -145 -57 -202 -238 -202h-234c-180 0 -238 57 -238 202v169c0 38 -15 60 -64 60h-38c-12 0 -18 6 -18 18v82c0 12 6 18 18 18zM626 752h98c15 0 22 -7 22 -22v-95c0 -15 -7 -23 -22 -23h-98c-15 0 -23 8 -23 23v95c0 15 8 22 23 22zM213 752h98c15 0 22 -7 22 -22v-95
c0 -15 -7 -23 -22 -23h-98c-15 0 -23 8 -23 23v95c0 15 8 22 23 22z" />
    <glyph glyph-name="alpha" unicode="&#x3b1;" horiz-adv-x="938" 
d="M292 549h393c54 0 82 -25 82 -74v-275c0 -56 19 -82 84 -82h47c12 0 18 -6 18 -18v-82c0 -12 -6 -18 -18 -18h-71c-62 0 -107 20 -137 52c-37 -32 -90 -52 -161 -52h-237c-180 0 -238 57 -238 202v144c0 145 58 203 238 203zM197 322v-95c0 -84 23 -110 109 -110h216
c86 0 103 26 103 110v174c0 21 -8 30 -34 30h-285c-86 0 -109 -25 -109 -109z" />
    <glyph glyph-name="beta" unicode="&#x3b2;" horiz-adv-x="818" 
d="M262 750h315c132 0 182 -46 182 -142v-106c0 -49 -20 -87 -60 -112c44 -24 64 -61 64 -111v-131c0 -91 -42 -148 -169 -148h-388v-199c0 -15 -7 -22 -22 -22h-98c-15 0 -23 7 -23 22v773c0 123 46 176 199 176zM206 561v-447h345c51 0 72 18 72 58v106
c0 39 -20 59 -85 59h-216c-15 0 -21 7 -21 21v53c0 14 6 21 21 21h216c65 0 84 19 84 55v89c0 38 -21 56 -72 56h-264c-59 0 -80 -23 -80 -71z" />
    <glyph glyph-name="gamma" unicode="&#x3b3;" horiz-adv-x="855" 
d="M40 549h58c91 0 120 -18 162 -92l189 -319l240 397c5 9 11 14 24 14h114c11 0 22 -9 12 -25l-320 -513v-210c0 -15 -7 -22 -22 -22h-98c-15 0 -23 7 -23 22v210l-235 376c-22 33 -39 44 -78 44h-23c-13 0 -18 6 -18 18v82c0 12 5 18 18 18z" />
    <glyph glyph-name="delta" unicode="&#x3b4;" horiz-adv-x="868" 
d="M147 750h603c15 0 21 -7 21 -21v-77c0 -14 -6 -21 -21 -21h-489c-10 0 -14 -4 -14 -11v-9c0 -10 6 -16 14 -19l370 -107c141 -40 182 -92 182 -211v-66c0 -149 -58 -208 -238 -208h-283c-180 0 -238 59 -238 208v54c0 107 18 140 109 186l79 40l-90 29
c-50 15 -71 43 -71 101v68c0 39 19 64 66 64zM593 379l-233 72l-97 -54c-53 -30 -66 -52 -66 -114v-51c0 -88 23 -115 109 -115h255c87 0 110 27 110 115v47c0 60 -21 81 -78 100z" />
    <glyph glyph-name="epsilon" unicode="&#x3b5;" horiz-adv-x="724" 
d="M211 549h460c14 0 21 -7 21 -21v-74c0 -14 -7 -21 -21 -21h-432c-43 0 -59 -14 -59 -44v-22c0 -28 16 -44 59 -44h407c14 0 21 -6 21 -20v-53c0 -14 -7 -22 -21 -22h-407c-44 0 -60 -16 -60 -48v-21c0 -29 17 -45 59 -45h433c14 0 21 -6 21 -21v-72c0 -14 -7 -21 -21 -21
h-476c-118 0 -156 53 -156 135v46c0 46 17 79 54 101c-33 23 -50 57 -50 100v37c0 87 47 130 168 130z" />
    <glyph glyph-name="zeta" unicode="&#x3b6;" horiz-adv-x="752" 
d="M85 750h553c48 0 70 -20 70 -62v-74c0 -43 -10 -56 -47 -73l-382 -177c-62 -29 -74 -57 -74 -131v-3c0 -84 22 -110 109 -110h188c153 0 202 -51 202 -180v-139c0 -15 -8 -22 -23 -22h-98c-15 0 -22 7 -22 22v111c0 69 -14 88 -73 88h-188c-180 0 -238 57 -238 202v31
c0 109 45 170 171 225l317 145c8 3 10 6 10 15v7c0 5 -3 7 -9 7h-466c-12 0 -18 6 -18 18v82c0 12 6 18 18 18z" />
    <glyph glyph-name="eta" unicode="&#x3b7;" horiz-adv-x="933" 
d="M40 549h62c53 0 94 -20 121 -48c36 28 86 48 151 48h261c180 0 238 -58 238 -203v-545c0 -15 -8 -22 -23 -22h-98c-15 0 -22 7 -22 22v516c0 84 -16 109 -103 109h-246c-80 0 -95 -28 -95 -102v-302c0 -15 -8 -22 -23 -22h-98c-15 0 -22 7 -22 22v346c0 41 -15 63 -65 63
h-38c-13 0 -18 6 -18 18v82c0 12 5 18 18 18z" />
    <glyph glyph-name="theta" unicode="&#x3b8;" horiz-adv-x="880" 
d="M298 751h283c180 0 238 -58 238 -207v-336c0 -149 -58 -208 -238 -208h-283c-180 0 -238 59 -238 208v336c0 149 58 207 238 207zM567 117c87 0 110 27 110 115v93h-474v-93c0 -88 23 -115 109 -115h255zM203 519v-76h474v76c0 88 -23 115 -110 115h-255
c-86 0 -109 -27 -109 -115z" />
    <glyph glyph-name="iota" unicode="&#x3b9;" horiz-adv-x="408" 
d="M83 549h98c15 0 22 -8 22 -23v-327c0 -55 18 -81 84 -81h86c12 0 18 -6 18 -18v-82c0 -12 -6 -18 -18 -18h-110c-160 0 -203 57 -203 199v327c0 15 8 23 23 23z" />
    <glyph glyph-name="kappa" unicode="&#x3ba;" horiz-adv-x="746" 
d="M85 549h98c15 0 22 -8 22 -23v-194h135c57 0 74 5 100 42l111 158c9 12 15 17 31 17h112c15 0 20 -14 10 -27l-129 -177c-20 -27 -40 -48 -61 -64c28 -16 50 -37 70 -64l143 -192c8 -11 2 -25 -12 -25h-113c-17 0 -22 3 -30 14l-122 168c-24 33 -45 42 -100 42h-145v-202
c0 -15 -7 -22 -22 -22h-98c-15 0 -23 7 -23 22v504c0 15 8 23 23 23z" />
    <glyph glyph-name="lambda" unicode="&#x3bb;" horiz-adv-x="798" 
d="M183 750h74c90 0 129 -21 168 -97l356 -628c7 -13 1 -25 -13 -25h-112c-12 0 -19 4 -24 13l-227 398l-248 -396c-7 -11 -16 -16 -28 -16h-99c-17 0 -20 21 -10 35l317 497l-44 78c-10 16 -23 23 -49 23h-61c-12 0 -18 6 -18 18v82c0 12 6 18 18 18z" />
    <glyph glyph-name="mu" unicode="&#x3bc;" horiz-adv-x="937" 
d="M85 549h98c15 0 22 -8 22 -23v-294c0 -84 28 -110 109 -110h207c87 0 103 26 103 109v295c0 15 7 23 22 23h98c15 0 22 -8 22 -23v-327c0 -55 19 -81 84 -81h51c12 0 18 -6 18 -18v-82c0 -12 -6 -18 -18 -18h-74c-62 0 -107 20 -138 51c-36 -31 -89 -51 -160 -51h-192
c-54 0 -98 8 -132 24v-223c0 -15 -7 -22 -22 -22h-98c-15 0 -23 7 -23 22v725c0 15 8 23 23 23z" />
    <glyph glyph-name="nu" unicode="&#x3bd;" horiz-adv-x="830" 
d="M40 549h58c91 0 122 -18 159 -94l168 -336c3 -5 5 -6 10 -6h5c5 0 7 1 10 6l221 416c5 10 12 14 24 14h107c14 0 19 -12 13 -25l-254 -479c-17 -34 -39 -45 -84 -45h-82c-45 0 -66 11 -84 45l-175 332c-25 45 -45 54 -73 54h-23c-13 0 -18 6 -18 18v82c0 12 5 18 18 18z
" />
    <glyph glyph-name="xi" unicode="&#x3be;" horiz-adv-x="729" 
d="M85 750h553c48 0 70 -20 70 -55v-69c0 -36 -10 -49 -47 -60l-407 -118c-43 -12 -49 -28 -49 -54v-8c0 -30 16 -45 59 -45h337c14 0 20 -6 20 -20v-53c0 -14 -6 -21 -20 -21h-337c-44 0 -59 -17 -59 -52v-23c0 -31 13 -52 68 -52h229c153 0 202 -51 202 -180v-139
c0 -15 -8 -22 -23 -22h-98c-15 0 -22 7 -22 22v111c0 69 -14 88 -73 88h-249c-124 0 -177 53 -177 140v46c0 48 12 83 40 106c-29 19 -40 49 -40 83v26c0 45 17 88 99 111l347 99c8 2 10 5 10 12v7c0 5 -3 6 -9 6h-424c-12 0 -18 5 -18 14v82c0 10 6 18 18 18z" />
    <glyph glyph-name="omicron" unicode="&#x3bf;" horiz-adv-x="868" 
d="M292 549h283c180 0 238 -58 238 -203v-144c0 -145 -58 -202 -238 -202h-283c-180 0 -238 57 -238 202v144c0 145 58 203 238 203zM197 322v-95c0 -84 23 -110 109 -110h255c87 0 110 26 110 110v95c0 84 -23 109 -110 109h-255c-86 0 -109 -25 -109 -109z" />
    <glyph glyph-name="pi" unicode="&#x3c0;" horiz-adv-x="954" 
d="M35 549h862c13 0 18 -6 18 -18v-82c0 -12 -5 -18 -18 -18h-148v-232c0 -55 19 -81 84 -81h63c12 0 18 -6 18 -18v-82c0 -12 -6 -18 -18 -18h-87c-160 0 -202 57 -202 199v232h-316v-409c0 -15 -7 -22 -22 -22h-98c-15 0 -23 7 -23 22v409h-113c-12 0 -18 6 -18 18v82
c0 12 6 18 18 18z" />
    <glyph glyph-name="rho" unicode="&#x3c1;" horiz-adv-x="871" 
d="M298 549h280c180 0 238 -58 238 -203v-144c0 -145 -58 -202 -238 -202h-375v-199c0 -15 -7 -22 -22 -22h-98c-15 0 -23 7 -23 22v545c0 145 58 203 238 203zM203 319v-199h361c87 0 110 25 110 110v89c0 84 -23 110 -110 110h-252c-86 0 -109 -26 -109 -110z" />
    <glyph glyph-name="sigma1" unicode="&#x3c2;" horiz-adv-x="729" 
d="M277 549h395c12 0 18 -6 18 -18v-84c0 -13 -6 -18 -18 -18h-381c-87 0 -109 -26 -109 -110v-89c0 -84 22 -110 109 -110h188c152 0 201 -51 201 -180v-139c0 -15 -7 -22 -22 -22h-98c-15 0 -22 7 -22 22v111c0 69 -14 88 -73 88h-188c-180 0 -238 57 -238 202v144
c0 145 58 203 238 203z" />
    <glyph glyph-name="sigma" unicode="&#x3c3;" horiz-adv-x="958" 
d="M292 549h625c12 0 18 -6 18 -18v-82c0 -12 -6 -18 -18 -18h-143v-229c0 -145 -58 -202 -238 -202h-244c-180 0 -238 57 -238 202v144c0 145 58 203 238 203zM522 117c87 0 110 26 110 110v204h-326c-86 0 -109 -26 -109 -110v-94c0 -84 23 -110 109 -110h216z" />
    <glyph glyph-name="tau" unicode="&#x3c4;" horiz-adv-x="815" 
d="M41 549h733c12 0 18 -6 18 -18v-84c0 -13 -6 -18 -18 -18h-312v-230c0 -55 18 -81 84 -81h86c12 0 18 -6 18 -18v-82c0 -12 -6 -18 -18 -18h-110c-160 0 -203 57 -203 199v230h-278c-12 0 -18 5 -18 18v84c0 12 6 18 18 18z" />
    <glyph glyph-name="upsilon" unicode="&#x3c5;" horiz-adv-x="914" 
d="M41 549h61c144 0 184 -54 184 -178v-134c0 -84 16 -110 103 -110h212c87 0 110 26 110 110v289c0 15 7 23 22 23h98c15 0 22 -8 22 -23v-324c0 -145 -57 -202 -238 -202h-234c-180 0 -238 57 -238 202v169c0 38 -15 60 -64 60h-38c-12 0 -18 6 -18 18v82c0 12 6 18 18 18
z" />
    <glyph glyph-name="phi" unicode="&#x3c6;" horiz-adv-x="985" 
d="M443 750h99c14 0 22 -7 22 -22v-179h129c180 0 238 -58 238 -203v-144c0 -145 -58 -202 -238 -202h-129v-199c0 -15 -8 -22 -22 -22h-99c-14 0 -22 7 -22 22v199h-129c-180 0 -238 57 -238 202v144c0 145 58 203 238 203h129v179c0 15 8 22 22 22zM679 431h-115v-314h115
c87 0 109 26 109 110v95c0 84 -22 109 -109 109zM197 322v-95c0 -84 23 -110 109 -110h115v314h-115c-86 0 -109 -25 -109 -109z" />
    <glyph glyph-name="chi" unicode="&#x3c7;" horiz-adv-x="766" 
d="M629 549h99c17 0 20 -21 11 -35l-255 -341l263 -359c9 -14 7 -35 -11 -35h-109c-15 0 -22 5 -28 16l-210 285l-221 -285c-6 -11 -14 -16 -28 -16h-99c-17 0 -20 21 -10 35l280 372l-163 222c-14 18 -28 23 -49 23h-58c-12 0 -18 6 -18 18v82c0 12 6 18 18 18h82
c67 0 98 -15 128 -57l155 -213l195 254c7 10 14 16 28 16z" />
    <glyph glyph-name="psi" unicode="&#x3c8;" horiz-adv-x="1030" 
d="M516 750h98c15 0 22 -7 22 -22v-601h103c86 0 109 26 109 110v289c0 15 7 23 22 23h98c15 0 23 -8 23 -23v-324c0 -145 -58 -202 -238 -202h-117v-199c0 -15 -7 -22 -22 -22h-98c-15 0 -23 7 -23 22v199h-112c-180 0 -238 57 -238 202v169c0 38 -15 60 -64 60h-38
c-12 0 -18 6 -18 18v82c0 12 6 18 18 18h61c144 0 184 -54 184 -178v-134c0 -84 16 -110 103 -110h104v601c0 15 8 22 23 22z" />
    <glyph glyph-name="omega" unicode="&#x3c9;" horiz-adv-x="1182" 
d="M83 549h98c15 0 22 -8 22 -23v-289c0 -84 22 -110 96 -110h27c48 0 62 20 80 83l56 194c14 50 28 67 70 67h118c42 0 57 -17 70 -67l56 -194c18 -63 32 -83 80 -83h27c74 0 96 26 96 110v289c0 15 7 23 22 23h98c15 0 23 -8 23 -23v-324c0 -145 -58 -202 -225 -202h-59
c-101 0 -143 38 -181 167l-51 177c-3 9 -5 12 -11 12h-8c-6 0 -8 -3 -11 -12l-51 -177c-37 -129 -79 -167 -180 -167h-60c-167 0 -225 57 -225 202v324c0 15 8 23 23 23z" />
    <glyph glyph-name="iotadieresis" unicode="&#x3ca;" horiz-adv-x="462" 
d="M137 549h98c15 0 22 -8 22 -23v-327c0 -55 18 -81 84 -81h86c12 0 18 -6 18 -18v-82c0 -12 -6 -18 -18 -18h-110c-160 0 -203 57 -203 199v327c0 15 8 23 23 23zM253 752h98c15 0 22 -7 22 -22v-95c0 -15 -7 -23 -22 -23h-98c-15 0 -23 8 -23 23v95c0 15 8 22 23 22z
M31 752h98c15 0 22 -7 22 -22v-95c0 -15 -7 -23 -22 -23h-98c-15 0 -23 8 -23 23v95c0 15 8 22 23 22z" />
    <glyph glyph-name="upsilondieresis" unicode="&#x3cb;" horiz-adv-x="914" 
d="M41 549h61c144 0 184 -54 184 -178v-134c0 -84 16 -110 103 -110h212c87 0 110 26 110 110v289c0 15 7 23 22 23h98c15 0 22 -8 22 -23v-324c0 -145 -57 -202 -238 -202h-234c-180 0 -238 57 -238 202v169c0 38 -15 60 -64 60h-38c-12 0 -18 6 -18 18v82c0 12 6 18 18 18
zM579 752h98c15 0 22 -7 22 -22v-95c0 -15 -7 -23 -22 -23h-98c-15 0 -22 8 -22 23v95c0 15 7 22 22 22zM300 752h98c15 0 22 -7 22 -22v-95c0 -15 -7 -23 -22 -23h-98c-15 0 -23 8 -23 23v95c0 15 8 22 23 22z" />
    <glyph glyph-name="omicrontonos" unicode="&#x3cc;" horiz-adv-x="868" 
d="M292 549h283c180 0 238 -58 238 -203v-144c0 -145 -58 -202 -238 -202h-283c-180 0 -238 57 -238 202v144c0 145 58 203 238 203zM197 322v-95c0 -84 23 -110 109 -110h255c87 0 110 26 110 110v95c0 84 -23 109 -110 109h-255c-86 0 -109 -25 -109 -109zM463 816h88
c13 0 22 -8 14 -23l-97 -185c-8 -15 -15 -23 -31 -23h-75c-15 0 -22 9 -15 23l85 185c6 15 16 23 31 23z" />
    <glyph glyph-name="upsilontonos" unicode="&#x3cd;" horiz-adv-x="914" 
d="M526 816h88c13 0 22 -8 14 -23l-97 -185c-8 -15 -15 -23 -31 -23h-75c-15 0 -22 9 -15 23l85 185c6 15 16 23 31 23zM41 549h61c144 0 184 -54 184 -178v-134c0 -84 16 -110 103 -110h212c87 0 110 26 110 110v289c0 15 7 23 22 23h98c15 0 22 -8 22 -23v-324
c0 -145 -57 -202 -238 -202h-234c-180 0 -238 57 -238 202v169c0 38 -15 60 -64 60h-38c-12 0 -18 6 -18 18v82c0 12 6 18 18 18z" />
    <glyph glyph-name="omegatonos" unicode="&#x3ce;" horiz-adv-x="1182" 
d="M83 549h98c15 0 22 -8 22 -23v-289c0 -84 22 -110 96 -110h27c48 0 62 20 80 83l56 194c14 50 28 67 70 67h118c42 0 57 -17 70 -67l56 -194c18 -63 32 -83 80 -83h27c74 0 96 26 96 110v289c0 15 7 23 22 23h98c15 0 23 -8 23 -23v-324c0 -145 -58 -202 -225 -202h-59
c-101 0 -143 38 -181 167l-51 177c-3 9 -5 12 -11 12h-8c-6 0 -8 -3 -11 -12l-51 -177c-37 -129 -79 -167 -180 -167h-60c-167 0 -225 57 -225 202v324c0 15 8 23 23 23zM619 816h88c13 0 22 -8 14 -23l-97 -185c-8 -15 -15 -23 -31 -23h-75c-15 0 -22 9 -15 23l85 185
c6 15 16 23 31 23z" />
    <glyph glyph-name="uni0400" unicode="&#x400;" horiz-adv-x="858" 
d="M122 700h664c15 0 22 -7 22 -22v-95c0 -15 -7 -22 -22 -22h-557c-9 0 -13 -4 -13 -14v-132h564c15 0 23 -7 23 -22v-79c0 -15 -8 -22 -23 -22h-564v-138c0 -10 4 -15 13 -15h557c15 0 22 -7 22 -22v-95c0 -15 -7 -22 -22 -22h-664c-39 0 -56 13 -56 50v600
c0 29 17 50 56 50zM323 916h89c15 0 24 -7 31 -19l90 -147c7 -12 0 -19 -16 -19h-76c-15 0 -22 6 -30 19l-102 147c-9 12 1 19 14 19z" />
    <glyph glyph-name="uni0401" unicode="&#x401;" horiz-adv-x="858" 
d="M122 700h664c15 0 22 -7 22 -22v-95c0 -15 -7 -22 -22 -22h-557c-9 0 -13 -4 -13 -14v-132h564c15 0 23 -7 23 -22v-79c0 -15 -8 -22 -23 -22h-564v-138c0 -10 4 -15 13 -15h557c15 0 22 -7 22 -22v-95c0 -15 -7 -22 -22 -22h-664c-39 0 -56 13 -56 50v600
c0 29 17 50 56 50zM265 885h98c15 0 22 -6 22 -18v-95c0 -12 -7 -18 -22 -18h-98c-15 0 -22 6 -22 18v95c0 12 7 18 22 18zM544 885h98c15 0 23 -6 23 -18v-95c0 -12 -8 -18 -23 -18h-98c-15 0 -22 6 -22 18v95c0 12 7 18 22 18z" />
    <glyph glyph-name="uni0402" unicode="&#x402;" horiz-adv-x="1107" 
d="M46 700h692c15 0 22 -7 22 -22v-98c0 -15 -7 -23 -22 -23h-296v-135h333c197 0 268 -60 268 -235v-167c0 -174 -71 -241 -268 -241h-159c-15 0 -22 7 -22 22v98c0 15 7 22 22 22h154c97 0 120 25 120 114v146c0 89 -23 113 -120 113h-328v-272c0 -15 -8 -22 -23 -22h-108
c-15 0 -22 7 -22 22v535h-243c-15 0 -23 8 -23 23v98c0 15 8 22 23 22z" />
    <glyph glyph-name="uni0403" unicode="&#x403;" horiz-adv-x="801" 
d="M344 700h411c15 0 22 -7 22 -22v-98c0 -15 -7 -23 -22 -23h-405c-103 0 -133 -30 -133 -136v-399c0 -15 -7 -22 -22 -22h-108c-15 0 -23 7 -23 22v414c0 192 78 264 280 264zM473 916h89c14 0 23 -7 14 -19l-102 -147c-8 -13 -15 -19 -30 -19h-76c-15 0 -23 7 -15 19
l89 147c7 12 16 19 31 19z" />
    <glyph glyph-name="uni0404" unicode="&#x404;" horiz-adv-x="850" 
d="M338 700h440c15 0 23 -7 23 -22v-95c0 -15 -8 -22 -23 -22h-437c-104 0 -133 -31 -133 -136v-10h400c15 0 22 -7 22 -22v-79c0 -15 -7 -22 -22 -22h-400v-17c0 -105 29 -136 133 -136h437c15 0 23 -7 23 -22v-95c0 -15 -8 -22 -23 -22h-440c-202 0 -280 72 -280 264v172
c0 192 78 264 280 264z" />
    <glyph glyph-name="uni0405" unicode="&#x405;" horiz-adv-x="857" 
d="M231 700h530c15 0 22 -7 22 -22v-95c0 -15 -7 -22 -22 -22h-501c-38 0 -53 -21 -53 -56v-34c0 -37 17 -56 52 -56h375c115 0 175 -62 175 -172v-80c0 -97 -56 -163 -177 -163h-554c-15 0 -23 7 -23 22v95c0 15 8 22 23 22h525c38 0 53 21 53 56v41c0 37 -17 56 -52 56
h-375c-115 0 -175 62 -175 172v73c0 97 56 163 177 163z" />
    <glyph glyph-name="uni0406" unicode="&#x406;" horiz-adv-x="286" 
d="M89 700h108c15 0 22 -7 22 -22v-656c0 -15 -7 -22 -22 -22h-108c-15 0 -23 7 -23 22v656c0 15 8 22 23 22z" />
    <glyph glyph-name="uni0407" unicode="&#x407;" horiz-adv-x="381" 
d="M136 700h108c15 0 22 -7 22 -22v-656c0 -15 -7 -22 -22 -22h-108c-15 0 -23 7 -23 22v656c0 15 8 22 23 22zM259 885h98c15 0 22 -6 22 -18v-95c0 -12 -7 -18 -22 -18h-98c-15 0 -22 6 -22 18v95c0 12 7 18 22 18zM24 885h98c15 0 22 -6 22 -18v-95c0 -12 -7 -18 -22 -18
h-98c-15 0 -22 6 -22 18v95c0 12 7 18 22 18z" />
    <glyph glyph-name="uni0408" unicode="&#x408;" horiz-adv-x="781" 
d="M586 700h108c15 0 22 -7 22 -22v-414c0 -192 -77 -264 -280 -264h-390c-15 0 -23 7 -23 22v98c0 15 8 22 23 22h385c103 0 132 31 132 137v399c0 15 8 22 23 22z" />
    <glyph glyph-name="uni0409" unicode="&#x409;" horiz-adv-x="1478" 
d="M1199 351h-383v-201c0 -9 4 -12 13 -12h370c68 0 93 29 93 89v35c0 60 -25 89 -93 89zM816 615v-132h414c153 0 215 -71 215 -206v-71c0 -135 -62 -206 -215 -206h-537c-20 0 -30 10 -30 30v507c0 14 -7 20 -21 20h-236c-24 0 -27 -15 -29 -31
c-13 -133 -36 -299 -70 -402c-27 -82 -69 -124 -159 -124h-102c-15 0 -23 8 -23 22v98c0 15 8 22 23 22h76c29 0 56 15 77 79c24 76 38 185 62 392c6 53 24 87 88 87h375c66 0 92 -27 92 -85z" />
    <glyph glyph-name="uni040A" unicode="&#x40a;" horiz-adv-x="1500" 
d="M88 700h108c15 0 22 -7 22 -22v-195h467v195c0 15 8 22 23 22h108c15 0 22 -7 22 -22v-195h414c153 0 215 -71 215 -206v-71c0 -135 -62 -206 -215 -206h-537c-20 0 -30 10 -30 30v323h-467v-331c0 -15 -7 -22 -22 -22h-108c-15 0 -23 7 -23 22v656c0 15 8 22 23 22z
M1221 351h-383v-201c0 -9 4 -12 13 -12h370c68 0 93 29 93 89v35c0 60 -25 89 -93 89z" />
    <glyph glyph-name="uni040B" unicode="&#x40b;" horiz-adv-x="1107" 
d="M46 700h692c15 0 22 -7 22 -22v-98c0 -15 -7 -23 -22 -23h-296v-135h333c197 0 268 -60 268 -235v-165c0 -15 -7 -22 -22 -22h-108c-15 0 -23 7 -23 22v159c0 89 -23 113 -120 113h-328v-272c0 -15 -8 -22 -23 -22h-108c-15 0 -22 7 -22 22v535h-243c-15 0 -23 8 -23 23
v98c0 15 8 22 23 22z" />
    <glyph glyph-name="uni040C" unicode="&#x40c;" horiz-adv-x="797" 
d="M89 700h108c15 0 22 -7 22 -22v-266h84c63 0 82 7 111 45l172 230c7 9 11 13 29 13h124c17 0 20 -15 13 -24l-194 -251c-23 -30 -41 -51 -60 -67c27 -17 51 -40 76 -72l205 -260c5 -7 7 -26 -13 -26h-128c-17 0 -21 4 -28 13l-184 238c-27 35 -50 45 -112 45h-95v-274
c0 -15 -7 -22 -22 -22h-108c-15 0 -23 7 -23 22v656c0 15 8 22 23 22zM443 916h89c14 0 23 -7 14 -19l-102 -147c-8 -13 -15 -19 -30 -19h-76c-15 0 -23 7 -15 19l89 147c7 12 16 19 31 19z" />
    <glyph glyph-name="uni040D" unicode="&#x40d;" horiz-adv-x="906" 
d="M89 700h108c15 0 22 -7 22 -22v-522c0 -7 3 -10 8 -10h9c6 0 11 2 14 7l296 489c28 47 44 58 116 58h88c61 0 90 -22 90 -104v-574c0 -15 -8 -22 -23 -22h-108c-15 0 -22 7 -22 22v522c0 7 -3 10 -8 10h-9c-6 0 -11 -2 -13 -7l-299 -488c-29 -47 -44 -59 -115 -59h-86
c-61 0 -91 23 -91 104v574c0 15 8 22 23 22zM326 916h89c15 0 24 -7 31 -19l90 -147c7 -12 0 -19 -16 -19h-76c-15 0 -22 6 -30 19l-102 147c-9 12 1 19 14 19z" />
    <glyph glyph-name="uni040E" unicode="&#x40e;" horiz-adv-x="824" 
d="M26 700h120c17 0 26 -3 33 -14l237 -370l230 363c7 13 13 21 41 21h111c19 0 18 -16 12 -26l-380 -585c-46 -74 -111 -89 -178 -89h-100c-15 0 -22 7 -22 22v98c0 15 7 22 22 22h97c48 0 64 11 79 35l9 14l-323 483c-7 11 -6 26 12 26zM172 849v41c0 11 7 19 18 19
c7 0 15 -3 25 -10c22 -16 94 -67 196 -67c103 0 175 51 197 67c10 7 18 10 25 10c11 0 18 -8 18 -19v-41c0 -13 -2 -22 -19 -34c-37 -26 -124 -62 -221 -62c-96 0 -183 36 -220 62c-17 12 -19 21 -19 34z" />
    <glyph glyph-name="uni040F" unicode="&#x40f;" horiz-adv-x="906" 
d="M88 700h109c15 0 22 -7 22 -22v-515c0 -14 7 -21 21 -21h425c15 0 21 7 21 21v515c0 15 7 22 22 22h109c15 0 23 -7 23 -22v-593c0 -58 -26 -85 -93 -85h-226v-165c0 -15 -7 -22 -22 -22h-92c-15 0 -23 7 -23 22v165h-226c-67 0 -93 27 -93 85v593c0 15 8 22 23 22z" />
    <glyph glyph-name="uni0410" unicode="&#x410;" horiz-adv-x="975" 
d="M451 700h59c51 0 82 -16 115 -76l331 -601c7 -13 4 -23 -12 -23h-127c-13 0 -18 3 -23 13l-71 129h-470l-69 -129c-5 -10 -11 -13 -23 -13h-130c-17 0 -20 10 -13 23l328 601c33 60 63 76 105 76zM473 551l-157 -293h344l-159 293c-3 5 -6 7 -11 7h-6c-5 0 -8 -2 -11 -7z
" />
    <glyph glyph-name="uni0411" unicode="&#x411;" horiz-adv-x="881" 
d="M236 700h403c15 0 23 -7 23 -22v-92c0 -15 -8 -22 -23 -22h-356c-50 0 -65 -16 -65 -63v-61h404c155 0 215 -71 215 -206v-28c0 -135 -60 -206 -215 -206h-527c-20 0 -30 10 -30 30v505c0 107 56 165 171 165zM592 332h-374v-196c0 -9 4 -12 12 -12h362c68 0 92 28 92 89
v30c0 59 -24 89 -92 89z" />
    <glyph glyph-name="uni0412" unicode="&#x412;" horiz-adv-x="919" 
d="M96 700h576c138 0 190 -54 190 -165v-48c0 -57 -22 -99 -64 -127c47 -27 69 -70 69 -129v-58c0 -106 -44 -173 -177 -173h-594c-20 0 -30 10 -30 30v640c0 20 10 30 30 30zM629 300h-410v-149c0 -9 4 -13 13 -13h410c53 0 74 19 74 61v38c0 41 -21 63 -87 63zM219 549
v-140h410c66 0 86 20 86 59v34c0 41 -22 60 -74 60h-409c-9 0 -13 -4 -13 -13z" />
    <glyph glyph-name="uni0413" unicode="&#x413;" horiz-adv-x="801" 
d="M344 700h411c15 0 22 -7 22 -22v-98c0 -15 -7 -23 -22 -23h-405c-103 0 -133 -30 -133 -136v-399c0 -15 -7 -22 -22 -22h-108c-15 0 -23 7 -23 22v414c0 192 78 264 280 264z" />
    <glyph glyph-name="uni0414" unicode="&#x414;" horiz-adv-x="1064" 
d="M406 700h375c66 0 92 -27 92 -85v-473h145c15 0 22 -7 22 -22v-285c0 -15 -7 -22 -22 -22h-92c-15 0 -23 7 -23 22v165h-743v-165c0 -15 -7 -22 -22 -22h-92c-15 0 -23 7 -23 22v285c0 15 8 22 23 22h137c28 0 53 18 73 79c24 76 38 185 62 392c6 53 24 87 88 87z
M369 142h351v395c0 14 -7 20 -21 20h-236c-24 0 -27 -15 -29 -31c-13 -126 -34 -281 -65 -384z" />
    <glyph glyph-name="uni0415" unicode="&#x415;" horiz-adv-x="858" 
d="M122 700h664c15 0 22 -7 22 -22v-95c0 -15 -7 -22 -22 -22h-557c-9 0 -13 -4 -13 -14v-132h564c15 0 23 -7 23 -22v-79c0 -15 -8 -22 -23 -22h-564v-138c0 -10 4 -15 13 -15h557c15 0 22 -7 22 -22v-95c0 -15 -7 -22 -22 -22h-664c-39 0 -56 13 -56 50v600
c0 29 17 50 56 50z" />
    <glyph glyph-name="uni0416" unicode="&#x416;" horiz-adv-x="1306" 
d="M706 0h-108c-15 0 -22 7 -22 22v274h-95c-62 0 -85 -10 -112 -45l-184 -238c-6 -9 -11 -13 -28 -13h-128c-20 0 -18 19 -13 26l205 260c25 32 48 55 76 72c-20 16 -38 37 -60 67l-194 251c-6 9 -4 24 13 24h124c18 0 22 -4 30 -13l171 -230c29 -38 49 -45 111 -45h84v266
c0 15 7 22 22 22h108c15 0 22 -7 22 -22v-266h84c63 0 82 7 111 45l172 230c7 9 11 13 29 13h124c17 0 20 -15 13 -24l-194 -251c-23 -30 -41 -51 -60 -67c27 -17 51 -40 76 -72l205 -260c5 -7 7 -26 -13 -26h-128c-17 0 -21 4 -28 13l-184 238c-27 35 -50 45 -112 45h-95
v-274c0 -15 -7 -22 -22 -22z" />
    <glyph glyph-name="uni0417" unicode="&#x417;" horiz-adv-x="837" 
d="M72 700h518c138 0 190 -54 190 -165v-48c0 -54 -20 -97 -58 -127c43 -29 63 -73 63 -129v-58c0 -106 -45 -173 -177 -173h-536c-15 0 -22 7 -22 22v94c0 15 7 23 22 23h488c52 0 74 19 74 61v29c0 41 -21 63 -87 63h-469c-15 0 -23 7 -23 22v79c0 15 8 22 23 22h469
c66 0 86 21 86 60v25c0 42 -22 61 -74 61h-487c-15 0 -22 8 -22 22v95c0 15 7 22 22 22z" />
    <glyph glyph-name="uni0418" unicode="&#x418;" horiz-adv-x="906" 
d="M89 700h108c15 0 22 -7 22 -22v-522c0 -7 3 -10 8 -10h9c6 0 11 2 14 7l296 489c28 47 44 58 116 58h88c61 0 90 -22 90 -104v-574c0 -15 -8 -22 -23 -22h-108c-15 0 -22 7 -22 22v522c0 7 -3 10 -8 10h-9c-6 0 -11 -2 -13 -7l-299 -488c-29 -47 -44 -59 -115 -59h-86
c-61 0 -91 23 -91 104v574c0 15 8 22 23 22z" />
    <glyph glyph-name="uni0419" unicode="&#x419;" horiz-adv-x="906" 
d="M89 700h108c15 0 22 -7 22 -22v-522c0 -7 3 -10 8 -10h9c6 0 11 2 14 7l296 489c28 47 44 58 116 58h88c61 0 90 -22 90 -104v-574c0 -15 -8 -22 -23 -22h-108c-15 0 -22 7 -22 22v522c0 7 -3 10 -8 10h-9c-6 0 -11 -2 -13 -7l-299 -488c-29 -47 -44 -59 -115 -59h-86
c-61 0 -91 23 -91 104v574c0 15 8 22 23 22zM212 849v41c0 11 7 19 18 19c7 0 15 -3 25 -10c22 -16 94 -67 196 -67c103 0 175 51 197 67c10 7 18 10 25 10c11 0 18 -8 18 -19v-41c0 -13 -2 -22 -19 -34c-37 -26 -124 -62 -221 -62c-96 0 -183 36 -220 62
c-17 12 -19 21 -19 34z" />
    <glyph glyph-name="uni041A" unicode="&#x41a;" horiz-adv-x="797" 
d="M89 700h108c15 0 22 -7 22 -22v-266h84c63 0 82 7 111 45l172 230c7 9 11 13 29 13h124c17 0 20 -15 13 -24l-194 -251c-23 -30 -41 -51 -60 -67c27 -17 51 -40 76 -72l205 -260c5 -7 7 -26 -13 -26h-128c-17 0 -21 4 -28 13l-184 238c-27 35 -50 45 -112 45h-95v-274
c0 -15 -7 -22 -22 -22h-108c-15 0 -23 7 -23 22v656c0 15 8 22 23 22z" />
    <glyph glyph-name="uni041B" unicode="&#x41b;" horiz-adv-x="883" 
d="M349 700h375c66 0 92 -27 92 -85v-593c0 -15 -7 -22 -22 -22h-109c-15 0 -22 7 -22 22v515c0 14 -7 20 -21 20h-236c-24 0 -27 -15 -29 -31c-13 -133 -36 -299 -70 -402c-27 -82 -69 -124 -159 -124h-102c-15 0 -23 8 -23 22v98c0 15 8 22 23 22h76c29 0 56 15 77 79
c24 76 38 185 62 392c6 53 24 87 88 87z" />
    <glyph glyph-name="uni041C" unicode="&#x41c;" horiz-adv-x="1194" 
d="M155 700h109c60 0 80 -13 107 -76l208 -480c3 -7 7 -9 14 -9h12c7 0 11 2 14 9l208 480c27 63 47 76 106 76h107c70 0 88 -28 88 -104v-574c0 -15 -8 -22 -23 -22h-102c-15 0 -22 7 -22 22v522c0 7 -2 10 -8 10h-9c-7 0 -11 -2 -13 -8l-202 -448
c-33 -72 -61 -98 -128 -98h-48c-67 0 -95 26 -128 98l-202 448c-2 6 -6 8 -13 8h-9c-6 0 -8 -3 -8 -10v-522c0 -15 -7 -22 -22 -22h-102c-15 0 -23 7 -23 22v574c0 76 18 104 89 104z" />
    <glyph glyph-name="uni041D" unicode="&#x41d;" horiz-adv-x="906" 
d="M89 700h108c15 0 22 -7 22 -22v-260h468v260c0 15 7 22 22 22h108c15 0 23 -7 23 -22v-656c0 -15 -8 -22 -23 -22h-108c-15 0 -22 7 -22 22v266h-468v-266c0 -15 -7 -22 -22 -22h-108c-15 0 -23 7 -23 22v656c0 15 8 22 23 22z" />
    <glyph glyph-name="uni041E" unicode="&#x41e;" horiz-adv-x="985" 
d="M338 700h309c203 0 280 -72 280 -264v-172c0 -192 -77 -264 -280 -264h-309c-202 0 -280 72 -280 264v172c0 192 78 264 280 264zM211 425v-150c0 -105 30 -136 133 -136h297c103 0 133 31 133 136v150c0 105 -30 136 -133 136h-297c-103 0 -133 -31 -133 -136z" />
    <glyph glyph-name="uni041F" unicode="&#x41f;" horiz-adv-x="906" 
d="M158 700h589c67 0 93 -27 93 -85v-593c0 -15 -8 -22 -23 -22h-109c-15 0 -22 7 -22 22v515c0 14 -6 20 -21 20h-425c-14 0 -21 -6 -21 -20v-515c0 -15 -7 -22 -22 -22h-109c-15 0 -23 7 -23 22v593c0 58 26 85 93 85z" />
    <glyph glyph-name="uni0420" unicode="&#x420;" horiz-adv-x="881" 
d="M96 700h537c153 0 215 -71 215 -206v-74c0 -135 -62 -206 -215 -206h-414v-192c0 -15 -7 -22 -22 -22h-108c-15 0 -23 7 -23 22v648c0 20 10 30 30 30zM219 550v-204h383c68 0 93 29 93 89v38c0 60 -25 89 -93 89h-370c-9 0 -13 -3 -13 -12z" />
    <glyph glyph-name="uni0421" unicode="&#x421;" horiz-adv-x="852" 
d="M338 700h451c15 0 22 -7 22 -22v-98c0 -15 -7 -23 -22 -23h-445c-103 0 -133 -30 -133 -136v-142c0 -106 30 -137 133 -137h445c15 0 22 -7 22 -22v-98c0 -15 -7 -22 -22 -22h-451c-202 0 -280 72 -280 264v172c0 192 78 264 280 264z" />
    <glyph glyph-name="uni0422" unicode="&#x422;" horiz-adv-x="873" 
d="M46 700h781c15 0 23 -7 23 -22v-98c0 -15 -8 -23 -23 -23h-314v-535c0 -15 -7 -22 -22 -22h-109c-15 0 -22 7 -22 22v535h-314c-15 0 -23 8 -23 23v98c0 15 8 22 23 22z" />
    <glyph glyph-name="uni0423" unicode="&#x423;" horiz-adv-x="824" 
d="M26 700h120c17 0 26 -3 33 -14l237 -370l230 363c7 13 13 21 41 21h111c19 0 18 -16 12 -26l-380 -585c-46 -74 -111 -89 -178 -89h-100c-15 0 -22 7 -22 22v98c0 15 7 22 22 22h97c48 0 64 11 79 35l9 14l-323 483c-7 11 -6 26 12 26z" />
    <glyph glyph-name="uni0424" unicode="&#x424;" horiz-adv-x="985" 
d="M441 700h102c15 0 22 -7 22 -22v-63h82c203 0 280 -69 280 -229v-62c0 -160 -77 -229 -280 -229h-82v-73c0 -15 -7 -22 -22 -22h-102c-15 0 -22 7 -22 22v73h-81c-202 0 -280 69 -280 229v62c0 160 78 229 280 229h81v63c0 15 7 22 22 22zM641 484h-76v-258h76
c103 0 133 30 133 105v48c0 75 -30 105 -133 105zM211 379v-48c0 -75 30 -105 133 -105h75v258h-75c-103 0 -133 -30 -133 -105z" />
    <glyph glyph-name="uni0425" unicode="&#x425;" horiz-adv-x="891" 
d="M715 700h130c18 0 19 -17 10 -26l-307 -311l321 -337c9 -9 8 -26 -10 -26h-137c-16 0 -24 4 -32 14l-247 259l-248 -259c-9 -10 -16 -14 -33 -14h-130c-17 0 -18 17 -9 26l329 342l-297 306c-8 9 -8 26 10 26h137c16 0 24 -5 32 -14l218 -232l231 232c8 9 16 14 32 14z
" />
    <glyph glyph-name="uni0426" unicode="&#x426;" horiz-adv-x="1030" 
d="M88 700h109c15 0 22 -7 22 -22v-515c0 -14 7 -21 21 -21h446v536c0 15 7 22 22 22h109c15 0 23 -7 23 -22v-536h144c15 0 22 -7 22 -22v-285c0 -15 -7 -22 -22 -22h-92c-15 0 -23 7 -23 22v165h-711c-67 0 -93 27 -93 85v593c0 15 8 22 23 22z" />
    <glyph glyph-name="uni0427" unicode="&#x427;" horiz-adv-x="909" 
d="M86 700h108c15 0 22 -7 22 -22v-187c0 -106 30 -136 133 -136h341v323c0 15 7 22 22 22h108c15 0 23 -7 23 -22v-656c0 -15 -8 -22 -23 -22h-108c-15 0 -22 7 -22 22v199h-347c-202 0 -280 72 -280 264v193c0 15 8 22 23 22z" />
    <glyph glyph-name="uni0428" unicode="&#x428;" horiz-adv-x="1141" 
d="M88 700h109c15 0 22 -7 22 -22v-515c0 -14 7 -21 21 -21h254v536c0 15 7 22 22 22h109c15 0 22 -7 22 -22v-536h254c14 0 20 7 20 21v515c0 15 7 22 22 22h110c15 0 22 -7 22 -22v-593c0 -58 -26 -85 -93 -85h-824c-67 0 -93 27 -93 85v593c0 15 8 22 23 22z" />
    <glyph glyph-name="uni0429" unicode="&#x429;" horiz-adv-x="1265" 
d="M88 700h109c15 0 22 -7 22 -22v-515c0 -14 7 -21 21 -21h254v536c0 15 7 22 22 22h109c15 0 22 -7 22 -22v-536h274v536c0 15 7 22 22 22h110c15 0 22 -7 22 -22v-536h144c15 0 22 -7 22 -22v-285c0 -15 -7 -22 -22 -22h-92c-15 0 -23 7 -23 22v165h-946
c-67 0 -93 27 -93 85v593c0 15 8 22 23 22z" />
    <glyph glyph-name="uni042A" unicode="&#x42a;" horiz-adv-x="1066" 
d="M46 700h205c115 0 171 -58 171 -165v-52h396c154 0 215 -71 215 -206v-71c0 -135 -61 -206 -215 -206h-519c-20 0 -30 10 -30 30v471c0 47 -15 63 -64 63h-159c-15 0 -23 7 -23 22v92c0 15 8 22 23 22zM788 351h-366v-201c0 -9 4 -12 12 -12h354c67 0 92 28 92 89v35
c0 59 -25 89 -92 89z" />
    <glyph glyph-name="uni042B" unicode="&#x42b;" horiz-adv-x="1167" 
d="M970 700h108c15 0 22 -7 22 -22v-656c0 -15 -7 -22 -22 -22h-108c-15 0 -23 7 -23 22v656c0 15 8 22 23 22zM89 700h108c15 0 22 -7 22 -22v-195h414c153 0 215 -71 215 -206v-71c0 -135 -62 -206 -215 -206h-537c-20 0 -30 10 -30 30v648c0 15 8 22 23 22zM602 351h-383
v-201c0 -9 4 -12 13 -12h370c68 0 93 29 93 89v35c0 60 -25 89 -93 89z" />
    <glyph glyph-name="uni042C" unicode="&#x42c;" horiz-adv-x="881" 
d="M89 700h108c15 0 22 -7 22 -22v-195h414c153 0 215 -71 215 -206v-71c0 -135 -62 -206 -215 -206h-537c-20 0 -30 10 -30 30v648c0 15 8 22 23 22zM602 351h-383v-201c0 -9 4 -12 13 -12h370c68 0 93 29 93 89v35c0 60 -25 89 -93 89z" />
    <glyph glyph-name="uni042D" unicode="&#x42d;" horiz-adv-x="850" 
d="M512 0h-440c-15 0 -23 7 -23 22v95c0 15 8 22 23 22h437c104 0 133 31 133 136v10h-400c-15 0 -22 7 -22 22v79c0 15 7 22 22 22h400v17c0 105 -29 136 -133 136h-437c-15 0 -23 7 -23 22v95c0 15 8 22 23 22h440c202 0 280 -72 280 -264v-172c0 -192 -78 -264 -280 -264
z" />
    <glyph glyph-name="uni042E" unicode="&#x42e;" horiz-adv-x="1239" 
d="M641 700h259c203 0 280 -72 280 -264v-172c0 -192 -77 -264 -280 -264h-259c-202 0 -280 72 -280 264v28h-142v-270c0 -15 -7 -22 -22 -22h-108c-15 0 -23 7 -23 22v656c0 15 8 22 23 22h108c15 0 22 -7 22 -22v-263h142v21c0 192 78 264 280 264zM514 425v-150
c0 -105 30 -136 133 -136h247c103 0 133 31 133 136v150c0 105 -30 136 -133 136h-247c-103 0 -133 -31 -133 -136z" />
    <glyph glyph-name="uni042F" unicode="&#x42f;" horiz-adv-x="905" 
d="M273 700h536c20 0 30 -10 30 -30v-648c0 -15 -8 -22 -23 -22h-108c-15 0 -22 7 -22 22v199h-323l-158 -208c-6 -9 -11 -13 -28 -13h-129c-18 0 -19 18 -13 25l171 212c-105 19 -149 86 -149 200v57c0 135 62 206 216 206zM210 432c0 -60 25 -89 93 -89h383v208
c0 8 -4 12 -12 12h-371c-68 0 -93 -29 -93 -89v-42z" />
    <glyph glyph-name="uni0430" unicode="&#x430;" 
d="M75 549h432c180 0 238 -58 238 -203v-266c0 -65 -16 -80 -74 -80h-476c-118 0 -154 43 -154 142v48c0 84 36 131 154 131h407v19c0 64 -22 89 -109 89h-418c-12 0 -18 5 -18 18v84c0 12 6 18 18 18zM573 110c21 0 29 9 29 34v88h-366c-41 0 -56 -17 -56 -49v-21
c0 -36 15 -52 56 -52h337z" />
    <glyph glyph-name="uni0431" unicode="&#x431;" horiz-adv-x="871" 
d="M298 750h320c34 0 45 15 45 44v32c0 15 7 23 22 23h98c15 0 23 -8 23 -23v-34c0 -115 -36 -162 -164 -162h-330c-86 0 -109 -26 -109 -92v-31h375c180 0 238 -58 238 -203v-102c0 -145 -58 -202 -238 -202h-280c-180 0 -238 57 -238 202v345c0 145 58 203 238 203z
M564 403h-361v-173c0 -84 23 -110 109 -110h252c87 0 110 26 110 110v63c0 84 -23 110 -110 110z" />
    <glyph glyph-name="uni0432" unicode="&#x432;" horiz-adv-x="829" 
d="M91 549h519c121 0 166 -43 166 -130v-38c0 -43 -18 -76 -52 -98c38 -21 57 -56 57 -102v-45c0 -83 -39 -136 -154 -136h-536c-19 0 -29 10 -29 29v490c0 20 10 30 29 30zM583 234h-378v-109c0 -9 4 -13 13 -13h366c41 0 56 15 56 44v29c0 32 -15 49 -57 49zM205 423v-100
h379c40 0 55 16 55 45v22c0 32 -16 47 -57 47h-364c-9 0 -13 -4 -13 -14z" />
    <glyph glyph-name="uni0433" unicode="&#x433;" horiz-adv-x="613" 
d="M298 549h280c12 0 18 -6 18 -18v-84c0 -13 -6 -18 -18 -18h-266c-86 0 -109 -26 -109 -110v-297c0 -15 -7 -22 -22 -22h-98c-15 0 -23 7 -23 22v324c0 145 58 203 238 203z" />
    <glyph glyph-name="uni0434" unicode="&#x434;" horiz-adv-x="951" 
d="M342 549h346c60 0 84 -29 84 -80v-351h133c15 0 22 -7 22 -22v-261c0 -15 -7 -22 -22 -22h-80c-15 0 -23 7 -23 22v165h-654v-165c0 -15 -7 -22 -22 -22h-80c-15 0 -23 7 -23 22v261c0 15 8 22 23 22h86c25 0 51 8 71 59c22 54 37 153 58 304c6 41 22 68 81 68zM312 118
h318v288c0 11 -6 16 -19 16h-217c-21 0 -24 -10 -26 -22c-8 -53 -26 -191 -56 -282z" />
    <glyph glyph-name="uni0435" unicode="&#x435;" 
d="M279 549h293c137 0 173 -43 173 -164v-95c0 -43 -18 -57 -57 -57h-505v-24c0 -63 23 -89 110 -89h417c12 0 18 -6 18 -18v-84c0 -12 -6 -18 -18 -18h-431c-180 0 -238 57 -238 202v144c0 145 58 203 238 203zM183 349v-27h405c12 0 17 4 17 17v42c0 41 -15 57 -61 57
h-251c-87 0 -110 -25 -110 -89z" />
    <glyph glyph-name="uni0436" unicode="&#x436;" horiz-adv-x="1216" 
d="M657 0h-98c-15 0 -22 7 -22 22v202h-145c-55 0 -76 -9 -100 -42l-122 -168c-8 -11 -14 -14 -30 -14h-113c-15 0 -20 14 -12 25l142 192c20 27 43 48 70 64c-22 15 -41 36 -61 64l-129 177c-9 13 -5 27 10 27h113c15 0 22 -5 30 -17l112 -158c26 -37 42 -42 99 -42h136
v194c0 15 7 23 22 23h98c15 0 22 -8 22 -23v-194h135c57 0 74 5 100 42l111 158c9 12 15 17 31 17h112c15 0 20 -14 10 -27l-129 -177c-20 -27 -40 -48 -61 -64c28 -16 50 -37 70 -64l143 -192c8 -11 2 -25 -12 -25h-113c-17 0 -22 3 -30 14l-122 168c-24 33 -45 42 -100 42
h-145v-202c0 -15 -7 -22 -22 -22z" />
    <glyph glyph-name="uni0437" unicode="&#x437;" horiz-adv-x="724" 
d="M53 549h460c121 0 168 -43 168 -130v-37c0 -43 -18 -77 -51 -100c37 -22 55 -55 55 -101v-46c0 -82 -38 -135 -156 -135h-476c-14 0 -21 7 -21 21v72c0 15 7 21 21 21h433c42 0 59 16 59 45v21c0 32 -16 48 -60 48h-425c-14 0 -21 8 -21 22v53c0 14 7 20 21 20h425
c43 0 59 16 59 44v22c0 30 -16 44 -59 44h-432c-14 0 -21 7 -21 21v74c0 14 7 21 21 21z" />
    <glyph glyph-name="uni0438" unicode="&#x438;" horiz-adv-x="866" 
d="M86 549h97c15 0 22 -8 22 -23v-384c0 -7 3 -10 8 -10h9c6 0 10 2 13 7l300 351c36 42 54 59 123 59h56c61 0 90 -23 90 -105v-422c0 -15 -8 -22 -23 -22h-98c-15 0 -22 7 -22 22v385c0 7 -2 10 -8 10h-9c-6 0 -9 -2 -13 -7l-301 -351c-37 -43 -53 -59 -122 -59h-54
c-61 0 -91 23 -91 104v422c0 15 8 23 23 23z" />
    <glyph glyph-name="uni0439" unicode="&#x439;" horiz-adv-x="866" 
d="M192 723v52c0 12 7 23 19 23c7 0 15 -3 25 -11c22 -19 93 -78 196 -78s174 59 197 78c9 8 18 11 24 11c12 0 19 -11 19 -23v-52c0 -15 -2 -27 -19 -41c-36 -30 -126 -70 -221 -70c-96 0 -184 40 -220 70c-18 15 -20 26 -20 41zM86 549h97c15 0 22 -8 22 -23v-384
c0 -7 3 -10 8 -10h9c6 0 10 2 13 7l300 351c36 42 54 59 123 59h56c61 0 90 -23 90 -105v-422c0 -15 -8 -22 -23 -22h-98c-15 0 -22 7 -22 22v385c0 7 -2 10 -8 10h-9c-6 0 -9 -2 -13 -7l-301 -351c-37 -43 -53 -59 -122 -59h-54c-61 0 -91 23 -91 104v422c0 15 8 23 23 23z
" />
    <glyph glyph-name="uni043A" unicode="&#x43a;" horiz-adv-x="746" 
d="M85 549h98c15 0 22 -8 22 -23v-194h135c57 0 74 5 100 42l111 158c9 12 15 17 31 17h112c15 0 20 -14 10 -27l-129 -177c-20 -27 -40 -48 -61 -64c28 -16 50 -37 70 -64l143 -192c8 -11 2 -25 -12 -25h-113c-17 0 -22 3 -30 14l-122 168c-24 33 -45 42 -100 42h-145v-202
c0 -15 -7 -22 -22 -22h-98c-15 0 -23 7 -23 22v504c0 15 8 23 23 23z" />
    <glyph glyph-name="uni043B" unicode="&#x43b;" horiz-adv-x="817" 
d="M324 549h346c60 0 84 -29 84 -80v-445c0 -16 -6 -24 -20 -24h-101c-14 0 -21 8 -21 23v383c0 11 -6 16 -19 16h-217c-21 0 -24 -10 -26 -22c-9 -58 -29 -217 -65 -306c-26 -62 -62 -94 -147 -94h-95c-13 0 -20 7 -20 22v73c0 16 7 23 20 23h71c25 0 51 8 71 59
c22 54 37 153 58 304c6 41 22 68 81 68z" />
    <glyph glyph-name="uni043C" unicode="&#x43c;" horiz-adv-x="1088" 
d="M151 549h99c59 0 75 -15 106 -76l166 -329c4 -7 7 -9 14 -9h16c7 0 11 2 14 9l166 329c31 61 47 76 106 76h100c70 0 88 -28 88 -105v-422c0 -15 -8 -22 -22 -22h-99c-14 0 -22 7 -22 22v398c0 7 -2 10 -8 10h-9c-8 0 -10 -2 -13 -8l-164 -324c-36 -72 -58 -98 -123 -98
h-44c-65 0 -87 26 -123 98l-164 324c-3 6 -5 8 -13 8h-9c-6 0 -8 -3 -8 -10v-398c0 -15 -7 -22 -22 -22h-98c-15 0 -23 7 -23 22v422c0 77 18 105 89 105z" />
    <glyph glyph-name="uni043D" unicode="&#x43d;" horiz-adv-x="866" 
d="M85 549h98c15 0 22 -8 22 -23v-187h456v187c0 15 7 23 22 23h98c15 0 23 -8 23 -23v-504c0 -15 -8 -22 -23 -22h-98c-15 0 -22 7 -22 22v199h-456v-199c0 -15 -7 -22 -22 -22h-98c-15 0 -23 7 -23 22v504c0 15 8 23 23 23z" />
    <glyph glyph-name="uni043E" unicode="&#x43e;" horiz-adv-x="868" 
d="M292 549h283c180 0 238 -58 238 -203v-144c0 -145 -58 -202 -238 -202h-283c-180 0 -238 57 -238 202v144c0 145 58 203 238 203zM197 322v-95c0 -84 23 -110 109 -110h255c87 0 110 26 110 110v95c0 84 -23 109 -110 109h-255c-86 0 -109 -25 -109 -109z" />
    </font>
</defs>
</svg>
