<svg width="24" height="24" viewBox="0 0 24 24" fill="none" xmlns="http://www.w3.org/2000/svg">
<path d="M3.27271 14.1817V8.94537C3.27271 6.86221 4.13472 4.86438 5.6691 3.39136C7.20349 1.91835 9.28457 1.09082 11.4545 1.09082C13.6245 1.09082 15.7056 1.91835 17.2399 3.39136C18.7743 4.86438 19.6363 6.86221 19.6363 8.94537V14.1817" stroke="#303030" stroke-width="1.4" stroke-linecap="round" stroke-linejoin="round"/>
<path d="M19.6363 15.5845C19.6363 16.0805 19.4448 16.5562 19.1038 16.9069C18.7628 17.2576 18.3004 17.4546 17.8182 17.4546H16.9091C16.4269 17.4546 15.9644 17.2576 15.6234 16.9069C15.2824 16.5562 15.0909 16.0805 15.0909 15.5845V12.7793C15.0909 12.2833 15.2824 11.8076 15.6234 11.4569C15.9644 11.1062 16.4269 10.9092 16.9091 10.9092H19.6363V15.5845ZM3.27271 15.5845C3.27271 16.0805 3.46426 16.5562 3.80524 16.9069C4.14621 17.2576 4.60868 17.4546 5.09089 17.4546H5.99998C6.48219 17.4546 6.94465 17.2576 7.28563 16.9069C7.6266 16.5562 7.81816 16.0805 7.81816 15.5845V12.7793C7.81816 12.2833 7.6266 11.8076 7.28563 11.4569C6.94465 11.1062 6.48219 10.9092 5.99998 10.9092H3.27271V15.5845Z" stroke="#303030" stroke-width="1.4" stroke-linecap="round" stroke-linejoin="round"/>
<path d="M12 23.9999C13.205 23.9999 14.1818 23.0231 14.1818 21.8181C14.1818 20.6131 13.205 19.6362 12 19.6362C10.795 19.6362 9.81818 20.6131 9.81818 21.8181C9.81818 23.0231 10.795 23.9999 12 23.9999Z" fill="#303030"/>
<path d="M14.1818 21.8182C18.5455 21.8182 18.5455 17.4546 18.5455 17.4546" stroke="#303030" stroke-miterlimit="1.5" stroke-linecap="square" stroke-linejoin="round"/>
</svg>
