<svg width="19" height="24" viewBox="0 0 19 24" fill="none" xmlns="http://www.w3.org/2000/svg">
<path fill-rule="evenodd" clip-rule="evenodd" d="M4.15386 3.89614C5.55499 2.55106 7.4612 1.79062 9.45451 1.79062C11.4478 1.79062 13.354 2.55106 14.7552 3.89614C16.1553 5.24029 16.9363 7.0571 16.9363 8.94517V10.209H14.9091C14.2347 10.209 13.5921 10.4847 13.1215 10.9688C12.6515 11.4522 12.3909 12.1037 12.3909 12.7791V15.5843C12.3909 16.2597 12.6515 16.9112 13.1215 17.3946C13.5921 17.8787 14.2347 18.1544 14.9091 18.1544H15.8181C15.868 18.1544 15.9177 18.1529 15.9672 18.1499C15.8999 18.5122 15.7766 18.965 15.5528 19.4126C15.3097 19.8987 14.953 20.3697 14.4272 20.7202C13.9045 21.0686 13.1852 21.318 12.1818 21.318H12.1243C11.8983 20.3539 11.033 19.636 9.99998 19.636C8.795 19.636 7.81816 20.6129 7.81816 21.8179C7.81816 23.0229 8.795 23.9997 9.99998 23.9997C11.0329 23.9997 11.8981 23.282 12.1242 22.318H12.1818C13.3602 22.318 14.2773 22.022 14.9819 21.5522C15.6834 21.0846 16.1448 20.4646 16.4472 19.8598C16.7486 19.257 16.8968 18.6602 16.9705 18.2184C16.994 18.0769 17.0102 17.9499 17.0213 17.8422C17.2348 17.7236 17.432 17.5733 17.6057 17.3946C18.0757 16.9112 18.3363 16.2597 18.3363 15.5843L18.3363 14.1815L18.3363 10.909L18.3363 10.9073V8.94517C18.3363 6.66693 17.3933 4.48808 15.7247 2.8862C14.057 1.28525 11.8011 0.390625 9.45451 0.390625C7.10792 0.390625 4.85197 1.28525 3.18432 2.8862C1.5157 4.48808 0.572693 6.66693 0.572693 8.94517V10.909V14.1815V15.5843C0.572693 16.2597 0.833348 16.9112 1.30333 17.3946C1.77396 17.8787 2.41655 18.1544 3.09087 18.1544H3.99997C4.67429 18.1544 5.31688 17.8787 5.78751 17.3946C6.25749 16.9112 6.51815 16.2597 6.51815 15.5843V12.7791C6.51815 12.1037 6.25749 11.4522 5.78751 10.9688C5.31688 10.4847 4.67429 10.209 3.99997 10.209H1.97269V8.94517C1.97269 7.0571 2.75371 5.24029 4.15386 3.89614ZM1.97269 11.609V14.1815V15.5843C1.97269 15.9009 2.09515 16.2007 2.30712 16.4187C2.51844 16.6361 2.80078 16.7544 3.09087 16.7544H3.99997C4.29006 16.7544 4.5724 16.6361 4.78372 16.4187C4.99569 16.2007 5.11815 15.9009 5.11815 15.5843V12.7791C5.11815 12.4625 4.99569 12.1627 4.78372 11.9447C4.5724 11.7273 4.29006 11.609 3.99997 11.609H1.97269ZM16.9363 11.609H14.9091C14.619 11.609 14.3366 11.7273 14.1253 11.9447C13.9133 12.1627 13.7909 12.4625 13.7909 12.7791V15.5843C13.7909 15.9009 13.9133 16.2007 14.1253 16.4187C14.3366 16.6361 14.619 16.7544 14.9091 16.7544H15.8181C16.1082 16.7544 16.3906 16.6361 16.6019 16.4187C16.8139 16.2007 16.9363 15.9009 16.9363 15.5843V14.1815V11.609Z" fill="#303030"/>
</svg>
