<svg width="25" height="24" viewBox="0 0 25 24" fill="none" xmlns="http://www.w3.org/2000/svg">
<path d="M12.8289 7.37695C11.6057 7.37695 10.4325 7.86412 9.56758 8.73129C8.70261 9.59846 8.21667 10.7746 8.21667 12.001C8.21667 13.2273 8.70261 14.4034 9.56758 15.2706C10.4325 16.1378 11.6057 16.625 12.8289 16.625C14.0522 16.625 15.2253 16.1378 16.0903 15.2706C16.9553 14.4034 17.4412 13.2273 17.4412 12.001C17.4412 10.7746 16.9553 9.59846 16.0903 8.73129C15.2253 7.86412 14.0522 7.37695 12.8289 7.37695ZM12.8289 15.004C12.0343 15.004 11.2721 14.6875 10.7102 14.1241C10.1483 13.5607 9.83256 12.7967 9.83256 12C9.83256 11.2032 10.1483 10.4392 10.7102 9.8758C11.2721 9.31245 12.0343 8.99595 12.8289 8.99595C13.6236 8.99595 14.3858 9.31245 14.9477 9.8758C15.5096 10.4392 15.8253 11.2032 15.8253 12C15.8253 12.7967 15.5096 13.5607 14.9477 14.1241C14.3858 14.6875 13.6236 15.004 12.8289 15.004Z" fill="#303030"/>
<path d="M17.6238 8.28491C18.2176 8.28491 18.6991 7.80227 18.6991 7.20691C18.6991 6.61154 18.2176 6.12891 17.6238 6.12891C17.0299 6.12891 16.5485 6.61154 16.5485 7.20691C16.5485 7.80227 17.0299 8.28491 17.6238 8.28491Z" fill="#303030"/>
<path d="M21.3413 6.11088C21.1104 5.51306 20.7575 4.97017 20.3053 4.51694C19.853 4.06372 19.3114 3.71015 18.715 3.47888C18.0171 3.21624 17.2798 3.07422 16.5345 3.05888C15.574 3.01688 15.2698 3.00488 12.834 3.00488C10.3981 3.00488 10.0859 3.00488 9.13337 3.05888C8.38865 3.07344 7.65189 3.21548 6.95491 3.47888C6.35836 3.70988 5.81657 4.06335 5.36429 4.51661C4.91201 4.96987 4.55923 5.51291 4.32859 6.11088C4.06656 6.8105 3.92523 7.54972 3.91066 8.29688C3.86776 9.25888 3.8548 9.56388 3.8548 12.0069C3.8548 14.4489 3.8548 14.7599 3.91066 15.7169C3.92562 16.4649 4.06626 17.2029 4.32859 17.9039C4.55988 18.5016 4.913 19.0445 5.36539 19.4977C5.81778 19.9509 6.35949 20.3045 6.95591 20.5359C7.65157 20.8091 8.38863 20.9613 9.13536 20.9859C10.0959 21.0279 10.4001 21.0409 12.8359 21.0409C15.2717 21.0409 15.584 21.0409 16.5365 20.9859C17.2817 20.9707 18.019 20.829 18.717 20.5669C19.3132 20.3351 19.8547 19.9812 20.3069 19.5279C20.7591 19.0745 21.1121 18.5316 21.3433 17.9339C21.6056 17.2339 21.7463 16.4959 21.7612 15.7479C21.8041 14.7859 21.8171 14.4809 21.8171 12.0379C21.8171 9.59488 21.8171 9.28488 21.7612 8.32788C21.7496 7.57016 21.6076 6.82013 21.3413 6.11088ZM20.1264 15.6429C20.12 16.2192 20.015 16.7901 19.8162 17.3309C19.6664 17.7198 19.4371 18.0729 19.143 18.3676C18.8489 18.6622 18.4965 18.8919 18.1085 19.0419C17.5751 19.2403 17.0117 19.3455 16.4428 19.3529C15.4952 19.3969 15.2279 19.4079 12.798 19.4079C10.3662 19.4079 10.1179 19.4079 9.15232 19.3529C8.58369 19.3459 8.02052 19.2407 7.48755 19.0419C7.09823 18.8929 6.74445 18.6636 6.44909 18.3688C6.15373 18.0741 5.92337 17.7205 5.77292 17.3309C5.57686 16.7959 5.47199 16.2317 5.46271 15.6619C5.41982 14.7119 5.40984 14.4439 5.40984 12.0079C5.40984 9.57088 5.40984 9.32188 5.46271 8.35288C5.46915 7.77691 5.57408 7.2063 5.77292 6.66588C6.07714 5.87688 6.70056 5.25588 7.48755 4.95388C8.02079 4.75602 8.58379 4.65085 9.15232 4.64288C10.1009 4.59988 10.3672 4.58788 12.798 4.58788C15.2289 4.58788 15.4782 4.58788 16.4428 4.64288C17.0117 4.64974 17.5752 4.75495 18.1085 4.95388C18.4965 5.10416 18.8488 5.33408 19.1429 5.62891C19.4369 5.92374 19.6663 6.27695 19.8162 6.66588C20.0122 7.20083 20.1171 7.76504 20.1264 8.33488C20.1693 9.28588 20.1803 9.55288 20.1803 11.9899C20.1803 14.4259 20.1803 14.6879 20.1374 15.6439H20.1264V15.6429Z" fill="#303030"/>
</svg>
