<svg width="152" height="41" viewBox="0 0 152 41" fill="none" xmlns="http://www.w3.org/2000/svg">
<path fill-rule="evenodd" clip-rule="evenodd" d="M7.00416 10.2118C7.5148 12.6306 9.96585 14.2528 12.8253 13.3385C16.2975 12.247 15.021 8.17728 12.8764 8.00014C12.9275 8.70805 13.2338 9.62241 12.8764 10.1239C12.1104 11.2147 8.99561 9.59246 10.4764 7.02653C11.5487 5.08019 14.3061 4.31334 17.166 4.72623C16.9615 5.69953 15.787 6.7022 15.838 9.7696C15.9401 16.0223 21.7104 18.3818 20.1276 23.6615C21.4549 23.3072 22.2718 22.6292 22.7828 21.7442C23.7016 20.2105 24.11 20.8891 26.1019 20.7119C30.9527 20.299 35.0887 17.4381 35.8036 12.6898C36.4676 9.68104 33.2504 2.39625 26.5613 4.81474C24.4675 5.52259 22.6292 6.9679 22.1188 9.20951C20.8935 14.7836 28.757 17.9396 30.2888 11.4212C29.3694 11.9226 28.859 12.6898 27.7356 12.8963C23.6506 13.6335 24.774 6.79077 29.0125 7.49868C33.6589 8.2359 32.9439 14.5771 28.757 16.7009C25.9993 18.1753 23.3441 17.6152 20.8419 14.8429C18.3403 12.0705 17.8803 5.13913 27.2252 2.30774C24.161 0.950988 19.1572 0.597099 15.5316 1.42289C10.6807 2.51419 6.03398 5.55209 7.00416 10.2118Z" fill="#303030"/>
<path fill-rule="evenodd" clip-rule="evenodd" d="M37.3359 10.9814C38.2037 12.4561 39.1741 14.6387 39.5826 16.7624C39.991 18.6791 40.093 20.6556 39.991 22.16C39.7361 21.9535 39.6845 21.5407 39.6335 21.2749C38.6638 16.261 36.9784 20.8028 31.9746 21.2749C32.9954 20.0656 34.3742 19.7412 35.8041 17.5589C37.0294 15.6709 37.4894 13.3999 37.3359 10.9814Z" fill="#303030"/>
<path fill-rule="evenodd" clip-rule="evenodd" d="M0.00793457 18.146C1.69303 13.9578 5.93119 13.7513 7.76946 13.0141C6.64611 12.3648 6.13547 12.1291 5.67593 12.0997C5.21633 12.0698 4.75679 12.2469 3.58234 12.3648C3.4802 10.9197 4.19505 9.56312 4.45037 8.17725C3.53124 9.23879 2.15256 11.2147 1.38661 13.1027C0.620711 14.99 0.0589729 17.0545 0.00793457 18.146Z" fill="#303030"/>
<path fill-rule="evenodd" clip-rule="evenodd" d="M14.8867 40.3786C9.89881 39.1246 5.95012 36.0046 3.45612 32.5347C1.53374 29.7646 0.494559 26.6738 0.130919 24.4868C-0.960193 17.6345 4.96287 14.0479 10.6782 14.1937C14.0035 14.2812 17.2767 15.8266 18.6275 18.4218C19.1475 19.4132 19.5107 20.9295 19.4068 22.0375C18.9391 29.9104 10.8341 28.365 9.17147 29.5314C8.44406 30.2895 8.85969 31.2809 8.34013 32.0391C7.97643 32.2723 7.04117 31.0185 6.98924 30.2604C6.83332 29.0648 7.61272 28.5108 7.92443 27.7235C4.91094 25.0992 5.8462 21.8334 8.18428 20.1713C9.5871 19.1799 11.3536 18.9467 12.5487 19.9381C13.2761 20.5212 14.0035 21.3669 13.6917 23.0872C11.6654 20.667 9.27539 21.8625 9.43124 23.8453C9.53517 25.3033 11.7693 27.4027 14.3671 25.6824C18.7314 23.1456 15.9259 16.9639 11.0938 16.8763C4.59923 16.7889 2.93657 22.2708 3.66398 26.0323C4.07967 28.1025 4.75509 30.4936 5.53442 31.9224C6.31376 33.3512 8.13228 35.7714 9.5871 36.0046C9.43124 34.6925 8.70384 31.4558 10.0547 30.4061C10.7821 30.9602 10.8341 33.6428 11.3536 34.8383C11.7173 35.7714 13.1721 38.1624 14.3152 37.2293C14.7828 36.5295 12.029 31.5141 14.627 30.5227C15.0426 31.7474 15.3024 33.1179 15.8739 34.3134C17.8482 38.4543 21.953 39.9994 26.2132 38.5123C30.9933 36.8211 36.3966 30.2312 35.0981 27.1403C34.7342 26.2947 33.3318 27.3444 32.8118 28.0442C32.2925 28.7732 32.1887 30.1437 31.8249 30.5811C30.1624 29.7063 31.0972 27.4027 31.461 26.0031C29.1748 25.1284 26.1616 25.3908 24.0315 26.3822C22.5245 27.1111 19.9783 29.2689 20.706 31.8057C21.3292 33.9052 24.2908 35.4215 26.1616 33.497C26.8886 32.7972 27.3047 31.0768 26.317 30.377C25.59 29.8521 24.4985 30.0854 23.9792 31.0185L23.6676 31.6891C23.6154 31.7183 23.6154 31.7766 23.5638 31.8057C23.3038 30.3187 23.1999 29.1231 24.2908 28.3942C27.1486 26.528 31.9287 29.4731 29.2271 34.3718C26.7331 38.9494 19.7706 38.4829 17.9521 33.8761C17.0167 31.5141 17.9005 28.4525 18.9913 26.6446C20.0822 24.8368 21.7969 23.6121 24.2908 22.7665C29.6425 20.9586 35.358 22.125 39.7221 24.3411C39.4628 27.1695 37.4881 31.8932 33.9033 35.3632C29.9541 39.2412 22.9922 42.3322 14.8867 40.3786Z" fill="#303030"/>
<path d="M142.722 21.9023H146.771L144.74 16.1714L142.722 21.9023ZM138.429 27.4197L143.769 13.915H145.716L151.174 27.5784L148.951 27.5897L147.39 23.6452L142.053 23.6427L140.541 27.5897H138.359L138.429 27.4197Z" fill="#303030"/>
<path d="M77.1724 26.956C76.569 27.3852 74.9441 27.8703 72.5938 27.87C70.2434 27.8697 68.2197 27.2454 66.7578 25.9929C65.2958 24.7405 64.5226 23.0244 64.5099 21.125C64.4959 19.0153 65.3338 17.1714 66.9798 15.8223C68.6242 14.4745 70.7046 13.8901 73.2183 13.8901C74.8356 13.8901 76.1779 14.2986 77.2416 14.6728L77.252 16.4335C74.4903 15.4296 71.1287 14.9727 68.7009 17.0186C67.5775 17.9653 67.0278 19.4626 67.0278 21.0436C67.0278 24.2051 69.7264 26.3067 72.7678 26.2356C74.0403 26.2058 75.9742 25.67 77.1778 25.172L77.1724 26.956Z" fill="#303030"/>
<path d="M91.3025 26.8065C90.6991 27.2358 89.0742 27.7209 86.7238 27.7206C84.3735 27.7203 82.3498 27.096 80.8879 25.8435C79.4259 24.5911 78.6527 22.875 78.6401 20.9756C78.626 18.866 79.4639 17.022 81.1099 15.6729C82.7543 14.3251 84.8348 13.7407 87.3484 13.7407C88.9657 13.7407 90.308 14.1493 91.3717 14.5234L91.3821 16.2841C88.6205 15.2802 85.2587 14.8234 82.831 16.8693C81.7077 17.8159 81.1579 19.3131 81.1579 20.8942C81.1579 24.0558 83.8564 26.1574 86.8979 26.0861C88.1704 26.0564 90.1043 25.5206 91.3079 25.0226L91.3025 26.8065Z" fill="#303030"/>
<path fill-rule="evenodd" clip-rule="evenodd" d="M95.3334 21.4818V27.552H93.1315V13.9341H95.3334V19.7995H100.8V13.9341H103.002V27.552H100.8V21.4818H95.3334Z" fill="#303030"/>
<path fill-rule="evenodd" clip-rule="evenodd" d="M113.977 27.1655L113.938 27.552H124.063V25.9151H117.102L124.063 13.9341H113.938V15.5937H120.859L113.977 27.1655Z" fill="#303030"/>
<path fill-rule="evenodd" clip-rule="evenodd" d="M126.328 27.1899L126.288 27.5764H136.414V25.9395H129.452L136.414 13.9585H126.288V15.6181H133.21L126.328 27.1899Z" fill="#303030"/>
<path d="M111.96 27.552H104.623V13.9341H111.96V15.5937H106.787V19.9339H111.96V21.5981H106.787V25.8878H111.96V27.552Z" fill="#303030"/>
<path d="M62.2181 13.9341H60.2207V27.5502H62.2181V13.9341Z" fill="#303030"/>
<path d="M49.1096 27.5495V13.9341H53.0996C54.2802 13.9341 55.6214 14.3218 56.2882 14.9075C57.0318 15.5606 57.4552 16.2981 57.4552 17.4842C57.4552 18.3812 57.1066 19.1127 56.6967 19.6567C56.2855 20.2023 55.5317 20.8808 54.3285 21.1629L58.5311 27.5513H56.0007L52.1926 21.5039L51.2433 21.5721V27.5513L49.1096 27.5495ZM51.2433 19.8365C52.3405 19.8352 53.5458 19.9938 54.4678 19.3064C55.4962 18.5398 55.685 16.9543 54.7521 16.161C54.2563 15.7395 53.6315 15.6582 52.6806 15.6593L51.2433 15.6611V19.8365Z" fill="#303030"/>
</svg>
