<svg width="152" height="41" viewBox="0 0 152 41" fill="none" xmlns="http://www.w3.org/2000/svg">
<path fill-rule="evenodd" clip-rule="evenodd" d="M7.00416 10.2116C7.5148 12.6303 9.96585 14.2526 12.8253 13.3382C16.2975 12.2467 15.021 8.17703 12.8764 7.9999C12.9275 8.70781 13.2338 9.62217 12.8764 10.1236C12.1104 11.2145 8.99561 9.59222 10.4764 7.02628C11.5487 5.07995 14.3061 4.31309 17.166 4.72599C16.9615 5.69929 15.787 6.70196 15.838 9.76936C15.9401 16.022 21.7104 18.3815 20.1276 23.6612C21.4549 23.3069 22.2718 22.629 22.7828 21.7439C23.7016 20.2102 24.11 20.8888 26.1019 20.7117C30.9527 20.2988 35.0887 17.4379 35.8036 12.6896C36.4676 9.68079 33.2504 2.396 26.5613 4.8145C24.4675 5.52234 22.6292 6.96766 22.1188 9.20927C20.8935 14.7833 28.757 17.9393 30.2888 11.4209C29.3694 11.9224 28.859 12.6896 27.7356 12.896C23.6506 13.6332 24.774 6.79053 29.0125 7.49844C33.6589 8.23566 32.9439 14.5769 28.757 16.7006C25.9993 18.1751 23.3441 17.615 20.8419 14.8426C18.3403 12.0702 17.8803 5.13888 27.2252 2.3075C24.161 0.950744 19.1572 0.596855 15.5316 1.42264C10.6807 2.51395 6.03398 5.55185 7.00416 10.2116Z" fill="#303030"/>
<path fill-rule="evenodd" clip-rule="evenodd" d="M37.3359 10.981C38.2037 12.4557 39.1741 14.6383 39.5826 16.762C39.991 18.6786 40.093 20.6552 39.991 22.1596C39.7361 21.9531 39.6845 21.5402 39.6335 21.2745C38.6638 16.2605 36.9784 20.8024 31.9746 21.2745C32.9954 20.0651 34.3742 19.7408 35.8041 17.5585C37.0294 15.6705 37.4894 13.3995 37.3359 10.981Z" fill="#303030"/>
<path fill-rule="evenodd" clip-rule="evenodd" d="M0.00805664 18.1458C1.69315 13.9576 5.93131 13.7511 7.76958 13.0139C6.64623 12.3646 6.13559 12.1289 5.67605 12.0996C5.21645 12.0696 4.75692 12.2468 3.58246 12.3646C3.48032 10.9195 4.19518 9.56294 4.45049 8.17706C3.53136 9.23861 2.15268 11.2145 1.38673 13.1025C0.620833 14.9898 0.059095 17.0543 0.00805664 18.1458Z" fill="#303030"/>
<path fill-rule="evenodd" clip-rule="evenodd" d="M14.8867 40.3783C9.89881 39.1243 5.95012 36.0043 3.45612 32.5344C1.53374 29.7643 0.494559 26.6735 0.130919 24.4865C-0.960193 17.6342 4.96287 14.0476 10.6782 14.1934C14.0035 14.2809 17.2767 15.8263 18.6275 18.4215C19.1475 19.4129 19.5107 20.9291 19.4068 22.0372C18.9391 29.9101 10.8341 28.3647 9.17147 29.5311C8.44406 30.2892 8.85969 31.2806 8.34013 32.0387C7.97643 32.272 7.04117 31.0182 6.98924 30.2601C6.83332 29.0645 7.61272 28.5105 7.92443 27.7232C4.91094 25.0989 5.8462 21.8331 8.18428 20.171C9.5871 19.1796 11.3536 18.9464 12.5487 19.9378C13.2761 20.5209 14.0035 21.3666 13.6917 23.0869C11.6654 20.6667 9.27539 21.8622 9.43124 23.845C9.53517 25.303 11.7693 27.4024 14.3671 25.6821C18.7314 23.1453 15.9259 16.9636 11.0938 16.876C4.59923 16.7886 2.93657 22.2705 3.66398 26.032C4.07967 28.1022 4.75509 30.4933 5.53442 31.9221C6.31376 33.3509 8.13228 35.771 9.5871 36.0043C9.43124 34.6922 8.70384 31.4555 10.0547 30.4058C10.7821 30.9599 10.8341 33.6425 11.3536 34.838C11.7173 35.771 13.1721 38.1621 14.3152 37.229C14.7828 36.5292 12.029 31.5138 14.627 30.5224C15.0426 31.7471 15.3024 33.1176 15.8739 34.3131C17.8482 38.454 21.953 39.9991 26.2132 38.512C30.9933 36.8208 36.3966 30.2309 35.0981 27.14C34.7342 26.2944 33.3318 27.3441 32.8118 28.0439C32.2925 28.7729 32.1887 30.1434 31.8249 30.5808C30.1624 29.706 31.0972 27.4024 31.461 26.0028C29.1748 25.1281 26.1616 25.3905 24.0315 26.3819C22.5245 27.1108 19.9783 29.2686 20.706 31.8054C21.3292 33.9049 24.2908 35.4212 26.1616 33.4967C26.8886 32.7969 27.3047 31.0765 26.317 30.3767C25.59 29.8518 24.4985 30.0851 23.9792 31.0182L23.6676 31.6888C23.6154 31.718 23.6154 31.7763 23.5638 31.8054C23.3038 30.3184 23.1999 29.1228 24.2908 28.3939C27.1486 26.5277 31.9287 29.4728 29.2271 34.3715C26.7331 38.9491 19.7706 38.4826 17.9521 33.8757C17.0167 31.5138 17.9005 28.4522 18.9913 26.6443C20.0822 24.8365 21.7969 23.6117 24.2908 22.7662C29.6425 20.9583 35.358 22.1247 39.7221 24.3407C39.4628 27.1692 37.4881 31.8929 33.9033 35.3629C29.9541 39.2409 22.9922 42.3319 14.8867 40.3783Z" fill="#303030"/>
<path d="M142.722 21.9022H146.771L144.74 16.1714L142.722 21.9022ZM138.429 27.4197L143.769 13.915H145.716L151.174 27.5784L148.951 27.5897L147.39 23.6452L142.053 23.6426L140.541 27.5897H138.359L138.429 27.4197Z" fill="#303030"/>
<path d="M77.1724 26.9558C76.569 27.385 74.9441 27.8701 72.5938 27.8698C70.2434 27.8696 68.2197 27.2452 66.7578 25.9927C65.2958 24.7403 64.5226 23.0242 64.5099 21.1248C64.4959 19.0151 65.3338 17.1712 66.9798 15.8221C68.6242 14.4743 70.7046 13.89 73.2183 13.89C74.8356 13.89 76.1779 14.2985 77.2416 14.6726L77.252 16.4333C74.4903 15.4294 71.1287 14.9725 68.7009 17.0185C67.5775 17.9651 67.0278 19.4624 67.0278 21.0434C67.0278 24.2049 69.7264 26.3065 72.7678 26.2354C74.0403 26.2056 75.9742 25.6698 77.1778 25.1718L77.1724 26.9558Z" fill="#303030"/>
<path d="M91.3025 26.8063C90.6991 27.2356 89.0742 27.7207 86.7238 27.7204C84.3735 27.7201 82.3498 27.0957 80.8879 25.8433C79.4259 24.5909 78.6527 22.8748 78.6401 20.9753C78.626 18.8658 79.4639 17.0217 81.1099 15.6727C82.7543 14.3249 84.8348 13.7405 87.3484 13.7405C88.9657 13.7405 90.308 14.1491 91.3717 14.5232L91.3821 16.2839C88.6205 15.28 85.2587 14.8231 82.831 16.8691C81.7077 17.8157 81.1579 19.3129 81.1579 20.894C81.1579 24.0555 83.8564 26.1572 86.8979 26.0859C88.1704 26.0562 90.1043 25.5204 91.3079 25.0223L91.3025 26.8063Z" fill="#303030"/>
<path fill-rule="evenodd" clip-rule="evenodd" d="M95.3333 21.4816V27.5517H93.1313V13.9339H95.3333V19.7993H100.8V13.9339H103.002V27.5517H100.8V21.4816H95.3333Z" fill="#303030"/>
<path fill-rule="evenodd" clip-rule="evenodd" d="M113.977 27.1655L113.938 27.552H124.063V25.9151H117.102L124.063 13.9341H113.938V15.5937H120.859L113.977 27.1655Z" fill="#303030"/>
<path fill-rule="evenodd" clip-rule="evenodd" d="M126.328 27.1899L126.288 27.5764H136.414V25.9395H129.453L136.414 13.9585H126.288V15.6181H133.21L126.328 27.1899Z" fill="#303030"/>
<path d="M111.96 27.5517H104.623V13.9339H111.96V15.5935H106.787V19.9336H111.96V21.5979H106.787V25.8875H111.96V27.5517Z" fill="#303030"/>
<path d="M62.2181 13.9339H60.2207V27.55H62.2181V13.9339Z" fill="#303030"/>
<path d="M49.1096 27.5495V13.9341H53.0996C54.2802 13.9341 55.6214 14.3218 56.2882 14.9075C57.0318 15.5606 57.4552 16.2981 57.4552 17.4842C57.4552 18.3812 57.1066 19.1127 56.6967 19.6567C56.2855 20.2023 55.5317 20.8808 54.3285 21.1629L58.5311 27.5513H56.0007L52.1926 21.5039L51.2433 21.5721V27.5513L49.1096 27.5495ZM51.2433 19.8365C52.3405 19.8352 53.5458 19.9938 54.4678 19.3064C55.4962 18.5398 55.685 16.9543 54.7521 16.161C54.2563 15.7395 53.6315 15.6582 52.6806 15.6593L51.2433 15.6611V19.8365Z" fill="#303030"/>
</svg>
