<svg width="64" height="12" viewBox="0 0 64 12" fill="none" xmlns="http://www.w3.org/2000/svg">
<path d="M41.1142 6.53439L37.0964 1.28172C36.6036 0.638834 35.8602 0.263515 35.0721 0.263515H31.0972V5.20192C31.0972 6.78042 30.031 8.09673 28.5664 8.09673C27.0864 8.09673 26.0201 6.78042 26.0201 5.20192V0.263515H22.0573C21.3636 0.263515 20.8005 0.852532 20.8005 1.57803V6.5326L16.4719 0.874081C16.1766 0.487988 15.7285 0.261719 15.2546 0.261719C14.3927 0.261719 13.6956 0.992603 13.6956 1.89229V9.11673C13.6956 9.78297 14.2124 10.3235 14.8494 10.3235C15.4864 10.3235 16.0032 9.78297 16.0032 9.11673V4.30403L20.4536 9.89251C20.6734 10.1673 20.9979 10.3271 21.3413 10.3271H21.9543C22.5913 10.3271 23.1081 9.78656 23.1081 9.12032V2.67884H23.6661V5.20192C23.6661 8.43793 25.8278 10.5893 28.5664 10.5893C31.2895 10.5893 33.4512 8.43793 33.4512 5.20192V2.67884H34.0093V9.11853C34.0093 9.78476 34.5261 10.3253 35.1631 10.3253C35.8001 10.3253 36.3169 9.78476 36.3169 9.11853V4.30403L40.7673 9.89251C40.9871 10.1673 41.3116 10.3271 41.655 10.3271H42.268C42.905 10.3271 43.4218 9.78656 43.4218 9.12032V1.47028C43.4218 0.804046 42.905 0.263515 42.268 0.263515C41.631 0.263515 41.1142 0.804046 41.1142 1.47028V6.53439Z" fill="#303030"/>
<path d="M49.2563 0.00742223C46.3185 -0.152403 43.9061 2.28986 43.9061 5.31037C43.9061 8.23571 46.1708 10.6043 48.9833 10.6043C51.9056 10.6043 54.2475 8.01842 54.0329 4.9135C53.8492 2.2755 51.782 0.143902 49.2563 0.00742223ZM49.0691 8.2806C47.4448 8.33088 46.1262 6.98045 46.1262 5.30858C46.1262 3.66723 47.3985 2.32039 48.9833 2.32039C50.6196 2.32039 51.9348 3.78575 51.818 5.52227C51.7167 7.02894 50.5114 8.2375 49.0691 8.2806Z" fill="#303030"/>
<path d="M63.054 0.671191L63.0522 0.669395C62.5371 0.13066 61.701 0.134251 61.1893 0.676578L58.6962 3.31997L56.1259 0.678374C55.6125 0.150413 54.7867 0.154005 54.2767 0.687353L54.2733 0.690944C53.7582 1.22968 53.7616 2.10423 54.2802 2.63937L56.823 5.26301L54.263 7.9513C53.753 8.48824 53.753 9.35561 54.2647 9.89075L54.275 9.90153C54.7849 10.4349 55.6125 10.4385 56.1259 9.90871L58.6962 7.25633L61.1893 9.89973C61.701 10.4421 62.5371 10.4456 63.0522 9.90691C63.5639 9.37177 63.5656 8.5062 63.0557 7.96926L60.5231 5.29713L63.0591 2.60884C63.5673 2.07011 63.5639 1.20454 63.054 0.671191Z" fill="#303030"/>
<path d="M3.88727 7.71287C3.88727 8.44735 3.72587 9.03637 3.40308 9.48172C3.08028 9.92708 2.6476 10.1498 2.10503 10.1498C1.52469 10.1498 1.07655 9.93606 0.758909 9.50686L0.721135 10.0618H0V3.24316H0.784664V5.786C1.10231 5.37476 1.53842 5.16825 2.09645 5.16825C2.65447 5.16825 3.0923 5.38913 3.40994 5.8291C3.72759 6.27086 3.88727 6.87424 3.88727 7.64104V7.71287ZM3.10089 7.61949C3.10089 7.061 2.99787 6.62822 2.79183 6.32294C2.58579 6.01765 2.28875 5.86501 1.90071 5.86501C1.38218 5.86501 1.01131 6.11642 0.784664 6.61924V8.69696C1.02504 9.19978 1.39935 9.45119 1.90929 9.45119C2.28532 9.45119 2.57892 9.29855 2.78839 8.99327C2.99615 8.69158 3.10089 8.23365 3.10089 7.61949Z" fill="#303030"/>
<path d="M6.33136 8.85918L7.40105 5.25863H8.24066L6.39489 10.8022C6.10987 11.6013 5.65487 12 5.03332 12L4.88394 11.9874L4.59034 11.93V11.2637L4.80324 11.2817C5.06938 11.2817 5.27713 11.226 5.42479 11.1129C5.57246 10.9998 5.69608 10.795 5.79223 10.4951L5.96565 10.0067L4.32764 5.25684H5.18442L6.33136 8.85918Z" fill="#303030"/>
</svg>
