<svg width="25" height="24" viewBox="0 0 25 24" fill="none" xmlns="http://www.w3.org/2000/svg">
<g clip-path="url(#clip0_243_1098)">
<path d="M12.4962 2.25391C8.48834 2.25391 4.5274 4.92578 4.5274 9.25C4.5274 12 6.07428 13.5625 7.01178 13.5625C7.3985 13.5625 7.62115 12.4844 7.62115 12.1797C7.62115 11.8164 6.69537 11.043 6.69537 9.53125C6.69537 6.39062 9.086 4.16406 12.1797 4.16406C14.8399 4.16406 16.8087 5.67578 16.8087 8.45312C16.8087 10.5273 15.9766 14.418 13.2813 14.418C12.3087 14.418 11.4766 13.7148 11.4766 12.707C11.4766 11.2305 12.5079 9.80078 12.5079 8.27734C12.5079 5.69141 8.8399 6.16016 8.8399 9.28516C8.8399 9.94141 8.92194 10.668 9.2149 11.2656C8.67584 13.5859 7.57428 17.043 7.57428 19.4336C7.57428 20.1719 7.67975 20.8984 7.75006 21.6367C7.88287 21.7852 7.81647 21.7695 8.01959 21.6953C9.98834 19 9.91803 18.4727 10.8087 14.9453C11.2891 15.8594 12.5313 16.3516 13.5157 16.3516C17.6641 16.3516 19.5274 12.3086 19.5274 8.66406C19.5274 4.78516 16.1758 2.25391 12.4962 2.25391Z" fill="#303030"/>
</g>
<defs>
<clipPath id="clip0_243_1098">
<rect width="15" height="20" fill="white" transform="translate(4.5274 2)"/>
</clipPath>
</defs>
</svg>
