<svg width="19" height="18" viewBox="0 0 19 18" fill="none" xmlns="http://www.w3.org/2000/svg">
<g clip-path="url(#clip0_243_1011)">
<path d="M16.2746 1.75541C15.8281 1.34408 14.0211 0.0327563 9.99216 0.0151782C9.99216 0.0151782 5.24255 -0.269587 2.92927 1.85385C1.64255 3.14057 1.18904 5.02846 1.13982 7.36635C1.0906 9.70424 1.03083 14.0847 5.2531 15.273H5.25662L5.2531 17.0871C5.2531 17.0871 5.22497 17.8218 5.71013 17.9695C6.29372 18.1523 6.63826 17.5933 7.19724 16.9921C7.5031 16.6617 7.92497 16.1765 8.2449 15.8074C11.1347 16.0499 13.3531 15.4945 13.6062 15.4136C14.1898 15.2238 17.491 14.8019 18.0254 10.4214C18.5808 5.90033 17.7582 3.04565 16.2746 1.75541ZM16.7633 10.091C16.3097 13.7472 13.6343 13.9792 13.1422 14.1374C12.9312 14.2042 10.9801 14.6894 8.52966 14.5312C8.52966 14.5312 6.70154 16.7355 6.13201 17.3085C5.94568 17.4949 5.74177 17.4773 5.74529 17.1081C5.74529 16.8656 5.75935 14.0953 5.75935 14.0953C5.75583 14.0953 5.75583 14.0953 5.75935 14.0953C2.18044 13.1038 2.39138 9.37377 2.43005 7.4226C2.46872 5.47143 2.83786 3.87182 3.92771 2.79604C5.88591 1.02065 9.91833 1.28432 9.91833 1.28432C13.325 1.29838 14.9562 2.32494 15.3359 2.66947C16.591 3.74526 17.2308 6.31869 16.7633 10.091ZM11.8765 7.25033C11.8906 7.55268 11.4371 7.57377 11.423 7.27143C11.3843 6.49799 11.0222 6.12182 10.2769 6.07963C9.97458 6.06205 10.0027 5.60854 10.3015 5.62612C11.2824 5.67885 11.8273 6.24135 11.8765 7.25033ZM12.5902 7.6476C12.6254 6.15697 11.6937 4.98979 9.92536 4.85971C9.62654 4.83862 9.65818 4.3851 9.95701 4.40619C11.9961 4.55385 13.0824 5.95658 13.0437 7.65815C13.0402 7.96049 12.5832 7.94643 12.5902 7.6476ZM14.2426 8.11869C14.2461 8.42104 13.789 8.42455 13.789 8.12221C13.7679 5.25697 11.859 3.69604 9.54216 3.67846C9.24333 3.67494 9.24333 3.22494 9.54216 3.22494C12.1332 3.24252 14.2179 5.03197 14.2426 8.11869ZM13.8453 11.5675V11.5746C13.4656 12.2425 12.7554 12.9808 12.0242 12.7453L12.0172 12.7347C11.2754 12.5273 9.5281 11.6273 8.42419 10.7484C7.85466 10.2984 7.33435 9.76752 6.93357 9.25775C6.57146 8.80424 6.20583 8.26635 5.85076 7.61947C5.10193 6.26596 4.93669 5.66127 4.93669 5.66127C4.70115 4.93002 5.43591 4.21986 6.1074 3.84018H6.11443C6.43786 3.67143 6.74724 3.72768 6.95466 3.97729C6.95466 3.97729 7.3906 4.4976 7.57693 4.75424C7.75271 4.9933 7.98826 5.37651 8.1113 5.59096C8.32576 5.97416 8.19216 6.3644 7.98122 6.52612L7.55935 6.86362C7.3449 7.03588 7.37302 7.3558 7.37302 7.3558C7.37302 7.3558 7.9988 9.72182 10.3367 10.3195C10.3367 10.3195 10.6566 10.3476 10.8289 10.1331L11.1664 9.71127C11.3281 9.50033 11.7183 9.36674 12.1015 9.58119C12.6183 9.87299 13.2758 10.3265 13.7117 10.7378C13.9578 10.9382 14.014 11.2441 13.8453 11.5675Z" fill="#303030"/>
</g>
<defs>
<clipPath id="clip0_243_1011">
<rect width="18" height="18" fill="white" transform="translate(0.665039 0.000976562)"/>
</clipPath>
</defs>
</svg>
