<svg width="19" height="20" viewBox="0 0 19 20" fill="none" xmlns="http://www.w3.org/2000/svg">
<g clip-path="url(#clip0_243_1006)">
<path d="M15.6312 3.79395C13.9477 2.15332 11.7057 1.25098 9.32313 1.25098C4.40527 1.25098 0.403488 5.1416 0.403488 9.92285C0.403488 11.4502 0.813309 12.9424 1.59277 14.2588L0.327148 18.751L5.05617 17.5439C6.35795 18.2354 7.82447 18.5986 9.31911 18.5986H9.32313C14.237 18.5986 18.3271 14.708 18.3271 9.92676C18.3271 7.61035 17.3146 5.43457 15.6312 3.79395ZM9.32313 17.1377C7.9892 17.1377 6.6834 16.79 5.54634 16.1338L5.27715 15.9775L2.47268 16.6924L3.22001 14.0322L3.04322 13.7588C2.29992 12.6104 1.91018 11.2861 1.91018 9.92285C1.91018 5.9502 5.23697 2.71582 9.32715 2.71582C11.308 2.71582 13.1682 3.46582 14.5664 4.8291C15.9646 6.19238 16.8245 8.00098 16.8205 9.92676C16.8205 13.9033 13.4093 17.1377 9.32313 17.1377ZM13.3892 11.7393C13.1682 11.6299 12.0713 11.1064 11.8664 11.0361C11.6615 10.9619 11.5129 10.9268 11.3642 11.1455C11.2155 11.3643 10.7896 11.8486 10.6571 11.9971C10.5285 12.1416 10.3959 12.1611 10.1749 12.0518C8.8651 11.415 8.00527 10.915 7.14143 9.47363C6.91242 9.09082 7.37045 9.11816 7.79634 8.29004C7.86867 8.14551 7.83251 8.02051 7.77626 7.91113C7.72001 7.80176 7.27402 6.73535 7.0892 6.30176C6.9084 5.87988 6.72358 5.93848 6.58697 5.93066C6.4584 5.92285 6.30974 5.92285 6.16108 5.92285C6.01242 5.92285 5.77134 5.97754 5.56643 6.19238C5.36152 6.41113 4.78697 6.93457 4.78697 8.00098C4.78697 9.06738 5.58652 10.0986 5.69501 10.2432C5.80751 10.3877 7.26599 12.5752 9.50393 13.5166C10.9182 14.1104 11.4727 14.1611 12.1798 14.0596C12.6097 13.9971 13.4977 13.5361 13.6825 13.0283C13.8673 12.5205 13.8673 12.0869 13.8111 11.9971C13.7588 11.8994 13.6102 11.8447 13.3892 11.7393Z" fill="#303030"/>
</g>
<defs>
<clipPath id="clip0_243_1006">
<rect width="18" height="20" fill="white" transform="translate(0.327148 0.000976562)"/>
</clipPath>
</defs>
</svg>
